<svg xmlns="http://www.w3.org/2000/svg" id="Layer_1" x="0" y="0" version="1.1" viewBox="0 0 500 500" xml:space="preserve" fill="currentColor" aria-hidden="true">
  <style>
    .st0{fill:#ef4723}
  </style>
  <path d="M216.45 386.41c-1.34-.72-2.68-1.2-3.72-2.05-1.14-.93-2.35-2.03-2.94-3.33-11.29-24.5-22.41-49.08-33.75-73.57-4.4-9.5-9.41-18.71-13.81-28.2-4.06-8.78-7.66-17.78-11.5-26.66-1.08-2.5-2.31-4.94-3.73-7.97 3.37-5.83 3.02-13.17 4.28-20.16 1.31-7.26 2.66-14.52 3.86-21.8 1.6-9.71 3.08-19.44 4.62-29.16.43-2.73.62-5.54 1.44-8.16.77-2.47 1.02-5.08 4.06-6.76 2.47-1.37 3.91-4.6 5.74-6.91-4.78-4.75-7.91-10.25-10.01-16.36-.65-1.89-1.15-3.83-1.59-5.78-.73-3.2-.77-6.32.52-9.5 1.54-3.8 3.97-6.08 8.15-6.38 4.53-.33 8.59.3 11.35 4.51 4.44 6.79 8.98 13.52 13.46 20.24.27 0 .49.07.57-.01 3.99-4.16 7.72-2.22 11.78.13 15.08 8.74 30.25 17.32 45.43 25.89 8.96 5.07 18.03 9.96 26.98 15.04 3.04 1.72 5.89 3.78 8.8 5.73.61.41 1.26.94 1.58 1.57 6.18 12.38 12.23 24.83 18.48 37.18 8.64 17.05 17.34 34.08 26.19 51.03 5.42 10.37 11.15 20.58 16.77 30.84.51.93 1.37 1.66 1.97 2.56 1.31 1.99 2.12 4.04 1.2 6.52-1.28 3.44-2.19 7.04-3.61 10.41-1.62 3.84-5.23 5.59-8.81 7.03-6.73 2.7-13.6 5.03-20.31 7.76-21.42 8.7-42.85 17.36-63.18 28.52-9.16 5.03-18.76 9.27-28.28 13.62-3.77 1.72-7.83 2.75-11.99 4.18zm-34.19-115.16c-.55-.22-1.1-.45-2.56-1.04 1.14 2.25 1.84 3.63 2.55 5.01l.85.7c.49 4.86 2.47 9.03 5.68 12.67.41.46.76 1.11.85 1.71.69 4.9 3.61 8.43 7.28 11.62-1.56-4.3-3.13-8.59-4.69-12.89.28-.15.55-.3.83-.45.75 2.53 1.82 4.65 4.68 4.21 2.72-3.08 3.04-6.26 1.06-9.75-.66-1.16-.8-2.61-1.17-3.93.66 1.16 1.71 2.25 1.92 3.48.45 2.66 2.42 4.54 3.37 6.97.79 2.03 1.7 3.86 1.68 6.07-1.1-1.82-2.19-3.63-3.4-5.62-2.78 3.61-3.65 7.28-1.29 11.42.67 1.18.96 2.57 1.45 3.84 1.25 3.01 2.49 6.02 3.77 9.12.85-3.79.45-7.23-2.03-10.53-.7.61-1.26 1.09-1.82 1.57.18-2.07.36-4.14.55-6.23 2.1-1.04 2.1-1.04 2.67-3.69.77.04 1.57.23 2.29.07.81-.18 1.55-.69 2.32-1.05-.86 1.92-3.46 3.03-2.69 5.71-1.05 2.76-.43 7.01 1.38 9.37 2.33-1.13 1.88-2.75.8-4.49.66.36 1.31.71 2.31 1.25 0-2.08.11-3.91-.03-5.72-.12-1.55-.53-3.07-.81-4.6.3-.04.6-.08.9-.11l1.41 9.33c.44-.04.87-.09 1.31-.13v-3.26c.61 2.63 1.23 5.26 1.82 7.9.58 2.62 4.13 4.68 5.32 2.9 1.2-1.81 2.12-1.1 3.27-1.14 1.09-.04 2.18.08 3.51.14.09-1.29.17-2.58.27-4.01.64.57 1.14 1.01 1.77 1.56.48-.9.88-1.66 1.28-2.41 1.14.83 2.19 1.6 3.17 2.32-.67 1.09-1.22 1.97-1.77 2.86 2.24.18 3.93-.34 5.6-.91 1.56-.54 3.1-1.13 4.66-1.7l-.08-.09c-1.7 2.86-4.77 3.55-7.55 4.6-2.34.88-4.16 1.94-3.3 5.66-1.07-1.41-1.57-2.07-2.24-2.94-.89.78-1.62 1.41-2.39 2.08-.3-.56-.59-1.08-.88-1.63 1.24-.5 3.07-.42 2.16-3.16h-16.19c.44 4.88 1.51 10.1.67 15.43-.25 1.58.39 3.33.79 4.96.48 1.9 1.06 3.79 1.75 5.63.67 1.76 1.53 3.45 2.34 5.24l2.34-1.13c.53 3.01.82 5.94 1.58 8.73.8 2.93 2.04 5.73 3.08 8.58 4.95-1.55 5.71-2.23 6.14-4.78 3.38-.61 6.54-1.18 9.55-1.72.11.95.17 1.43.3 2.52 36.49-12.36 70.75-28.62 105.65-44.86-5.81-3.62-8.57-9.11-13.31-13.28-3.38 1.81-6.71 4.25-10.44 5.42-4.16 1.31-5.97 5.02-8.97 7.47 3.22-8.86 11.99-10.46 18.98-14.42-2.38-7.14-4.54-13.85-8.99-19.68-1.62-2.12-3.55-4.1-4.89-6.33-2.61-4.34-4.62-9.05-6.73-13.68-.55-1.21-.57-2.65-.83-3.99l-1.71-3.9c-1.89-8.62-7.05-15.74-10.71-23.58-.21.84-.01 1.54.14 2.24 1.45 6.85 5.4 12.61 8.28 18.83-.73.24-1.86-2.5-2.24.3l.1-.1c-.38-.35-.92-.63-1.13-1.07-3.42-7.12-6.81-14.26-10.17-21.41-1.41-3.01-2.75-6.06-4.11-9.08 1.85 2.74 3.7 5.47 5.71 8.45-.88-6.27-3.74-11.46-7.52-14.06.62 1.83 1.28 3.79 1.94 5.74-.57-.65-1.36-1.21-1.68-1.96-1.65-3.93-3.18-7.92-4.75-11.88 1.27 1.16 2.54 2.32 3.8 3.48a36.31 36.31 0 00-3.37-7.99c-1.29-2.27-2.75-4.47-4.43-6.47-.78-.92-2.23-1.27-3.38-1.88-.18-.7-.17-1.87-.57-2.04-3.49-1.46-7.05-2.74-10.78-4.15l.33 3.44c-.91-.79-1.91-1.49-2.71-2.38-3.47-3.84-6.89-7.72-10.32-11.6-1.55-1.75-3.22-3.23-5.88-3 1.22 1.05 2.45 2.1 4.06 3.49-5.59.27-4.25 4.8-5.48 8.21-.94-1.01-1.5-1.62-2.06-2.22 3.32-4.8 3.39-5.5.75-7.75-1.19 1.06-2.38 2.13-3.57 3.19.59-1.39 1.18-2.79 1.93-4.57-4.36-2.37-7.07-7.24-12.58-8.78.19 1.13.3 1.77.53 3.12-4.41-3.66-8.31-6.89-12.21-10.13l-.4.43c2.1 2.41 4.19 4.82 6.29 7.23-.67-.37-1.46-.63-1.99-1.14-3.73-3.67-7.38-7.41-11.12-11.08-1.19-1.17-2.45-2.32-3.86-3.18-.63-.39-1.71-.07-3.11-.07 1.71 2.12 2.89 3.59 4.08 5.06-.24.2-.47.4-.71.6-1.31-1.4-2.78-2.68-3.88-4.22-1-1.41-1.61-3.1-2.55-4.97-.85.48-1.95 1.11-3.27 1.86 2.01 3.03 3.81 5.7 5.58 8.39 1.12 1.71 2.34 2.86 4.68 3.19 2.31.32 4.47 1.82 6.64 2.77.11 1.6.28 2.82.27 4.04-.07 4.46-3.99 10.72-7.6 11.84-2.34.72-4.78 1.3-7.21 1.47-2.61.19-4.76 1-6.59 2.84-1.41 1.43-2.85 2.83-4.33 4.18-2.98 2.71-3.45 6.06-2.82 10.79 2.86-2.98 5.04-5.5 7.48-7.73 2.51-2.28 4.82-4.51 3.61-8.58.33.03.66.05.98.08 1.21 3.49 2.42 6.99 3.67 10.58 3.13-1.82 4.18-5.23 7.58-6.14-2.82 7.21-3.14 8.01-7.02 11.3-2.33 1.97-5.03 3.5-7.57 5.22-.38-2.75 1.95-4.01 3.22-5.84.69-1 1.45-1.95 2.18-2.92-2.22-1.38.75-4.88-2.71-5.98-3.6 3.8-7.63 7.45-10.85 11.71-1.7 2.24-1.99 5.55-2.92 8.38-.4-1.81 1.54-4.06-1.02-5.48 1.71-2.43 2.35-5.14 2.18-8.07-.08-1.36-.17-2.72-.25-4.07-.11-3.49-3.87-5.31-3.8-9.12-.66.59-1.03.91-1.4 1.24-.28-2.21 1.25-4.86-1.91-6.91-.66 3.96-1.89 7.59-1.68 11.12.22 3.57-2.31 7.15.55 10.8.46-1.42.91-2.84 1.4-4.36.28.6.46 1 .54 1.17 2.14-1.33 4.22-2.63 6.28-3.92-1.17 1.39-2.4 2.73-3.5 4.18-2.03 2.69-1.25 6.11 1.72 7.8-.77 2.25-1.53 4.5-2.23 6.54-2.36-1.93-2.04-4.57-1.64-7.29.19-1.29.03-2.63.03-3.95-.28-.08-.57-.15-.85-.23-.51 1.53-1.02 3.05-1.53 4.57-.16-.55-.31-1.08-.49-1.7-3.95 4.76-5.9 11.82-4.68 16.68.24-.52.47-1.04.45-1 0 4.43 0 9.36-.01 14.29-3.03-.15-1.66 2.17-1.77 3.47-.03.39 1.2.89 2.54 1.82-.42-2.51-.67-3.96-.91-5.42.68.92 1.36 1.84 2.09 2.81.96-.73 1.77-1.35 2.58-1.97 1.67 10.45 3.33 20.9 4.98 31.31-2.8-2.48-2.75-2.5-3.59-6.14-.45-1.94-.59-4.34-1.82-5.65-3.16-3.4-5.05-7.33-6.52-11.61-.37-1.08-1.2-1.99-1.95-3.18-1.25 2.6.63 4.05 1.02 5.82 1.26 5.73 4.4 10.5 6.92 15.6.94 1.91 1.45 4.03 2.14 6.03-.57-.63-1.15-1.26-1.72-1.89-.18.09-.36.18-.53.27 1.07 2.55 2.15 5.09 3.22 7.64.28-.1.56-.21.85-.31-.64-1.94-1.27-3.88-1.91-5.83 1.87-.39 2.23.76 2.43 2.25.12.88.51 1.73.79 2.59.22-.05.43-.1.65-.14v-5.52c.92 1.93 3.69 2.79 2.69 6.32 2.07-1.51 3.31-2.83 4.83-3.44 2.56-1.02 3.57-2.65 3.25-5.29-.02-.17.34-.39.56-.62.62.42 1.22.83 1.99 1.35l4.41-4.35.75.81c-1.57 1.6-3.22 3.14-4.67 4.85-.51.6-.93 1.77-.68 2.38.26.62 1.38 1.18 2.16 1.24 2.65.21 5.22-.1 7.02-2.34-.44-1.76-.84-3.38-1.24-5.01 1.44 1.49 2.41 3.09 2.88 4.83 1.31 4.84 2.41 9.74 3.6 14.61-.64-1.62-1.34-3.23-1.92-4.87-.86-2.46-1.64-4.96-2.54-7.71-1.72.97-2.87 1.63-4.03 2.28-1.94-.32-3.87-.65-5.98-1 1.4 3.69 1.72 3.79 5.06 1.99-.78 2.58 1.91 1.36 2.72 2.2-1.89 1.45-3.64 2.76-6.65 1.33 1.14 3.38 2.06 5.89 2.82 8.45.2.69-.09 1.52-.14 2.31-.41.92-1.08 1.82-1.18 2.77-.27 2.53-.3 5.09-.42 7.63-1.14-4.69-1.56-9.36-1.9-14.03-.12-1.69-.01-3.42-2.09-4.08 2.07-4.48 1.31-5.87-4.37-7.63-.95.85-2.01 1.79-4.2 3.75 5.87.02 3.33 4.01 4.66 6.16.95-.38 1.8-.71 2.65-1.05-.69 1.66-1.75 3.27-1.99 4.99-.33 2.37-.03 4.83 0 7.24-.32.01-.64.02-.97.04-.29-2.89-.32-5.84-.94-8.65-.66-2.95-1.89-5.77-2.88-8.64l-.94-.03c-.31 1.23-.63 2.47-.94 3.7l.15-.1zm28.33 47.13c.17-1.51.44-3.01.48-4.52.05-1.78-1.08-2.15-2.85-1.97.87 2.34 1.67 4.46 2.46 6.58-1.18-1.68-2.37-3.36-3.93-5.58.11 5.2 1.12 9.4 4.06 13.51 1.21-1.89 1.11-3.39.5-5.01-.34-.94-.46-1.97-.72-3.01zm-31.61-149.44c2.08.06 3.52.95 4 3.09.56 2.47 2.26 4.04 4.41 5.05 1.53.72 2.31-.13 2.35-1.77-1.39-1.16-2.79-2.34-4-3.35 3.52-8.71 2.39-14.38-3.5-19.34-2.36.61-2.28 2.81-2.56 4.48-.58 3.48-.76 7.02-1.1 10.54-1.92 1.3-.18 2.09.62 3.01-.08-.57-.15-1.14-.22-1.71zm4.38 131.87c.28-.1.56-.19.84-.29-.91-2.86-1.57-5.83-2.78-8.56-2.33-5.29-4.99-10.45-7.48-15.68-2.58-5.42-5.17-10.84-7.66-16.31-2.34-5.13-4.56-10.31-6.79-15.49-.28-.66-.37-1.45-.39-2.19-.16-8.04-.72-16.12 2.55-23.8.23-.55.19-1.22.29-1.82 2.37-13.66 4.75-27.32 7.09-40.99.82-4.8 1.52-9.63 2.33-14.82-3.25 1.89-4.01 3.04-4.81 6.73-1.1 5.02-1.56 10.15-2.86 15.16-1.39 5.34-1.95 10.9-2.84 16.37-2.13 13.07-4.31 26.13-6.33 39.22-.6 3.86-1.58 7.9 1.64 11.27.2.21.27.55.38.84 2.76 6.69 5.33 13.47 8.32 20.06 4.13 9.11 8.55 18.08 12.87 27.1 2.52 5.27 5.09 10.53 7.61 15.8 2.46 5.14 4.81 10.34 7.34 15.44 4.37 8.83 8.77 17.66 13.29 26.41 3.76 7.28 7.72 14.45 11.6 21.67 1.09-1.23 1.67-2.39 1.34-3.18-2.02-4.79-4.25-9.48-6.4-14.21-5.42-11.92-10.77-23.88-16.3-35.76-2.29-4.92-4.21-10.04-8.2-14.11-1.13-1.15-2.86-.94-3.41-2.22-1.44-3.37-2.64-6.83-3.94-10.26.21-.09.43-.17.64-.26.7 1.3 1.38 2.59 2.06 3.88zm159.21 22.71c-.02-.35-.03-.7-.05-1.04-1.33-.22-2.79-.91-3.95-.56-2.93.89-5.76 2.17-8.57 3.43-12.37 5.53-24.75 11.02-37.06 16.69-6.13 2.83-12.04 6.14-18.16 8.98-6.97 3.23-14.06 6.19-21.11 9.25-.84.37-1.75.57-2.61.92-8.7 3.56-17.45 7.03-26.08 10.76-2.28.99-4.28 2.76-4.33 6.54 1.98-.65 3.43-.99 4.75-1.59 8.42-3.86 16.86-7.67 25.2-11.7 11.38-5.5 22.53-11.49 34.04-16.69 13.34-6.03 26.98-11.38 40.45-17.12 5.89-2.5 11.66-5.24 17.48-7.87zM167.61 120.33c.91.82 1.35 1.21 1.78 1.61 5.13 4.85 10.46 9.55 13.72 15.96 3.77 7.39 7.36 14.87 11.05 22.3.77 1.55 1.45 3.21 3.4 4.39.55-4.06.12-7.32-1.83-10.55-6.18-10.26-12.4-20.48-19.9-29.85-1.82-2.26-4-4.29-8.22-3.86zm12.25 25.37c-4.12-6.07-6.5-12.75-13.5-16.29 1.21 7.45 5.36 12.92 9.36 18.8 1.34-.81 2.47-1.5 4.14-2.51zm26.7 16.61c-3.41 5.88-7.1 10.14-13.89 5.35.23 3.39.8 4.41 3.14 4.05 2.95-.45 5.99-1.25 8.62-2.63 2.02-1.06 3.42-3.24 2.13-6.77zm-22.47 21.44c3.5-.26 4.1-2.2 3.65-4.94-1.37-.69-2.8-1.4-4.81-2.41.45 2.81.79 5 1.16 7.35zm-11.34 50.03c-.33-.04-.67-.08-1-.11-.09.59-.24 1.18-.2 1.75.01.13.67.21 1.04.32.04-.65.1-1.31.16-1.96zm1.33 1.07c.25-.1.49-.2.74-.3-.21-1-.43-2-.64-2.99-.27.06-.55.11-.82.17l.72 3.12z" class="st0"/>
  <path d="M251.6 214.18c-.89 3.36-2.22 6.66-2.59 10.08-1.51 14.06-2.75 28.16-4.05 42.24-.65 7.04-1.34 14.09-1.78 21.15-.18 2.89.18 5.82.4 8.72.16 2.18-1.48 4.39-3.34 3.88-3.37-.94-6.64-2.22-9.92-3.46-.69-.26-1.23-.92-1.6-1.21 2.57-29.68 5.09-58.91 7.63-88.24 2.7-.94 4.92-1.71 7.44-2.59.78.53 1.84 1.52 3.09 2.07 4.87 2.13 4.89 2.08 4.56 7.51.01 0 .16-.15.16-.15zm-10.25-3.79c-.32.86-.57 1.27-.61 1.7-1.32 13.94-2.62 27.88-3.91 41.83-.95 10.27-1.9 20.54-2.77 30.82-.22 2.61-.27 5.24-.12 7.85.03.59 1.11 1.36 1.84 1.57.46.13 1.48-.49 1.72-1.01.56-1.24 1.02-2.6 1.15-3.95 1.5-15.17 2.81-30.35 4.41-45.51 1.01-9.61.76-19.39 3.56-28.78.29-.96.04-2.07.04-3.53-1.87-.35-3.59-.67-5.31-.99zM258.61 269.6c.23-10.31 4.39-17.58 9.75-24.24 2.87-3.56 10.88-4.23 14.92-2.01 9.05 4.97 11.69 13.03 10.85 22.59-.29 3.31-1.62 6.53-2.45 9.79-1.82 7.11-15.14 11.51-21.49 8.57-2.61-1.21-5.36-2.45-7.49-4.32-3.44-3.02-4.49-7.21-4.09-10.38zm4.18-.86c.79 2.57.89 5.77 2.53 7.58 3.42 3.81 8.2 5.38 13.38 4.22 2.99-.67 6.08-1.76 7.61-4.74 3.79-7.34 4.93-14.99.85-22.51-4.59-8.46-12.94-8.52-17.97-1.95-3.68 4.78-6.1 10.71-6.4 17.4zM206.39 258.84c-5.16.84-8.37-1.96-10.24-5.47-3.51-6.55-5.96-13.55-4.1-21.27 1.08-4.47 3.38-8.22 6.72-11.29 1.57-1.44 3.71-2.33 5.11-3.9 3.22-3.63 6.48-2.57 9.9-.6 1.2.69 2.35 1.48 3.56 2.15 5.78 3.23 7.48 9.01 8.08 14.78.45 4.3-.46 8.91-1.56 13.17-1.97 7.61-7.71 11.12-15.14 12.27-.9.15-1.84.13-2.33.16zm14.67-22.27c-.99-7.5-2.76-13.35-9.28-16.54-1.53-.75-2.83-.8-4.32.01-5.65 3.06-9.97 7.16-11.1 13.83-1.21 7.15 1.49 13.32 5.01 19.21.55.92 1.92 1.76 3 1.89 5.41.63 11.38-1.77 13.49-6.85 1.63-3.93 2.32-8.24 3.2-11.55zM256.38 346.49c-4.33 2.52-8.66 5.03-13.89 8.07.63-1.58.89-2.26 1.16-2.93-.61-.43-1.2-.86-2.09-1.49.82-.86 1.5-1.57 2.24-2.34-.99-.26-1.95-.5-3.55-.91 1.68-1.27 2.93-2.22 4.29-3.25.49 2.17 1.65 1.83 2.91 1.21 3.44-1.7 7.82-1.1 10.62-4.36 4.92.2 8.85-2.63 12.39-5.17 4.12-2.95 9.11-3.98 13.03-7.09.4-.32 1.16-.2 1.75-.28l-.07-.09c-.47.53-.85 1.22-1.44 1.57-3.53 2.14-7.12 4.18-10.65 6.32-.74.45-1.31 1.18-1.95 1.77 5.61-2.16 10.84-4.64 16.09-7.08 1.68-.78 2.68-1.97 2.69-3.88l.81-.45c.46.58.93 1.16 1.56 1.96 12.35-5.25 25.2-9.54 36.78-16.8 1.88 1.44 1.88 1.44 7.75 1.17-3.62 1.41-7.39 2.53-10.83 4.3-6.28 3.23-13.1 4.88-19.65 7.3-3.7 1.36-7.91 2.59-10.57 5.22-4.34 4.29-10.58 4.74-14.87 8.72-6.03.73-10.26 5.13-15.46 7.56-.75.35-1.65.44-2.49.52-2.24.23-4.48.4-6.72.59 2.02-1.51 4.04-3.01 6.05-4.51-3.42 1.26-7.52 1.01-10.27 4.92 1.8-.24 3.09-.4 4.38-.57zM219 323.37c.26 1.12.52 2.23.79 3.38.88-.21 1.59-.37 2.34-.55-1.14 2.99-1.45 3.61.28 5.79 2.19 2.76 2.53 6.19 4.17 9.15 1.65 2.99 2.21 6.58 3.29 9.89.47 1.43.51 2.58-.9 3.62-.78.58-1.21 1.64-1.95 2.7-1.43-2.17-2.5-3.94-2.38-6.97.13-3.14-1.59-6.56-3.17-9.49-1.41-2.62-2.76-4.99-2.41-8.1.06-.51-1.08-1.16-1.97-2.06.33-1.85.81-4.51 1.28-7.16.22-.06.42-.13.63-.2zM264.73 186.75c3.44 1.22 4.59 4.67 6.88 7.01 2.33 2.38 4.77 4.64 7.16 6.95-.35 1.78-.69 3.56-1.2 6.19-1.74-6.32-5.2-10.33-9.93-13.32-.19-.12-.65-.01-.69-.12-.77-2.23-1.49-4.47-2.22-6.71zM290.5 236.24c-1.57.96-1.79-.41-2.18-1.32-1.93-4.52-3.81-9.07-5.73-13.59-.53-1.25-1.16-2.46-1.34-4.18.6.61 1.43 1.11 1.75 1.84 2.07 4.79 4.01 9.64 6.03 14.45.41.97.96 1.87 1.44 2.81l.03-.01zM312.53 268.17c-2.13-3.57-4.39-7.09-4.77-11.39 1.98 3.63 4.39 7.09 4.77 11.39z" class="st0"/>
  <path d="M290.47 236.25c.98 3.01 1.96 6.02 3.06 9.42-3.04-3.77-3.75-6.11-3.04-9.42.01-.01-.02 0-.02 0zM269.98 264.39c.16-4.26 1.95-6.4 6.12-6.53 1.79-.05 3.61.55 5.41.9 2.64.51 3.51 2.51 3.42 4.8-.07 1.97-.49 4-1.18 5.85-1.07 2.9-2.93 5.08-6.42 5.08-2.47 0-5.32-2.14-6.39-5.17-.55-1.56-.65-3.28-.96-4.93zm9.67-1.7c-.7-.06-1.43-.2-2.15-.17-1.55.07-2.92.89-2.7 2.44.23 1.67 1.19 3.26 1.98 4.81.04.09 1.82-.29 2.15-.84 1.08-1.84 1.71-3.86.72-6.24zM216.41 239.02c-.05.57-.12 1.65-.24 2.72-.32 2.9-1.86 4.74-4.72 5.53-2.96.81-5.6.28-7.52-2.1-2.25-2.79-3.26-6.21-4-9.68-.11-.52.12-1.2.38-1.71 1.55-3.13 7.4-6.04 10.57-5.31 3.22.74 5.38 4.12 5.52 8.66.02.46.01.92.01 1.89zm-6.47-6.45c-3.96 1.64-5.17 3.16-4.76 5.57.5 2.9 2.12 4.37 5.15 4.48.7-3.24 1-6.45-.39-10.05z" class="st0"/>
</svg>
