<svg xmlns="http://www.w3.org/2000/svg" id="Layer_1" x="0" y="0" version="1.1" viewBox="0 0 500 500" xml:space="preserve" fill="currentColor" aria-hidden="true">
  <style>
    .st0{fill:#ef4723}
  </style>
  <path d="M277.7 203.48c.01-.07.02-.13.04-.2-.04.04-.08.08-.11.12l.07.08zM283.56 204.15c.01-.07.02-.14.04-.21-.04.04-.08.09-.12.13l.08.08zM173.59 191.69c0 .05-.01.1-.01.14.03-.03.07-.06.1-.09l-.09-.05zM266.42 264.13h-.05c-.01.02-.02.05-.03.07l.08-.07zM157.78 187c.01-.08.02-.16.04-.24-.04.05-.08.1-.11.16l.07.08zM168.35 290.63c.04-.16.08-.31.11-.47-.07.13-.14.26-.2.39l.09.08zM275.74 340v-.02c0 .01-.01.01-.01.02h.01zM275.21 360.32c.03 0 .06.01.08.01 0-.03-.01-.06-.01-.08l-.07.07z" class="st0"/>
  <path d="M378.29 142.64c-5.36-.45-11.13-.96-16.91-1.43-7.52-.61-15.05-1.1-22.56-1.8-12.18-1.13-24.34-2.42-36.51-3.58-1.71-.16-3.49.12-3.86-1.66-2.75.3-5.15.72-7.55.77-1.61.03-2.83.3-3.81 1.69-.92 1.31-2.21 1.61-3.91 1.36-3.15-.46-6.37-.49-9.55-.78-1.55-.14-3.09-.47-4.51-.69-.57-4.07-.69-4.1-4.04-4.28-5.18-.27-10.38-.52-15.54-1.04-10.93-1.1-21.83-2.4-32.76-3.55-11.55-1.22-23.1-2.43-34.67-3.45-2.08-.18-4.4-.27-6.27 1.42-4.04 3.65-8.11 7.27-12.26 10.79-6.49 5.49-13.11 10.82-19.53 16.39-.95.82-1.34 2.5-1.6 3.86-.3 1.56-.06 3.21-.25 4.8-1.55 12.83-3.17 25.66-4.73 38.49-.67 5.52-1.25 11.05-1.89 16.57-.78 6.75-1.63 13.49-2.32 20.25-.21 2.01-.12 4.08.11 6.09.05.48 1.17 1.05 1.88 1.19 2.28.44 2.61.8 2.4 3.06-.46 4.92-.88 9.84-1.36 14.75-.08.81-.38 1.59-.58 2.42-2.44.22-4.96-1.18-6.5.87.52 10.15-1.86 19.68-2.83 29.33-.99 9.83-2.28 19.63-3.43 29.45-1.13 9.64-2.26 19.29-3.44 29.3.64.21 1.2.5 1.79.58 3.67.5 7.34 1.21 11.03 1.35 3.77.14 7.43 1.02 11.19 1.25 7.14.45 14.25 1.46 21.37 2.27 7.97.91 15.96 1.77 23.91 2.82 7.09.93 14.3.86 21.25 2.84 1.9.54 2.94-.16 3.72-2.04.21-.49.35-1.01.4-1.15 2.65.5 4.9 1.18 7.18 1.31 3.42.19 6.86-.01 10.29-.01.19 0 .37.26.66.47-.1.84-.2 1.75-.31 2.78 4.52.53 8.79 1.26 13.08 1.43 2.02.08 2.99 1.06 3.99 2.78 1.15-2.03 2.73-1.97 4.36-1.65 3.25.63 6.49 1.77 9.75 1.84 8.65.2 17.21 1.07 25.77 2.27 9.05 1.27 18.16 2.06 27.24 3.04 1.69.18 3.38.45 5.07.43 3.32-.04 5.01-2.69 7.23-4.61 10.1-8.76 20.2-17.52 30.58-25.93 2.13-1.73 3.22-3.43 3.6-5.88.26-1.7.49-3.42.57-5.13.29-5.93.4-11.87.8-17.79.49-7.4 1.1-14.8 1.83-22.18.86-8.73 1.88-17.44 2.86-26.15.45-4.02.99-8.03 1.54-12.39-.78-1.8-2.57-1.49-4.28-.94.44-5.06.74-9.85 1.31-14.62.29-2.42.59-5.09 3.09-6.43 2.99-1.6 3.55-4.15 3.3-7.18-.11-1.33-.21-2.69-.09-4.02 1-11.19 3.38-22.23 3.25-33.56-.06-5.04.82-10.09 1.29-15.13.62-6.65 1.02-13.33 1.96-19.93.59-3.89.91-7.55-1.8-11.33zm-80.64 1.56c.61-1.04 1.61-1.86 2.51-2.87 7.46.8 14.77 1.5 22.06 2.39 3.76.46 7.49 1.22 11.22 1.9.94.17 1.83.59 2.75.86.69.2 1.48.65 2.09.49 6.06-1.59 11.81 1.44 18.46.6-2.67 2.56-4.69 4.6-6.84 6.48-.82.72-1.43 2.35-3.07 1.33v-.02c-.12.8-.25 1.59-.46 2.99 5.21-3.2 9.93-6.1 14.88-9.15-.81-.26-1.28-.41-2.27-.73 2.78-1.03 5.06-.9 8.26-.27-2.2 1.4-3.62 2.55-5.23 3.29-4.25 1.96-8.67 3.62-11.44 7.76-5.05 2.12-8.59 7-14.19 8-1.78.32-3.93-.1-5.59-.87-1.14-.53-2.05-.75-3.07-.37-2.34.86-4.54.25-6.84-.25-2.27-.49-4.62-.56-7.59-.88.74 1.07 1.04 1.5 1.73 2.5-2.64-.21-4.9-.22-7.1-.61-2.47-.44-4.8-.54-7.31.05-2.35.55-4.86.38-7.3.53l-.09-.86c1.35-.1 2.86-.62 4.02-.19 1.87.69 2.43-1.64 4.11-1.25 1.78.41 3.65.48 5.49.58 1.72.09 3.46.02 5.35.02.2-.77.41-1.6.62-2.41-.24-.2-.41-.46-.61-.49-6.94-1.01-13.87-2.13-20.84-2.94-4.18-.48-8.41-.72-12.62-.19.71-.97 2.28-1.16 2.35-2.84.02-.42 1.53-.79 2.35-1.18l-.07.06c1.87-1.04 4.37-1.01 5.5-3.34.34-.71 1.02-1.25 1.66-2.02-.48-.54-1.01-1.12-1.53-1.71h.01c1.04-.52 2.09-1.51 3.1-1.46 2.55.11 4.26-.76 5.54-2.93zm37.02 42.2c1.87.09 2.22 1.23 1.95 2.8-.53 3.04-1.18 6.07-1.56 9.13-.54 4.28-.88 8.59-1.31 12.89-.7 7-1.45 14-2.1 21.01-.37 3.93-.43 7.9-.92 11.81-.62 5.02-1.54 10.01-2.41 15.55-2.76-.18-5.49-.35-8.22-.53-.06-.27-.11-.53-.17-.8.67-.5 1.34-1 2.39-1.79h-5.73c-.02.03-.03.04-.05.07-1.08-.22-2.16-.45-3.25-.64-1.35-.24-2.71-.43-4.21-.67-.2.42-.64 1.35-1.07 2.24-15.22-2.03-30.25-4.04-45.67-6.1-.87-3.35-.04-7.12.4-10.97.16.75.33 1.49.49 2.24.5-14.99 2.58-29.73 5.4-44.36.84-4.35 2.02-8.64 2.93-12.98.35-1.7 1.19-2.56 2.89-2.84 2.51-.4 4.99-.96 8.01-1.55-.55 1.56-.86 2.44-1.22 3.47-.95-.33-1.72-.6-2.55-.89-.25.32-.59.57-.66.88-1.81 8.45-3.75 16.88-5.32 25.37-1.25 6.78-2.1 13.63-2.99 20.47-.25 1.9-.04 3.86.1 5.78 1.64-16.71 4.67-33.14 8.97-49.35.11-.42.92-.65 2.12-1.44-1.15 6.5-2.17 12.28-3.19 18.05.32-.34.75-.65.84-1.04.99-4.44 1.9-8.89 2.87-13.33.29-1.3.7-2.57 1.03-3.75 1.95-.46 2.66.29 2.36 1.86-.23 1.2-.87 2.31-1.13 3.51-.64 3.02-.57 3.14 1.25 5.51l-1.37 7.89c.38-.44.87-.84 1-1.34 1.39-5.31 2.81-10.62 3.99-15.98.49-2.21 1.6-3.36 3.75-3.66-1.84-.3-3.68-.6-5.85-.95-.73.54-1.32 2.52-3.38 1.11.43-2.34 2.3-2.5 4.12-2.54 3.32-.07 6.64-.02 10.54-.02-.68.61-1.1 1.24-1.67 1.45-1.24.45-2.57.68-3.86 1 1.4-.11 2.83-.24 4.38-.37-.36 3.37-.69 6.36-1.01 9.35.17.02.34.04.51.07.64-3.27 1.28-6.55 1.92-9.77.93-.31 1.71-.56 2.49-.82l-1.8-.68c1.31-1.51 2.72-.87 4.77-.96-1.45.81-2.26 1.25-3.07 1.7.81.11 1.65.2 2.49.3l-.08-.08c.83-.47 1.67-.94 2.89-1.63 1.71.29 1.01 1.93.75 3.7 6.82 2.59 13.98 3.1 21.42 3.86.78 3 1.58 6.12 1.09 9.52-1.27 8.91-2.5 17.84-3.55 26.78-.46 3.91-.36 7.88-.65 11.8-.21 2.78-.65 5.55-.79 8.33 1.72-5.42 3.44-10.85 5.16-16.27-.11-.08-.22-.15-.33-.23-.9 1.37-1.81 2.75-3 4.57-.61-2.08-.51-3.87-.26-5.57 1.38-9.53 2.81-19.04 4.34-28.55.55-3.4 1.52-6.73 2.11-10.12.4-2.28 2.9-3.87 2.14-6.57-.03-.1 1.77-.72 3.32-1.34-.16 2.23-.28 3.78-.41 5.5-.98.16-1.79.29-2.64.43.12.2.19.47.27.48zm-18.16 70.19c-1.72 2.65-4.09 1.42-6.53 1.18 2.06-2.26 4.39-1.08 6.53-1.18zm-73.53 85.21c.04-9.15.55-18.24 2.71-27.23.88 2.61 1.39 5.18.38 7.98-.7 1.93-1.51 4.05 1.08 6.06.46-2.97.79-5.71 1.34-8.41.55-2.69 1.32-5.34 2.56-7.89-1.36 11.71-2.73 23.41-4.12 35.36-.26-1.03-.5-1.95-.86-3.35-.32 2.91-.59 5.29-.85 7.68-.28.01-.55.03-.83.04-.35-7.13.5-14.16 2.13-21.17-2.66 3.22-2.38 7.26-3.54 10.93zm6.79-41.44c-.36 5.69-.72 11.38-1.09 17.06l-1.03-.12c-.24-5.71-.9-11.45 2.12-16.94zm.86-9.99l2.71-.42c-.71 1.63-.71 1.63-2.71.42zm-3.8-70c-.18 2.2-.32 4.39-.59 6.58-.13 1.06-.92 2.02-1.25 3.07-1.63 5.22-1.99 10.42.73 15.95-5.31-2.78-10.71-1.66-15.9-2.28-1.43-.17-2.87-.27-4.23-.39.41-4.53.68-8.94 1.07-13.28l5.53-46.44c-.16-.16-.28-.32-.26-.46.03-.24.24-.49.48-.7l.34-1.78c-.15-.13-.3-.26-.44-.39.46-1.52.91-3.04 1.41-4.69l11.66 1.92c.48-.17.96-.33 1.44-.5.09.24.19.47.28.71-.05.02-.09.03-.14.05l2.84.47c.7-.14 1.41-.25 2.14-.36l-.06.7 2.85.47-7.9 41.35zm-1.05 13.95c.06-.96.13-1.92.19-2.89l.87.06c.34 1-.17 1.93-1.06 2.83zm-22.49-55.63c.4-.11.8-.22 1.19-.33.45 1.02 1.23 2.02 1.28 3.06.11 2.08-.06 4.2-.32 6.27-1.09 8.8-2.24 17.59-3.39 26.38-.31 2.39-.7 4.78-1.38 7.13.17-14.23-1.23-28.56 2.62-42.51zm-3.45 43.69c.36 4.93.14 9.8-.21 14.69-.06.91-.35 1.8-.59 2.98-3.17-2.02.04-3.96-.7-5.99-.5.31-.96.59-1.57.96-2.12-2.69 1.48-4.59 1.07-7.5-2.75 3.51-3.73 7.24-4.67 11.05-1.24-3.03-.23-5.85.43-8.71.18-.76.16-1.57.22-2.35 1.29-.4 1.33-1.46 1.38-2.59.3-7.03.5-14.07.99-21.09.62-8.98 1.46-17.95 2.25-26.92.07-.83.47-1.63.73-2.45.17.1.3.14.38.23 2.29 2.7 1.71 5.56 1.29 8.85-.9 6.95-1.05 14.02-1.23 21.04-.16 5.93-.2 11.89.23 17.8zm-.98 20.13c-.06 1.35-.13 2.7-.2 4.34-1.99-.72-2.15-1.87-1.79-3.08.18-.6.79-1.08 1.2-1.62.26.13.53.25.79.36zm-5.54 13.6c-.8 1.45.09 3.53-1.25 4.89l-.27 1.86c.13.08.27.17.4.25-.21.42-.41.84-.62 1.27l-.95 6.66-.18.8h-6.06c.04-.55.22-1.04.44-1.45l-14.5-1.62c-.89 1.54-1.3 1.59-4.93.69.82-.56 1.3-.89 1.79-1.04l-4.18-.47c-1.25.19-2.51.37-3.76.56l-.15-.49c.3-.13.61-.26.94-.4l-9.16-1.02c-.97.23-1.91.58-2.72 1.33-.24.22-.92.01-1.38-.05-3.13-.41-6.27-.83-9.52-1.26.23-.75.53-1.19.86-1.44l-15.45-1.72c1.74 2 4.16.82 6.21 1.32.28.07.49.4 1.27 1.07-3.24-.27-5.84-.49-9.02-.76.73-.77 1.13-1.2 1.54-1.64l.09-1.72c-.03 0-.05.01-.08.01-.08-.16-.17-.32-.25-.48.13-.11.25-.24.37-.36l.84-16.4 10.43 1.16a.3.3 0 00.08-.04c0 .02-.01.03-.01.05l59.16 6.57-.6 4.21c.2-.11.4-.23.62-.34zm-18.19 14.04c1.91-.01 3.29-.98 4.64.84-1.64.48-2.91.54-4.64-.84zm.02 14.38c-.32.94-.63 1.89-.95 2.83-.14-.13-.28-.27-.42-.4.31-.86.63-1.71.94-2.57.15.04.29.09.43.14zm7.83-3.33c-2.27 1.81-4.03 1.76-7.66-.72 2.47.23 4.93.46 7.66.72zm-36.2-5.57l-.06.73h-1.75c-.02-.18-.03-.37-.05-.55l1.86-.18zm-11.98-9.62h-2.89v-.47h2.89v.47zm-3.12 8.6c-.01.25-.03.5-.04.76-1.62-.12-3.25-.23-4.87-.35-.01-.24-.01-.47-.02-.71l4.93.3zm-10.55-36.94c.59-1.16 1.04-2.04 1.75-3.43.9 3.06.9 3.06-1.75 3.43zm3.25-1.1c.31-1.9.53-3.26.8-4.93 1.28 1.03.08 3.28 2.28 3-.15.52-.14 1.31-.47 1.49-.58.33-1.36.27-2.61.44zm5.8 1.21l2.8-.84c.09.36.18.72.28 1.08-.95.18-1.91.36-2.86.55-.08-.27-.15-.53-.22-.79zm45.16 3.84l10.46.81c-3.58 1.18-7.06.7-10.46-.81zm14.73 3.85c-.01-.22-.01-.44-.02-.65 1.56-.54 3.12-1.08 4.96-1.72.4.85.77 1.64 1.55 3.29-2.79-.39-4.64-.65-6.49-.92zm7.4-70.91c-.4.01-.8-.24-1.55-.5.58-.42.86-.78 1.08-.74.39.07.75.37 1.12.57-.21.24-.42.67-.65.67zm3.97.6c.12-.66.24-1.49.69-1.89.83-.74 1.88-1.23 3.18-2.03-.48 1.41-.73 2.61-1.31 3.63-.29.5-1.16.72-1.82.92-.18.05-.77-.46-.74-.63zm4.45 1.51v-2.75h.6c-.06.92-.13 1.84-.19 2.76-.14-.01-.28-.01-.41-.01zm29.95-12.15c-.59 1.13-.9 1.76-1.23 2.38-.78 1.48-1.23 3.59-2.45 4.25-1.28.68-3.32 0-5.02-.16-3.87-.37-7.73-.79-11.61-1.52 4.94-1.17 10-.8 15.01-1.03 0-.26-.01-.53-.01-.79h-16.37c-.09-.37-.17-.73-.26-1.1l5.69-5.12c5.17.98 10.54 2 16.25 3.09zm-11.95-7.06c1.52-.88 2.78-1.61 4.21-2.44.37 1.17.61 1.92.81 2.53 1.41-.15 2.65-.27 3.89-.4-2.66 1.96-5.44 2.45-8.91.31zm6.56 89.23c.68-5.26 1.47-10.51 2.17-15.78.99-7.46 1.97-14.93 2.9-22.4.81-6.49 1.54-13 2.35-19.49.08-.67.51-1.3 1.05-2.62-.22 7.1-.42 13.46-.62 19.81l.58.03c.32-4.34.74-8.67.94-13.02.2-4.1 1.12-7.84 4.71-11.09-1.22.09-1.93.15-2.96.23.36-1.51.73-3.08 1.11-4.67 2.08 0 3.87-.06 5.66.01 2.84.12 3.68 1.26 3.03 4.05-1.15 4.93-2.6 9.81-3.45 14.79-1.38 8.02-2.34 16.1-3.54 24.15-.72 4.85-1.69 9.67-2.27 14.53-.6 5.02-.88 10.08-1.31 15.13-.03.36-.18.7-.32 1.2-3.21-.39-6.4-.78-10.03-1.22-.02-1.24-.15-2.46 0-3.64zm25.06-82.79c-2.16 1.7-4.19.84-6.26.89.9-1.38-.15-3.76 2.68-4.26-.53 1.16-.94 2.07-1.53 3.37h5.11zm8.1-.38c3.94 0 7.87 0 11.81.24-4.72.58-9.43 1.23-14.16 1.68-1.41.13-2.87-.31-4.49-.51.22-1.06.39-1.85.59-2.83 2.99-.15 5.75-3.09 9.42-.18h-5.63c.51 1.64 1.49 1.6 2.46 1.6zm-4.13 12.35c1.64-.9 1.64-.9 5.12 0h-5.12zm4.73 1.55c-.6 2.01-1.55 3.03-3.58 3.09-2.18.07-4.36.37-6.87.6 2.68-3.37 5.84-5.06 10.45-3.69zm-5.63-10.02c3.62-1.44 7.29-.73 11.78-.09-4.41 1.82-8.09.1-11.78.09zm19.43 10.95c-2.75 1.48-8.47 1.99-13.42 1.05 4.11-2.23 8.91-2.52 13.42-1.05zm-22.85-16.47c.86-1.63.9-1.7 3.15-2.09-1.05.7-2.1 1.39-3.15 2.09zm-2.97 13.84c-1.99.7-7.61.67-9.96.13-.68-.16-1.34-.54-1.93-.93-.15-.1-.02-.63-.02-1.53 3.51 2.89 7.54 1.6 11.91 2.33zm-11.91 1.9c.67 2.65.05 5.03-1.31 7.26.15-2.47-.1-5.03 1.31-7.26zm27.72 7.29c-.77 2.57-1.53 5.15-2.33 7.71-.05.17-.37.25-.57.38-.7-2.53.04-4.89 2.9-8.09zm37.11-.71c1.86-2.98 3.4-3.2 8.26-1.21-2.79.92-5.21 1.7-8.26 1.21zm6.29 1.46c-.28 1.05-.56 2.1-.84 3.16-.25-.15-.49-.3-.74-.45.44-.93.88-1.85 1.32-2.78.09.02.17.04.26.07zm-1.08-15.32c-1.1.39-2.2.78-3.3 1.18-.79.29-1.58.88-2.35.84-3.07-.18-6.25-.14-9.18-.96-4.46-1.26-9.02-1.53-13.54-2.17-.23-.03-.45-.15-1.11-.38 10.15-1.16 19.73 1.32 29.42.7.03.27.05.53.06.79zm-.03-2.21c2.86-.91 4.55 1.7 7.05 2.85l-1.47 1.27c-1.98-1.47-3.79-2.8-5.58-4.12zm-5.67 15.44c-2.84 1.31-2.84 1.31-3.64-1.11 1.02.31 2.04.62 3.64 1.11zm-10.39-2.71c1.74-2.12 3.71-.72 6.05-.69-1.97 2.66-2.21 2.68-6.05.69zm5.03 2.34c-.13.38-.26.77-.39 1.15-1.18-.31-2.36-.61-4.11-1.07 2.05-.98 3.32-.86 4.5-.08zm-9.74-.74c.17-1.28.29-2.21.43-3.34 1.1.07 2.04.13 2.88.18.9 1.55-.32 2.77-3.31 3.16zm-15.29-39.21c.14.35.28.69.42 1.04-1.81.79-3.62 1.58-5.44 2.37-.1-.2-.21-.4-.31-.61 1.77-.93 3.55-1.86 5.33-2.8zm-5.35 5.36c-.74 1.21-1.49 2.42-2.23 3.64-.91-2.57.33-3.38 2.23-3.64zm-4.22-.24c.18.23.36.47.55.7-.79.59-1.57 1.19-2.36 1.78l-.5-.65 2.31-1.83zm-1.28 4.93c-2.05 1.75-4.1 3.51-6.15 5.26.89-2.72 1.96-3.64 6.15-5.26zm-10.95-8.99c-.45-1.83.95-1.61 1.92-1.56.64.03 1.8.55 1.78.8-.05.91-.5 1.79-.73 2.47-1.92.27-.72-3.14-2.98-1.69l-4.26 2.46c.71-2.12 2.29-2.65 4.27-2.48zm-4.54 5.59c-.59.87-1.28 1.67-1.49 2.98 1.41-1.22 2.82-2.44 4.24-3.66-1.12 4.51-4.46 7.5-7.99 9.58-3.03 1.78-7.03.83-11 .27.53-.82.89-1.39 1.24-1.94.5-.1.97-.24 1.42-.2 6.2.48 9.28-4.09 12.82-7.91.31.32.82.79.76.88zm-.77-.88c-1.91 1.41-3.86 2.77-5.72 4.25-1.02.81-1.83 1.93-3.68 1.65 1.69-3.15 4.63-4.47 7.07-6.31.43-.32 1.51.23 2.29.38.02.01.03.02.04.03zm-8.36 1.4c.67-.42 1.33-.85 2-1.27l.42.42c-.33.35-.6.79-1 1.02-.35.21-.84.18-1.27.26-.04-.15-.1-.29-.15-.43zm7.56-9.61c-.08 1.09-.15 1.92-.23 2.99-1.37.62-2.98.65-3.93 2.76-1.09 2.43-4.19 2.2-6.99 2.52 3.1-4.12 8.59-8.2 11.15-8.27zm-10.58-.44c.04.24.07.48.11.72-.71.11-1.43.23-2.14.34-.04-.26-.08-.52-.12-.79l2.15-.27zm.85 9.99c-2.58 3.92-1.81 3.16-6.72 3.53 1.81-2.99 2.03-3.11 6.72-3.53zm-62.95-19.49c-3.35-.55-6.82 1.27-10.1-.56 3.42-.86 6.79-.64 10.1.56zm-31.89 17.63c.6-1.58 2.39-1.76 4.15-1.62 1.52.12 3.57 1.12 4.23-1.61.09-.36 1.51-.54 2.31-.56 3.35-.06 6.7-.01 10.05-.04.77-.01 1.54-.17 2.31-.26-.01-.26-.03-.53-.04-.79h-17.44c1.33-3.32 4.05-1.89 5.94-2.74-.21-.44-.67-1.15-.57-1.25 1.13-1.05 2.22-2.55 3.58-2.89 6.22-1.55 12.5-2.91 19.01-2.38 2.3.19 4.63.03 6.94-.39h-24.11c1.58-.82 2.48-1.69 3.37-1.68 9.85.1 19.7.28 29.54.59 2.31.07 4.61.74 7.74 1.27-2.27.15-3.77.25-5.26.35 2.45.49 4.8.73 7.33.05 1.46-.4 3.52-.81 5.07 1.01.63.74 2.28.78 3.47.83 3.95.15 7.91.17 11.87.2 1.84.02 3.69-.16 5.51-.03.74.05 1.95.57 2.05 1.06.14.68-.55 1.54-.98 2.54.87.18 1.86.39 3.11.66-.4.48-.55.88-.81.96-1.37.43-2.7.82-1.56 3.44-2.45-.7-4.26-1.21-6.29-1.79-.43.44-1.06 1.08-2.01 2.06h7.65c-2.62 2.32-5.35 1.35-7.59 2.2-2.09.8-4.95-.98-6.89 2.28 1.64 0 3.29.5 3.91-.09 2.22-2.11 4.84 0 7.03-1.29-2.97 3.59-6.44 5.89-11.21 5.24-.61-.08-1.52.05-1.79-.3-2.03-2.6-3.58-.76-5.1.38 1.72.57 3.54 1.18 5.69 1.9 1.36-.31 3.14-.72 5.03-1.16-3.37 6.26-7.62 8.57-13.79 6.95.22-1.54.22-1.54 4.69-2.67-.26-.62-.51-1.21-.82-1.94.5-.21 1.14-.47 1.78-.74-.12-.15-.27-.45-.36-.43-2.12.4-4.23.83-6.31 1.97.8.24 1.61.49 3.18.96-2.46.12-4.13.21-5.8.27-1.23.04-2.43-.09-3.35 1.12-.36.48-1.31.81-1.95.75-7.62-.73-15.24-1.52-22.85-2.33-8.48-.9-16.96-1.83-25.44-2.76-2.45-.27-4.91-.55-7.4-.83 3.69-3.52 8.58-3.5 13.1-4.51.68-.15 1.43-.05 2.15.01 9.59.78 19.2 1.37 28.76 2.43 6.61.73 13.2.46 20.42.82-7.11-2.69-13.67-1.18-20.11-1.61-7.26-.49-14.48-1.39-21.72-2.13-.33-.03-.64-.21-.93-.75h10.49v-.73h-22.56c-1.99 4.14-6.67 2.25-10.23 3.55 1.19-1.3 3.07-1.57 3.81-3.55zm27.49 18.37h-2.8v-.19h2.79c.01.06.01.12.01.19zm-6.98 2.65c-1.72.28-2.58.43-3.71.61.65-2.52 1.72-2.17 3.71-.61zm-34.56 5.7c.64-2.87 1.72-5.57.87-8.68-.38-1.41.33-3.12.6-5.11 1.65.29 3.12.54 4.31.75-.76 2.38-1.91 4.41-1.97 6.47-.1 3.29-.85 6.35-1.89 9.39l-3.81 11.13-.86-.24c.91-4.58 1.74-9.17 2.75-13.71zm-6.62 46.37c.16 0 .32 0 .48-.01v2.08h-.48v-2.07zm.43 4.24c2.47-.34 2.14-3.06 1.78-3.71-1.24-2.23-.22-4.34-.3-6.45-.36-9.9 1.71-19.42 4.9-28.74.8-2.34 1.68-4.68 2.16-7.09.49-2.45 2.54-4.16 2.67-6.78.13-2.55.68-5.07 1.11-7.98 2.74.2 5.51.41 8.55.63.23 1.98-.46 3.62-1.34 5.22-.59 1.07-1.19 2.14-1.77 3.21l2.19.36c.91-2.95 2.03-5.86 3.66-8.65 4.03.31 8.22-.93 12.32 1.04-6.18-.77-8.96 2.9-10.5 8.2-.25-.09-.5-.19-.75-.28l.45-7.7c-.14-.07-.29-.14-.43-.21-.28.64-.72 1.26-.81 1.93-.25 1.95-.66 3.96-.47 5.89.01.12.01.24.02.36l4.02.66c2.8-1.01 5.18-2.79 6.55-5.9-1.4 1.2-2.79 2.4-4.3 3.7-.76-4.48.15-5.19 5.82-4.91.25 1.27.51 2.55.8 4.03-.59.34-1.47.86-2.66 1.56 1.22.8 1.5 1.14 1.79 1.15 2.06.05 4.12.02 6.33.02.09-.24.17-1.18.5-1.29 8.34-2.5 16.3-7.26 25.58-4.45-2.45 1.68-4.87 3.03-7.97 1.07-.35-.22-2.14.27-3.07.69-.76.34-1.59 1.5-1.61 2.31-.06 2.56-.96 4.53-2.41 6.18l2.17.36c.5-.07 1.08-.13 1.79-.2-.31-1.05-.81-2.04-.86-3.05-.06-.97.34-1.98.85-2.98 1.13 1.81.72 4.84 4.78 4.07-2.18-.66-3.11-1.68-2.38-3.97 1.12-.26 2.5-.61 3.9-.87.6-.11 1.24 0 1.85-.02 3.95-.15 8.14-1.19 11.01 3.62-.38 3.4-.98 7.55-1.26 11.72-.41 6.03-.59 12.08-.86 18.12-.25 5.65-.45 11.29-.77 16.94-.07 1.3-.51 2.59-.79 3.88-1.77 1.13-1.77 3.06-2.04 4.82-.33 2.17-.51 4.37-.75 6.59-.78.25-1.46.47-2.75.88 2.52.33 4.46.59 7.12.93-3.99 2.61-7.5.94-10.86.76a44.7 44.7 0 01-10.57-1.85c1.29-.52 2.57-1.04 3.86-1.57-4.7-.01-8.95 2.77-13.83 1.71-4.59-1-9.55.01-14.8-2.39 12.57-1.84 24.38-1.68 36.19-2.1-3.38-.66-6.79-.43-10.19-.56-3.44-.13-6.87-.49-10.32-.59-3.59-.11-7.18-.02-10.83.46l3.22.66c0 .07-.01.14-.01.21h-8.7c.64-.99.9-1.78 1.45-2.19 4.06-3.08 8.55-4.86 13.78-4.41 3.04.26 6.1.28 9.15.23-7.45-1.99-14.98-1.07-22.95.11.16-1.66.05-2.79.41-3.74.4-1.08.83-2.15 1.24-3.22l-1.31-.07c-.02.06-.04.11-.06.17-.5 1.46-1.32 2.24-2.97 2.25-1.83.01-3.65.26-5.83.43.57-.99-1.41-2.03.45-2.97.11-.06.19-.19.27-.32l-2.04-.11c-.22 1.27-.7 2.49-1.8 3.57.07.29.14.58.2.88 3.47-.3 6.94-.6 10.39-.9.62 4.11.4 4.54-3.24 5.19-2.48.44-4.96 1.65-7.54.18-.26-.15-.99.52-1.54.83.71 1.6 1.9 1.19 2.9.91 1.47-.41 2.78-.77 4.23.25.46.32 1.58-.12 2.31-.43.95-.4 1.8-1.01 3.05-1.75.29 2.67-1.66 3.51-2.8 4.29-2.28 1.56-4.69 3.62-8.38 1.91 1.95-.48 3.5-.86 5.05-1.25-.03-.17-.05-.33-.08-.5-4.38.29-8.76.59-13.44.9.17-2.85.48-5.62.46-8.39-.02-2.56 2.2-5.25-.43-7.79-1.61.49-2.97.83-1.74 3.24.43.84-.32 2.6-1 3.62-1.67 2.48-3.61 4.77-5.57 7.3-.48-2.58-.79-5.23.4-7.87zm.28 54.93c.88-3.51 1.77-4.11 5.43-4.09 1.35.01 2.7 0 4.53 0-.48 1.44-.57 2.37-1.04 3.04-3.26 4.64-3.72 10.1-4.48 15.44-.34 2.36-.6 4.65-2.41 6.48-.65-.23-1.27-.45-2.24-.8-.53 6.14-1.07 12.02-1.53 17.9-.22 2.78-.06 5.62-3.31 7.03-.63.27-.91 1.32-1.77 2.66.31-4.39.56-8.02.83-11.65.49-6.64 1.18-13.22 3.18-19.64.79-2.54.61-5.37 1.05-8.04.47-2.79 1.07-5.57 1.76-8.33zm3.06 21.71c-1.02 6.09-1.88 11.2-2.73 16.3l-.98-.12c-.19-4.9.85-9.73 1.49-14.57.06-.44 1.01-.76 2.22-1.61zm-14.3 25.27c1.38-10.15 2.86-20.28 4.15-30.44.48-3.79.6-7.62.82-11.44.2-3.37 1.44-6.23 4.35-8.95-.57 2.68-.15 4.99-2.43 6.8-1.11.88-1.63 2.68-.34 4.29.37.46.43 1.33.34 1.98-1.62 12-3.26 23.99-4.98 35.97-.26 1.8-.94 3.55-1.42 5.32-.24.03-.49.06-.73.08.08-1.2.07-2.42.24-3.61zm.96 8.8c-.3 1.56-.6 3.12-.89 4.68-1.01-2.27-1.01-2.27.89-4.68zm7.07 10.38c-3.05.61-5.92-.33-8.91-.93.19-.67.25-1.04.41-1.37.16-.33.41-.61.2-.31l9.28.99c-.41.7-.61 1.55-.98 1.62zm-5.46-4.8c-2.5-3.97-.42-7.65.43-11.34v5.52c.22.05.43.11.65.16.98-2.85 1.96-5.69 2.94-8.54.08 3.65-.35 7.16 1.3 10.54.21-4.06-.39-8.2 1.44-12.58.41 1.15.94 1.92.89 2.66-.32 4.73-.77 9.46-1.21 14.49-2.57-.36-4.61-.65-6.44-.91zm8 5c-.43-.18-.59-1.04-1.15-2.17 1.76 0 2.97-.12 4.15.02 8.16.95 16.3 1.98 24.46 2.91 1.69.19 3.4.18 5.1.22-1.92.24-3.85.6-5.76.53-8.08-.31-16.16-.81-24.24-1.24-.87-.05-1.8.04-2.56-.27zm17.66-1.67c.81-.08 1.79-.18 2.77-.29-.04.19-.09.38-.13.57-.93-.1-1.86-.2-2.64-.28zm34.52 10.73c2.24-2.22 3.42-2.24 5.6-.01.46-.19 1.01-.39 1.54-.64.42-.2.81-.46 1.36-.78-.39-.36-.64-.78-.88-.78-2.35.01-4.79-.31-7.02.23-5.22 1.25-10.27.3-15.37-.44-10.26-1.49-20.53-2.92-30.79-4.41-.83-.12-1.64-.43-2.41-.96 4.86.16 9.72.22 14.57.51 4.79.29 9.56.92 14.35 1.19 4.75.27 9.41 1.23 14.64 1.77-.25-1.18-.47-2.24-.81-3.84-1.15 1.79-2.17 2.81-3.77 1.29.43-.96.87-1.94 1.69-3.78-1.45.72-2.03 1.09-2.65 1.29-1.68.54-3.16-.13-3.75-1.82-.41-1.17-.67-2.12-2.11-2.66-1.42-.53-.94-2.03-.59-3.26.56-1.97 1.04-3.95 1.73-6.6-1.28.6-1.79.83-2.63 1.22-.1-.76-.43-1.5-.23-2.06 1.76-4.97 1.75-10.53 5.02-15 .66-.9.73-2.08-.4-2.54-1.25-.51-1.88.26-2.23 1.61-.65 2.5-1.59 4.93-2.43 7.45-.44-.35-.84-.68-1.23-.99 0 3.97 0 7.89.01 11.8 0 .37.26.85.11 1.09-1.99 3.08-.79 6.19-.17 9.3.04.22-.11.47-.3 1.21h-2.99c.62.27 1.25.51 1.85.81.43.22.84.5 1.25.76-3.05-.24-6.09-.49-9.14-.73.01-.24.03-.48.04-.72h6.15c-2.76-.45-5.5-.94-8.25-1.32-3.75-.52-7.49-1.13-11.26-1.38-2.48-.17-4.99.25-7.49.38-.97.05-1.95.01-3.39.01 0-1.67-.11-3.1.02-4.52 1.11-12.43 2.92-24.77 5.52-36.97 1.41-6.64 3.26-13.19 4.91-19.77.09-.36.16-.73.3-1.07 1.47-3.84 1.71-3.99 5.98-3.91.73.01 1.47 0 2.67 0-.79 2.59-1.47 4.85-2.16 7.12.2.1.41.21.61.31.49-1.08.96-2.16 1.46-3.23.57-1.23 1.16-2.46 1.8-3.79h5.58c-.68 2.91-1.31 5.59-1.93 8.28.17.07.33.14.5.21.8-2.13 1.63-4.25 2.39-6.39.48-1.36 1.18-2.16 2.81-1.46l-2.88 11.94c.73-1.44 1.53-2.85 2.11-4.35.66-1.72 1.04-3.55 1.57-5.32.45-1.48 1.51-2.36 3.02-2.23 4.28.36 8.54.86 13.04 1.32-.89 3.5-1.71 6.69-2.52 9.88-.27-.04-.55-.09-.82-.13.21-2.38.41-4.76.62-7.14l-.46-.12c-1.27 3.36-2.53 6.72-3.78 10.01 4.18.39 4.8.02 5.96-4.03.58-2.02.95-4.1 1.58-6.1.7-2.23 1.18-2.34 3.85-1.36-.37 3.65-.22 7.47-1.3 10.9-.69 2.19.57 4.57-1.12 6.53-.3.35.32 1.5.56 2.41 2.13-1.69 2.22-1.9 3.85-8.22.74-2.87 1.49-5.73 2.29-8.81h5.36c-1.18 7.83-4.65 15.17-4.06 23.54 2.98-4.8 4.05-9.9 5.3-14.92.53-2.12 1.76-4.19.14-6.51-.64-.91 1.58-3.34 3.16-3.54-.23 3.38-.46 6.73-.68 10.09.2.03.4.06.6.08.36-2.33.66-4.66 1.08-6.98.74-4.13 2.05-5.01 6.83-4.35-.61.78-1.09 1.87-1.51 1.85-2.03-.13-2.56 1.29-2.91 2.69-.84 3.34-1.55 6.72-2.23 10.1-.32 1.58-.43 3.21-1.91 3.8.32 1.39.97 2.61.81 3.72-.69 4.75-1.64 9.47-2.44 14.21-.18 1.07-.16 2.17-.07 3.27 3-9.72 2.84-20.15 6.83-29.62-.56 15.69-2.94 31.14-5.92 46.5l.7-.76c.13.16.38.32.38.47-.19 3.56-.48 7.12-.59 10.68-.09 2.81-.3 5.67 1.4 8.22.24.35.09.96.14 1.91-4.77-.54-9.37-1.08-14.06-1.64zm-18.85-8.88c1.57.52 3.53-1.21 5.14 1.03-1.91-.11-3.51-.21-5.11-.3l-.03-.73zm27.73-54.29c-.61 2.28-1.23 4.56-1.84 6.85l-.73-.18c.54-2.25 1.09-4.5 1.63-6.75.32.03.63.05.94.08zm5.08 46.58c1.6-8.83.88-18.08 4.68-26.53.06 9.11-2.34 17.81-4.68 26.53zm4.13-29.76c-.56-3.16.63-5.49 1.36-7.85-.12 2.49.85 5.15-1.36 7.85zm1.72-18.56c.07-2.68-.46-4.93 1.18-6.84.24 2.2 1.18 4.51-1.18 6.84zm23.94 43.61l-1.86 21.03h-20.72l.55-5.28c-.16-.07-.34-.14-.55-.22.27-.2.46-.37.62-.51l1.13-10.9c-.02 0-.03 0-.05-.01.18-1.67.36-3.33.6-5.67.01.02.02.03.03.05l.31-2.96c-.01.04-.02.08-.03.13.02-.1.03-.2.05-.3l.26-2.51c.12-2.08.13-4.22.66-6.38l2.27-21.87c-.02 0-.04-.01-.06-.01.52-4.8 1.04-9.61 1.57-14.6h3.22c-.08.16-.16.31-.24.47l13.8 2.15c-.03-.06-.05-.11-.08-.18.53 0 .93-.07 1.29.02.44.11.85.34 1.38.57l-4.12 46.48c.04.2.06.4-.03.5zm3.19 23.03c.01.78.1 1.57.18 2.82-2.15-2.74-1.47-15.52 1.22-19.59-.48 3.76-1.03 7.51-1.41 11.27-.17 1.81-.02 3.66.01 5.5zm1.68-77.96h-19.5c-.28-2.62 1.88-5.94-2.93-6.76.4-7.13.77-13.89 1.17-21.11 1.48.24 2.75.45 4.1.68l.59-4.45c6.61.38 12.92.75 19.2 1.11.31 2.19.01 4.34.94 5.42.9 1.05 3.08 1.01 5 1.54.84 2.31.3 4.6-1.05 6.94-1.45 2.5-3.13 4.99-1.41 8.22.56 1.04.09 2.64.09 4.15-.89.28-1.68.75-2.48.75-2.43 0-4.36.42-3.72 3.51zm77.37 52.39c-.06 3.07.04 6.15-.09 9.21-.19 4.43-.47 8.85-.82 13.27-.25 3.18-.84 6.35-.98 9.53-.09 2.04.38 4.11.67 6.95-2.03-2.58-5.18-1.25-7.03-3.51-.33-.41-1.9-.41-2.37 0-1.52 1.35-3.25 1.02-4.91.91-4.02-.25-8.02-.64-12.6-1.03 2.34-3.34 3.08-6.26 1.09-9.82-.83 3.26-1.58 6.16-2.4 9.39-7.16.47-14.12-1.76-21.31-1.65.02-.38.03-.76.05-1.15h11.35c-1.68-1.18-3.28-1.93-3.68-3.97-.02-.11-.59-.11-.96-.14l.42 3.14c-10.34 1.23-20.67.36-32.16-2.75-.21-2.15-.43-4.49-.69-7.25 1.55.33 2.45.52 3.55.75l-.46 4.99.84.09c.84-8.09 1.6-16.2 2.54-24.28.96-8.19 2.09-16.36 3.15-24.54l.78.06c-.23 4.02-.47 8.05-.69 12.07-.22 3.94-.63 7.88-.62 11.82.02 4.8.39 9.6.84 14.39.19-8.98-.17-18.02.73-26.93.89-8.83.17-17.98 3.88-27.2 1.59 3.51 1.13 6.3.13 8.92-1 2.63-.17 5.03.26 7.54.71-3.31 1.1-6.72 2.22-9.88 1.08-3.04 2.92-5.82 3.8-9.06-1.06 1.59-2.12 3.17-3.35 5.01.49-5.63 1.89-6.79 6.98-5.92-4.6 18.47-7.91 37.15-9.48 56.1.26.06.51.11.77.17.2-.73.56-1.44.59-2.18.43-10.92 2.83-21.53 5.03-32.17.43-2.06.83-4.12 1.3-6.17.95-4.17 1.62-8.43 4.49-12.24-1.08-.31-1.64-.46-2.5-.7.44-1.08.86-2.13 1.3-3.21 1.88.27 3.44.49 4.93.7-.11 2.26-.21 4.37-.32 6.75 1.2-1.51 2.22-2.79 3.3-4.15-.31-.48-.64-.99-.98-1.49.49-.26.99-.75 1.47-.73 2.7.1 5.39.32 8.3.52-.37 2.49-2.14 1.68-3.4 1.88-1.21.2-2.68-.98-3.88.91.91.43 1.7.8 2.65 1.24-.3 1.42.55 3.19-1.29 4.25.3.4.81.77.86 1.2.07.57-.25 1.18-.33 1.79-1.26 9.78-2.52 19.56-3.76 29.35-.29 2.28-.49 4.58-.74 6.87.42-.5 1.12-.96 1.19-1.5.84-6.6 1.53-13.21 2.36-19.81.73-5.75 1.55-11.49 2.42-17.22.12-.79.78-1.5 1.44-2.11.21 3.61-1.91 6.91-.72 10.95.49-.66.96-1.01.94-1.32-.39-4.21 1.43-7.92 2.53-11.8.38-1.35 1.15-2.08 2.57-2.25 3.55-.43 7.08-1.23 10.63-1.31 1.95-.04 3.93 1.07 6.25 1.76-1.09.55-1.91.97-3.16 1.6 1.09.59 1.85 1 2.75 1.49 0 1.37.13 2.89-.02 4.38-.96 9.37-1.99 18.73-2.99 28.09l.74.09c.64-5.55 1.28-11.1 1.95-16.93.98 1.11 1.73 1.95 2.48 2.79-2.65-5.22-.46-10.3-.1-15.53.9-.17 1.72-.32 2.34-.44-.75-.74-1.62-1.61-2.92-2.9 3.13-.61 5.2-2.91 8.49-1.61 1.57 3.44-1.24 6.71-.5 10.51-1.93-.43-3.48-2.08-5.04.09 1.47.43 2.86.83 4.43 1.28v3.62c1.56.19 2.58-.01 2.67-1.49 1.02 3.96 1.45 8.03 2.9 11.98 1.04 2.91-.04 6.6-.1 9.94zm-63.76-40.68c.78-.65 1.24-1.15 1.81-1.44.13-.07.93.65.88.81-.21.59-.57 1.21-1.06 1.57-.17.12-.88-.49-1.63-.94zm4.8-4.1c4.37-.04 8.74-.09 12.98 1.09-4.43.44-8.83.95-12.98-1.09zm18.62 2.5h11.93c.01.19.01.39.02.58-1.95 0-3.91.13-5.85-.04-1.9-.16-3.93 1.81-6.1-.54zm13.88-.02l3.26-.15c.01.3.02.6.02.9-1.1.74-2.19.77-3.28-.75zm15.87 4.7c.04-.33.09-.66.13-1 1.24.23 2.48.46 3.72.68-.02.1-.05.21-.07.31-1.26.01-2.52.01-3.78.01zm8.92 13.87c-.52.6-.86.99-1.18 1.37-.29.2-.58.4-1.2.82-.09-.91-.16-1.61-.26-2.57.94.14 1.62.24 2.64.38zm.84 8.06c-1.16-3.85-.03-6.62 1.62-10 .29 3.67.87 6.69-1.62 10zm.27-13.8c-.4.45-.19 1.42-.3 2.14-.11.79-.04 2.08-.43 2.25-.7.29-1.69-.09-2.43-.18-.32-1.47 2.04-2.21.31-3.47.96-2.26-.38-5.49 2.89-6.83.31-.13.32-.97.57-1.78 1.79 3.16 1.46 5.51-.61 7.87zm-59.84-24.95c.68-1.98 2.25-2.02 3.6-2.83h-6.11c-.09-.22-.18-.45-.27-.67 1.11-.65 2.23-1.31 3.79-2.23-1.76-.82-2.49-1.17-3.59-1.68.61-.74 1.06-1.28 1.49-1.8-1.37-.83-1.21-2.48-.5-3.59.51-.79 2.39-1.56 3.07-1.21 2.08 1.08 4.01.24 6 .22.36-.8.72-1.6 1.19-2.65-3.33-.76-6.16-3.06-10.04-3.06.77-1.84 2.04-1.33 2.98-1.24 4.16.4 8.31.92 12.47 1.38 11.38 1.25 22.76 2.54 34.15 3.73 5.63.59 11.27 1 16.91 1.5.6.05 1.19.16 2.3.31-.26 6.91-2.57 13.36-3.09 20.6-21.53-2.26-42.83-4.51-64.35-6.78zm.03-17.21c1.92.36 3.26.6 4.59.85-.06.32-.12.64-.18.97-1.47.19-2.96.42-4.41-1.82zm63.57 44.09c-.13-.07-.26-.13-.39-.2v-8.63c.71-.04 1.5-.09 2.8-.16-.87 3.23-1.64 6.11-2.41 8.99zm33.83 29.9c.43-6.78.85-13.57 1.28-20.35.19 0 .39-.01.58-.01 0 1.47-.01 2.93 0 4.4.04 5.17.14 10.33.11 15.5-.02 3.85-1.2 6.99-4.67 9.38-5.18 3.57-10.04 7.61-15.19 11.58-.7-2.11 1.76-4.11-1.24-5.13.79-1.13 1.46-2.1 2.25-3.24-2.64.84-3.72 2.35-3.03 4.35.85 2.46.08 4.98-1.2 6.52-2.71 3.26-6.16 5.91-9.82 9.28.4-4.23.71-7.74 1.05-11.24.69-7.13 1.31-14.26 2.15-21.37.27-2.27-.46-4.99 2.19-6.61.42-.26.41-1.35.46-2.07.07-1.1.02-2.2.02-3.81.81.77 1.24 1.18 1.75 1.66.15-.28.36-.49.32-.61-1.41-3.9-1.68-7.91-1.35-12.03.19-2.49.04-5 .04-7.89.63-.22 1.69-.6 3.11-1.1-2.12 7.46-1.08 14.45.12 21.48.32 1.88-.1 3.88-.12 5.82-.03 2.69-.01 5.37.15 8.06 1.43-13.47 3.46-26.79 7.78-39.74-.18 1.84-.25 3.69-.58 5.5-.35 1.93-.94 3.83-1.46 5.73-.21.78-.1.72.59 2.84.34 1.05.06 2.3.06 4.01 1.44-6.43 3.21-12.25 3.94-18.21.73-6 2.35-11.65 4.3-17.37-.38.02-.8.04-1.22.06 2.15-4.88 5.2-8.35 8.58-9.53.03 1.76-1.18 2.87-2.14 3.66-2.51 2.07-2.99 4.67-3.03 7.68-.03 2.19-.6 4.38-.92 6.57-.65 4.49-1.3 8.97-1.36 13.55.76-4.27 1.49-8.55 2.31-12.81.72-3.76 1.36-7.55 2.42-11.21.52-1.79 1.93-3.33 2.93-4.98.26.09.51.17.77.26-.27 1.42-.63 2.83-.78 4.26-.16 1.47-.07 2.97-.16 4.45-.09 1.34-.18 2.7-.46 4.01-.28 1.28-.73 2.54-1.24 3.76-1.44 3.42-2.56 6.88-2.53 11.11 3.31-2.46.93-6.33 3.2-8.82.74 2.24-1.17 4.52.66 7.36.57-3.31 1.02-5.86 1.46-8.42.1 14.61-3.62 29.01-2.08 43.71zm-9.58-56.76c-2.41 5.41-6.86 7.01-11.06 8.95 2.55-4 6.21-6.62 11.06-8.95zm-7.1-2.68c.26-.34.41-.71.68-.86 1.21-.68 2.45-1.3 4.03-2.13-1.81 2.67-1.81 2.67-4.71 2.99zm8.08 8.8c-.8 2.29-1.61 4.58-2.41 6.87-.56-2.76.91-4.85 1.41-7.25.34.12.67.25 1 .38zm-10.94 24.05c-1.33-5.37.24-16.38 2.88-17.93l-2.88 17.93zm1.07 2.58c-.5 2.92-.99 5.79-1.6 9.38-1.55-7.83-1.49-8.14 1.6-9.38zm2.81-20.77c.25-1.87 1.49-2.7 3.49-3.34-.89 6.12-3.35 11.59-4.73 17.35-.24-.06-.49-.12-.73-.17.65-4.62 1.34-9.22 1.97-13.84zm-7.5-9.72c-.1-.79-.19-1.43-.27-2.06.88-.18 1.76-.37 2.68-.56.81 2.22-.77 2.27-2.41 2.62zm.37 10.67l-.4.03c-.04-.53-.07-1.07-.11-1.6l.39-.03c.03.53.07 1.07.12 1.6zm14.61-15.83l1.91-1.37c.13.17.26.34.39.5-.62.5-1.25 1-1.87 1.5-.14-.2-.29-.41-.43-.63zm10.79 9.37c-.8-3.65-.21-7.1.8-10.48.33.06.67.12 1 .19l-1.8 10.29zm.5-13.92c-.51-.85-1.01-1.67-1.64-2.72 1.2-.56 2.07-.97 3.78-1.77l-2.14 4.49zm2.14-8.82l-28.72 16.31c-.44-1.38-1.08-2.73-1.25-4.14-.22-1.74.42-3.19 1.94-3.37l.37-4.03c-.34-.02-.69-.07-1.05-.15l1.14-.81.35-3.8 14.5-9.74c.35-.48.71-.96 1.09-1.41.79-.94 2.01-1.53 3.26-2-.11.23-.21.46-.3.69l3.46-2.33c.62-.7 1.31-1.35 2.15-1.9.02.15.04.27.06.41l5.62-3.78-2.62 20.05zm11.52-98.86l.09-.11c-.06 1.48-.16 2.97-.18 4.45-.04 3.19.02 6.38-.08 9.57-.12 3.83-.46 7.65-.53 11.48-.17 10.16-1.64 20.16-3.2 30.17-.4 2.54-.54 5.15-.44 7.72.09 2.35-.81 3.94-2.55 5.39-5.37 4.51-10.53 9.28-16.02 13.64-4.41 3.5-9.18 6.53-14.23 10.08 1.19-13.6 2.44-26.8 3.47-40.01 1.01-13.11 3.48-26.09 3.66-39.83 9.64-7.52 19.73-15.38 30.59-23.85-.18 4.39.61 7.85-.58 11.3z" class="st0"/>
</svg>
