<svg xmlns="http://www.w3.org/2000/svg" id="Layer_1" x="0" y="0" version="1.1" viewBox="0 0 500 500" xml:space="preserve" fill="currentColor" aria-hidden="true">
  <style>
    .st0{fill:#ef4723}
  </style>
  <path d="M226.82 236.74c-1.48-4.81-2.21-9-.81-13.49.69-2.21 1.53-2.82 3.77-2.81 16.01.12 32.01.07 48.02.1 13.71.02 27.41.04 41.12.12 2.87.02 5.74.17 8.59.44 3.35.32 4.02 1.25 4.14 4.69.12 3.46.35 6.92.55 10.78-.69.24-1.76 1.03-2.6.83-1.71-.41-2.8-.26-3.91 1.27-.46.63-1.87.82-2.82.78-10.33-.45-20.66-.84-30.97-1.54-20.23-1.36-40.48-1.15-60.73-1.17h-4.35zm97.45-8.98c-3.06 0-5.78-.05-8.51.01-9.44.21-18.88.58-28.33.66-5.32.05-10.65-.52-15.97-.49-13.1.09-26.21.37-39.31.64-.64.01-1.27.7-2.6 1.48 1.61.28 2.33.51 3.07.53 8.68.22 17.37.45 26.05.58 6.21.09 12.44-.11 18.64.1 6.68.23 13.35.98 20.03 1.15 7.86.21 15.73.13 23.59-.02 3-.04 3-.29 3.34-4.64zM228.01 247.57c2.71.42 5.01 1.1 7.3 1.08 6.23-.05 12.45-.52 18.68-.58 18.58-.16 37.15-.23 55.73-.28 4.41-.01 8.83.22 13.24.22 1.49 0 2.98-.39 4.48-.58 2.02-.26 3.95.88 4.04 2.7.21 4.66.23 9.34.3 14.01 0 .27-.26.54-.57 1.14-6.13 0-12.44-.01-18.74 0-24.68.04-49.36.08-74.04.15-1.82.01-3.64.19-5.45.41-3.7.44-6.48-1.31-6.6-5.04-.13-4.07.52-8.16.93-12.23.03-.5.65-.94.7-1zm6.04 11.66h91.03v-5.43c-1.36.21-2.61.59-3.85.57-17.65-.35-35.3-.79-52.96-1.09-3.01-.05-6.02.53-9.04.72-7.86.5-15.72.94-23.58 1.41-2.2.13-2.37 1.43-1.6 3.82zM225.27 192.88c2.68-.23 4.6-.54 6.52-.53 11.41.08 22.82.17 34.23.39 16.3.31 32.61.74 48.91 1.11 3.19.07 6.39-.03 9.58.15 1.48.08 3.04.38 4.38.99 3.02 1.4 4.29 4.42 2.49 7.07-1.05 1.55-1.19 2.95-1.41 4.56-.42 3.12-.72 3.65-4.04 3.66-8.82.02-17.65-.22-26.47-.39-3.34-.07-6.68-.32-10.03-.33-14.33-.04-28.67.01-43-.03-5.48-.02-10.96-.09-16.43-.32-4.23-.18-5.73-1.73-5.63-5.88.07-3.3.55-6.59.9-10.45zm15.64 9.15c5.8.28 11.1.59 16.4.77 12.92.42 25.85.75 38.77 1.15 7.9.24 15.8.52 23.69.83 1.81.07 3.36-.13 4.04-2.37-.93-.44-1.84-1.2-2.8-1.29-9.96-.92-19.92-2.21-29.91-2.45-16.71-.4-33.44-.11-50.2-.11.01 1.01.01 2.04.01 3.47zm-11.83-.12c3.66.12 7.36 1.64 8.85-3.58-2.86-.38-5.72-.75-8.85-1.16v4.74zM285.11 332.48c-.05.03-.11.06-.16.08l.26.06-.1-.14zM210.3 304.27c-.04.04-.08.08-.12.11.07-.01.14-.01.21-.02l-.09-.09zM376.27 253.02c.01-.02.03-.04.04-.07a.784.784 0 00-.14-.02l.1.09zM263.87 169.99c-.02-.03-.04-.08-.07-.11-.02.02-.04.03-.06.05.01 0 .13.06.13.06zM293.97 296.65c.06.04.12.08.17.13-.03-.07-.05-.14-.08-.21l-.09.08zM217.67 168.57l.01-.01h-.01v.01zM225.39 301.18c.43.03.86.05 1.29.09 2.4.23 4.74-.04 7.06-.26l-8.35.17zM239.68 300.89c.51.06 1.03.13 1.55.24 0-.09-.01-.18-.01-.27l-1.54.03zM148.61 215.17c.2.45.68.65 1.62.38v-.12l-1.62-.26z" class="st0"/>
  <path d="M400.51 333.55c-1.08-2.6-2.11-5.44-2.19-8.21-.31-11.53-.26-23.06-.34-34.6-.13-18.77-.28-37.54-.41-56.31-.03-4.12-.02-8.25-.02-12.37-.01-7.96-.02-15.91-.01-23.87.01-4.41 1.34-8.91-2.27-12.85-3.69-4.02-7.1-7.76-13.38-7.09-4.63.49-9.36.1-14.58.1 0-3.48-.25-6.52.06-9.51.5-4.88-.62-9.08-3.36-13.2-1.47-2.22-3.26-3.73-5.49-4.45-2.55-.83-5.36-1.22-8.05-1.2-9.59.05-19.17.38-28.75.54-18.15.3-36.31.56-54.46.81-20.75.28-41.5.47-62.25.82-14.63.24-29.25.8-43.88 1-14.47.2-28.95.08-43.42.2-5.46.04-10.79 1.2-14.09 5.89-2.3 3.27-3.78 6.99-3.78 11.42-.03 21.98-.5 43.97-.66 65.95-.15 20-.03 40-.2 60-.04 4.93 1.15 9.45 3.64 13.49 3.12 5.05 7.72 8.49 14.33 7.56 4.28-.6 8.71-.11 13.29-.11.38 9.41-1.25 18.54 2.4 27.34 1.12.54 2.72 1.34 4.35 2.11 2.27 1.07 4.13 2.87 6.98 2.85 13.59-.13 27.18-.02 40.77-.13 19.47-.17 38.94-.48 58.42-.68 14.04-.14 28.08-.21 42.12-.29 10.07-.06 20.14-.17 30.2-.1 1.56.01 3.11.87 4.69 1.35.88-.39 2-1.29 3.15-1.33 5.47-.19 10.96-.17 16.44-.19 7.57-.02 15.15-.05 22.72-.01 4.84.02 9.68.18 14.53.2 1.81.01 3.63-.14 5.43-.32 1.34-.14 2.71-.75 4-.61 3.03.34 5.44-.91 7.43-2.81 2.3-2.2 4.27-4.75 6.33-7.19 1.07-1.3 1-2.54.31-4.2zm-296.74-33.58v-3.81l.32-.03c.12 1.27.25 2.53.37 3.8-.23.01-.46.02-.69.04zm279.21-96.95c.26-3.77.3-7.58 1.01-11.27.35-1.82 1.97-3.39 3.65-6.09.8 2.38 1.57 3.68 1.63 5 .24 5.15.26 10.32.34 15.48.03 1.82-.01 1.82-4.28 5.97-.12-1.26-.07-2.2-.33-3.05-.42-1.33 1.42-3.73-1.74-3.92-.15 0-.33-1.39-.28-2.12zm-.59-18.26l.39 1.17c-1.14.47-2.27.95-3.41 1.42l-.01.01c-.52-.46-1.05-.93-1.82-1.6 1.73-.36 3.29-.68 4.85-1zm-3.16 2.73c-1.23 1.2-2.48 2.41-4.03 3.91-.33-2.92-.33-2.97 4.03-3.91zm-5.18 17.57c.07-3.02.47-6.02.59-9.04.07-1.77.24-3.34 2.66-4.04-.44 1.14-.79 2.03-1.14 2.93.23.18.47.35.7.53l5.87-5.29c-.6 7.5-1.11 14.04-1.63 20.58-.29.07-.57.13-.86.2-.6-1-1.2-2-2.04-3.41-1.07 2.24-1.98 4.15-3.13 6.57-1.74-3.33-1.09-6.23-1.02-9.03zm-9.68 91.47c-.36 3.62 2.77 9.65-2.46 13.84.89-5.01 1.83-10.28 2.46-13.84zm-6.6-26.3c-1.04-8.77-1.55-17.56-1.22-26.29 1.78 8.78 2.79 17.5 1.22 26.29zm-.44-83.19c-.6 1.93-1.71.58-2.65.26.33-.88.66-1.76 1-2.64 2.14-.38 2.04 1.13 1.65 2.38zm-1.62-2.54c-.12-.09-.28-.15-.32-.26-1.36-3.77-.38-7.42.3-11.08.93 3.82 3 7.68.02 11.34zm-1.17-21.75c2.23 2.1 2.07 4.46 1.6 6.86l-1.16.03c-.15-2.3-.29-4.59-.44-6.89zm-13.13-2.6c-1.25 1.09-2.04 1.77-3.04 2.64l-.89-2.64h3.93zm-65.84-1.91c1.26.08 2.53.17 3.72.25-1.25.14-2.58.28-3.9.43.06-.23.12-.46.18-.68zm-20.26 2.04c5.48-.67 10.93-1.82 16.54-.87l-8.09 1.62c2.89 2.02 5.23-.43 7.93-.36 3 .09 6.01-.57 9.02-.9 2.86-.32 5.72-.73 8.59-.94 3.01-.22 6.03-.28 9.05-.33 2.84-.05 5.68-.01 8.56.08-2.96.54-6.1.42-8.5 2.83-.56.56-2.05.28-3.11.27-9.41-.07-18.78.29-28.12 1.7-3.27.49-6.69.1-10.03-.09-.92-.05-1.81-.81-2.94-1.35.48-.74.74-1.61 1.1-1.66zm-119.97 2.56c3.68.82 7.17-.49 10.75-.73 9.23-.61 18.46-1.15 27.69-1.72.07.31.14.62.22.94-6.23.54-12.46 1.09-18.68 1.63.02.19.05.37.07.56 15.3-.61 30.6-1.45 45.9-1.75 15.21-.3 30.43-.07 45.73.63-1.86.33-3.7.87-5.57.95-12.48.48-25.02.28-37.44 1.41-15.84 1.44-31.63.14-47.44.47-.89.02-2.1.17-2.63-.32-2.27-2.11-4.52-1.88-7.1-.68-1.03.48-2.38.35-3.59.37-3.35.04-6.69.01-10.04.01-.08-.37-.16-.74-.23-1.11.79-.24 1.66-.81 2.36-.66zm-26.17 138.62c.13-1.39-.19-2.46-.44-3.73-.7-3.55-1.07-7.17-1.38-10.79-.26-3.04-.94-6.27-.23-9.12 2.37-9.4.02-18.84.8-28.22.18-2.12.66-4.23.65-6.35-.03-6.51-.11-13.02-.4-19.52-.21-4.84-.78-9.67-1.16-14.51-.06-.74.09-1.49.18-2.61 1.98 1.2 1.96 2.97 1.79 4.42-.3 2.56.94 4.25 2.42 6.05 4.45 5.41 8.81 10.89 13.15 16.38.84 1.06 1.41 2.34 2.19 3.46 1.19 1.7.99 3.34.21 5.15-2.04 4.74-4.14 9.46-5.87 14.31-1.21 3.4-1.98 6.97-2.65 10.53-.43 2.24 1.98 3.98 4.17 3.24.41-.14.78-.78 1.12-.74 4.87.59 7.95-2.99 11.7-4.98 3.76-1.99 7.65-3.78 11.22-6.07 3.81-2.44 7.22-2.25 11.02-.04 3.26 1.9 6.87 3.18 10.22 4.93 3.09 1.62 5.95 3.7 9.09 5.2 1.83.88 4.01 1.39 6.04 1.41 2.63.02 3.5-1.67 2.28-3.99-4.7-9.01-5.89-19.13-9.16-28.59-.74-2.15.18-3.74 1.88-5.17 3.84-3.23 7.65-6.52 11.29-9.97 2.09-1.98 3.95-4.23 5.69-6.53 1.55-2.05 1.29-3.65-.9-4.96-1.76-1.05-3.76-1.99-5.77-2.3-4.8-.74-9.66-1.06-14.5-1.59-2.86-.32-5.71-.72-8.98-1.14-2.11-6.62-4.28-13.22-6.3-19.87-.82-2.71-2.33-4.56-5.54-5.5-1.83 3.29-3.65 6.75-5.63 10.11-2.71 4.59-5.47 9.17-8.37 13.64-2.08 3.21-4.92 5.38-9.04 5.25-2.13-.07-4.26.07-6.39.05-4.5-.04-9.07-.62-13.83 2.63 0-5.77-.02-10.61.01-15.45.02-4.04.44-8.02-.71-12.09-.6-2.12.46-4.79 1.04-7.14.85-3.44 1.32-6.83.16-10.31 1.81-2.5 3.6-4.96 6.99-5.01.26.11.39.17.51.22-.49.57-.98 1.15-1.47 1.73.15.18.35.59.46.56 5.91-1.25 11.53 1.43 17.41 1.19 5.77-.23 11.57.31 17.35.71 1.39.1 2.73.98 4.09 1.5v-.02c4.37-.47 8.76-.76 13.09-1.47 2.54-.41 3.83.67 4.94 2.75-.48.55-1.46 1.63-1.43 1.65 1.75 1.69 2.59 2.59 3.18.48 1.31-.37 2.58-.74 3.84-1.1-.93-.28-1.86-.57-2.8-.85 6.1-2.48 12.27-2.45 18.53-1.49-3.74.4-7.48.72-11.2 1.22-1.57.21-3.1.8-4.65 1.21 5.42-.43 10.86-.87 16.8-1.36 0 7.24 1.12 6.32 1.1 2.35-.01-1.75.56-2.85 2.57-3.01 7.12-.59 14.22-1.35 21.33-1.95 7.83-.66 15.67-1.24 23.51-1.79 1.96-.14 3.93-.02 5.91.3-9.18 1.13-18.31 2.85-27.6 2.39-1.96-.1-3.54.25-5.03 1.38 1.18.25 2.36.49 4.05.84-2.2 6.8-.56 6.92 1.36-.32 2.11-.28 4.16-.58 6.23-.82 5.4-.61 10.79-1.26 16.2-1.76 1.81-.17 3.41-.39 5.36 1.03 1.76 1.29 4.86.83 7.38.99 1.5.09 3.03-.24 4.52-.11.38.03.68.9 1.01 1.46 1.46-1.42 3.22-1.86 5.25-1.94 6.24-.24 12.46-.65 18.69-1.17l-.04-.06c-11.09-.77-22.27 1.84-33.3-.7 20.92-2.98 46.64-4.36 54.64-3.1-.07.27-.16.52-.26.73l2.36.07c.09-.61.17-1.26.27-1.99h-8.29c4.55-2.34 25.26-3.29 32.64-1.83.43 1.95.55 3.41.21 4.53l4.41.13c.5-.42 1.19-.9 2.18-1.58.14.64.13 1.17.02 1.64l2.37.07c.06-.23.11-.45.15-.68-.81-3.52-.81-3.52 2.85-4.3-1.05 1.59-1.95 2.95-2.86 4.31 1.8-1.32 3.61-2.65 5.41-3.98 1.63-1.21 3.2-2.61 6.25-1-1.27.43-1.84.65-2.43.82-2.52.73-4.55 1.72-5.48 4.65-.03.1-.07.19-.11.28l3.24.09c1.03 3.92 1.7 7.32.23 10.36l.12 5.24c.19-.11.39-.23.6-.34 1.54 2.59.97 4.64-.46 6.46l.03 1.29c.67-.16 1.35-.32 2.02-.47-.4 1.1-.81 2.19-1.21 3.29 1.21-.53 2.41-1.07 4.19-1.85-.45 1.72-.74 2.81-1.06 4.06-.67-.39-1.19-.69-1.83-1.06-.65 1.83-1.05 3.68-1.9 5.26l.13 5.78c.42.62.69 1.44.67 2.1-.04 1.33-.24 2.66-.54 3.97l.08 3.78c1.49-1.42 2.91-3.04 5.4-3.45-.08 11.1-.13 22.1-1.06 33.07-.34.04-.69.07-1.03.11-.35-1.18-.71-2.37-1.23-4.1-1.5 4.99-.22 9.47-.08 13.93.05 1.5.31 3 .38 4.51.32 6.98.7 13.96.88 20.95.07 2.72-.4 5.44-.55 8.17-.1 1.86-.78 3.93 1.64 5.48.62-.99 1.12-1.78 1.64-2.6.31 3.54.66 7.01.9 10.48.41 5.82-4.72 9.2-9.96 9.8-1.72.2-1.96-1.06-1.73-2.45-1.82 2.01-1.82 2.01-4.83 1.77-.98-1.16-1.52-2.41-2.41-2.76-1.44-.58-2.92-.95-4.42-1.21l-15.91-.77c-.86 0-1.71.01-2.57-.02-.35-.01-.7-.07-1.09-.16l-3.71-.18c-.8.24-1.52.47-2.23.48-3.5.05-7.01.1-10.5-.13-9.94-.67-19.85-.6-29.8.05-6.49.42-13.05-.27-19.58-.38-4.36-.08-8.72-.01-13.34-.01 1.29.26 2.42.49 3.79.77-.33.54-.48 1.11-.73 1.16-2.95.54-5.89 1.19-8.86 1.46-7.71.7-15.43 1.28-23.16 1.76-1.37.09-3.53 1.13-3.79-1.63 1.33-.48 2.64-.88 3.9-1.4.47-.2.83-.65 1.23-1.03-1.04.08-2.08.17-3.12.25-.12-.35-.25-.69-.37-1.04.9-.57 1.77-1.56 2.71-1.63 2.4-.17 4.82-.41 7.23-.6l-102 2.11c.19.07 1.11.42 2.31.87.12 1.48.24 3.08.37 4.7-5.46.09-8.61-2.84-8.17-7.57zm14.38-86.67c5.55-.25 10.61-.49 16.49-.76 2.17-4.14 4.74-9.03 7.3-13.92.17.07.35.14.52.22-.09 1.15-.18 2.3-.26 3.45l2.91-6.44c.04-.5.23-.97.63-1.4l1.86-4.11 1.35 3.74c.01-.06.03-.12.04-.19.26-1.14.54-2.26.74-3.09 1.31 2.08 1.17 4.37.48 6.78l.8 2.22c.28-.67.58-1.39.93-2.21.76 2.58 1.53 4.55 1.9 6.59.67 3.68 2.96 5.53 6.4 6.21 2.95.59 5.92 1.06 8.97 1.59.18 1.34.33 2.47.56 4.15.8-1.55 1.34-2.6 1.88-3.65 2.32-.28 4.5-.54 6.79-.82-.55 3.06-5.66 3.93-3.06 7.73-2.61 2.42-5.12 4.86-7.77 7.14-2.73 2.34-2.8 5.02-1.88 8.26 2.28 8.03 4.33 16.13 6.43 24.22.18.68.02 1.45.02 2.83-4.43-3.01-9.05-4.77-12.77-8.06l.15.16c-4.5.52-7.53-2.57-11.31-4.44 1.35-2.73 2.17-5.66 6.4-4.81-1.06-2.01-2.31-2.5-3.91-1.57-2.71 1.57-5.34 3.27-8.02 4.89-5.04 3.04-10.1 6.06-15.85 9.51 1.89-4.79 5.04-8.41 10.81-12.87l-3.07-3.14c-2.31 2.86-4.82 5.67-6.97 8.73-2.12 3.03-3.88 6.31-6.48 9.24.37-1.17.71-2.34 1.11-3.49 2.27-6.57 4.89-13.04 6.7-19.74.83-3.08.38-6.56-2.87-8.93a77.524 77.524 0 01-8.69-7.38c-1.15-1.14-3.65-2.28-1.87-4.84 1.24.69 2.44 1.36 3.64 2.03.2-.19.4-.37.6-.56-.41-.86-.84-1.71-1.63-3.27zm61.53 1.74c.35-1.21.25-2.9 3.17-2.32-1.04 1.22-1.77 2.09-2.55 3.01-.32-.35-.65-.57-.62-.69zm170.17-12.97v5.7c-1.28-1.98-.52-3.84 0-5.7zm-113.14 113.6c-2.62 2.09-2.62 2.06-10.47 2.1-3.5.02-6.99.26-10.49.26-3.41.01-6.83-.15-10.25-.23l-.15-1.18c.28-.32.55-.91.83-.91 9.9-.05 19.8-.04 30.53-.04zm-59.41 8.87c2.65-.43 5.43-.88 8.6-1.4v11.89c-3.23.35-6.23.67-9.21.99-1.25-5.96-1.14-6.38 2.25-8.62-1.38-.39-2.81-.75-1.64-2.86zm3.07-2.6c-2.98.02-5.95-.5-8.96-.08-.56.08-1.23-.67-1.97-1.1-3.78 2.63-8.88 1.04-13.65 1.63-.9.11-1.92-.76-2.88-1.17.06-.4.13-.8.19-1.19 3.35-.34 6.7-.85 10.06-1 7.46-.32 14.92-.55 22.39-.62 1.49-.01 3.52-.75 4.38 1.86.2.61 2.92.38 4.48.54 0 .27 0 .55-.01.82-1.25 0-2.53.18-3.74-.03-3.48-.61-6.87.32-10.29.34zm-9.47 8.24c1.33-.3 2.49-.56 4.28-.97-.12 2.43-.22 4.54-.33 6.82-1.52.14-2.67.24-3.65.33-2.1-1.99-.71-3.91-.3-6.18zm-.66-4.78c1.59-.22 3.15-.44 4.77-.66-.11 3.43-.11 3.43-4.09 4.1-.2-1.03-.41-2.08-.68-3.44zm-2.5-.69c-4.76.59-9.53 1.18-14.19 1.75-.97-2.44-.08-3.11 1.58-3.12 4.2-.03 8.4-.01 12.6-.01 0 .47.01.93.01 1.38zm20.2-1.11h6.28c.32 4.01.63 7.87.97 12.11h-7.24c-.01-4.29-.01-8.03-.01-12.11zm1.55-6.4c-9.91.16-19.81.53-29.71.77-2.43.06-4.97.61-7.23-1.49.93-.18 1.86-.52 2.79-.52 13.12-.04 26.24-.01 39.36-.07 2.41-.01 4.82-.35 7.8-.59v3.77c-2.25-.34-4.27-.64-6.28-.94-2.24-.33-4.49-.97-6.73-.93zm-25.5-14c-.45.86-.74 1.43-1.03 1.98-4.96.26-9.93.54-14.89.78-1.19.06-2.38.01-3.59-.28 6.23-2.08 12.62-2.56 19.51-2.48zm-21.19-.3c-.01-.08-.01-.16-.02-.23 1.44-.09 2.88-.17 4.31-.26.01.16.02.33.02.49h-4.31zm24.3.89c.03-.17.06-.34.08-.51 4.45.42 8.91.84 13.95 1.32 1.72-2.29 4.64-3.69 8.26-2.92.54.11.86 1.26 1.4 2.09-2.06.52-3.76.96-5.46 1.39.06.31.11.62.17.92 2.61-.41 5.22-.81 7.88-1.23-.21-.58-.35-.98-.5-1.39 4.55-2.8 4.55-2.8 7.32-2.65.15 3.26-3.16 2.01-4.69 3.45l3.95 1.04c-1.33.51-2.65 1.34-3.98 1.36-12.4.18-24.81.22-37.22.28-.9 0-1.79-.15-2.71-.52 2.47-.42 4.93-.83 7.4-1.25-.02.04-.05.09-.07.13 2.31 1.92 4.13-1.34 6.41-.84-.73-.21-1.46-.44-2.19-.67zm6.44-1.21h7.25l.03.35h-7.26c-.01-.11-.02-.23-.02-.35zm29.2 17.54c-1.85 2.19-3.97 1.46-5.85.6l5.85-.6zm-87.73-12.71c-2.43-4.1-2.43-4.1 1.67-4.8-.63 1.82-1.15 3.31-1.67 4.8zm14.95-3.07c.22.44.43.85.91 1.81-4.67.34-9.11.66-13.59.98-.16-2.54.49-4.44 2.67-4.51 6.5-.2 13.01-.07 19.54.26-2.86 2.15-6.29.46-9.53 1.46zm3.75 11.93h7.54c-1.32 3.91-4.82 2.81-7.33 4.45-.08-1.72-.14-3-.21-4.45zm7.87 25.83c-1-.84-1.71-1.44-2.42-2.03.34-.44.48-.81.67-.84 1.69-.26 2.63.23 1.75 2.87zm-1.9-4.16c-3.33.19-4.31-.84-4.73-4.11-.36-2.85-.76-5.7-.86-8.56-.03-.79.79-2.07 1.51-2.33 1.22-.43 2.67-.23 4.33-.31.23 3.28.45 6.36.68 9.61 3.47-.04 7.05-.4 9.4 4.28-3.85.55-7.07 1.24-10.33 1.42zm10.49-6.02c-2.62-.56-4.99-1.07-7.37-1.58-.02-.33-.03-.66-.05-.99 2.25-.43 4.5-.85 7.41-1.4.01 1.53.01 2.48.01 3.97zm-7.07-5.02c.59-4.08.59-4.08 7.2-3.27-.36 3.28-.36 3.28-7.2 3.27zm-.15-5.51c2.54-1.67 5.1-2.32 7.78 0h-7.78zm.29-4.55c3.32-1.3 4.53-1.28 7.61.12-2.59 1.28-4.06 1.26-7.61-.12zm10.66 11.19c4.64-.53 9.31-.7 13.65-.97 1.3 1.84.98 3.05-.41 3.43-4.66 1.28-9.34 3.04-15.29.6.8-1.27 1.33-2.98 2.05-3.06zm14.85 7.27c-4.57.24-8.25.44-11.93.63 3.04-3.07 6.78-3.24 10.56-2.99.42.02.76 1.26 1.37 2.36zm22.07 3.88c-4.21 4.06-8.87.4-13.25.85 2.57-.16 5.14-.31 7.71-.47-.01-.17-.01-.34-.02-.5h-29v-.82h38.7l.03.64c-1.42.06-3.39-.45-4.17.3zm5.03 2.35h-2.99c-.03-.14-.05-.28-.08-.42.52-.09 1.03-.22 1.55-.26.54-.05 1.09-.01 1.63-.01-.03.23-.07.46-.11.69zm.19-18.01c2.55-.11 4.57-.2 6.99-.31.46 4.29.88 8.28 1.36 12.71h-3.25c.28-.76.48-1.28.78-2.09-1.47.8-2.82 1.53-4.36 2.36-2.33-4.1-.72-8.2-1.52-12.67zm2.61 18.3c-.02-.47-.05-.93-.07-1.4h8.9c-3.26 2.54-6.13 1.01-8.83 1.4zm8.34-5.66c-1.73-3.9-1.73-3.9 2.1-7.29-1.1.35-2.2.69-3.64 1.15v-6.89l10.14-.67c-.64 1.57-.96 2.35-1.28 3.14.98 1.99.98 1.99-.09 3.53.6 2.2 1.07 3.9 1.53 5.54-3 2.51-6.02 1.22-8.76 1.49zm-1.44-15.39c2.92-1.06 5.92-1.23 8.96-1 .36.03.66.73 1.29 1.47-3.75.67-6.99.82-10.25-.47zm19.14-1.27c2.59-.28 5.23-.06 7.85-.06.17.4.34.8.51 1.21-.52.3-1.04.86-1.56.87-4.6.07-9.21.04-14.68.04 2.71-3.02 5.51-1.81 7.88-2.06zm5.46 20.85h-5.8c.01-.25.03-.51.04-.76 1.93.16 3.85.33 5.78.49-.01.09-.01.18-.02.27zm23.27.14h-3.01v-.15h3.01v.15zm-34.58-2.52c-.01-.31-.01-.62-.02-.94h12.36c-.01-.37-.01-.74-.02-1.11h-13.57c.21-.86.4-1.67.6-2.48-1.64-1.74-1.59-3.43.2-4.76.59-.44 1.28-.75 1.92-1.11-.1-.19-.16-.39-.2-.39-.85.07-1.7.17-3.2.33.4-1.45.36-3.1 1.13-3.7 1.88-1.46 4.16-1.5 6.93.04-.43 1.61-.91 3.4-1.39 5.19 1.81.29 3.04-.27 3.26-2.27-.16-1.65-1.67-3.95 2.28-3.88-.86 1.47-1.57 2.68-2.28 3.89.88-.54 1.77-1.09 2.65-1.64 1.83-1.13 3.67-2.26 5.63-3.47-.36-1.86.41-2.4 3.51-2.24v11.91c2.62 1.21 3.75-.5 4.68-2.59h-2.34c-1.96-3.06.67-6.14-.45-9.63h12.87c.75 3.93-.92 4.63-6.78 2.77-1.04 2.26-2.08 4.5-3.11 6.75.73.13 1.7.02 2.13.45.5.49.53 1.46 1.01 3.01 1.34-6.86 2.08-7.56 7.83-7.66.63 4.4-.59 9.05 1.55 13.52-12.78.01-24.98.01-37.18.01zm20.61-20.88c3.07-1.37 14.78-1.56 20.08-.62-.89 1.25-1.73 2.44-3.13 4.39v-2.83c-5.73-.74-11.43.22-16.95-.94zm17.5 20.51c-.3-4.39-.6-8.9-.94-13.85 3.75-.27 7.31-.52 10.46-.75.52 4.34 1.03 8.59 1.57 13.14-4.83 3.05-5.69 3.17-11.09 1.46zm11.95-4.4c-.31-2.25-.39-4.56-.28-6.83.03-.71.82-1.62 1.5-2.01 1.55-.88 3.25-1.49 5.35-2.42v10.06c-1.19.95-2.6 2.08-4.03 3.22-1.56.25-2.37-.84-2.54-2.02zm13.41 3.18c-3.16.35-6.33.55-9.51.76-1.36.09-2.05-.42-1.37-1.84 2.71-1.41 5.41-2.81 8.12-4.22-.78-.17-1.56-.34-2.32-.51-1.16-5.98-.62-7.77 2.42-9.34-.49-.74-1.02-1.53-1.31-1.96-2.64.96-5.2 1.89-7.93 2.88-.62-1.35-.97-2.13-1.4-3.05-3.17 4.58-7.91 2.96-12.78 3.45 2.22-2.96 6.3-2.88 7.34-6.43 11.14-.3 22.33-.6 33.98-.92.17 1.5.33 2.86.53 4.54-2.64.13-4.84.23-7.04.33.01.18.01.36.02.54h6.61c.37 4.87.73 9.46 1.08 14.04-5.49 2.24-11.06 1.12-16.44 1.73zm9.46-30.18c-6.85-.32-13.72-.36-20.58-.4-9.58-.05-19.16.04-28.74.01-1.61 0-3.23-.28-4.84-.42l.03-.89c5.92-.29 11.83-.73 17.75-.83 16.29-.27 32.58-.55 48.87-.52 8.42.01 16.83.68 25.25 1.04 1.86.08 3.66.23 4.32 2.89-6.64-.35-13.15-.69-19.66-1.06-2.88-.16-5.76-.41-8.63-.6-.45-.03-.98-.09-1.34.11-4.05 2.22-8.24.87-12.43.67zm86.31 28.38l1.43-3.74c.78-.72 1.56-1.43 2.34-2.15-.58 2.3-.88 4.72-3.77 5.89zm-2.24-35.79c-.07 3.29-.16 6.58-.19 9.88-.02 1.68-.03 3.37.14 5.03.47 4.51-2.48 7.44-5.37 10.63l.97-11.33c-.89 1.09-1.54 1.58-1.74 2.22-.27.85-.21 1.81-.25 2.72-.24 5.3-.46 10.6-.71 16.19 2.06-4.21 4.01-8.17 6.25-12.74.65 1.46.97 2.16 1.28 2.86-.37-4.7 1.3-8.54 4.61-11.95 1.95 2.26 1.55 4.95 1.54 7.56 0 1.66-1.81 3.18-.25 5.1.23.29-1.34 2.04-2.09 3.12l-.01-.07-.66 2.92c-1.06.93-2.47 1.71-2.96 2.87-1.51 3.63-4.15 4.01-7.43 3.24-.57-.13-1.14-.32-2.16-.61.19-2.66.38-5.27.61-8.47-.85 1.3-1.39 2.11-1.93 2.93-.17-.04-.34-.09-.52-.13.39-2.09.79-4.18 1.23-6.49-.55-.04-1.19-.09-2.26-.17v-8.41h-1c0 2.57-.22 5.16.05 7.71.46 4.5 1.01 8.94-2.77 12.99-3.21.45-6.94 1.31-10.69 1.41-3.59.1-7.2-.58-10.8-.91 1.77.58 3.55 1.16 5.32 1.74 0 .12 0 .23-.01.35-14.87-.42-29.74-.85-44.6-1.27 13.14-.83 26.3-.52 39.46-.68-3.47-.28-6.91-.61-10.36-.77-2.72-.12-5.44-.02-8.54-.02.3-2.28.21-4.28.87-6 .93-2.45-.96-4.08-.43-6.38-2.92.3-3.12 2.16-3.95 3.69.98 1.72 4.37 3.07.98 6.13-1.07-1.31-2.02-2.49-3.04-3.75-.99 1.12 1.22 4.43-2.64 3.32v-8.25c-.2-.04-.4-.08-.6-.11-.53 2.86-1.06 5.73-1.57 8.49-3.05 2.72-6.32.45-9.88.69.55-4.63-2.59-9.53 1.42-13.97-3.25-.51-1.87-2.65-.93-5.09 3.13 0 6.45.05 9.78-.01 11.1-.18 22.19-.46 33.29-.56 3.18-.03 6.36.41 9.55.63.15.01.3.08.45.1 4.51.55 11.69-6.48 11.29-10.91-.57-6.32-1.23-12.64-1.39-18.97-.3-12.05-.22-24.11-.38-36.17-.26-19.48-.6-38.95-.87-58.43-.02-1.61.2-3.23.31-4.92 4.15.96 5.36 2.2 5.42 5.74.1 5.49.01 10.99.01 16.48v9.69c2.08-1.98 3.6-3.42 5.35-5.09 2.53.49 2.53.49 2.41 4.31-1.47-.26-3.04-.65-3.16 1.69-.26 5.01-.71 10.01-.83 15.02-.03 1.49.79 3 2.01 4.25-.2-3.1-.59-6.2-.53-9.29.05-3.03-.24-6.21 1.28-8.98.32.03.65.06.97.08.26 7.63 1.02 15.29.53 22.87-.2 3.06-3.1 5.94-4.8 8.91.56.07 1.23.3 1.57.06 1.48-1.03 1.54-3.57 3.98-3.76.2-.02.39-1.66.4-2.55.04-7 .03-13.99.03-20.99 0-4.08 0-8.17.33-12.33.57 1.84 1.22 3.66 1.69 5.52.48 1.88-.92 4.06 1.06 6.72 1.28-5.76 1.16-11.01 4.44-16.13.22 1.55.77 2.71.4 3.2-3.77 5.14-2.02 11.13-2.66 16.72-.42 3.64-.41 7.27-3.22 10.78l2.1.2c.92 7.24.75 8.92-1.27 12.85 2.36 2.1 1.55 4.88 1.29 7.42-.22 2.21-.42 4.2-.07 6.55.8 5.38.35 10.94.5 16.43.06 2.24-.6 4.09-1.96 5.88-1.68 2.22-3.08 4.66-4.22 7.28 2.9-1.38 3.16-5.33 7.1-6.93v-28.2c1.6 2.31 1.52 2.31 1.41 5.19-.1 2.59-.69 5.05 1.45 7.58 1.01 1.2-.02 4.28-.42 6.45-.2 1.1-1.06 2.08-2.08 3.94 1.48-.87 2.13-1.25 3.17-1.86-.48 3 1.02 5.94-1.81 8.4-1.31 1.14-.24 3.9-2.55 4.83-.22.09-.31 1.39-.02 1.68 3.14 3.12.99 6.73.49 9.84-.44 2.7-2.79 5.09-4.29 7.62-.3-.1-.59-.21-.89-.31V300.3c-.35.01-.69-.01-1.03-.02zm-63.6 36.53c.09-.31.19-.61.28-.92l2.83.45c-.05.3-.1.6-.15.89l-2.96-.42zm71.2-83.22c.18.02.35.05.53.07l-.39 4.45-.81-.09c.23-1.47.45-2.95.67-4.43zm-.26-15.03c.08-2.43.29-4.86.45-7.29.03-.01.07-.02.1-.04v14.46l-.57.03c.01-2.38-.05-4.77.02-7.16zm1.49 91.22c.17-2.07.29-3.44.41-4.81.38 1.39 1.62 2.78-.41 4.81zm.11 8.72c-.35-.22-.7-.43-1.05-.65.76-1.26 1.52-2.52 2.79-4.61.59 3.06-1.21 3.85-1.74 5.26z" class="st0"/>
</svg>
