<svg xmlns="http://www.w3.org/2000/svg" id="Layer_1" x="0" y="0" version="1.1" viewBox="0 0 500 500" xml:space="preserve" fill="currentColor" aria-hidden="true">
  <style>
    .st0{fill:#ef4723}
  </style>
  <path d="M304.97 316.14c-.58 5.28-1.11 10.57-1.79 15.83-.22 1.73-.98 3.39-1.27 5.12-.52 3.12-1.96 6.06-1.51 9.38.38 2.81-1.77 4.85-2.83 7.2-.91 2.02-2.11 3.97-3.49 5.72-4.78 6.07-9.57 12.15-14.58 18.03-4.2 4.92-9.56 8.58-14.53 12.66-6.46 5.3-14 8.65-21.31 12.35-7.15 3.61-15.11 5.09-23.05 6.07-8.31 1.02-16.67 1.06-24.96-.09-12.97-1.8-25.3-5.6-36.67-12.3-8.09-4.76-15.17-10.72-21.71-17.39-1.74-1.78-3.77-3.28-5.71-4.86-4.59-3.73-8.31-8-10.73-13.57-3.94-9.06-8.94-17.68-12.03-27.11-1.4-4.26-2.04-8.77-2.91-13.18-.48-2.45-.9-4.94-1.02-7.43-.25-5.08-.4-10.18-.38-15.27.01-3.78-.56-7.64.98-11.31-1.19-4.44 1.56-8.01 2.77-11.87 1.24-3.96 3.1-7.72 4.78-11.53 1.11-2.51 2.56-4.87 3.54-7.42 2.98-7.72 8.56-13.43 14.54-18.74 4.89-4.34 10.24-8.16 15.18-12.44 2.78-2.41 6.02-3.86 9.28-5.29 3.59-1.58 7.33-2.84 11.04-4.12 5.06-1.74 10.11-3.53 15.24-5.02 8.53-2.48 17.25-3.36 26.13-2.74 9.51.66 18.41 3.38 26.98 7.43 4.85 2.29 9.81 4.34 14.66 6.62 6.77 3.18 12.41 7.93 17.71 13.1 4.35 4.24 8.6 8.6 12.95 12.85 5.02 4.91 8.5 10.92 11.82 16.97 4.71 8.58 8.39 17.63 10.58 27.23 1.9 8.27 2.34 16.63 2.3 25.12zm-32.06 47.31c.84-1.1 1.65-2.21 2.52-3.28.84-1.05 2.09-1.86 2.02-3.47-1.63 1.14-3.14 2.19-4.65 3.25.33-.49.57-1.12 1.02-1.45 3.79-2.86 5.56-7.58 9.49-10.31.35-.24.51-.79.69-1.23.82-1.97 1.82-3.9 2.38-5.95 1.73-6.3 3.39-12.63 4.88-18.99.47-2.03.44-4.2.44-6.3 0-1.66-.37-3.31-.47-4.98-.18-2.8-.29-5.6-.42-8.41.73 2.23.96 4.47 1.28 6.69.32 2.23 1.07 4.45 1.05 6.67-.04 6.07-.39 12.13-.59 18.19-.02.7.16 1.41.28 2.38 3.22-3.22 5.05-6.59 4.72-10.83-.24-3.16-.58-6.32-.78-9.49-.15-2.43-.15-4.86-.22-7.29l.78-.06c.34 2.49.67 4.98 1.13 8.34.8-1.38 1.46-2.08 1.6-2.87.22-1.28.25-2.63.1-3.92-.75-6.51-1.4-13.03-2.46-19.49-.69-4.2-1.56-8.46-4.34-11.96l.06.08c-.59-1.43-1.18-2.85-1.77-4.28-1.02-2.47-3.62-4.4-2.58-7.62.13-.4-.49-1.05-.75-1.58-3.11-6.39-7.31-11.98-12.22-17.09-5.93-6.17-14.01-9.88-19.21-16.87-.06-.08-.21-.11-.31-.15-3.76-1.49-7.53-2.95-11.27-4.48-1.97-.81-3.89-1.73-5.82-2.63-1.83-.85-3.64-1.73-5.45-2.6-.18.22-.36.43-.54.65 1.43 1.44 2.64 3.26 4.33 4.26 5.04 2.97 8.92 7.14 12.69 11.45.87 1 1.42 2.28 2.12 3.43l-.63.42c-.44-.45-.88-.9-1.31-1.36-3.44-3.62-6.88-7.26-10.34-10.87-.49-.51-1.2-1.37-1.63-1.27-2.3.51-2.82-1.37-3.8-2.59-2-2.51-4.31-4.31-7.96-3.91 1.47 2.87 4.58 4.3 5.67 7.75-5.96-5.35-14.56-7.09-20.04-5.36 3.22 2.54 3.22 2.54 7.49 2.4l-2.3 1.89c-7.69-.91-14.5 1.15-21.38 2.53v.01c.42-2.01 2.6-1.03 3.58-2.1-.22-.31-.45-.63-1.13-1.58 5.21 2.02 9.53.17 14.17-.48-2.53-2.3-3.72-2.93-5.76-2.66-4.13.55-8.28 1.06-12.36 1.88-8.52 1.7-16.97 3.79-25.52 5.31-3.89.69-7.72 1.79-10.89 3.71a81.773 81.773 0 00-14.4 11.06c-8.03 7.73-14.3 16.93-19.75 26.62-1.44 2.56-2.59 5.39-3.3 8.24-1.44 5.75-2.84 11.55-3.6 17.42-.76 5.89-1.12 11.91-.93 17.84.27 8.45 1.9 16.77 4.18 24.93.22.79.76 1.5 1.16 2.25.21-.07.41-.13.62-.2l.48-8.46c-1.76-1.22-.64-2.75-.46-4.19.07-.55.07-1.11.15-2.43-1 1.85-1.6 2.95-2.19 4.04-.32-.87-.11-1.51.14-2.11 2.14-5.02 3.98-10.07 3.84-15.69-.06-2.38.56-4.78.88-7.16-.28-.06-.56-.13-.85-.19-.82 2.4-1.88 4.76-2.39 7.22-.52 2.52-.51 5.15-.73 7.74-.27-.01-.53-.03-.8-.04-.02-1.38-.28-2.81-.01-4.13 1.54-7.77 3.2-15.51 4.79-23.11-.61.52-1.44 1.23-2.26 1.94l.07.07c.52-1.03.98-2.09 1.57-3.08 1.34-2.24 2.73-4.36 2.83-7.18.08-2.24.85-4.46 1.31-6.68.19.04.39.08.58.11-.2 1.42-.39 2.84-.59 4.27.91-.83 1.29-1.81 1.75-2.74 1.3-2.61 2.64-5.2 3.97-7.8-1.07 2.94-2.14 5.89-3.19 8.84-.22.61-.65 1.4.61 1.39-1.04 2.19-1.87 4.5-3.16 6.52-1.65 2.58-1.38 5.24-.94 8.11 1.15-1.31 2.3-2.61 3.44-3.92-.42.97-.67 2.07-1.3 2.88-2.04 2.59-3.36 5.45-3.6 8.74-.24 3.36-.4 6.72-.63 10.81.71-1.27 1.06-1.96 1.48-2.61 1.25-1.94 2.53-3.86 3.8-5.79-.15 1.04-.12 2.15-.48 3.12-1.04 2.79-2.26 5.51-3.38 8.26-2.08 5.11-3.6 10.25-3 15.94.28 2.65-.26 5.48-.93 8.1-.39 1.51-.44 2.7.25 4.01.39.74.7 1.52 1.05 2.27 4.85 10.56 11.01 20.08 20.89 26.7 1.62 1.08 2.85 2.43 3.4 4.43.25.91 1.03 1.82 1.82 2.42 7.09 5.46 14.53 10.31 23.11 13.21 5.98 2.02 11.97 4.16 18.25 4.75 5.91.56 11.91.26 17.87.33.48.01 1 .09 1.42-.08 2.99-1.24 6.2-.65 9.25-1.17 3.13-.54 6.43-1.25 9.13-2.8 1.6-.92 3.08-1.94 4.89-2.4-.88 1.1-1.76 2.19-2.64 3.29 2.37-.24 4.42-.82 6.29-1.77 4.45-2.26 8.84-4.65 13.21-7.07 3.54-1.96 6.82-4.54 10.55-5.96 4.81-1.83 8.15-5.36 11.54-8.74 6.18-6.15 11.29-13.26 16.01-20.56 2.37-3.66 4.07-7.82 5.6-11.93.97-2.63 1.87-5.48 1.17-8.54-1.06 1.03-2.24 2.13-2.41 3.37-.28 2.05-1.32 3.56-2.46 5.06-2.31 3.04-4.75 5.98-7.08 9-1.02 1.31-1.93 2.7-2.86 4.08-.08.13.08.42.13.64.58-.1 1.15-.2 2.09-.36-.42.81-.53 1.33-.85 1.6-3.33 2.88-5.51 6.47-6.82 10.66-.32 1.01-.88 1.97-1.48 2.85-.34.51-.98.81-1.49 1.21l-.35-.26c1.01-2.1 2.03-4.21 3.04-6.31-.22-.16-.45-.32-.67-.49-5.03 8.64-11.94 15.08-21.33 18.57 2.72-2.74 5.43-5.48 8.15-8.22l-.09.01c4.28-1.78 11.58-9.26 12.11-12.38-.37.04-.72.07-1.06.1zm-56.73-148.39c-2.66-.62-5.16-1.31-7.7-1.79-7.69-1.44-15.29.28-22.66 1.72-11.92 2.33-23.38 6.3-33.89 12.81-10.97 6.79-20.14 15.18-26.46 26.53-3.07 5.52-6.25 10.98-9.31 16.51-1.49 2.69-3.15 5.36-4.11 8.24-1.3 3.93-1.86 8.1-2.98 12.1-1.28 4.58-1.29 9.19-.76 13.81.32 2.77 1.01 5.49 1.54 8.23.54-.31.64-.52.66-.74.07-.95.14-1.91.16-2.86.42-15.01 3.88-29.22 11.08-42.46 8.6-15.83 20.23-28.85 35.84-38.03 5.01-2.95 10.2-5.66 16.05-6.76 1.97-.37 3.99-.96 5.76-1.88 5.41-2.81 11.26-3.94 17.18-4.51 6.39-.6 12.83-.63 19.6-.92zm-11.68 8.06c-.02-.29-.03-.58-.05-.87-2.55-.35-5.21-1.33-7.63-.92-7.02 1.19-13.97 2.84-20.89 4.53-2.61.64-5.07 1.91-7.6 2.9l.21.54c12-2.05 23.98-4.11 35.96-6.18zm21.62.38c-4.38-3.64-16.8-4.86-21.79-1.99 2.77.38 5.1 1.06 7.39.95 4.86-.24 9.65-.32 14.4 1.04zm66.38 102.4c-.23-.1-.45-.2-.68-.3-1.54 5.77-3.08 11.54-4.62 17.3 1.36-1.04 2.85-2.22 3.16-3.67.96-4.38 1.46-8.87 2.14-13.33zm-168.13-22.68c.23.1.47.21.7.31.22-1.04.45-2.07.67-3.11l-.52-.12c-.29.97-.57 1.95-.85 2.92zm152.27 58.57c.28.11.56.22.84.34.46-1.09.93-2.18 1.39-3.27-.26-.11-.52-.23-.78-.34-.49 1.08-.97 2.17-1.45 3.27z" class="st0"/>
  <path d="M261.82 375.74l.09-.01c-.2-.42-.41-.84-.6-1.26-1.25.38-2.4.73-3.92 1.18.3-1.31.47-2 .6-2.59-3.26 1.96-6.42 3.85-9.56 5.76-.81.49-2.22.98-2.27 1.56-.25 2.74-2.48 2.34-4.09 2.95-2.22.85-4.42 1.73-6.63 2.58-10.98 4.19-22.02 7.71-33.97 4.19-4.1-1.21-8.45-1.7-12.38-3.28-12.69-5.09-23.91-12.57-33.78-22.06l.09.08c-2.57-2.8-5.67-5.28-7.63-8.46-5.97-9.7-12.34-19.33-13.06-31.26-.09-1.5-.51-2.78-2.07-3.38h.01c1.42-.94 1.2-2.43 1.23-3.8.07-3.62.15-7.23.1-10.85-.01-.78-.5-1.56-.76-2.34l3.12-12.46c.26-1.03.59-2.06.66-3.1.04-.59-.37-1.2-.58-1.81 1.13-1.81 2.33-3.58 3.36-5.45 1.26-2.29 2.3-4.71 3.58-6.99 4.62-8.17 11.19-14.81 17.26-21.84 3.51-4.06 7.27-7.72 12.5-9.65 4.01-1.49 7.76-3.68 11.75-5.23 6.11-2.37 12.3-4.59 18.95-4.89 3.68-.17 7.38-.25 11.06-.17 6.67.15 13.32.44 19.64 3.01 4.97 2.02 9.73 4.45 14.14 7.47 3.33 2.28 6.79 4.63 9.45 7.61 7.54 8.44 15.19 16.83 21.33 26.41.37.57.91 1.02 1.38 1.53a141.18 141.18 0 00-4.33-14.87c-1.69-4.81-3.63-9.54-5.46-14.31 1.39 1.71 2.39 3.6 3.24 5.55.64 1.45 1.56 1.94 3.25 1.33-.84-1.76-1.64-3.46-2.65-5.57 2.22.61 2.57 2.12 2.92 3.37.84 2.99 2.41 5.33 4.91 7.22 1.95 1.48 3.35 3.53 3.97 6.05-2.28-1.66-3.12-4.82-6.38-6.09 2.17 8.34 3.07 16.55 7.06 23.92 1.49 2.76 1.09 3.41-1.91 4.76.53 2.19 1.03 4.4 1.59 6.59 1.44 5.63 1.05 11.36.7 17.04-.17 2.7-1.08 5.36-1.68 8.03-1.83 8.03-3.86 15.97-7.85 23.31-2.69 4.94-4.94 10.11-7.46 15.31.67-.29 1.29-.56 1.92-.83-1.23 1.02-2.43 2.07-3.69 3.06-.72.56-1.63.91-2.27 1.54-1.25 1.23-3.33 2.61-3.3 3.89.03 1.83-1.27 2.68-2.1 4.54 1.83-1.15 3.09-1.93 4.35-2.71-1.27 1.81-2.55 3.61-3.83 5.42zm-108.69-37.1c-.43-.08-.86-.16-1.65-.3.27 1.01.49 1.86.71 2.71.23-.05.45-.09.68-.14.05-.8.09-1.6.14-2.41.83-1.97-.25-6.03-2.38-8.02.16 1.47.45 2.91.91 4.3.44 1.32 1.05 2.58 1.59 3.86zm28.36 32.28c.01.92.01 1.84.02 3.05 1.98.43 3.95.87 5.92 1.3.1-.28.2-.56.31-.83-2.09-1.17-3.85-2.89-6.34-3.43-1.14-.88-2.28-1.77-3.42-2.65-.15.23-.3.46-.44.69 1.08 1.05 2 2.38 3.95 1.87zm-25.82-27.83c-.54-.37-1.09-.73-1.7-1.15-.48 1.62-.9 3.03-1.32 4.45 1.6 1.6 3.09 3.12 4.63 4.59.22.21.64.23 1.23.42-.08-1.5 1.08-2.91-.45-4.17 1.12-3.6.52-7.46-1.34-8.04-.53.34-1.11.71-1.67 1.07.22 1.04.42 1.93.62 2.83zm126.68-66.2c-1.17-5.22-2.32-10.43-3.51-15.65-.33-1.47-1.19-2.5-3.02-3.1.11.72.12 1.17.26 1.58 1.77 5.3 3.54 10.59 5.36 15.87.16.47.66.82.99 1.23.51 2.71 1.01 5.42 1.52 8.13.28-.06.56-.13.84-.19-.39-2.73-1.24-5.34-2.44-7.87zM141.07 320c2.29-4.59 2.4-10.36.18-13.69-.17 2.94-.33 5.76-.49 8.58-.33-.91-.67-1.81-.98-2.68-.57-.03-1.12-.06-1.76-.1-.32 5.43-.09 10.72 2.13 15.89.3-2.66.61-5.33.92-8zm.9 6.92c-1.51 4.07-1.5 7.96 1.38 11.51.93-1.33.54-2.62.16-4.03-.68-2.5-1.09-5.06-1.62-7.6 1.2.37 1.56 1.2 1.64 2.43.33 5.09 3.82 8.73 6.13 12.9.09.15.37.2.61.32-.17-1.22-.68-2.49-.43-3.57.94-4.05-1.17-7.1-2.98-10.29-2.01-.27-1.74-1.9-1.99-3.26-.12-.67-.39-1.3-.77-2.5-.34 1.3-.55 2.07-.91 3.44-.15-1.5-.23-2.34-.32-3.18l-.26.03c-.22 1.26-.44 2.51-.64 3.8zm41.79 41.91l.09.11c.82 2.06 2.54 3.13 4.44 3.9 3.64 1.47 7.31 2.85 11.62 4.52a9498 9498 0 00-14.94-1.5c2.87 2.62 5.9 2.89 9 3.06 3.29.18 6.85-.41 9.7 1.51 3.57 2.4 7.21 1.59 10.94 1.12 2.59-.32 5.18-.62 7.77-.92l-.08-.1-1.7 1.13c1.34 1.54 2.86 1.54 4.69.82 1.77-.69 3.7-.93 5.51-1.53 8.15-2.68 16.19-5.6 21.64-11.96.98-.03 1.81.2 2.15-.11 1.66-1.52 3.27-3.12 4.73-4.83 1.15-1.36 2.06-2.92 3.06-4.4 4.77-7 9.66-13.95 12.12-22.18 1.32-4.44 2.54-8.93 3.37-13.48 1.18-6.44 2.03-12.95 2.84-19.45.21-1.72.12-3.66-.47-5.27-1.94-5.24-3.92-10.5-6.38-15.51-2.83-5.77-5.8-11.54-9.38-16.87-5.64-8.39-13.47-14.72-21.44-20.82-.71-.55-1.62-.83-2.77-1.4-.01 1.27-.03 2.2-.04 3.12l.08-.08c-.52-.85-1.03-1.71-1.5-2.5-1.74-.43-3.43-.84-5.12-1.26l.09.08c-1.51-.61-3.01-1.25-4.54-1.81-4.07-1.48-8.76-.25-12.59-2.86-.17-.12-.47-.06-.7-.08-3.68-.18-7.37-.58-11.05-.49-4.78.12-9.37 1.14-13.52 3.79-1.56 1-3.38 1.6-5.08 2.38.07-.42.15-.84.27-1.54-1.79.63-3.42 1.56-5.12 1.73-3.56.37-6.33 2.25-8.67 4.53-2.31 2.25-5.56 3.92-6.17 7.67.42.02.77.04 1.12.06-.85.79-1.6 1.75-2.58 2.34-6.28 3.78-11.02 9.06-14.84 15.2-2.62 4.21-5.12 8.5-7.65 12.74 1.57.61 2.65 1.03 4.06 1.57 2.47-5.71 3.74-12 7.54-17.12-1.62 4.82-3.25 9.63-4.87 14.45l.48.15c2.51-3.66 5.01-7.32 7.92-11.58-.54 3.13.03 5.8-2.38 7.52-.02-.45-.04-.9-.07-1.48-4.11 4.82-5.73 9.46-5.15 14.33.61-1.2 1.28-2.51 1.95-3.82-.26 1.27-.29 2.65-.83 3.79-2.94 6.28-4.05 12.91-4.07 19.78 0 1-.23 2-.35 3.01-.2-.01-.4-.03-.6-.04.15-2.7.31-5.39.48-8.44-4.17 4.47-2.9 13.1 2.16 19 .98-2.75-2.41-5.33-.53-8.44 2.49 4.79 4.81 9.24 7.11 13.67.87-.39 1.3-.58 1.71-.75-.33 1.27-1.13 2.61 1.16 4.15-.52-1.83-.85-2.98-1.18-4.13l.8-3.65c2.19 1.78-1.37 5.72 2.71 6.74-1.03 4.56-.74 5.37 3.11 8.53.51-1.84 1.01-3.64 1.52-5.44.28 2.79-.59 5.69.18 8.07.76 2.35 2.81 4.51 5.05 6.15 1.38-3.86.73-7.95 2.53-11.47-.17 3.46-.63 6.86-.9 10.27-.3 3.73 1.4 6.35 5.14 8.27.21-.83.41-1.65.62-2.46-.86 3.52 1.07 5.78 3.29 7.93.86.85 1.68 1.73 2.51 2.58zm-27.6-16.23c2.67 9.54 11.16 12.19 18.38 16.34-6.1-5.42-12.19-10.83-18.38-16.34zm13.98 8.18c.36-4.59-3.26-6.82-5.56-9.93-.25 2.34-.27 4.58.26 6.69.62 2.48 3.69 1.7 5.3 3.24zm-25.91-50.96c3.45-5.55 3.5-11.92 4.58-18.06-.97 1.5-1.56 3.11-1.99 4.77-.49 1.95-.37 4.22-1.36 5.83-1.48 2.43-1.19 4.92-1.23 7.46zm-2.36-17.79c-3.03 5.27-4.31 12.66-3.24 16.92 3.1-5.17 1.38-11.37 3.24-16.92zm18.15 52.17c.23 2.92.94 5.38.46 7.57-.5 2.28.7 2.55 2.24 3.46.42-4.05 1.79-7.93-2.7-11.03zm11.85 18.28c1.33.95 2.87 2.04 4.61 3.28 1.08-3.8-1.71-4.85-3.05-6.49-.45.93-.85 1.76-1.56 3.21zm-21.32-11.41c.59-5.5.17-6.15-3.64-6.13.28 2.43 1.25 4.42 3.64 6.13zm-5.29-60.34l-1.26-.42c-.84 2.75-1.69 5.5-2.74 8.93 4.77-2.11 2.93-5.83 4-8.51zm60.06 92.57c6.32 1.81 11.13 1.71 14 .07-4.79-.02-9.39-.05-14-.07zm-53.03-34.37c-1.4 2.47-.8 3.86.71 5.12 1.18.98 2.29 2.04 3.43 3.06.16-.15.32-.31.48-.46-1.44-2.4-2.87-4.8-4.62-7.72zm19.67 15.04c-.19.26-.38.53-.57.79 1.46 1.07 2.92 2.13 4.38 3.2.2-.29.41-.57.61-.86-1.46-1.04-2.94-2.08-4.42-3.13zm6.13.78c-.66 2.99 1.53 3.07 3.31 3.57-1.1-1.19-2.21-2.38-3.31-3.57zm-8.39-1.51c.18-.2.36-.39.55-.59-.75-.52-1.5-1.04-2.26-1.56-.12.17-.23.34-.35.51.69.54 1.38 1.09 2.06 1.64zM252.1 142.25c-2.57-9.49-7.87-17.17-13.45-24.71.21-.14.41-.29.62-.43 1.46 1.83 3.02 3.59 4.37 5.5 1.44 2.03 2.75 4.16 4 6.32 1.24 2.16 2.34 4.4 3.49 6.62 2.1 4.07 2.23 4.86.97 6.7zM368.83 220l-.81-24.27c2.13 8.01 1.52 16.16 1.74 24.27h-.93z" class="st0"/>
  <path d="M159.31 311.13c1.4-2.27 2.62-4.38 3.96-6.41 5.32-8.06 11-15.84 17.46-23.06 7.63-8.53 15.06-17.23 22.58-25.86 2.18-2.5 4.18-5.21 6.66-7.37 1.41-1.23 3.59-1.65 5.48-2.21.49-.14 1.41.4 1.82.88 2.76 3.28 5.71 6.45 8.08 9.99 9.22 13.79 18.24 27.71 27.36 41.57 2.23 3.39 4.6 6.69 6.81 10.08 1.26 1.92.87 5.85-.52 7.61-5.17 6.54-10.31 13.1-15.48 19.64a22003.47 22003.47 0 01-30.25 38.17c-2.4 3.03-3.36 3-5.68-.05-7.58-9.96-15.12-19.95-22.76-29.86-2.91-3.78-6.08-7.35-9.07-11.07-3.67-4.55-7.34-9.1-10.87-13.76-2.03-2.7-3.8-5.63-5.58-8.29zm24.2-23.43c-.39.26-.87.44-1.15.79-4.2 5.03-8.38 10.06-12.54 15.12-.58.71-1.03 1.53-1.91 2.87 1.82-.12 3.09-.02 4.26-.32 5.54-1.39 11.05-2.86 16.56-4.34 11.82-3.19 23.65-6.38 35.45-9.64 1.16-.32 2.19-1.13 3.32-1.73-1.32-3.52-2.4-6.67-3.67-9.75-1.3-3.18-2.88-6.26-4.15-9.45-1.23-3.09-2.01-6.37-3.38-9.39-1.4-3.08-1.51-6.71-3.95-9.72-.73.93-1.75 1.7-1.62 2.17.56 2.19-1.09 3.22-2.11 4.54-1.31 1.69-2.8 3.24-4.17 4.9-.44.53-1.17 1.47-1 1.75 1.01 1.67-.49 2.14-1.26 2.82-3.5 3.06-6.84 6.23-9.61 10.02-1.81 2.47-4.06 4.62-6.11 6.91l-2.96 2.45zm25.89 68.41c1.06 1 2.12 2 3.48 3.28 6.02-21.15 12.09-41.88 17.37-62.99-3.22.44-6.2 1.61-8.3 2.76-1.91 1.04-3.73 2.66-6.26 1.52-.53-.24-1.37.17-2.06.35-6.91 1.77-13.81 3.56-20.72 5.34-6.91 1.78-13.81 3.55-20.72 5.3-1.56.4-3.14.73-5.4 1.25 2.43 3.04 4.48 5.6 6.53 8.16 3.42 4.25 6.59 8.74 10.32 12.71 7.97 8.47 14.62 18.01 22.32 26.69.2.23.23.63.28.97.35 2.67 2.38 4.06 4.28 6.06.48-1.47.85-2.56 1.19-3.66.34-1.1.64-2.21.95-3.29-2.16-.9-2.93-2.52-3.26-4.45zm9.84.29c.26.13.53.27.79.4 1.73-2.23 4.03-4.25 5.01-6.77.73-1.87 1.46-3.7 2.56-5.34 4.25-6.33 8.6-12.61 12.46-18.25.29-2.32.83-4.03.62-5.63-.23-1.78-1.15-3.47-1.77-5.2l.66-.27c1.17 2.36 2.35 4.71 3.72 7.46 2.35-2.94 4.39-5.5 6.43-8.05.21.16.42.31.63.47-7.22 10.14-15.52 19.53-22.3 30.73 4.59-3.19 22.67-24.6 26.41-31.17-5.57-5.15-11.23-10.37-17.03-15.74-.76 2.71-1.69 4.86-1.89 7.07-.19 2.12.4 4.31.66 6.63-.6-.71-1.05-1.23-1.68-1.97-1.23 6.66-2.37 12.89-3.52 19.12 3.14-2.39 4.26-6.19 7.42-8.29-.87 1.82-1.88 3.53-2.97 5.2-1.1 1.7-2.35 3.31-3.4 5.04-2.01 3.32-1.98 3.36-3.66 3.86.58-1.34 1.5-2.67 1.71-4.11.97-6.46 1.75-12.95 2.58-19.43.31-2.46-.14-5.37 1.05-7.27 1.35-2.16 1.45-4.58 2.88-6.58-.77-.54-1.33-.92-2.33-1.61-1.51 6.2-3 12.05-4.35 17.92-1.49 6.49-2.68 13.07-4.34 19.52-1.92 7.47-4.21 14.84-6.35 22.26zm27.26-57.3c-6.61-13.86-15.92-25.85-24.29-38.54-.29.32-.45.43-.43.47 3.66 8.42 7.3 16.84 11.03 25.22.35.78 1.17 1.4 1.87 1.97 1.27 1.02 2.74 1.81 3.91 2.93 2.71 2.58 5.28 5.29 7.91 7.95zM236.17 367.89c.84-.97 1.67-1.93 2.61-3.02-.8.03-1.49.06-2.52.1 8.04-9.27 14.57-19.22 21.57-29.44-1.02 5.12-18.11 30.83-21.66 32.36z" class="st0"/>
  <path d="M199.98 347.72c-3.71-9.44-4.86-19.43-5.03-29.59 1.68 9.86 3.36 19.72 5.03 29.59zM395.6 235.36c-1.79 1.57-3.38 3.04-5.06 4.42-6.65 5.47-13.53 10.62-20.93 15.07-8.74 5.26-17.36 10.73-26.03 16.11-2.51 1.56-4.93 3.34-7.61 4.54-1.52.68-3.49.46-5.25.45-.45 0-1.09-.71-1.32-1.23-1.49-3.52-3.17-6.99-4.27-10.64-4.24-14.17-8.27-28.4-12.41-42.6-1.01-3.47-2.16-6.9-3.16-10.38-.57-1.97.8-5.22 2.44-6.35 6.12-4.21 12.22-8.46 18.34-12.67 11.93-8.21 23.86-16.41 35.79-24.59 2.84-1.95 3.65-1.67 4.83 1.54 3.85 10.47 7.65 20.96 11.56 31.42 1.49 3.98 3.25 7.86 4.82 11.81 1.93 4.84 3.87 9.68 5.65 14.58 1.05 2.83 1.79 5.78 2.61 8.52zm-26.77 13.61c.4-.12.86-.15 1.19-.37 4.9-3.18 9.78-6.38 14.66-9.59.68-.45 1.28-1.03 2.38-1.94-1.58-.37-2.64-.79-3.71-.85-5.08-.27-10.17-.47-15.25-.65-10.91-.39-21.83-.77-32.74-1.09-1.08-.03-2.16.39-3.28.61.2 3.35.3 6.32.56 9.27.28 3.05.81 6.09 1.06 9.14.24 2.96.04 5.96.42 8.89.38 2.99-.47 6.11.81 9.32.86-.6 1.93-.99 1.96-1.43.1-2.02 1.77-2.46 2.99-3.32 1.56-1.1 3.24-2.03 4.84-3.08.51-.34 1.38-.94 1.31-1.23-.42-1.69.98-1.7 1.81-2.07 3.78-1.69 7.46-3.51 10.82-6.02 2.19-1.63 4.67-2.87 7.02-4.29 1.04-.42 2.09-.86 3.15-1.3zm-4.11-65.09l-2.1-3.71c-10.68 16.44-21.3 32.51-31.33 49.12 2.86.47 5.7.26 7.8-.17 1.9-.39 3.87-1.29 5.74.35.39.34 1.22.21 1.85.24 6.35.3 12.71.59 19.06.89 6.35.3 12.7.6 19.05.92 1.43.07 2.87.2 4.93.35-1.28-3.23-2.35-5.95-3.42-8.67-1.8-4.52-3.33-9.18-5.46-13.54-4.57-9.31-7.73-19.18-12.02-28.6-.11-.25-.03-.6.02-.9.4-2.37-.96-4.09-2.06-6.28-.8 1.13-1.4 1.96-1.97 2.81-.58.85-1.13 1.72-1.68 2.56 1.58 1.32 1.81 2.91 1.59 4.63zm-8.32-2.82c-.19-.18-.38-.37-.57-.55-2.06 1.45-4.55 2.56-6.05 4.46-1.11 1.4-2.21 2.77-3.58 3.88-5.29 4.28-10.63 8.49-15.41 12.29-.86 1.9-1.77 3.21-2.01 4.64-.27 1.58.07 3.26.14 4.89l-.63.06c-.38-2.32-.77-4.63-1.21-7.33-2.77 1.89-5.18 3.53-7.59 5.17-.14-.19-.28-.38-.41-.57 8.81-6.75 18.35-12.57 27.07-20.34-4.75 1.51-25.77 15.01-30.68 19.63 3.4 5.85 6.85 11.79 10.38 17.88 1.36-2.11 2.72-3.7 3.46-5.53.71-1.76.79-3.78 1.18-5.83.33.76.57 1.32.92 2.12 2.79-5.36 5.41-10.36 8.02-15.37-3.31 1.22-5.26 4.16-8.5 5.12 1.22-1.32 2.53-2.52 3.89-3.65 1.39-1.16 2.87-2.2 4.22-3.41 2.58-2.3 2.57-2.34 4.13-2.33-.84.99-1.98 1.89-2.54 3.06-2.52 5.25-4.89 10.57-7.29 15.88-.91 2.01-1.29 4.61-2.8 5.92-1.72 1.49-2.44 3.52-4.18 4.85l1.56 1.98c2.92-4.89 5.72-9.48 8.41-14.13 2.98-5.14 5.71-10.43 8.82-15.49 3.6-5.86 7.49-11.54 11.25-17.3zm-38.26 41.67c2 13.54 6.78 26.21 10.59 39.22.33-.19.5-.25.49-.29-.91-8.13-1.8-16.26-2.78-24.38-.09-.76-.63-1.5-1.08-2.17-.82-1.2-1.86-2.26-2.57-3.52-1.63-2.91-3.11-5.9-4.65-8.86z" class="st0"/>
  <path d="M325.74 220.6c.04-.41.07-.83.11-1.24-.24-2.23-.48-4.45-.71-6.68l.72-.09c.46 3.18 1.54 6.25 1.51 10.14-.8-1.04-1.22-1.58-1.63-2.13zM213.54 151.31c1.78-4.9 3.72-9.74 5.65-14.58 1.57-3.95 3.33-7.83 4.82-11.81 3.91-10.45 7.71-20.94 11.56-31.42 1.18-3.21 1.99-3.48 4.83-1.54 11.94 8.19 23.87 16.39 35.79 24.59 6.12 4.21 12.22 8.46 18.34 12.67 1.64 1.13 3.01 4.38 2.44 6.35-1 3.48-2.15 6.91-3.16 10.38-4.13 14.2-8.17 28.43-12.41 42.6-1.09 3.65-2.78 7.12-4.27 10.64-.22.52-.86 1.22-1.32 1.23-1.76.02-3.73.23-5.25-.45-2.68-1.19-5.1-2.98-7.61-4.54-8.67-5.37-17.29-10.84-26.03-16.11-7.4-4.46-14.28-9.6-20.93-15.07-1.67-1.38-3.27-2.85-5.06-4.42.84-2.71 1.57-5.67 2.61-8.52zm27.34 23.47c2.35 1.42 4.84 2.65 7.02 4.29 3.35 2.5 7.03 4.32 10.82 6.02.83.37 2.24.38 1.81 2.07-.07.29.79.89 1.31 1.23 1.6 1.05 3.28 1.98 4.84 3.08 1.21.86 2.89 1.3 2.99 3.32.02.44 1.09.82 1.96 1.43 1.28-3.21.43-6.33.81-9.32.38-2.93.18-5.94.42-8.89.25-3.06.78-6.09 1.06-9.14.27-2.95.37-5.92.56-9.27-1.12-.22-2.21-.64-3.28-.61-10.91.32-21.83.7-32.74 1.09-5.09.18-10.17.38-15.25.65-1.08.06-2.13.48-3.71.85 1.11.91 1.7 1.49 2.38 1.94 4.87 3.22 9.76 6.41 14.66 9.59.34.22.79.25 1.19.37 1.04.43 2.1.87 3.15 1.3zm2.56-71.03c-.55-.84-1.1-1.71-1.68-2.56-.58-.85-1.18-1.68-1.97-2.81-1.1 2.2-2.46 3.92-2.06 6.28.05.29.13.65.02.9-4.29 9.41-7.45 19.29-12.02 28.6-2.14 4.36-3.66 9.01-5.46 13.54-1.07 2.72-2.15 5.44-3.42 8.67 2.06-.15 3.49-.28 4.93-.35 6.35-.32 12.7-.62 19.05-.92 6.35-.3 12.71-.58 19.06-.89.63-.03 1.46.1 1.85-.24 1.86-1.64 3.84-.74 5.74-.35 2.09.43 4.93.64 7.8.17-10.04-16.61-20.65-32.68-31.33-49.12l-2.1 3.71c-.25-1.73-.02-3.31 1.59-4.63zm17.95 19.1c3.11 5.06 5.84 10.35 8.82 15.49 2.69 4.65 5.5 9.24 8.41 14.13l1.56-1.98c-1.74-1.33-2.46-3.36-4.18-4.85-1.51-1.31-1.89-3.91-2.8-5.92-2.41-5.3-4.77-10.63-7.29-15.88-.56-1.17-1.7-2.07-2.54-3.06 1.56-.02 1.55.03 4.13 2.33 1.35 1.2 2.83 2.25 4.22 3.41 1.36 1.14 2.68 2.33 3.89 3.65-3.24-.96-5.19-3.9-8.5-5.12 2.61 5.01 5.22 10.01 8.02 15.37.35-.8.59-1.36.92-2.12.39 2.05.47 4.07 1.18 5.83.74 1.83 2.1 3.41 3.46 5.53 3.54-6.09 6.99-12.03 10.38-17.88-4.91-4.62-25.93-18.12-30.68-19.63 8.71 7.76 18.25 13.58 27.07 20.34-.14.19-.28.38-.41.57-2.41-1.64-4.82-3.28-7.59-5.17-.45 2.7-.83 5.02-1.21 7.33l-.63-.06c.07-1.63.41-3.32.14-4.89-.24-1.43-1.15-2.74-2.01-4.64-4.78-3.8-10.12-8.01-15.41-12.29-1.37-1.11-2.47-2.48-3.58-3.88-1.5-1.89-3.99-3.01-6.05-4.46-.19.18-.38.37-.57.55 3.76 5.76 7.65 11.44 11.25 17.3zm22.36 33.23c-.7 1.26-1.75 2.32-2.57 3.52-.45.67-.99 1.41-1.08 2.17-.98 8.12-1.88 16.25-2.78 24.38 0 .04.16.1.49.29 3.81-13.01 8.59-25.68 10.59-39.22-1.54 2.96-3.02 5.95-4.65 8.86zM357.65 220.2c2.25 1.75 4.44 3.58 6.77 5.22 2.33 1.64 4.79 3.12 7.23 4.61.48.29 1.14.29 2.5.6-.93-1.13-1.39-1.69-1.73-2.1.74-1.56 1.46-3.06 2.14-4.48-1.65.55-2.82 1.57-4.35 4.05-3.32-2.23-6.63-4.45-9.94-6.67.08-.2.15-.41.23-.61 1.01.29 2.02.58 3.29.94.04-.49.07-.92.11-1.4 5.5-.89 11.01-1.79 16.52-2.68-.03-.18-.06-.36-.09-.55-4.94.66-9.88 1.27-14.8 1.99-2.44.36-4.82.74-7.03-.84-.26-.19-.82.04-1.24.08.38.56 2.01.84.39 1.84zM345.64 247.24c1.45-.3 2.89-.59 4.34-.89-.03-.17-.07-.34-.1-.51-1.46.24-2.91.47-4.37.71.04.23.08.46.13.69z" class="st0"/>
</svg>
