<svg xmlns="http://www.w3.org/2000/svg" id="Layer_1" x="0" y="0" version="1.1" viewBox="0 0 500 500" xml:space="preserve" fill="currentColor" aria-hidden="true">
  <style>
    .st0{fill:#ef4723}
  </style>
  <path d="M136.65 213.42c-6.59-3.01-9.96-7.99-10.39-15.15-.36-5.96 2.61-10.78 5-15.67 5.42-11.09 11.95-21.48 22.16-28.72-.52-2.15-.95-3.96-1.34-5.59 3.38-2.85 5.82-.49 7.17.43 7.11-1.57 13.1-2.98 19.13-4.14 1.09-.21 2.49.36 3.55.93 2.08 1.11 4.02 2.48 6 3.72 1.61-.97 2.96-2.47 4.37-2.52 5.97-.22 10.53-3.72 15.41-6.31 3.82-2.03 6.72-5.16 7.68-9.86.63-3.08 2.13-6.02 3.46-8.93 2.01-4.38 5.72-6.21 10.37-6.36 16.16-.51 32.28.23 48.03 4.02 4.64 1.12 9.09 3.83 13.06 6.62 3.22 2.26 4.26 6.24 4.06 10.29-.19 3.63-.21 7.29-.68 10.88-.68 5.2 2.05 8.69 5.63 11.62 1.54 1.26 3.36 1.91 5.91.99 4.81-1.74 8.88-4.32 12.47-7.81 5.26-5.11 11.2-6.28 18.37-4.48 11.28 2.84 18.73 10.46 25.6 18.98 2.81 3.49 4.88 7.67 8.04 10.76 4.72 4.62 5.79 10.49 6.79 16.37.9 5.32-2.23 9.51-5.6 13.2-1.7 1.86-4.03 3.17-6.15 4.62-4.1 2.82-6.14 6.67-5.28 11.6 1.41 8.06 3 16.08 4.75 24.07.26 1.18 1.59 2.56 2.75 3.03 2.56 1.03 5.33 1.51 8 2.28 2.67.77 5.47 1.32 7.96 2.49 5.59 2.64 7.91 7.19 6.79 13.18-2.01 10.78-4.6 21.44-8.86 31.56-1.47 3.5-3.69 6.86-6.2 9.73-4.5 5.13-9.84 5.6-15.63 2.06-6.13-3.74-8.08-3.24-12.22 2.45-3.15 4.32-6.68 8.36-9.94 12.6-.74.96-1.62 2.25-1.54 3.32.43 5.29.26 10.76 4.19 15.17 1.41 1.58 2.24 3.67 3.4 5.48 1.86 2.9 1.46 5.99-.15 8.54-1.68 2.66-3.79 5.57-6.44 7.01-10.16 5.5-20.56 10.57-30.98 15.57-8.52 4.09-17.51 4-26.57 2.16-4.63-.94-8.68-3.31-11.26-7.07-5.56-8.13-13.27-10.62-22.59-10.23-2.97.12-5.97-.53-8.95-.9-3.22-.4-5.37.76-6.52 3.92-.79 2.18-1.73 4.34-2.89 6.34-4.97 8.52-9.6 10.6-19.37 8.32-11.93-2.79-23.88-5.94-34.69-11.73-6.55-3.51-12.19-8.76-18.04-13.49-3.1-2.51-3.85-6.15-2.95-10.01.73-3.13 1.24-6.4 2.53-9.3 2.85-6.42 2.57-12.47-.97-18.45-3.05-5.16-6.13-10.3-9.18-15.46-1.53-2.59-3.88-3.06-6.72-3.86-10.21-2.89-19.92-7.03-24.85-17.58-2.64-5.66-2.72-11.73-1.9-17.72.87-6.39 2.16-12.73 3.55-19.03 1.32-5.94 3.71-11.5 8-15.94 1.76-1.81 3.93-3.96 6.21-4.38 4.99-.93 6.7-4.08 7.56-8.35.33-1.44.52-2.93.9-5.27zm72.59 116.97l2.16-.3c2.19-.51 4.39-1.02 6.73-1.56 2.93 6.57-1.72 10.86-3.65 16.2 1.77.47 3.24.59 4.39 1.26.93.53 1.48 1.72 2.19 2.62l.14-.15c-3.11-.12-5.3.89-6.46 4.12-1.35 3.76-3.13 7.36-4.76 11.1 1.65.36 2.85.61 4.96 1.07-4.08 1.57-8.76 1.71-7.68 7.2 6.54 2.07 7.47 1.84 10.77-3.21 2-3.06 3.97-6.16 5.64-9.4 1.27-2.47 3.04-4.03 5.6-2.9 2.56 1.12 4.54.15 6.78-.48 1.63-.46 3.44-1.07 5.03-.79 8.45 1.49 16.82.25 24.86-1.73 8.31-2.04 14.23.49 19.54 6.35 2.17 2.39 4.21 4.97 6.72 6.95 2.21 1.74 4.98 2.77 7.71 4.22.69-1.96 1.22-3.46 1.92-5.46-2.41-.26-4.22-.46-6.04-.66 1.64-2.69 1.64-2.69.59-5.92l-.14.14c3.68 3.5 7.56 2.39 11.43.43 1.11-.56 2.1-1.37 3.15-2.07l-.13.12c2.93-1.65 5.86-3.31 8.76-4.95-2.5-4.44-4.82-8.57-7.15-12.7.36-.22.72-.45 1.07-.67 2.59 3.68 5.18 7.36 8 11.36 1.1-1.88 1.7-2.91 2.57-4.39 1.88 1.74 2.59 5.39 6.54 2.95-.65-2.64-.93-5.69-2.14-8.31-2.74-5.91-2.06-11.68-.32-17.59.78-2.66 1.55-5.37 1.84-8.1.11-1.07 1.91-3.74-1.58-3.49.6-1.65 1.18-3.3 1.84-4.93.09-.22.63-.24.84-.32.26 1.68.52 3.38.94 6.08 2.09-2.22 3.38-3.59 4.62-4.91.19.93.33 1.65.58 2.88 2.79-2.58 5.07-4.81 7.48-6.9 6.06-5.25 7.96-5.4 14.8-1.43 4.3 2.5 9.96.98 11.06-3.17.68-2.58.78-5.31 1.14-7.97-.37-.23-.74-.47-1.1-.7-2.24 2.05-4.49 4.09-6.99 6.37 1.28-6.22 2.47-12.07 3.89-18.95-2.07.92-2.97 1.33-3.87 1.73-.43-.77-.87-1.54-1.72-3.05-1.19 2.22-1.97 3.67-2.89 5.4 1.33.14 1.93.2 2.53.26-1.41.9-2.82 1.81-4.23 2.71-2.54 2.16-.31 6.66-4.08 9.19-1.06-4 3.05-7.41.46-11.35-2.88 3.76-2.88 3.76-6.04 3.87-.63-6.53-1.26-13.06-1.94-20.16 5.04 2.89 9.03 7.23 15.06 7.55.93-1.61 1.78-3.11 2.64-4.61.22.11.44.21.66.32-.3 1.77-.59 3.53-.91 5.45 2.08.19 3.85.35 5.87.54.26-3.97.49-7.54.75-11.53 2.03.25 3.56.44 5.38.67-3.24-4.65-4.18-5.17-8.83-5.75-1.88-.23-4.48-.1-5.45-1.24-3.85-4.55-8.12-9.02-8.67-15.49-.31-3.64-.5-7.3-1.01-10.91-.98-6.91-1.25-13.68 2.27-20.06.1-.18-.3-.62-.66-1.31-1.5 2.17-2.88 4.17-3.97 5.73-2.46-2.82-4.94-5.66-8.33-9.55-.16-1.46-.24-4.38 2.51-6.77v6.91c3.1-4.75 6.84-7.86 6.99-13.06.02-.84 1.25-1.64 1.95-2.49 2.79 5.28-3.13 9.48-1.79 15.12.89-.68 1.47-1.23 2.16-1.62.62-.35 1.34-.53 2.31-.9 0 1.5 0 2.46.02 3.42 0 .01.36 0 1.44 0 2.14-4.31 4.46-8.98 6.33-12.73-2.49-3.38-4.19-5.69-6-8.14-1.57 1.7-3.11 3.38-4.66 5.06 1.08-2.56 2.16-5.12 3.56-8.43-2.99-3.3-6.13-6.77-9.27-10.24-.48-.4-.96-.79-1.43-1.19-1.51-1.94-3.02-3.89-4.83-6.23-2.32 1.56-3.95 2.98-5.83 3.84-4.39 2.01-7.92 6.07-13.24 5.91-12.25-.36-22.54-5.24-30.87-14.06-1.8-1.9-3.17-4.69-3.63-7.27-.95-5.26-1.12-10.67-1.7-16-.06-.54-.7-1.01-.91-1.3l-5.57 1.4c-2.72-4.31-6.39-5.75-11.13-5.61-4.05.12-8.13-.52-12.18-.97-.56-.06-1.03-1.01-2.25-2.3 4.05-.83 7.23-1.47 11.28-2.3-5.03-2.45-8.87-2.13-12.52 1-4.85 4.16-8.48 9.07-10.07 15.38-1.24 4.91-3.42 9.63-7.59 12.44-11.31 7.62-23.45 12.44-37.51 8.65-4.67-1.26-9.42-2.25-14.25-3.4-3.61 5.33-3.68 5.38-.15 10.35 1.7 2.4 3.74 4.56 5.65 6.85 3.82-2.28 7.09-4.23 10.36-6.19-.92 2.46-2.45 4.22-3.71 6.16-1.13 1.74.26 2.17 1.64 2.43-5.17 3.38-5.57 3.44-8.93-.38-3.38-3.85-6.58-7.86-9.99-11.96-4.08.51-3.75 4.5-4.95 6.54l10.2 18.82c3.24-3.12 6.19-5.96 9-8.66 1.7.96 2.8 1.58 3.89 2.19-3.22 4.54-6.44 9.09-9.65 13.63-.3.43-.49 1.18-.87 1.29-2.15.63-4.35 1.11-7.23 1.82 4.8-4.94 3.36-9.35.54-14.27-2.96-5.16-5.63-10.33-11.05-13.36-5.5 7.22-5.35 8.38 1.68 13.79.82.63 2.18 2 2.05 2.19-2.28 3.4 1.71 5.83.63 9.3-4.03-5.96-8.06-11.92-11.91-17.61 1.52-2.88 2.7-5.11 3.89-7.36-5.19-2.17-5.41-2.2-7.32 1.56-1.53 3.01-2.75 6.17-4.03 9.08.85.95 1.22 1.51 1.72 1.89 10.13 7.87 15.38 17.61 12.43 30.83-2.1 9.42-2.76 19.36-10.89 26.25-2.4-.95-4.5-.73-5.99 1.83 1.99-.61 3.99-1.23 5.98-1.84.71-.14 1.42-.27 2.12-.41.06.23.12.46.18.7-1.23.8-2.47 1.61-3.81 2.48 2.4 3.76 4.75 7.44 7.58 11.88.8-2.45 2.44-4.77 1.88-6.27-1.25-3.33.14-6.02 1.14-8.67 2.42-6.43 5.02-12.82 8.08-18.96 1.9-3.81 4.76-7.14 7.18-10.69 4.61 1.3 6.34-3.78 10.02-4.53-3.38 3.83-6.82 7.61-10.14 11.5-8.9 10.45-15.75 21.68-13.55 36.29 2.53.75 3.05-.56 3.01-2.67-.07-3.35-.02-6.71-.02-10.06 1.44 6.01 1.89 12.11 3.19 18.02 1.56 7.06 3.85 13.96 5.82 20.92.93 6.38 4.05 11.84 6.5 17.63 1.82-.68 2.89-1.08 4.33-1.62-1.06 1.62-1.86 2.83-3.15 4.79 2.95 1.11 5.84 1.62 7.98 3.15 2.49 1.79 4.34 4.48 6.47 6.77.3-.19.6-.39.9-.58-.22-.61-.45-1.23-.67-1.84l-.02.01c3.46 2.17 3.7 7.22 7.82 9.04-1.19-.14-2.38-.29-3.69-.44-.12.89-.24 1.74-.35 2.59-1.12-.03-2.24-.06-3.35-.08-.01-5.06-2.15-8.3-8.31-8.89 2.2 4.05 5.23 6.49 8.54 8.67 1.52 4 4.93 5.49 8.85 6.26zm-40.16-39.24c.82-2.05 1.65-4.1 2.47-6.15l-1.44-.45c-.87 2.07-2.45 3.98-1.01 6.61-1.38 1.59-2.77 3.19-4.44 5.11 1.81 3.11 3.6 6.22 5.43 9.3 1.16 1.94 2.38 3.85 3.57 5.77-.21.01-.45-.03-.64.05-.15.07-.38.36-.34.42.69 1.25 1.33 2.55 2.16 3.71 4.82 6.78 7.07 14.09 4.71 22.36-.76 2.66-1.88 5.22-2.44 7.92-1.52 7.3.62 11.06 7.89 14.34 1.61-1.39.81-2.37-.4-3.59-1.52-1.53-2.77-3.33-4.06-5.06 2.26 1.18 4.52 2.37 6.78 3.55-1.11-4.1-3.81-4.32-6.97-3.41.5-1.11.99-2.21 1.65-3.68l7.19 2.58c2.55-3.72 5.03-7.34 7.51-10.97-1.57 4.09-3.14 8.17-4.91 12.76 5.4 2.39 9.98 4.62 14.71 6.45 2.81 1.09 2.92.8 3.71-3.04-.91.09-1.85.18-2.97.29 2.03-3.91 6.95-5.66 5.89-11.22-2.07 1.41-3.72 2.54-5.38 3.67-.21-.28-.43-.56-.64-.84 1.21-1.97 2.42-3.94 3.91-6.38-2.1-3.05-4.26-6.17-5.78-8.38-3.16 2.5-5.94 4.71-8.72 6.92-.67-2.83-.42-6.96-2.21-8.24-4.04-2.9-3.49-6.91-4.06-9.69-4.14-2.32-7.57-4.23-10.99-6.15 2.14.64 4.28 1.29 7.1 2.13-6.8-9.05-6.89-20.07-12.91-29.51l-.4 8.46c-.75-1.76-.86-3.59-1.36-5.31-.11-.34-1.71-.23-2.61-.33zm39.6-141.29l.2-.2c-4.38 1.51-8.76 3.02-13.45 4.64 2.65 4.53 6.29 4.34 9.49 3.26 6.67-2.24 13.27-4.78 19.61-7.81 2.29-1.1 4.48-3.68 5.43-6.09 2.62-6.66 4.57-13.58 6.78-20.4-9.38-.69-12.46 3.56-12.92 11.18-.14 2.36-.85 4.01-2.73 5.45-4.22 3.22-8.28 6.63-12.41 9.97zm-75.48 89.59c.56.78 1.04 2.16 1.7 2.25 7.28 1.04 14.62-4.24 16.14-11.66 1.33-6.52 2.28-13.12 3.61-19.64 1.05-5.14-.3-8.82-5.31-11-7.54-3.29-8.67-11.62-5.55-18.61 2.07-4.63 5.01-8.4 8.45-11.99 3.09-3.23 5.86-6.78 8.77-10.19-.32-.32-.64-.65-.96-.97-2.74 2.29-5.61 4.43-8.19 6.89-7.32 6.96-11.25 16.16-15.72 24.92-2.93 5.75-.95 11.13 2.83 13.96 1.19.89 2.27 1.96 3.27 3.07 4.68 5.2 5.19 9.77 1.96 15.85-2.32 4.36-5.54 7.75-10.46 8.9-4.42 1.04-7.33 3.84-8.96 7.68-4.9 11.58-6.83 23.59-4.35 36.19-.61.03-1.51.07-2.62.12.93 5.1 2.2 9.69 7.43 12.74.36-1.38.81-2.32.81-3.26.04-5.93-.97-11.75-.8-17.78.21-7.51.8-14.58 3.14-21.77 1-3.09 2.09-4.74 4.91-5.58l-.1-.12zm33.5 108.6c.33.11.67.22 1 .33.57-1.79 1.19-3.57 1.71-5.37 2.02-7.06 3.52-14.05-3.41-19.57-.41-.32-.78-.69-1.17-1.03 1.72 3.96.87 7.55-.77 11.19-.96 2.14-1.5 4.46-2.22 6.71-3.65 11.38-.38 18.34 11.13 23.44-1.24-2.15-2.6-4.06-3.49-6.17-1.04-2.48-1.06-5.42-4.57-6.29-.67-.17-1.38-2.68-1.09-3.86.87-3.44 2.24-6.75 3.42-10.12.3.07.6.15.9.22l-1.44 10.52zm-30.57-83.75c.61-1.03 2.47-2.71 2.32-4.18-.58-5.51 2.38-8.27 6.71-10.41.43-.21.56-1.02.87-1.64-7.77.7-9.21 1.69-10.52 8.56-1.95 10.28-.88 20.48 1.93 30.47 1.02 3.61 3.21 4.39 8.63 3.81-1.97-3.47-4.41-6.6-5.55-10.14-1.18-3.65-1.1-7.7-1.58-11.58a1.81 1.81 0 00-.19-.61c-.82-1.34-1.64-2.67-2.62-4.28zM337.5 157.09c-5.68-5.96-6.97-4.87-13.18-.42-3.12 2.24-5.86 5.02-8.81 7.59 3.87 2.53 7.6 2.42 11.5-.45 3.25-2.4 6.8-4.39 10.49-6.72zM152.8 264.73c-.63-2.17-1.26-4.36-1.89-6.54-2.86 5.74.08 11.27-.28 17h4.3c-1.38 1.4-2.52 2.54-4.74 4.78 3.9-.44 6.15-.69 9.06-1.01-.59-5.35-1.11-10.12-1.66-15.11-1.89.34-3.12.57-4.79.88zm-3.29 18.32c-1.79.17-3.25.31-5.16.49 1.63 3.55 2.38 7.17 5.98 8.46 3.56 1.28 7.3 2.03 11.67 3.2-.86-3.9-1.66-7.48-2.54-11.47-2.57.65-4.53 1.15-6.51 1.65v3.44c-.28.05-.56.1-.84.14-.83-1.89-1.67-3.79-2.6-5.91zm39.48 76.48c-1.02 4.55-.36 5.91 3.09 7.65 7.4 3.72 10.21 3.79 13.54.27-1.57-3.72-4.89-3.17-8.05-3.78-2.94-.56-5.6-2.63-8.58-4.14zm99.49 17.91c-4.75-4.33-9.16-8.52-13.78-12.46-1.7-1.45-3.89-2.02-5.7 1.26 2.22 2.04 4.28 4.57 6.9 6.19 3.41 2.1 8.3 1.46 10.73 5.62.04.07.75-.24 1.85-.61zm69.29-101.92c-2.91-1.3-5.58-2.49-9.11-4.07.18 3.46.33 6.25.48 9.17 2.94-1.8 9.08 3.15 8.63-5.1zm-207.68-25.31c-6.65 1.73-8.55 3.89-8.31 9.45 3.32-2.67 10.56-1.88 8.31-9.45zm14.5 12.59c-2.67 4.6-5.82 9.26-1.14 15.76.43-6.06.78-10.91 1.14-15.76zm-21.98.1c-2.58 5.28-1.93 10.22 1.65 14.19 1.53-5.16-.85-9.58-1.65-14.19zm66.92 72.05c1.06 1.71 1.8 2.91 2.52 4.07 5.61-2.58 5.61-2.58 4.86-8.48-2.51 1.5-4.78 2.85-7.38 4.41zm-62.73-60.5c.52-.04 1.03-.07 1.55-.11-.5-4.46-1.01-8.92-1.51-13.38-.45.06-.9.11-1.36.17l1.32 13.32zm23.65-3.37c-.51.03-1.02.06-1.52.08 1.01 2.83-2.25 6.09 2.13 8.63-.21-2.89-.41-5.8-.61-8.71zM201.01 359c4.58 5.2 4.58 5.2 7.11 2.26-2.25-.71-4.27-1.36-7.11-2.26zm-37.64-69.97c.58-.04 1.17-.08 1.75-.11-.1-2.06-.19-4.11-.36-7.54-3.57 3.35-1.33 5.56-1.39 7.65zm-10.97-30.57c1.08.9 1.77 1.47 2.45 2.04.48-.58 1.41-1.23 1.33-1.72-.13-.85-.89-1.6-1.38-2.39-.67.58-1.34 1.15-2.4 2.07zm42.22 64c-.39.22-.79.43-1.18.65.5 1.53.48 3.35 3.48 3.51-.77-1.38-1.53-2.77-2.3-4.16zm177.42-43.06c.46.19.93.39 1.39.58.36-1.82.71-3.64 1.07-5.45-.33-.07-.65-.15-.98-.22-.5 1.69-.99 3.39-1.48 5.09zm-181.12 74.65c.11 3.49.09 3.52 1.73 4.62.2.14.74-.22 1.74-.55l-3.47-4.07zm88.12-220.73c.21-.36.42-.73.63-1.09-1.18-.75-2.36-1.51-3.54-2.26-.25.42-.5.85-.75 1.27 1.22.69 2.44 1.39 3.66 2.08zM152.36 282.23c.15.36.3.71.44 1.07 1.1-.5 2.19-.99 3.29-1.49-.13-.28-.25-.57-.38-.85-1.11.42-2.23.84-3.35 1.27z" class="st0"/>
  <path d="M187.94 288.5c.7-.48 1.39-.96 2.07-1.43-1.49-4.86-3.86-9.65-4.26-14.6-.51-6.34.04-12.9 1.1-19.2 1.81-10.84 5.34-21.19 11.38-30.54 1.44-2.23 2.68-4.59 4.02-6.89.11 1.06.22 2.12.45 4.47 11.21-14.62 27.05-20.82 42.28-28.37.18-2.43.33-4.69-3.07-4.93 1.62-4.53 1.45-5-2.22-6.1l.2.18c.5-2.61 1.01-5.23 1.5-7.81.61 1.44 1.31 3.1 2.17 5.12 1.7-.31 3.27-.59 6.12-1.1-2.62 1.59-4.13 2.51-5.65 3.43.15 2.31 1.07 3.28 3.29 2.46 3.01-1.11 5.98-2.36 9.04-3.3 2.22-.68 4.56-.96 6.84-1.42l-.19-.14c.32.87-2.66 2.19.1 2.53 2.75.34.22 1.84.92 2.57.95.08 1.96.17 2.98.25l-.14-.14c-2.15 4.57 1.37 7.1 3.61 10.83 2.46-1.92 4.55-3.56 6.73-5.27 1.11 1.85 2.09 3.51 3.07 5.16-2.6-.02-5.29-.51-8.22 1.65 3.06 1.93 5.57 3.53 8.33 5.27.37-1.35.62-1.78.56-2.16-.25-1.66-.59-3.3-.89-4.95 1.15 1.88 2.31 3.75 3.98 6.47 1.64.59 4.38 2.58 7.57-1.19-2.53-3.49-5.19-7.15-7.85-10.82 5.27 3.88 10.43 7.44 17.46 7.47-1.21-1.12-2.41-2.23-4.76-4.41 6.07 1.5 9.69 7.06 15.56 4.51-1.24.91-2.48 1.81-3.46 2.53 1.3 2.47 2.59 4.89 3.87 7.32-1.23-1.15-2.54-2.24-3.68-3.47-3.59-3.86-6.69-4.45-12.29-2.25 8.59 4.33 10.26 13.65 14.96 21.31 2.4-1.25 4.58-2.38 7.02-3.65-1.21-2.5-2.13-4.42-3.06-6.34 2.04 1.9 4.08 3.79 6.12 5.69.41 2.25.82 4.49 1.22 6.74-1.05-1.25-2.1-2.51-3.57-4.26-2.14 1.28-4.36 2.6-6.34 3.78 1.45 4.66 2.69 8.64 3.91 12.61-1.62-3-3.21-5.98-4.83-8.95-.87-1.58-1.8-3.12-3.94-1.39 3.44 9.5 6.88 18.97 10.32 28.45.22-4.82-.66-9.4-1.43-13.99-.24-1.4-.17-2.85-.25-4.27.89 2.74 2.34 5.43 2.56 8.23.65 8.08.8 16.19 1.17 24.67-1.78-.31-2.56-.44-3.72-.65-.8 5.44-1.59 10.87-2.51 17.12-.66.3-2.06.92-3.45 1.55l.15.14c3.1-8.03 2.4-16.25 1.25-24.49.51-1.03 1.49-2.07 1.45-3.08-.13-3.41-.48-6.83-1.01-10.2-1.59-10.06-5.47-19.32-10.23-28.24-.12-.22-.67-.21-1.8-.52 1.82 5 3.8 9.48 5.07 14.14 2.12 7.83 3.79 15.78 5.65 23.67-.75 2.6-1.93 5.15-2.15 7.79-.53 6.4-3.05 11.98-5.95 17.54-1.17 2.24-1.7 4.8-2.51 7.22-1.27 1.43-2.55 2.85-3.82 4.28-.4-.4-.8-.8-1.19-1.2-1.18 1.17-2.88 2.14-3.45 3.56-1.9 4.73-5.37 7.55-9.85 9.51-2.15.94-4.29 1.99-6.21 3.31-.81.56-1.05 1.94-1.57 2.96 3.1 1.73 5.84.99 7.57-.8 4.46-4.62 10.03-8.19 13.37-13.88 1.81-.99 3.62-1.99 5.43-2.98-.85 1.61-1.53 3.33-2.57 4.8-2.41 3.41-6.14 5.89-6.89 10.48-.12.75-1.68 1.4-2.68 1.85-3.4 1.54-6.84 2.96-11.22 4.83-.61-.12-2.58-.5-5.07-.99v6.68c-2.97-1.3-2.97-1.3-2.32-6.77-.2-.09-.39-.26-.59-.26-7.44-.24-14.88-.66-22.33-.63-6.52.03-12.67-.21-18.1-4.75-3.75-3.14-8.33-5.28-12.36-8.13-8.38-5.93-13.18-14.05-16.35-23.91-3.86-12.02-4.47-23.85-1.9-35.96 1.42-6.7 3.45-13.27 8.12-18.63 3.83-3.99 7.69-7.96 11.55-11.92-4.84 1.06-8.51 3.56-10.88 7.5-.71 1.19-.36 3.03-.49 4.57-1.58-.74-2.87-1.47-4.36.63-5.34 7.55-9.09 15.51-8.11 25.08.17 1.69.02 3.41-.58 5.29-.42-1.42-.83-2.84-1.25-4.26-5.31 10.57-3.15 27.9 2.5 35.02 6.19 7.79 13.98 13.65 20.7 20.71 1.09 1.15 2.12 2.35 2.78 4.01-3.03-.53-5.41-1.97-7.45-4.06-3.6-3.7-7.11-7.51-10.92-10.99-2.98-2.72-6.31-5.08-9.59-7.44-.55-.36-1.68.08-2.54.14zm70.63-101.59c-5.07 2.73-9.99 5.77-15.23 8.12-7.21 3.23-13.16 8.78-20.92 10.97-1.54.43-2.74 2.06-4.09 3.13.23.44.45.87.68 1.31 2.42-.02 4.75-.94 6.74-2.36 6.56-4.69 13.78-7.63 21.71-9.11 5.15-.96 10.11-2.06 14.82 1.43.97.72 2.47.68 3.66 1.13 3.56 1.36 7.16 2.65 10.63 4.23 6.75 3.07 12.49 7.49 17.16 13.29.64.79 1.59 1.34 2.39 2 .35-.18.69-.36 1.04-.54-.84-2.38-1.69-4.76-2.59-7.3 1 .1 2.04.21 4.45.46-3.22-3.17-5.44-5.59-7.93-7.69-.79-.67-2.53-.99-3.38-.56-.72.36-.78 2.03-1.08 2.97-6.94-4.65-13.65-9.16-20.79-13.95-.46-2.19-1.09-5.23-1.71-8.21-2.37.33-4.01.56-5.68.82-1.3-2.2-3.19-2.53-5.36-1.54-2.36 1.07-4.66 2.27-6.93 3.52-.07.04.54 1.32.91 2.21 4.05-1.55 7.78-2.94 11.5-4.33zm35.9 50.82c-2.25-6.07-5.84-11.07-11.75-15.16.29 1.33.37 1.95.56 2.54.52 1.63 1.16 3.23 1.63 4.88 3.74 13.01 3.76 25.78-2.33 38.21-7.17 14.64-17.2 26.67-31.49 34.88-.39.22-.48.96-.85 1.74 4.79 1 7.29-3.32 11.4-4.52-.84 1.4-1.36 2.28-2.44 4.1 5.28-1.25 9.65-2.8 13.39-4.73 5.65-2.91 11-6.92 15.47-11.46 5.55-5.62 8.95-12.55 5.87-20.95-.66-1.81-1.17-3.69-1.65-5.57-.83-3.32-1.58-6.66-.39-10.06.09-.25.51-.38 1.04-.75.24 1.31.45 2.44.66 3.57.17-.03.34-.06.51-.1-.82-4.79-1.64-9.57-2.44-14.26 1-.85 1.96-1.68 2.9-2.48-.18.62-.64 1.31-.5 1.84 2.26 8.22 1.6 16.58 1.44 24.94-.03 1.55-.5 3.79 2.12 4.94 2.95-11.21 1.59-21.57-3.15-31.6zm-41.89-27.27c-8.93.16-17.63 2.99-26.62 8.78-15.71 10.12-21.65 25.18-20.6 43.06.88 15.13 8.63 26.72 21.11 35.26 3.77 2.58 7.32 4.57 11.68 1.32.8-.6 2.02-.6 2.98-1.03 3.06-1.4 6.42-2.44 9.04-4.43 3.86-2.94 7.26-6.5 10.72-9.94 3.18-3.16 6.62-6.19 9.16-9.82 8.5-12.19 9.89-25.64 6.02-39.78-2.28-8.32-7.78-14.7-13.09-21.16-.71-.87-2.14-1.37-3.32-1.57-2.34-.42-4.72-.49-7.08-.69zm48.26-4.02c-1.23 5-1.08 5.22 4.95 8.51-1.79-3.08-3.03-5.2-4.95-8.51zm5.54 9.17c-2.24 3.92-.52 5.85 1.33 8.22 2.67-3.2 0-5.05-1.33-8.22zm-118.86 44.8c-.14 0-.29.01-.43.01v8.69c.14 0 .29 0 .43-.01v-8.69z" class="st0"/>
</svg>
