<svg xmlns="http://www.w3.org/2000/svg" id="Layer_1" x="0" y="0" version="1.1" viewBox="0 0 500 500" xml:space="preserve" fill="currentColor" aria-hidden="true">
  <style>
    .st0{fill:#ef4723}
  </style>
  <path d="M242.17 127.92c9.7-4.49 19.97-5.7 30.46-5.35 4.17.14 8.46-.86 12.51 1.05 2.04.96 4.2 1.7 6.21 2.72 10.59 5.37 21.08 10.97 30.33 18.49 5.24 4.26 10.47 8.61 14.25 14.42 7.49 11.51 11.47 23.93 11.48 37.79.01 20.98-4.29 41.33-8.53 61.68-2.27 10.89-6.05 21.38-9.78 31.9-5.37 15.16-12.67 29.3-20.75 43.07-4.27 7.28-9.22 14.17-14.01 21.13-.97 1.41-2.74 2.26-3.96 3.53-2.26 2.36-4.56 4.71-6.51 7.31-1.95 2.59-4.24 4.6-7.07 6.13-4.64 2.51-9.15 5.27-13.82 7.71-5.36 2.81-11.36 2.51-17.16 3.33-8.1 1.15-16.09.28-23.79-1.46-12.88-2.92-25.86-5.91-37.47-12.75-5.29-3.12-9.4-7.42-13.1-12.28-4.97-6.52-9.32-13.38-11.92-21.17-3.79-11.35-6.02-23.02-5.69-35.04.1-3.6.51-7.24 1.19-10.78 1.72-8.86 4.05-17.62 5.44-26.52 1.38-8.86 4.72-17.1 7.11-25.63.24-.86.75-1.64 1.1-2.47 2.77-6.5 5.44-13.05 8.34-19.5 2.47-5.5 5.11-10.93 7.86-16.29 3.98-7.78 7.87-15.62 12.25-23.18 4.22-7.29 8.65-14.52 13.63-21.3 8.31-11.31 18.32-20.82 31.4-26.54zm4.61 229.32c1.61-.06 2.45-.85 2.12-2.71-.67.92-1.33 1.85-2 2.77-1.78 1.37-4.78 1.66-3.82 5.38 1.22-1.81 2.45-3.63 3.7-5.44zm73.69-109.53c-.23-2.08-.45-4.17-2.87-5.16-1.49 3.73-.28 6.61 2.63 9.02.29 1.32.57 2.63.86 3.95h1c.37-1.67.94-3.34 1.06-5.03.11-1.66-.74-2.86-2.68-2.78zm-17.13 34.39c.01 3.21.3 6.33 2.65 8.92 2.27-3.11 2.02-5.04-1.19-9.66-.49.28-.98.56-1.47.82.24-1.34.49-2.68.73-4.01-.84 1.21-3.04 2.23-.72 3.93zm7.9-17.22c1.66-2.96.97-5.49-1.84-8.8-.91 4.35-1.68 7.74-2.26 11.16-.06.38.91.93 1.52 1.51.86-.99 1.51-1.75 2.17-2.51l-.84 3.29c-.44 1.77-.2 3.13 2 3.29-.13 3.16.64 6.04 2.53 8.88.86-.44 1.49-.77 2.12-1.09-1.77 4.35-1.69 5.34.85 8.01 1.11-3.39 3.49-6.39 1.14-10.5-.84 1.08-1.45 1.85-2.05 2.63 2.49-5.16-.27-9.06-2.76-13.45-.58.87-.83 1.24-1.08 1.61.02-1.01.05-2.02.07-3.03.03-1.21-.45-1.61-1.57-1zm-129.85 87.33c-.03-2.09-.04-4.18-.11-6.27-.11-3.18-.73-6.15-4.04-8.56-.61 5.78-.8 10.89 4.22 14.64.7 2.04 2.22 3.14 4.01 3.85.67-1.02 1.21-1.83 1.75-2.65-.04 1.49-.09 2.98-.13 4.34 3.4 4.25 7.95 6.02 12.96 7 4.79.94 5.74.43 7.54-4.03.67-1.65 1.61-3.19 2.69-5.29 1.32 4.83 4.76.76 6.51 2.78-1.35.35-2.61.76-3.91 1-4.13.78-4.13.76-4.74 5.49 3.23 1.33 6.17.14 9.1-1.1 3.33-1.41 6.54-3.24 10-4.21 7.68-2.14 12.98-7.2 17.55-13.28 4.9-6.51 9.7-13.09 14.53-19.66 1.3-1.77 2.52-3.59 3.65-5.21-1.97-2.17-2.72-.58-3.57.41-4.5 5.26-8.93 10.59-13.5 15.8-1.22 1.39-2.42 3.08-4.51 3.38 3.36-4.33 6.98-8.35 10.59-12.38 8.09-9.03 15.8-18.29 19.25-30.27.17-.57.66-1.05 1.01-1.57.19.11.39.22.58.34l-2.85 7.68c2.42-2.23 4.72-4.35 7.03-6.47-.28.68-.44 1.44-.87 2.01-2.58 3.52-5.09 7.1-7.88 10.44-1.69 2.02-2.13 4.26-2.5 6.66 1.06-.74 1.9-1.56 2.61-2.49 5.16-6.81 10.29-13.64 15.42-20.47.27-.36.52-.74.76-1.12 2.4-3.78 4.8-7.56 7.19-11.33l-.08.2c1.26-1.83 2.72-3.56 3.74-5.51 4.43-8.47 6.04-17.81 7.95-27.04.11-.53-.46-1.2-.71-1.81.62-3.2 1.49-6.37 1.81-9.59.41-4.09.37-8.22.53-12.33.52-3.95 1.04-7.9 1.61-12.21 2.07 5.76-.54 11.44 1.03 16.94 1.33-6.51 2.76-13.05 2.91-19.61.24-10.23-.03-20.51-.76-30.73-.62-8.75-3.73-17.02-6.76-25.22-.67-1.81-1.57-3.71-2.89-5.06-1.81-1.85-3.06-3.53-3.26-6.33-.13-1.86-1.39-4.18-2.89-5.28-3.5-2.57-7.43-4.58-11.26-6.67-.39-.21-1.32.58-2 .91-2.95-.86-5.3-3.31-8.76-2.91-2.51.29-5.14.34-7.63-.04-6.51-.97-11.29 1.92-15.5 6.37-.56.59-1.05 1.24-1.95 2.32-.18-1.39-.28-2.14-.42-3.15-6.62 3.84-11.36 9.53-16.8 14.43 1.1-1.61 2.21-3.22 3.31-4.84-.26-.23-.53-.46-.79-.69l-6.93 6.75c-3.21.39-3.76 3.43-5.59 5.35.34.07.55.18.62.12 1.34-1.14 2.66-2.31 3.99-3.47-1.71 3.34-3.14 7.44-6.71 8.71-4.31 1.53-6.49 4.57-8.46 8.08-5.75 10.26-11.48 20.54-17.06 30.9-2.78 5.17-5.28 10.51-7.77 15.83-1.27 2.72-2.17 5.61-3.39 8.36-1.71 3.85-3.84 7.53-5.28 11.48-3.05 8.35-5.84 16.8-8.6 25.25-1.23 3.78-2.13 7.67-3.2 11.59 1.19.13 1.7.19 2.26.26-.85 2.41-1.73 4.65-2.41 6.96-.64 2.17-1.41 4.38-1.48 6.6-.07 2.23-1.25 3.84-1.91 5.73-.66 1.9-.16 4.19-.36 6.29-1.35 14.14 1 27.58 7.83 40.07 2.09 3.83 4.26 7.82 8.51 10.01-.19-3.61-.73-7.02-.44-10.35.24-2.79-.58-4.71-2.68-6.48.88 2.71-.26 4.51-2.46 6.09-.12-1.41-.16-2.71-.36-4-.67-4.4-.41-9.04-3.8-12.69-.74-.79-.81-2.19-1.19-3.31.26-.09.51-.18.77-.26l2.83 4.42c.34-1.16.54-1.86.8-2.74 2.02 2.99 3.93 5.8 5.82 8.61 1.27 1.89 3.03 3.55 2.32 6.27-.18.7.44 1.77.96 2.47 2.64 3.56 5.38 7.05 8.28 10.83.69-1.49 1.18-2.53 2.08-4.46.08 3.63-1.53 6.51 1.66 8.59.39-1.28.76-2.48 1.13-3.69.76 2.84-.42 6.06 2.25 8.32l.05-.11c-.55.11-1.11.22-1.64.32.03 1.05.05 2.09.09 3.53-3.41-2.03-.08-7.05-4.35-8.06-.48.55-.86.99-1.24 1.43-.16-3.35-.88-6.41-4.38-8.5-.02 1.81.11 3.29-.12 4.72-.1.9-.77 1.71-1.21 2.57zm125.58-77.16c-.17 1.59-.77 3.28-.41 4.73.78 3.11 2.03 6.1 3.16 9.12.09.24.74.28 1.13.41-.07 2.47-.1 4.92 1.49 7.13 4.18-4.46 4.49-6.54 1.69-10.04-.7.53-1.4 1.07-2.1 1.6.12-.56.07-1.28.39-1.67 1.86-2.23 1.12-4.89-.07-6.54-1.09-1.52-1.68-2.82-1.97-4.58-.2-1.2-.67-2.87-2.65-1.7-.56-1.43 1-3.52-1.51-4.58-.55 2.27-1.07 4.37-1.72 7.03 1.28-.45 1.93-.68 2.57-.91zm-29.35 68.12c-1.73 4.06-.7 7.96.77 12.54 1.51-2.26 2.72-4.06 3.99-5.97-1.11-.11-1.9-.18-3.48-.33 1.01-.87 1.44-1.19 1.79-1.57 1.07-1.16 2.98-2.34 2.99-3.52.01-2.11-1.11-4.23-1.85-6.31-.04-.1-1.02.14-1.57.22.14-1.24.28-2.48.45-4.05-5.78 5.69-6.52 7.25-4.99 10.15.63-.38 1.26-.77 1.9-1.16zm44.79-143.07c-.17-1.34-.31-2.68-.52-4.01-.47-2.85-1.85-5.12-4.76-7.47.84 7.9-1.81 15.64 4.57 21.55.44-.46.75-.78 1.05-1.09.18 1.34.47 2.68.5 4.02.07 3.39 1.48 6.19 3.68 9.48.21-1.26.45-1.83.37-2.36-.41-2.8-1.07-5.57-1.33-8.38-.32-3.45-.43-6.92-.47-10.38-.02-1.86-.57-3.2-2.37-3.93-.26.89-.49 1.73-.72 2.57zm7.81 18.3c.22.65.62 1.31.62 1.96-.01 2.55-.1 5.1-.26 7.65-.17 2.68 1 4.65 3.44 7.25.57-5.4.86-9.87 1.57-14.28.63-3.9-1.5-6.34-3.8-9.26-.59 2.54-1.07 4.62-1.55 6.7-.19-1.41-.38-2.82-.61-4.48-1.38 1.92-.27 3.17.59 4.46zm-26.18 80.97c1.99-4.35 1.16-8.41-1.29-12.3-6.8 1.88-7.7 7.45-2.34 15.77l3.72-3.69c-.82 1.99-1.63 3.98-2.75 6.71.5 1.15 1.35 3.15 2.25 5.22 5.5-5.69 5.87-7.52 2.8-13.7-.82.69-1.61 1.34-2.39 1.99zm17.19-23.01c.45 1.29.9 2.59 1.35 3.88.36-.03.73-.06 1.09-.1.56-2.1 1.18-4.19 1.66-6.31.9-3.97.86-3.98-.98-6.36-.88 2.31-1.71 4.51-2.55 6.71-.14-2.19-.56-4.4-.36-6.55.21-2.14 2.06-4.16.45-6.81-1.52 2.33-1.11 5.45-4.05 6.68-1.31-1.19-2.74-2.12-.51-3.77.87-.64 1.65-1.46 2.28-2.34.58-.8 1.42-1.95 1.22-2.68-.61-2.15-1.68-4.17-2.88-6.96-.88 1.83-1.35 2.88-1.87 3.91-1.95 3.83-2.4 7.63-.3 11.63.89 1.68 1.07 3.72 1.82 5.49.69 1.63 1.09 3.74 3.63 3.58zm1.24-42.34c-1.5-7.29-3.47-11.35-6.28-12.92-.37 2.68-.34 5.49-1.18 8.01-2.1 6.31 2.22 9.48 5.52 13.43.57-.69.85-1.04 1.13-1.38.55 1.85-.98 4.57 2.75 5.59.03-3.75.17-7.25 0-10.73-.05-.7-1.26-1.34-1.94-2zm-24.59 73.76c2.87-4.38-.47-7.31-2.31-11.19-.9 1.12-1.49 1.74-1.94 2.45-2.47 3.92-4.63 8.07-7.45 11.73-2.34 3.04-2.92 5.74-.8 8.96.36.55.62 1.18.94 1.8 4.19-2.59 3.64-6.11 2.91-9.84.69 1.06 1.38 2.11 2.33 3.56 2-2.95 3.31-6.12 6.41-7.66-.5 1.02-1.1 2-1.47 3.07-.38 1.08-.97 2.36-.7 3.35.56 2.08 1.63 4.02 2.54 6.15 5.23-6.46 5.31-7.21 1.59-13.24-.69.27-1.37.56-2.05.86zm-10.63-14.66c-2.92 2.32-35.68 45.62-36.81 48.64 10.61-7.49 34.1-38.52 36.81-48.64zM329 175.69c-.2.1-.34.22-.47.21-.11-.01-.28-.15-.3-.26-.33-1.45-.7-2.89-.93-4.36-.63-4.15-3.68-6.5-6.47-9.91.3 6.31 2.11 11.07 5.5 15.41 2.85 3.65 5.15 7.74 7.62 11.67.39.62.43 1.46.63 2.2-.19.08-.38.17-.58.25-.85-1.04-1.71-2.07-2.78-3.38-.5 5.34.48 7.67 5.44 13.55 1.58-10.17-4.42-27.98-7.31-27.94-.12.87-.24 1.73-.35 2.56zm-62.16 169.37c1.06-.79 2.03-1.65 3.14-2.29 2.55-1.47 3.15-3.45 1.91-6.08-.08-.17.11-.47.22-.84.64 1.08 1.22 2.05 1.83 3.08 6.44-5.98 6.81-7.42 3.39-13.59-3.52 4.21-6.97 8.3-10.39 12.42-2.55 3.06-2.54 3.07-.1 7.3zm-35.42 23.41c.01.82.02 1.72.04 3.69-1.48-1.78-2.27-2.74-2.87-3.46-2.73.71-5.18 1.32-7.61 1.99-2.41.67-4.81 1.4-7.56 2.2.66.6.79.8.88.78 4.23-.68 8.39-.13 12.55.6.4.07 1.17-.01 1.21-.17.69-2.7 2.48-1.12 3.86-1.03 1.5.1 2.99.25 4.48.31.21.01.43-.33.86-.68-.49-.34-.92-.64-1.33-.93.27-1.29.56-2.71.95-4.62-1.51.33-2.23.48-2.94.65-.85.21-1.68.45-2.52.67zm28.63-18.14c5.74-3.56 5.97-4.03 3.73-7.77-3.72 2.3-9.5 9.57-9.81 12.6 1.09-.47 2.04-.88 3.93-1.69-1.54 2.32-4.35 3.4-2.22 5.82 5.03-2.4 5.18-2.7 4.37-8.96zm49.73-205.22c1.17 8.55 3.84 16.15 10.58 22.71-1.05-5.58-1.58-10.33-5.34-14.12-1.65-1.67-3.88-3.4-3.31-6.5.11-.56-1.25-1.39-1.93-2.09zM285.75 326.7c-3.29 2.02-2.22 5.18-2.7 7.77-.49 2.72.61 5.04 2.02 7.54 5.2-7.33 5.24-8.49.68-15.31zm36.02-99.77c1.21-7.59.46-13.94-4.19-19.53-2.4 7.05.44 12.95 4.19 19.53zm9.93-29.17c-1.21 8.97-.24 12.33 4.64 16.71 1.63-6.14.66-9.83-4.64-16.71zm-17.42-47.86c.24.36.45.75.72 1.08 1.77 2.24 3.52 4.49 5.34 6.69 1.77 2.14 3.23 5.08 5.53 6.14 3.33 1.54 1.38 5.2 3.75 6.76.5.33.86.89 1.28 1.34-1.94-10.14-8.73-16.6-16.62-22.01zm-24.13 183.04c5.13-5.36 5.18-9.35.16-13.84-1.04 1.86-2.91 3.68-2.8 5.37.18 2.79 1.64 5.49 2.64 8.47zm22.99-89.52c-1.51 5.72-5.07 10.73.28 16.34.96-5.53 4.09-10.49-.28-16.34zm15.08-42.88c.2-.79.34-1.21.41-1.64.63-3.75 1.25-7.47-3.17-9.62-.45-.22-.39-1.34-.73-1.95-.36-.66-.91-1.21-1.68-2.19-.22 8.23.4 10.07 5.17 15.4zm-12.07-25.04c-.02 6.09.48 11.11 5.4 14.93 1.28-6.11-.89-10.55-5.4-14.93zm-1.95-12.92c-.13 6.87 3.01 11.29 6.87 15.77 1.45-6.96-3.45-10.65-6.87-15.77zm-10.96 153.71c-3.59 3.87-5.63 7.7-2.13 12.84.96-1.75 1.75-3.48 2.8-5.04 1.75-2.61 1.59-5.01-.67-7.8zm-20.02 2.48c-5.62 5.09-5.72 5.7-1.96 10.13 4.55-4.63 4.71-5.4 1.96-10.13zm-10.05 42.83c4.7-4.02 4.82-4.72 2.18-11.5-4.17 4.42-5.07 6.98-2.18 11.5zm32.96-42.99c4.19-5.4 5.12-8.91 3.38-12.68-5.11 5.74-5.76 8.2-3.38 12.68zm-13.14 22.53c5.57-5.79 4.98-7.3 2.21-11.19-3.6 3.26-4.99 6.44-2.21 11.19zm32.93-107.08c1.49-7.59.96-10.48-3.03-14.21 1.51 5.06-1.86 10.19 3.03 14.21zm-67.67 129.27c-.1-.14-.19-.28-.29-.42 1.53-1.26 3.06-2.52 4.71-3.87-2.57-1.3-2.66-1.25-6.37 3.02.64 1.82 1.31 3.71 2.2 6.23 1.72-2.52 5.01-2.93 4.38-6.7-1.7.64-3.16 1.19-4.63 1.74zm70.66-173.49c.66-5.66-1.15-9.44-3.93-12.19-.67.98-1.51 2.18-2.3 3.33 2.04 2.89 3.88 5.51 6.23 8.86zm1.35 43.83c-.22 3.9-2.82 7.95 1.09 12.15.66-4.6 3.35-8.6-1.09-12.15zm-64.61 133.22c6.57-2.13 7.09-3.21 4.32-8.46-2.03 2.45-5.08 4.18-4.32 8.46zM235 139.93c.91-.46 1.8-.95 2.72-1.38 2.98-1.38 5.88-3.08 9-4 2.18-.65 3.8-1.58 5.61-3.68-7.21 1.14-12.67 4.31-17.33 9.06zm35.61 213.95c1.68-3.35 5.32-5.61 2.97-10.08-5.52 5.58-5.52 5.58-2.97 10.08zm-24.14 21.31c1.86-.69 3.33-1.24 5.08-1.89-.58-1.95-1.06-3.57-1.57-5.26-1.85.56-3.24.99-5.02 1.53.46 1.68.87 3.21 1.51 5.62zm21.85-23.43c-.35-.17-.71-.33-1.06-.5-1.45 1.62-3.02 3.17-4.28 4.92-.34.48.24 1.61.5 3.01l5.58-3.15-.74-4.28zm27.22-27.39c2.21-2.65 1.99-4.82-.98-9.85-2.92 2.92-2.86 3.48.98 9.85zm-9.98 23.65c.21.07.42.13.64.2 1.76-1.49 3.51-2.98 5.61-4.77-.69-1.6-1.43-3.33-2.29-5.32-1.41 3.55-2.68 6.72-3.96 9.89zm43.4-102.79c-2.3 6.04-2.27 8.22.21 10.29.7-3.47 3.28-6.84-.21-10.29zm-79.79 121.16c-.2-1.76-.36-3.12-.52-4.52-5.85 1.74-6.25 2.51-3.2 6.12 1.21-.52 2.45-1.05 3.72-1.6zm61.9-60.17c.31.03.62.06.93.08 1.67-4.13 3.35-8.26 5.02-12.39-2.53 2.83-4.52 5.93-6.21 9.17-.42.79.14 2.08.26 3.14zm-67.52 69.7c-.26-2.12-.49-4.03-.77-6.35l-3.71 1.38c1.14 2.13.77 5.02 4.48 4.97zm9.28-21.21c-1.43 1.14-2.38 1.89-3.63 2.88 1.12.34 1.74.52 2.48.75-.46 1.43-3.03 2.22-.91 4.42 1.1-.63 2.32-1.34 3.58-2.06-.34-1.03-.62-1.72-.8-2.44-.21-.86-.36-1.73-.72-3.55zm74.3-98.29c-2.56 6.06-2.58 6.83-.12 9.25.68-3.11 1.97-6.04.12-9.25zm-28.47 76.56c1.95-2.73-.06-5.01-.2-7.68-2.33 2.13-2.22 4.08.2 7.68zm10.64-39.48c-2.21 2.76-2.21 2.76.78 7.36 1.89-2.85 1.89-2.85-.78-7.36zm-66.68 74.82c-.42-1.99-.64-3.58-2.87-2.66-1.11.45-2.53.97-1.66 2.51 1.2 2.1 2.79.61 4.53.15zm14.23.61c-.65-1.5-1.02-2.37-1.39-3.24-3.39 1.41-3.39 1.41-2.68 4.35 1.21-.34 2.42-.66 4.07-1.11zm2.06.81c3.8.55 5.31-.72 4.54-3.82-1.52 1.28-2.98 2.5-4.54 3.82zm-24.22-4.63c2.63.48 5 .12 6.57-3.08-2.91.12-4.59 1.78-6.57 3.08zm79.68-128.54c-1.26 2.93-.92 5.25 1.11 7.85.74-2.88 1.32-5.27-1.11-7.85zm-51.82 117.04c1.36-1.54 3.59-2.41 3.5-5.11-4.23 2.03-4.29 2.11-3.5 5.11zm-10.8 12.23c1.26-.41 2.52-.83 3.66-1.2-.15-2.02-1-2.26-2.22-1.83-1.15.41-2.39.8-1.44 3.03zm-78.61-39.1c.36 2.25.82 4.45 3.65 4.95-1.22-1.64-2.44-3.3-3.65-4.95zm49.25 37.68c3.63-.03 3.63-.03 5.79-3.01-1.61.69-2.86 1.18-4.06 1.77-.63.31-1.16.82-1.73 1.24zm107.27-143.65c-.3-.01-.6-.02-.91-.02-.04 1.57-.09 3.14-.13 4.71.3.01.59.01.89.02l.15-4.71zm-5.2 33.94c-.35-.1-.71-.21-1.06-.31-.3 1.47-.6 2.94-.9 4.42l1.05.21c.3-1.44.6-2.88.91-4.32zm-43.15 99.08c.29.13.58.27.87.4 1.08-1.01 2.08-2.06 1.45-4-.77 1.2-1.54 2.4-2.32 3.6zm45.78-145.71c.31.09.62.17.93.26-.04-1.2-.08-2.41-.11-3.61-.28.01-.57.01-.85.02 0 1.11.01 2.22.03 3.33zm-4.87 76.34c-.35-.16-.69-.33-1.04-.49-.5 1.01-1 2.02-1.51 3.03.22.13.45.26.67.39.63-.98 1.26-1.95 1.88-2.93zm-57.9 76.38c.29.22.58.44.87.67.45-.69.91-1.38 1.36-2.07-.16-.13-.33-.26-.49-.38-.59.59-1.16 1.18-1.74 1.78zM131.2 195.38c1.55.12 4.41.04 7.13.62 6.71 1.42 12.78 4.54 18.74 7.81 3.24 1.77 4.38 4.56 3.72 8.35-.54 3.11-1.55 5.82-4.82 6.27-3.07.42-6.36.4-9.38-.23-5.9-1.23-11.46-3.55-16.91-6.18-3.44-1.66-6.02-3.83-5.79-7.76.23-3.86 2.35-6.78 7.31-8.88zm22.59 16.67c.29-.32.58-.63.87-.95-.94-1.24-1.63-3.08-2.88-3.61-6.22-2.64-12.26-5.88-19.09-6.77-.88-.12-1.84.47-2.72.71.1 2.57 1.07 4.12 3.08 4.99 6.66 2.89 13.48 5.11 20.74 5.63zM385.6 199.23c-3.75 1.01-7.52 1.97-11.26 3.05-4.17 1.2-8.11-.02-11.87-1.42-5.34-1.98-6.69-10.08-2.56-14.49 3.76-4.01 8.4-6.06 13.99-6.04 2.21.01 4.44-.5 6.64-.9 4.08-.75 8.19-1.17 11.35 2.14 3.95 4.15 2.65 12.18-2.32 15.36-1.26.81-2.68 1.35-4.03 2.02l.06.28zm-4.93-3.94c-.02-.08-.03-.15-.05-.23 1.38-.59 2.76-1.19 4.13-1.78 2.12-.91 2.98-2.88 2.58-4.76-.39-1.84-1.81-3.48-4.23-3.27-3.59.3-7.25.24-10.74 1-2.67.58-5.21 2.01-7.61 3.41-1.53.89-1.71 2.87-.24 3.81 2.92 1.87 5.59 4.77 9.7 3.57 2.15-.63 4.31-1.17 6.46-1.75zM106.86 329.84c-2.79-5.94.08-11.65 5.87-13.16 5.1-1.33 10.24-2.53 15.4-3.62 3.28-.69 6.57-.77 9.79.61 2.41 1.03 3.99 2.69 4.46 5.28.32 1.76.68 3.53.76 5.31.08 1.7-1.84 3.62-3.62 3.91-.58.09-1.31-.13-1.75.14-6.46 4.09-13.9 3.51-21.02 4.37-2.04.24-4.26.06-6.22-.52-1.61-.47-2.95-1.84-3.67-2.32zm30.77-9.27c-2.03-.72-3.73-1.93-5.28-1.76-4.76.52-9.48 1.51-14.19 2.47-.96.2-1.87.99-2.65 1.68-.5.44-1.17 1.43-1 1.77.35.66 1.26 1.47 1.9 1.44 4.95-.22 9.92-.43 14.83-1.05 2.33-.3 4.65-1.33 6.39-4.55zM184.02 391.84c3.45-1.34 6.51-.76 9.22 1.17 2.82 2.01 4 5.08 3.09 8.38-1.36 4.91-3.06 9.74-4.87 14.51-1.16 3.06-2.39 6.23-4.3 8.83-3.47 4.73-9.86 4.62-14.05.54-2.51-2.45-2.44-5.51-1.55-7.95 2.78-7.6 6.13-15 9.44-22.39.55-1.23 1.99-2.07 3.02-3.09zm-1.77 30.39c2.72-1.05 2.76-3.8 3.58-5.94 1.87-4.89 4.52-9.51 5.1-14.85.21-1.92.08-3.87-1.97-4.5-1.94-.59-2.93 1.05-3.67 2.6-2.39 5.01-4.93 9.96-7.09 15.06-2.02 4.75-1.11 6.18 4.05 7.63zM381.2 295.93c2.02 5.51-1.16 10.86-6.88 11.28-.3.02-.6-.03-.9-.07-8.74-1.18-17.07-3.65-24.12-9.08-4.67-3.6-4.46-10.26.33-12.98 2.2-1.25 5.17-1.84 7.72-1.67 7.22.46 13.69 3.41 19.56 7.48 1.76 1.21 2.88 3.33 4.29 5.04zm-29.59-5.68c-.14.46-.28.91-.41 1.37.96 1.03 1.75 2.41 2.93 3.03 2.37 1.24 4.91 2.22 7.46 3.04 3.42 1.11 6.88 2.14 10.4 2.82 1.04.2 2.85-.57 3.34-1.44.42-.74-.49-2.29-.93-3.43-.14-.37-.63-.63-1-.88-4.82-3.23-10.09-5.39-15.9-5.71-1.94-.1-3.92.78-5.89 1.2zM303.13 72.42c7.39-2.61 12.87 2.18 12.15 7.91-.93 7.37-1.94 14.95-5.71 21.66-2.46 4.39-7.06 6.49-11.29 4.77-1.8-.73-3.04-2.73-4.69-3.94-2.23-1.64-1.59-3.48-.93-5.61 1.78-5.76 3.33-11.58 5.04-17.36.9-3.04 3.65-6.67 5.43-7.43zm5.54 7.07c-3.85-.19-4.09-.28-4.84 1.79-1.92 5.36-3.62 10.8-5.38 16.22-.18.55-.3 1.26-.11 1.76.36.93.79 2.17 1.54 2.52.71.32 2.13-.05 2.77-.64 1.17-1.08 2.36-2.41 2.87-3.87 1.29-3.69 2.41-7.47 3.18-11.3.43-2.09.01-4.35-.03-6.48zM295.53 387.18c-.41-1.56-1.13-3.71-1.54-5.92-.8-4.27 1.63-7.42 5.91-7.91 4.23-.48 7.59 1.16 10.21 4.37 4.18 5.12 7.77 10.67 10.86 16.5.7 1.32.82 3.29.44 4.76-.99 3.9-4.36 5.6-7.73 6.92-3.44 1.35-6.26-.6-8.44-2.87-2.05-2.13-3.58-4.79-5.14-7.35-1.55-2.55-2.85-5.27-4.57-8.5zm3.96-7.48c.23 1.32.06 3.03.8 4.15 3.28 5.03 6.79 9.92 10.28 14.8.96 1.34 2.28 1.97 3.92.98 1.81-1.08 1.85-2.68 1.07-4.31-.77-1.62-1.64-3.24-2.73-4.65-2.63-3.43-5.37-6.79-8.17-10.1-1.24-1.48-2.86-2.16-5.17-.87zM183.04 122.08c-.52-3.27-1.23-5.78-1.22-8.28.01-2.57.76-5.03 3.74-6.08 3.03-1.07 6.16-.51 8 1.51 4.92 5.43 9.45 11.24 13.82 17.13 3.14 4.23 2.69 6.61-1.01 10.28-.53.53-1.15.97-1.69 1.49-2.27 2.19-5.65 2.84-7.59.7-4.99-5.54-9.61-11.41-14.05-16.75zm17.63 12.53c2.76-2.79 3.44-4.54 1.79-6.61-4.21-5.3-7.78-11.25-13.76-15.11-1.75 3.11-1.22 5.82.81 8.42 1.29 1.65 2.38 3.46 3.74 5.05 2.39 2.81 4.92 5.49 7.42 8.25z" class="st0"/>
  <path d="M252.47 175.9c1.6-5 2.82-9.49 4.48-13.82 1.69-4.39 5.55-6.38 9.28-5.27 4.34 1.29 6.54 5.12 5.65 9.92-.77 4.14-1.64 8.27-2.4 12.41-.42 2.31.33 4.03 2.53 5.22 3.79 2.04 6.59 5.16 9.1 8.62 4.05 5.6 6.23 11.68 5.16 18.64-.81 5.25-5.76 9.78-11.06 10.35-6.51.7-8.9-.82-11.45-6.82-1.47-3.45-3.08-6.88-5.06-10.04-1.05-1.68-2.92-2.95-4.63-4.09-4.65-3.11-12.14.48-14.2 5.11-.98 2.2-2.08 4.39-2.72 6.69-.47 1.67-.7 3.63-.31 5.28 3.56 15.13 7.93 30 13.68 44.48 3.48 8.77 4.98 17.87 3.41 27.45-1.97 12.03-8.56 20.37-19.38 25.35-9.56 4.39-19.52 4.46-29.56 1.56-.56-.16-1.16-.18-2.25-.34-.66 1.79-1.68 3.53-1.91 5.36-.37 3.01-1.8 5.41-3.48 7.72-2.17 2.98-5.7 3.07-8.52.57-3.05-2.71-4.67-5.69-3.59-9.94 1-3.94 1.58-7.99 2.37-11.98.43-2.15.19-3.88-1.39-5.76-3-3.57-5.45-7.5-6.58-12.21-1.01-4.22.39-7.81 2.22-11.24 1.28-2.39 3.73-3.49 6.6-2.91 2.98.6 5.78 1.54 8.13 3.63 4.28 3.81 8.5 7.71 13.01 11.22 3.32 2.58 7.1 4.69 11.6 4.06 7.16-.99 11.11-10.08 8.99-15.72-2.16-5.73-2.91-12.04-6.94-17.01-.26-.32-.41-.86-.38-1.28.28-4.47-1.93-8.13-3.71-11.97-3.93-8.49-4.91-17.63-5.57-26.81-.53-7.4-.39-14.75 1.65-21.96 1.48-5.22 4.72-9.28 8.5-13.02 5.76-5.7 12.69-9.13 20.58-10.61 2.78-.53 5.65-.59 8.15-.84zm-67.32 107.69c2.38.14 4.75.27 7.13.41-4.81-2.96-4.81-2.96-7.1-.38-.95 3.65 0 6.62 3.11 8.84-2.13 2.74.71 4.15 1.35 6.17.73-.1 1.17-.2 1.62-.22.54-.02 1.09.02 1.61.03 1.31 3.79 1.98 7.9 7.48 7.17l-1.61 1.88c12.47 7.74 21.88 7.23 32.58 4.03 2.75-.82 4.86-2.88 5.48-4.68-3.94.26-6.42 4.95-11.4 4.24 1.2-2.12 1.65-3.78 4.23-3.11 1.5.39 2.79-.75 3.15-2.56.48-2.38 1.89-3.98 4.52-4.96-1.07 1.68-1.93 3.02-3.26 5.1 3.06-1.32 5.27-2.39 7.57-3.21 1.48-.53 2.29-1.4 3.2-2.71 3.19-4.57 3.03-10.13 4.23-15.12 1.41-5.89-.18-12.21-2.33-18.17-3.37-9.32-6.55-18.73-9.4-28.23-2.03-6.78-3.44-13.74-5.02-20.65-.3-1.29-.42-2.75-.14-4.03 1.41-6.33 4.45-11.86 9.15-16.31 1.2-1.14 3.2-1.88 4.88-1.98 6.49-.37 12.44 1.22 16.25 6.95 2.22 3.33 3.95 7.03 5.57 10.71 2.01 4.55 3.98 6.07 9.06 2.95.87-.53 1.56-1.36 2.33-2.05-.52-1.72-.24-3.2-.17-4.7.07-1.41.34-3.85-.21-4.09-3.86-1.62-1.77-4.55-1.57-7.14 1.07 2.48 2.13 4.95 3.2 7.43-1.17-5.81-3.98-10.6-8.53-14.38-.97 2.84-1.88 5.5-2.71 7.91 3.36 3.65 3.36 3.65 3.4 7.52-.48-5.75-6.75-6.28-9.05-10.5 1.38.77 2.75 1.54 4.26 2.38.41-.89.77-1.55 1.02-2.24 1.16-3.32 1.01-3.65-1.8-6.08-1.59-1.38-3.09-2.88-4.59-4.37-3.92-3.88-11.58-5.36-16.86-3.19-.19.08-.24.48-.45.92.63.6 1.27 1.2 2.13 2.02-1.13.19-1.86.31-2.58.43s-1.45.24-1.86.31c-.35-.81-.57-1.86-.84-1.87-1.47-.06-3.18-.31-4.4.3-10.12 5.02-17.79 12.25-18.58 24.22-.49 7.4-.03 14.89.35 22.32.18 3.44.88 6.92 1.87 10.23 1.3 4.37 2.59 8.86 5.76 12.24.86-.53 1.44-.89 2.03-1.25h-.01c-.36 5.6.69 10.97 2.5 16.24 1.32 3.84 2.92 7.62 3.85 11.55 1.17 4.92-.22 9.4-3.2 13.56-2.61 3.65-10.74 7.81-14.89 6.68-4.02-1.09-8.05-2.17-11.25-5.36-2.68-2.68-5.94-4.79-8.81-7.04-.72 1.62-1.25 2.8-1.77 3.98-.73-5.23-1.56-5.99-6.08-5.67.79 1.84 1.5 3.77 2.45 5.57.5.94 1.42 1.65 2.16 2.46l-2.06 2.65c-3.28-1.55-3.28-1.55-3.84-4.29-.29-.82-1.02-1.79-.79-2.42 1.02-2.86-.89-4.54-2.32-6.44zm79.33-122.18c-5.11 3.56-5.32 9.37-6.95 15.04 2.42.64 4.35 1.16 6.47 1.73.94-4.6 1.76-8.86 2.69-13.11.39-1.74-.11-2.87-2.21-3.66zm-72.5 147.69c-.85 5.06-1.53 9.45-2.33 13.83-.36 1.95.18 3.37 2.12 3.79 1.89.41 2.64-1.14 3.11-2.55.66-1.98.97-4.08 1.64-6.05 1.56-4.58 1.62-4.57-2.17-7.36-.46-.35-.95-.68-2.37-1.66zm-1.62-19.31c-.96 2.52-.96 2.52 1.48 4.52-.65-1.98-1.06-3.25-1.48-4.52zm50.77 14.66c-.28-.24-.55-.49-.83-.73-.7.74-1.39 1.49-2.09 2.23l.54.57c.8-.7 1.59-1.39 2.38-2.07zM187.62 226.88c-.16.85-.18 1.75-.49 2.53-3.22 7.95-6.73 15.8-9.61 23.86-1.02 2.85-3.15 4.35-5.38 7.11.29-1.62.28-2.59.64-3.37 2.18-4.62 4.5-9.17 6.67-13.78 2.25-4.77 4.37-9.6 6.61-14.37.35-.74 1.09-1.3 1.66-1.94.01 0-.1-.04-.1-.04zM288.61 266.87c-.1 1.14.09 2.4-.35 3.39-2.97 6.74-6.06 13.43-9.15 20.11-.16.34-.67.51-1.63 1.2.54-1.45.81-2.33 1.18-3.16 2.84-6.31 5.68-12.61 8.55-18.89.42-.92 1-1.76 1.51-2.63 0 .01-.11-.02-.11-.02zM295.56 245.24c0-.85-.17-1.73.02-2.54 1.04-4.47 3.27-8.61 3.03-13.45-.06-1.33 1.67-2.75 3.06-4.86-1.71 7.59-2.63 14.58-6.23 20.82l.12.03z" class="st0"/>
  <path d="M197.19 207.89c-2.37 5.14-4.7 10.31-7.15 15.42-.61 1.28-1.6 2.39-2.42 3.57l.1.05c1.24-3 2.28-6.09 3.75-8.96 1.76-3.44 3.87-6.69 5.83-10.02l-.11-.06zM294.05 249.54c0 .84.17 1.73-.04 2.51-1.11 4-2.26 8-3.54 11.95-.34 1.05-1.22 1.92-1.85 2.87l.11.02c.34-1.82.46-3.71 1.05-5.44 1.35-4 2.91-7.93 4.39-11.89l-.12-.02z" class="st0"/>
  <path d="M294.16 249.57c.47-1.44.93-2.88 1.4-4.33l-.12-.03c-.46 1.44-.93 2.89-1.39 4.33l.11.03zM243.06 299.89c-2.45-3.28-.43-5.5.02-7.77.46-2.35 1.07-4.68 1.69-7.36-1.03.56-1.74.94-2.9 1.56l.4-14.5.42-.09c.25 1.08.5 2.16.79 3.37 1.12-.54 2.22-1.07 4.07-1.97.28 9.3-3.05 17.38-4.49 26.76zm3.44-24.21c-1.49 1.32-2.21 1.95-2.92 2.58.45.19.9.39 1.35.58.37-.76.75-1.51 1.57-3.16z" class="st0"/>
</svg>
