<svg xmlns="http://www.w3.org/2000/svg" id="Layer_1" x="0" y="0" aria-hidden="true" version="1.1" viewBox="0 0 500 500" xml:space="preserve" fill="currentColor">
  <style>
    .st0{fill:#ef4723}
  </style>
  <path d="M211.38 334.37c-6.14-10.71-12.16-21.3-18.29-31.83-1.98-3.4-4.41-6.54-6.41-9.93-1.62-2.74-2.85-5.71-4.38-8.52-1.62-2.98-3.28-5.94-5.11-8.79-4.96-7.72-9.89-15.43-14.19-23.55-4.98-9.4-10.18-18.68-15.48-27.9-1.59-2.76-2.51-5.71-3.29-8.69-1.02-3.88-1.85-7.86-2.29-11.84-.36-3.24-.19-6.57.03-9.84.46-6.94.92-13.9 1.73-20.81.49-4.25 1.23-8.5 3.05-12.49 1.47-3.24 2.43-6.71 3.93-9.93 2.27-4.88 4.62-9.75 7.67-14.2 1.07-1.56 2.55-2.85 3.88-4.23 2.54-2.63 4.98-5.38 7.68-7.83 3.46-3.12 7.01-6.17 10.75-8.94 6.11-4.51 12.22-9.07 18.69-13.03 8.45-5.17 17.72-8.25 27.65-9.34 4.82-.53 9.57-1.63 14.36-2.39 4.62-.73 9.31-1.6 13.95-.97 8.88 1.2 17.81 2.06 26.46 4.78 5.71 1.8 11.33 3.71 16.61 6.5 3.4 1.8 6.56 4.06 9.96 5.85 6.98 3.67 12.86 8.74 18.59 14.05 2.67 2.48 5.45 4.86 7.98 7.48 4.67 4.84 8.36 10.44 11.98 16.07 3.13 4.87 5.55 10.11 7.44 15.57.92 2.65 1.47 5.43 2.3 8.11 2.11 6.78 1.61 13.77 1.55 20.69-.06 6.03-.82 12.05-1.22 18.08-.16 2.46-.16 4.93-.32 7.39-.06.89-.24 1.81-.59 2.62-1.16 2.69-2.31 5.39-3.67 7.97-1.11 2.09-2.6 3.97-3.79 6.02-4.12 7.14-8.2 14.31-12.25 21.49-3.11 5.51-6.23 11.02-9.23 16.59-3.86 7.19-7.71 14.38-11.35 21.68-4.25 8.52-8.25 17.17-12.41 25.74-.88 1.81-2.02 3.49-2.9 5.29-1.75 3.62-3.39 7.29-5.12 10.92-.39.82-.93 1.56-1.38 2.36-1.14 2.06-2.35 4.09-3.34 6.23-.28.6-.07 1.65.29 2.29 2.24 4.05 3.63 8.38 4.55 12.88 1.55 7.54.7 14.93-1.31 22.26-1.65 6.04-4.82 11.35-8.69 16.1-3.14 3.86-6.8 7.39-11.18 9.96-8.46 4.97-17.75 6.76-27.4 6.59-7.44-.13-14.43-2.29-21.01-5.77-.57-.3-1.14-.76-1.73-.8-4.6-.38-7.17-3.76-9.93-6.74a80.87 80.87 0 01-6.41-7.89 25.127 25.127 0 01-3.11-5.8c-1.58-4.28-3.37-8.48-3.78-13.15-.32-3.71-.02-7.25.87-10.82.75-3.01 1.55-6.06 1.84-9.13.78-7.85 2.72-10.27 7.77-16.41zm101.67-219.15c.45.8.9 1.59 1.35 2.39-1.1-.6-2.18-1.21-3.29-1.79-1.49-.77-2.34-2.95-4.6-2.07-.11.04-.41-.3-.59-.5-1.58-1.79-3.73-2.33-5.98-2.92.14.85 1.69 1.55-.04 2.24-.71-1.71-2.12-2.68-3.68-3.33-1.25-.51-2.67-.58-3.97-.99-4.56-1.43-8.89-.31-12.91 1.65-1.86.91-3.74.8-5.5 1.56-.06-.19-.12-.37-.18-.56 2.98-1.02 5.95-2.03 8.93-3.05-3.38-1.57-6.84-1.76-10.35-1.75.08-.17.13-.44.21-.44 2.01-.2 3.9-1.02 6.08-.14 1.54.62 3.49.24 5.25.32.42.02.99-.08 1.25.15 1.9 1.71 4.33.76 6.52 1.32-.42-.38-.83-.76-1.7-1.55 3.89.96 6.71 3.34 10.36 3.09-2.65-2.73-6.11-3.93-9.64-5.04.31-.18.62-.37 1.36-.8-1.28-.28-2.06-.45-3.28-.72.92.74 1.46 1.17 2 1.6-2.51.55-4.44-.35-5.92-2.38-.69-1.14-1.65-1.64-3.38-1.42.55.72.9 1.16 1.24 1.61l-8.21-.84c.47.57 1.02.52 1.49.7 1.83.68 4.16.09 5.44 2.14l-.01-.03c-.26-.22-.49-.58-.77-.62-3.79-.52-7.57-1.2-11.38-1.42-3.86-.21-7.8-.26-11.41 1.95-.57-1.98 1.24-1.84 1.93-2.38-2.6-1.65-4.39 1.33-6.96 1.3.39-.56.65-.94 1.15-1.65-3.02.14-5.67.3-8.31.37-1.07.03-2.14-.16-3.21-.25.12-.13.22-.36.36-.38 5.06-.6 10.12-1.18 15.18-1.75.06-.01.15.21.22.3-.47.13-.93.26-1.65.47 1.19.52 6.52.76 8.77.67 2.85-.11 5.55-1.27 8.41-1.14-.45.3-.89.6-1.57 1.06 2.93.18 5.48.34 8.02.49.07-.19.15-.39.22-.58-.73-.4-1.46-1.11-2.19-1.12-1.51-.02-3.1-.97-4.56.2-.34-.35-.63-.93-1.02-1-2.58-.48-5.18-.84-7.77-1.25-.95-.15-1.89-.43-2.84-.46-4.16-.15-8.31.19-12.47-.02-5.22-.27-10.32.71-15.35 2.1 3.97-.04 7.92-.85 11.91-.41-.83.39-1.69.38-2.54.49-1.64.21-3.38-.22-4.9.73-2.17.24-4.37.3-6.49.77-3.01.66-5.91 1.99-8.94 2.34-4.43.51-8.5 2.1-12.7 3.3-.86.25-1.92.59-2.39 1.25-1.09 1.53-2.67 1.22-3.91 1.01-1.3-.22-1.91.01-2.74.96-.74.84-1.93 1.3-2.92 1.92-.15-.2-.3-.39-.45-.59.8-.74 1.61-1.48 2.41-2.22-2.96.76-5.45 2.32-7.77 4.18-.91.73-1.61 1.79-2.61 2.29-3.56 1.79-6.88 3.82-9.19 7.19-.36.52-.91.9-1.38 1.34.11-.5.23-1.01.45-1.97-3.64 2.67-6.51 5.54-9.57 9.03l3.38-.97c-.13.63-.26 1.26-.48 2.34.98-.67 1.48-1.03 2-1.37 2.33-1.53 4.56-3.27 7.04-4.51 1.99-.99 3.75-2.1 5.28-3.73 1.55-1.65 3.35-3.07 5.09-4.54.62-.52 1.35-1.22 2.05-1.24.75-.02 1.51.67 2.17 1 1.69-1.01 3.23-2.28 5-2.89 2.09-.73 4.05-1.46 4.93-2.77 1.5.04 2.4.07 3.29.09-.14.43-.16 1.06-.46 1.25-1.29.82-2.67 1.51-4.01 2.26-1.84 1.03-3.57 2.19-5.08 4.57 3.3-.34 6.21 1.46 8.43-1.5.09-.12.49-.02.99-.02-.84.9-1.53 1.63-2.27 2.43 1.81.65 3.07-1.54 5.08-.46-.78.45-1.35.79-2.18 1.28 1.31.52 1.96.78 2.61 1.04-.99-.15-1.98-.32-2.97-.44-1.76-.21-3.42-.05-5.01.89-4.03 2.39-6.51 6.17-9.08 9.88-.19.27-.17.68-.25 1.02 2.1-1.28 3.74-2.86 5.44-4.37.48-.43 1.16-.65 1.78-.89.75-.29 1.54-.49 2.31-.75.94-.32 1.87-.65 2.81-.98-1.95 1.14-3.87 2.33-5.86 3.39-1.26.67-2.24 1.38-2.55 2.93-.13.64-1.16 1.72-1.43 1.62-2.18-.8-2.82 1.1-3.95 2.07-.82.7-1.56 1.49-2.33 2.24.53-1.03 1.05-2.06 1.61-3.15-1.39-.54-1.46-1.37-.64-2.34.41-.49.92-.9 1.35-1.37 2.71-2.92 5.42-5.85 8.11-8.76-.29-.37-.52-.66-.92-1.18 1.33-.21 2.95.74 3.08-1.26-2.09-.42-4.08-.71-6-1.23-1.18-.32-2.05.05-2.71.82-1.12 1.3-2.08 2.74-3.1 4.12-1.3.36-1.85-.46-2.13-1.75-2.83 2.88-5.95 5.03-8.52 8.43 1.49-.16 2.4-.27 3.91-.43-2.23 1.46-3.81 2.87-5.65 3.6-2.78 1.11-4.76 2.9-6.37 5.32-.84 1.27-1.93 2.37-2.91 3.55 1.2-2.1 2.4-4.2 3.61-6.31-1.26-.55-2.01-.1-2.8.88-1.12 1.39-2.48 2.58-3.74 3.86.07-.77.15-1.54.22-2.31 1.84.87 1.57-.88 2.05-1.7-.52.77-2.33-.07-2.07 1.68-2.56.32-1.61 3.12-3.48 4.33h1.51c-.46.85-.87 1.73-1.38 2.54-.86 1.36-1.85 2.64-2.68 4.02-.67 1.12-1.17 2.34-1.74 3.51.07-.7.14-1.4.25-2.59-1.5 1.81-2.73 3.33-4.01 4.79-.15.18-.62.08-.94.11 1.18-.92 1.54-2.13 1.05-3.71-1.04 1.96-2.07 3.93-3.12 5.93-.22-.34-.4-.63-.66-1.04-2.86 4.61-4.76 9.41-4.47 14.89.29.02.57.03.9.05-1.86 4.15-2.59 8.69-1.81 10.86.24-.21.5-.44.77-.68-.27.95-.48 1.93-.83 2.85-.9 2.32-1.02 4.68-.55 7.19.81-.96 1.69-1.97 1.88-3.1.19-1.17.7-1.76 1.62-2.27.24-.14.31-.58.46-.89 1.13 1.58-.17 2.63-.86 3.79-.49.82-1.22 1.55-1.52 2.43-.5 1.45-.8 2.98-1.07 4.5-.22 1.23-.29 2.48-.41 3.72-.06.61.04 1.72-.15 1.77-1.74.45-1.13 1.86-1.24 2.88-.4 3.53.83 6.85 1.52 10.23.12.6.42 1.54.82 1.65 1.74.46 2.02 1.96 2.69 3.23.28.53.76.96 1.14 1.44-.19-1.65-.44-3.5-1.5-4.36-1.49-1.22-1.54-2.65-1.57-4.13-.06-2.84.02-5.69.17-8.53.11-2.11.42-4.22.66-6.47-.26-.05-.73-.15-1.65-.33 1.26-1.81 2.35-3.45 3.52-5.04 1.16-1.58 2.4-3.11 3.61-4.66-.13-.14-.26-.27-.39-.41-.79.58-1.58 1.17-2.58 1.9.05-.59-.04-1.15.14-1.25 2.35-1.36 4.73-2.67 7.1-3.98v1.06c2.22-.23 3.84-1.38 5.19-3.05-.78.1-1.44.42-2.12.72-1.05.47-2.11.91-3.17 1.36l2.01-2.57h-1.19c-.07-.66-.13-1.26-.25-2.33-2.5 1.85-4.59 3.4-6.68 4.95.36-2.23 2.9-2.37 3.69-4.09.08-1.01.09-2.1.59-2.88 1.08-1.68 2.4-3.21 3.62-4.79.02 2.39-.98 4.31-3.32 6.01.95.07 1.36.23 1.61.09 1.98-1.04 4.07-1.94 5.46-3.86.58-.8 1.29-1.49 1.95-2.23-.04.33-.09.67-.19 1.44 1.7-.96 3.06-1.73 4.51-2.55-1.32-.98-1.32-.98-.39-2.92-1.46 1.51-2.58 2.66-3.7 3.81.03-1.34-1.18-.26-1.58-.58 1.87-1.52 3.61-2.93 5.33-4.33.3.26.68.59 1.04.9 2.48-1.86 4.82-3.62 7.11-5.34.46.09.96.18 1.47.27-.48 1.09.07 1.26.98 1.09l-.07-.07c-.48.38-.9.93-1.45 1.12-1.95.65-3.02 2.07-4.19 4.25 1.19-.54 1.89-1.14 2.53-1.1 1.63.11-.19 1.39.53 2.07.85-.41 1.64-.87 2.48-1.17 1.08-.38 1.65.12 1.77 1.36.03.29.08.64.25.86.73.89 1.51 1.74 2.23 2.54 1.74-.92 2.31-2.8 4.24-3.06 0 2.2-2.57 2.68-2.8 5.02 1.54-1 2.82-1.73 3.97-2.62 1.2-.93 2.26-2.03 3.47-3.13.4.99.67 1.65.94 2.31-.88.56-1.78 1.11-2.63 1.72-.06.04.26.61.4.94-.34.92-.91 1.49-2.07 1.44.04-.77.07-1.38.12-2.39-.88.8-1.41 1.27-2.18 1.97 1.91 2.66 3.76 5.25 5.69 7.94.91-2.26 1.79-4.43 2.68-6.62 1.93.93 3.07.48 2.69-.95-.3-1.14.54-1.63.56-2.46.39-.46.71-1.01 1.19-1.35 1.29-.89 2.56-2.1 4-2.41 1.58-.34 1.56-1.95 2.77-2.45 1.25-.51 2.41-1.24 3.62-1.87.48-.25.97-.51 1.46-.73 2.23-1 4.46-1.98 6.69-2.96-1 .71-1.99 1.43-2.99 2.14 3.9-1.56 8.29-1.93 11.48-4.97-.73-.01-1.35.25-1.97.48-2.19.81-4.39 1.61-6.58 2.41.99-1.19 3.2-.92 3.67-3.18-2.13.25-3.76 1.3-5.46 2.09-3.89 1.79-7.96 3.23-11.38 5.96-.95.76-2.1 1.47-3.48 1.13-.12-.59.85-1.64-.69-1.43.3-.2.58-.44.91-.59 6.75-2.98 13.51-5.94 20.27-8.91.94-.41 2.12-.57 2.25-2.28-1.18.41-2.19.76-3.19 1.11.06-.7.12-1.39.19-2.12 1.76.53 2.93-.41 3.95-1.33 1.93-1.74 4.51-2.93 5.52-5.63-1.51 0-2.56 1.31-3.93.36 1.74-.94 3.48-1.89 5.25-2.85-.09-.35-.18-.69-.27-1.02 2.79.91 5.57 1.83 8.36 2.74 0 .11-.01.21-.01.32-.64.04-1.28.08-1.91.11-.77 1.37-1.27 2.92-2.52 3.61-.29-.63-.49-1.07-.7-1.5.56-.88 1.12-1.76 1.78-2.81-1.26-.51-2.32-.94-3.4-1.37-.44.76-1.55 1.27-.21 1.99-2.87 1.01-2.88 3.94-4.07 6.19l1.72-.45c-.08 1.08-.15 2.15-.23 3.2.35.29.82.68 1.23 1.01-.97 1.22-1.66 2.1-2.52 3.19 2.98 1.1 3.08-2.26 5.33-2.66-1.24 1.77-2.3 3.28-3.34 4.76 1.01 1.23 1.72 2.78 2.91 3.36 2.06 1 2.74 2.75 3.66 4.52.48.92.64 2.31 2.4 2.57-.27-.96-.48-1.69-.68-2.39.71.09 1.4.38 1.93.2 2.01-.71 3.96-1.57 6.02-2.41-.38-1.28-.75-2.57-1.13-3.86.18-.06.37-.12.55-.18.62 1.33 1.23 2.66 1.87 4.02.7-.23 1.13-.38 1.55-.51 4.09-1.26 8.19-2.51 12.28-3.76l-.04-.06c.16.29.32.57.52.92-1.9.58-3.59 1.4-5.35 1.56-2.1.19-2.87 1.64-3.8 3.03-.45.67-.68 1.47-1.07 2.32h2.03c-1.09.51-2.18 1.02-3.47 1.62.51 1.2 1.03 2.4 1.53 3.59-.72-.79-1.45-1.58-2.32-2.53-1.15 2.16-2.26 4.27-3.38 6.37.12.07.24.15.36.22.74-.97 1.48-1.95 2.28-3 .42.38.72.67 1.25 1.15.6-.76 1.19-1.51 1.77-2.25.38-.13.76-.26 1.19-.41-.06.57-.1.99-.16 1.61 1.41-.94 2.57-1.72 3.73-2.49.48-.01 1.11.18 1.41-.06 1.77-1.42 3.46-2.93 5.18-4.41 3.24-1.16 5.99-2.95 7.99-5.85 1.5-2.18 3.11-4.31 4.84-6.32.66-.76 1.78-1.11 2.7-1.65l-2.65 4.58c.55.55 1.11 1.1 1.66 1.65-.34-.05-.75-.22-1.01-.1-.28.13-.44.54-.65.83.35.11.85.41 1.02.28.29-.21.38-.71.55-1.08 1.75 1.69 1.75 1.69 4.47 1.03-.32.71-.64 1.41-1.15 2.53.87-.5 1.23-.72 1.6-.93-.39.88-.79 1.76-1.21 2.69 1.37 1.16 2.75.69 4.1-.27.72-.51 1.42-.96 2.08.5l-2.71 2.36c.08-.34.17-.69.34-1.39-1.24.69-2.13 1.19-3.21 1.79.12-.76.18-1.17.24-1.58-3.71-.45-8.39.47-9.89 1.98 3.63 0 7.19.04 10.74-.04.63-.01 1.24-.56 1.86-.86.1.94.77 1.01 1.5.99.26.81.52 1.62.77 2.42-1.17-.26-2.35-.52-3.83-.85 2.2 3.18 2.2 3.18 4.98 2.5-.44-.61-.84-1.17-1.26-1.74.41-.06.82-.12 1.22-.19 2.41 0 2.73-.29 2.43-2.87l-2.42 2.9c.37-.69.75-1.37 1.12-2.07.48-.91-.29-.99-.82-1.21v-2.06c.95 2 2.26.19 3.25.45-.15.15-.3.31-.45.46.67.28 1.35.55 2 .82-.54.88-1.22 1.54-1.32 2.28-.07.55.61 1.2.93 1.78-.27 1.08-1.87 1.74-1.12 3.29 1.64-.49 3.19-.95 4.89-1.46.19 2.54-2.18 3.35-2.63 5.18.24.95.47 1.9.76 3.04.73-.34 1.34-.63 1.82-.85.62.71 1.51 1.27 1.6 1.94.11.79-.49 1.67-.79 2.53-.1-.49-.2-.97-.31-1.55-1.65 1.36-1.65 1.36-.8 2.89.41-.5.8-.97 1.19-1.44.06.25.11.5.15.67.72-.32 1.48-.6 2.19-.97 3.09-1.61 6.59-2.63 8.57-5.87l1.54-1.09c-.11-.13-.21-.26-.32-.39-.45.44-.9.89-1.35 1.33-.82.45-1.65.89-2.71 1.47 1.35-2.09 8.32-6.92 11.11-7.75-1.78 1.83-3.4 3.51-5.4 5.57 1.79-.6 3.01-1.01 4.24-1.42l-.05-.06c-.7.53-1.4 1.08-2.12 1.6-.64.46-1.31.9-1.97 1.34 7.61-2.42 14.99-5.16 22.76-6.57-2.27 1.31-5.07 1.2-7.57 2.95 2.18.1 3.99.06 5.76.28 1.86.23 3.69.71 5.97 1.17-.57-3.4-1.06-6.33-1.57-9.39-.68-.16-1.37-.32-1.9-.44.44-.15 1.01-.35 1.67-.58-.18-2.5-.29-4.87-.52-7.23-.35-3.67.94-7.52-1.23-10.98-.05-.08-.06-.17-.08-.26.4-1.97-.53-3.43-1.81-4.77-.74-.78-1.45-1.58-2.17-2.37-.53-1.1-.85-2.38-1.61-3.28-4.54-5.38-9.16-10.68-13.78-15.98-2.1-2.41-4.14-4.89-7.09-6.34.76-1.06 1.42-.94 2.26-.11.75.74 1.34 1.87 2.65 1.81-.73-1.14-1.4-2.17-2.07-3.2.76.19 1.51.38 2.27.56-1.07-1.59-2.12-2.94-3.92-3.24-.35-1.05-1.22-1.22-2.15-1.31.67.56 1.02 1.66 2.22 1.24zm-157.24 36.99c-1.04.91-1.33 2.13-1.64 3.34.18.06.37.12.55.19l1.02-3.6c1.28-1.89 2.56-3.77 3.81-5.68.1-.16-.07-.5-.12-.76 1.36-.32 2.17-1.28 2.87-2.41.34-.56.86-1.01 1.3-1.51.73-1.04 1.46-2.07 2.19-3.11.99-1.4 1.96-2.81 2.97-4.2.58-.81 1.49-1.44 1.61-2.75-2.82 1.44-8.16 8.36-10.95 14-1.97 1.74-2.97 4.02-3.61 6.49zm55.79 233.51l.6-2.61c-.18-.02-.35-.05-.53-.07v2.74c-.71-1.03-1.42-2.07-2.13-3.1.23 2.56.78 4.95 3.2 6.59-.38-1.19-.75-2.37-1.14-3.55zm71.86 2.87c1.88-1.33 3.2-3.05 3.66-5.35.11-.55.1-1.12.15-1.68-.58-.01-1.15-.03-1.73-.04 1.83-1.06 3.41-2.66 2.98-4.72-.47-2.28.63-3.73 1.59-5.37-.38-.46-.72-.86-1.3-1.57-1.16 4.16-2.21 7.91-3.26 11.67-.44.94-1.29 1.9-1.24 2.81.07 1.42-.83 1.81-1.63 2.45.11-.61.18-1.24.34-1.84.32-1.19-.52-.86-1.1-.89.81-.85 2-1.57 2.36-2.59 1.85-5.26 3.49-10.6 5.19-15.91.13-.42.23-1.25.17-1.26-1.56-.44-.7-1.65-.75-2.47-.32-4.73-.52-9.47-.82-14.21-.04-.57-.42-1.12-.64-1.68-.18.03-.35.07-.53.1.41 3.81.81 7.62 1.22 11.44-.09.01-.17.03-.26.04-.31-1.12-.61-2.23-.92-3.35.2 1.99-1.49 3.28-1.82 5.03-.7 3.77-1.32 7.56-2.03 11.33-.23 1.22-.65 2.4-.99 3.61.45-3.52.6-7.12 1.44-10.55 1.04-4.22 1.21-8.56 2.2-12.8 1.11-4.78.01-9.42-4.52-12.5-.38.65-.6 1.64-1.11 1.82-2.2.78-4.49 1.33-6.75 1.96l.05.06c.25-.72.49-1.43.67-1.94-1.59-1.54-3.3-2.5-5.58-2.03 2.04-.79 4.07-1.57 6.11-2.36-1.73-.46-3.41-.28-4.96-1.17 1.36-.64 2.73-1.02 4.11-1.4.44-.12.95-.12 1.31-.35.2-.12.15-.63.21-.96-.33-.02-.65-.03-.98-.05l.01.01c-1.78-2.39-4.48-3.38-7.07-4.76-.73.52-1.42 1.02-2.38 1.7.99.32 1.65.53 2.82.91-2.11.3-3.63.51-4.64.65.83-1.07 1.79-2.31 2.81-3.65-.5-.23-.96-.59-1.46-.66-2.83-.39-5.66-.83-8.51-1.02-2.61-.18-5.32-.49-7.84.01-7.92 1.57-15.65 3.79-22.46 8.42-.15.1-.45-.03-.81-.06.25-.33.39-.57.58-.75 2.13-1.93 5.48-2.07 7.04-4.84.03-.06.17-.06.26-.08 4.15-1.04 8.29-2.11 12.39-3.36 2.65-.81 5.52-1.17 8.37-.67.49.08 1.05-.2 1.57-.31-5.37-1.63-10.53-1.17-15.62.64-2.32.82-4.69 2.19-7 2.13-2.11-.05-3.33.82-4.76 1.8-1.27.87-2.5 1.8-3.75 2.7-2.13 1.54-4.21 3.12-4.5 6.08.53-.05.92-.08 1.72-.15-1.77 1.69-3.27 3.06-2.85 5.54 1.87-.84 3.93-.9 5.05-2.65.71.19 1.38.38 2.36.64-1.9.45-2.58 1.46-2.76 3.19-.17 1.68-.91 3.31-1.39 4.96-.24.83-.35 1.63.6 2.14-2.17 1.77-2.37 2.52-1.15 4.24l-2.32 2.86c-.19-.49-.38-.98-.41-1.05.63-1.61 1.15-2.93 1.88-4.77-1.17.44-1.71.72-2.29.85-2.01.45-3.48 2.3-5.71 2.14.73-.65 1.45-1.3 2.2-1.93.12-.1.33-.1.5-.12 4.45-.53 5.41-1.4 6.45-5.67.32-1.33.79-2.63 1.14-3.95.11-.4.07-.85.12-1.65-2.12.84-3.93 1.57-5.8 2.31.1-.8.18-1.49.28-2.34l-1.31.61c1.01-1.66 2.75-2.82 2.26-5.35-4.98 6.01-9.41 11.87-10.34 19.94 1.53-.59 2.63-1.01 3.73-1.43-.82.57-1.58 1.29-2.47 1.68-1.55.69-2.11 1.92-2.3 3.44-.09.71-.11 1.43-.17 2.11.5.19.87.33 1.33.51-.97 2.03-.88 3.85.01 5.72-.54-.38-1.07-.77-1.23-1.29-1.04-3.31-1.43-6.68-.34-10.1-2.49 4.7-1.54 19.35 1.65 23.79-.18-1.45-.34-2.51-.45-3.59-.11-1.05-.17-2.11-.26-3.21.52.08.81.13 1.42.23-.3-1.58-.57-2.95-.85-4.4.62-.43 1.29-.89 1.96-1.35.23 1.85.47 3.71.71 5.59-.23.02-.62.05-1.3.11.31 1.42.59 2.74.87 4.06.15 1.1.3 2.21.5 3.74 1.22-.87 2.03-1.44 3.3-2.34l-3.88-1.33c-.27-.8-.1-1.47.71-1.79 1.38-.54 2.79-1.01 4.39-1.58.04-.9.06-2.11.16-3.32.07-.81.49-1.31 1.41-1.14l-.39 1.37c.52.32.94.59 1.45.91.29-.44.58-.88.74-1.11.64.09 1.19.29 1.69.21 1.24-.2 2.47-.53 3.7-.81-.86.42-1.74.8-2.58 1.26-1.07.59-2.11 1.23-3.16 1.85l.05.06c-1.88-1.07-1.95.68-2.42 1.62-3.19.32-3.19.32-4.36 1.8 1.94 1.52 4.89 1.46 6.2 3.96-.8-.39-1.6-.77-2.45-1.18-2.7 2.61-1.96 5.49-1.09 8.48.45-.46.82-.84 1.57-1.61-.28 2.54.68 3.66 2.65 3.93.01 0-.03.31-.06.67-.73-.04-1.47-.08-2.13-.12.92 2.41 2.94 3.62 4.89 4.99 3.4 2.39 6.91 4.48 10.84 5.87 2.36.84 4.61 1.15 6.75-.48v.01c1.4.94 2.85.99 4.39.32.41-.18 1.23-.23 1.39 0 .92 1.32 1.55.03 2.31-.02-.08-.47-.16-.81-.2-1.16-.23-1.91-.22-1.9 1.74-2.59.69-.24 1.32-.64 2.02-.82.71-.18 1.46-.19 2.19-.28l.09.48-1.47 1.29c2.06-.54 3.86-1.36 5.66-2.2.74-.34 1.24-.24 1.45.83-1.11.66-2.22 1.48-3.46 2.03-1.96.87-3.99 1.56-6.32 2.45.93.07 1.57.24 2.16.13 1.16-.2 2.33-.48 3.45-.86 1.1-.37 1.79-.24 1.93 1.05-2.52.35-2.52.35-3.74 2.04 2.39-1.25 4.98.12 7.09-1.72-.52-.41-.8-.64-1.14-.91h2.27v1.02c1.3.1 2.5.48 3.54.21 1.25-.32 2.57-.98 3.48-1.88.82-.81 1.12-2.14 1.66-3.26-1.49-1.1-1.55-1.29-.63-2.62.47-.68 1.02-1.3 1.5-1.96.07-.1-.03-.31-.05-.49-.51-.05-1.03-.09-1.56-.14 1.05-3.84 6.17-9.86 9.36-10.61-1.35 1.47-2.42 2.64-3.51 3.82.42.18.72.32 1.06.46-1.09 1.03-2.01 2.23-3.22 2.96-1.88 1.14.03 3.01-1.05 4.22-.06.07.09.33.15.5 1.76.99 3.52.83 4.41-.69.96-1.64 1.61-3.46 2.58-5.6-.93.42-1.31.6-1.69.77-.02-.08-.04-.17-.09-.42 2.46-1.41 3.27-3.88 3.88-6.52.63-2.73 1.43-5.42 2.15-8.13v3.13c.63-.78 1.01-1.25 1.4-1.73.13.08.26.15.39.23-1.14 2.86-2.28 5.73-3.56 8.95.72-.25 1.04-.36 1.35-.47-.57.69-1.11 1.42-1.73 2.06-1.03 1.07-1.52 2.33-1.5 3.88.73-.25 1.28-.63 1.77-1.07.85-.76 1.66-1.57 2.49-2.36-.08.66-.16 1.33-.24 2.04.4-.07.66-.11.91-.15l-1.69 2.41c1.54-.51 1.54-.51 1.72-2.37zm48.3-205.98c1.39-.46 2.78-.93 4.31-1.44-3.62-1.19-9.43.12-11.47 2.78 2.63-.52 4.93-.97 7.23-1.42-.12.31-.25.62-.37.95 3.5.6 6.18.07 8.6-1.91-1.33.09-2.3.09-3.25.22-1.69.23-3.37.54-5.05.82zm-157.85-49.09c-.07-.29-.14-.58-.28-1.17-1.1 1.15-1.96 2.06-3.16 3.33 1.02-.05 1.45-.07 1.89-.09 3.88-1.45 7.32-3.41 8.84-7.63-1.43.71-2.8 1.53-4.03 2.51-1.16.92-2.18 2.02-3.26 3.05zm150.25-5.88c-.09 0-.19-.01-.27.02-.07.03-.17.15-.15.17.27.54.49 1.13.85 1.61 2.13 2.83 4.3 5.63 6.46 8.44.48.62.97 1.23 1.82 2.31-.52-1.57-.83-2.5-1.14-3.43 1.7 1.23 2.74 2.93 3.39 4.89.21.58.3 1.26.66 1.73 1.54 2 3.15 3.94 4.75 5.89.2.24.49.41 1.11.91-.17-.86-.25-1.26-.33-1.65.56.69 1.15 1.36 1.68 2.07.73.99 1.56 1.8 2.9 1.78-.08.81-.47 1.74-.2 2.41 1.19 3.01 2.57 5.95 3.93 9.04.64-.38 1-.6 1.24-.74-.8-1.61-1.56-3.05-2.25-4.53-.94-2.04-1.82-4.11-2.73-6.17-1.41-.79-1.36-2.6-2.2-3.5-1.07-1.16-1.8-2.36-2.42-3.72-.18-.41-.29-.87-.55-1.21-2.59-3.34-5.22-6.65-7.83-9.97v-.51c-.05-.17-.05-.39-.16-.51-1.02-1.13-2.06-2.25-3.11-3.36-.93-.98-1.54-2.35-3.41-2-.53.1-1.28-.96-1.99-1.54-.13.35-.19.44-.18.51.03.34.08.7.13 1.06zm-19.73 62.53c-.32.93-.61 1.73-1.81 2.08-1.2.35-2.37 1.15-1.47 3.01 1.52-1.63 2.97-3.34 4.81-2.93 2.64-2.06 4.84-3.77 7.04-5.49-1.76.41-3.32 1.12-4.89 1.79-1.11.47-2.24.89-3.37 1.33-.67-.17-1.34-.34-2.1-.53-.25.69-.44 1.22-.63 1.75.13.12.26.25.4.37.68-.45 1.35-.92 2.02-1.38zM180.99 173.9c.39-.87.79-1.73 1.18-2.6-2.99 1.63-6.64 2.18-8.23 5.62 2.36 1.98 3.92 1.8 5.34-.48.56-.9 1.19-1.75 1.8-2.63v1.89c1.09-.63 1.9-1.11 2.88-1.68-.58-.54-.96-.89-1.29-1.19-.64.41-1.16.74-1.68 1.07zm98.09-6.81c-.12-1.11-.24-2.22-.39-3.58-1.91 1.31-3.25 2.71-4.37 4.7 1.2-.22 2.07-.38 2.93-.55-.46.41-.85.92-1.38 1.21-3.1 1.72-6.22 3.39-9.34 5.07.8.28 1.44.13 2.06-.09 3.17-1.1 6.3-2.33 9.51-3.28 2.43-.72 2.82-.99 3.06-4.11-.74.23-1.41.43-2.08.63zm69.96 10.99s-.01 0 0 0c.29.28.76.51.85.85.21.82.24 1.69.34 2.49.47-1.39.95-2.82 1.28-3.81-2.45-2.43-1.93-5.99-4.32-8.33-.07.71-.15 1.07-.13 1.42.27 4.46.53 8.91.88 13.36.03.43.66.82 1.41 1.68.21-3.02.31-5.35-.31-7.66zM226.41 322.4c-.36-1.9-1.21-3.88.23-5.75.22-.29-.1-1.03-.24-1.55-2.99-10.75-6.02-21.49-8.97-32.26-3.67-13.43-7.24-26.89-10.9-40.33-2.38-8.74-4.53-17.55-7.37-26.15-1.73-5.26-3.4-10.61-6.5-15.4-4.48-6.92-10.31-11.81-18.3-14.04-3.06-.85-6.24-.5-8.81.83-5.28 2.71-9.21 6.94-10.79 12.91-.42 1.59-.67 3.23-.9 4.87-.86 6.01.87 11.6 3.25 16.95 1.59 3.57 3.79 6.87 5.71 10.29 3.63 6.46 7.14 12.99 10.9 19.37 3.67 6.22 7.72 12.21 11.39 18.43 4.37 7.42 8.6 14.92 12.74 22.48 3.04 5.55 5.77 11.26 8.73 16.85 2.91 5.5 5.9 10.95 8.91 16.39.45.81 1.22 1.45 1.76 2.07 3.18-2.08 6.09-3.96 9.16-5.96zm58.03 11.77c.84-1.07 1.45-1.65 1.83-2.36 1.25-2.34 2.45-4.71 3.63-7.1 2.94-5.97 5.77-12 8.82-17.91 2.94-5.71 6.18-11.26 9.15-16.96 2.88-5.51 5.66-11.08 8.34-16.69 4.31-9.02 8.91-17.88 13.68-26.66 5.02-9.26 9.25-18.94 14.82-27.92.38-.61.72-1.38.7-2.06-.11-3.38.15-6.89-.66-10.12-1.29-5.07-3.77-9.58-7.73-13.33-5.05-4.79-13.06-6.46-19.56-.71-4.96 4.38-8.69 9.64-11.64 15.54-1.39 2.77-1.83 5.72-2.54 8.66-1 4.17-2.22 8.29-3.34 12.43-1.81 6.7-3.62 13.41-5.44 20.11-1.51 5.56-3.08 11.1-4.55 16.67-1.99 7.53-3.94 15.08-5.87 22.63-2.75 10.74-5.43 21.5-8.2 32.24-.79 3.07-.87 5.74 2.51 7.37.8.39 1.47 1.11 2.09 1.77 1.32 1.39 2.57 2.84 3.96 4.4zm-37.69-17.13c.13-.44.34-.79.33-1.14-.22-8.41-.52-16.81-.69-25.22-.24-11.54-.34-23.08-.6-34.62-.3-13.46-.73-26.93-1.07-40.39-.09-3.63-.52-7.21-.31-10.89.48-8.35-.88-16.4-5.08-23.85-2.92-5.17-6.99-9-12.49-11.06-3.79-1.42-7.83-1.64-11.32.88-3.28 2.37-6.17 5.21-8.24 8.77-1.11 1.91-2.28 3.81-1.83 6.19.05.25.03.56-.07.8-1.77 4.07-1.16 8.36-.64 12.45.58 4.51 2.05 8.91 3.23 13.34 2.4 9.01 4.92 17.98 7.28 27 1.97 7.53 3.71 15.11 5.68 22.64 1.46 5.57 3.19 11.07 4.67 16.63 1.29 4.86 2.43 9.77 3.58 14.66.94 4.01 1.73 8.05 2.7 12.04 1.14 4.68 1.7 9.53 3.91 13.94 3.62-.73 7.2-1.43 10.96-2.17zm20.02 3.71c.59-1.96 1.26-4.04 1.84-6.15 2.3-8.46 4.62-16.91 6.82-25.39.94-3.63 1.55-7.34 2.4-11 1.51-6.51 3.24-12.98 4.59-19.53 1.52-7.35 3.2-14.66 4.96-21.96 1.61-6.68 3.21-13.36 4.66-20.08.56-2.58.83-5.24 1-7.88.37-5.63-.46-11.18-1.99-16.57-2.3-8.08-7.1-13.68-15.78-15.38-3.4-.67-6.27-.04-9.08 1.87-2.61 1.77-4.05 4.46-5.89 6.84-2.82 3.65-4.45 7.75-4.6 12.41-.04 1.28-.21 2.56-.42 3.82-1.08 6.62-.94 13.31-.92 19.97.02 5.64.54 11.28.74 16.92.12 3.39.08 6.79.08 10.19 0 13.76 0 27.52-.03 41.28-.01 6.7-.1 13.4-.14 20.09-.02 2.47 0 4.93 0 7.42 4.04 1.08 7.73 2.06 11.76 3.13zm-34.67-.34c-.06-.51-.08-.95-.18-1.37-1.78-7.39-3.49-14.8-5.38-22.17-2.61-10.21-5.34-20.39-8.04-30.58-1.99-7.53-4.03-15.05-6-22.58-1.88-7.18-3.61-14.4-5.6-21.55-2.18-7.86-4.56-15.67-6.91-23.47-.28-.93-.98-1.74-1.55-2.72.14-.15.69-.47.71-.81.08-2.18.04-4.36.04-6.7-.52-.28-1.21-.66-1.95-1.07-.58 1.33-1.13 2.57-1.78 4.03 1.28 1.21 1.93 2.78 1.61 4.88l-1.26-.74c-1.11 1.73-.97 3.06 1.05 4.07.52.26.8 1.18 1.02 1.85.61 1.92 1.02 3.9 1.7 5.79 1.06 2.93 2.48 5.74 3.38 8.71 2.02 6.65 3.85 13.35 5.68 20.05 1.51 5.56 2.9 11.15 4.35 16.72 1.37 5.22 2.77 10.43 4.13 15.65.6 2.3 1.1 4.63 1.72 6.92.66 2.46 1.42 4.89 2.14 7.34 1.21 4.12 2.41 8.23 3.64 12.34 1.15 3.86 2.5 7.67 3.46 11.58.99 4 1.63 8.08 2.42 12.13.15.79-.04 1.9 1.6 1.7zm67.32-121.29c-.4 2.42-.94 4.82-1.17 7.25-.59 6.19-1.3 12.35-3.16 18.31-.52 1.65-.97 3.32-1.39 4.99-2.64 10.45-5.27 20.9-7.9 31.36-1.22 4.86-2.41 9.74-3.65 14.59-1.56 6.11-3.11 12.23-4.75 18.32-1.53 5.66-3.28 11.25-4.7 16.94-.61 2.43-1.65 4.98-.12 7.68.27-.57.57-1.04.71-1.56 1.29-4.85 2.61-9.7 3.8-14.58 1.21-4.98 2.11-10.03 3.46-14.97 2.34-8.57 5.06-17.03 7.37-25.61 2.94-10.95 5.64-21.96 8.42-32.95.88-3.46 1.99-6.91 2.38-10.44.32-2.92.74-5.74 1.67-8.51.14-.41.26-1.07.05-1.3-1.3-1.42-.28-2.48.36-3.69.42-.79.59-1.71.85-2.59.73-2.52.56-2.76-2.23-3.24zm-84.93 131.46c-2.17-3.88-4.33-7.7-6.46-11.52-6.83-12.23-13.64-24.48-20.5-36.7-2.73-4.87-5.75-9.6-8.32-14.56-4.52-8.72-10.7-16.3-16.33-24.29.19.87.5 1.68.91 2.44 1.97 3.61 3.93 7.22 5.97 10.79 2.39 4.21 4.81 8.4 7.3 12.56 2.3 3.84 4.8 7.57 7.06 11.44 1.79 3.07 3.24 6.33 5.01 9.42 2.73 4.76 5.62 9.42 8.39 14.14.74 1.26 1.21 2.66 1.94 3.92 2.98 5.13 6.04 10.22 9.03 15.34 1.34 2.29 2.61 4.62 3.9 6.94.44.75.93 1.14 2.1.08zm134.68-124.73v9.43c0 .44.07.94-.1 1.32-1.19 2.67-1.46 5.63-3.72 7.99-1.97 2.06-3.08 4.95-4.46 7.54-2.41 4.53-4.68 9.14-7.11 13.66-2.03 3.79-4.32 7.44-6.25 11.27-2.84 5.63-5.46 11.38-8.19 17.07-1.32 2.75-2.69 5.49-4.04 8.23.62-.06.85-.32 1.01-.62 1.74-3.32 3.38-6.7 5.21-9.97 3.94-7.04 8-14 11.95-21.03 6.28-11.17 12.53-22.36 18.75-33.56.6-1.08.89-2.32 1.36-3.59-1.57-.41-2.64-.76-2.36-2.55.33-1.99-.56-3.71-2.05-5.19zm-4.49-25.05a3.61 3.61 0 01-.35-.07c-.34-3.2-.79-6.4-.98-9.61-.14-2.42.19-4.87.07-7.29-.12-2.37-.49-4.74-2.81-6.52-.3 7.12.12 13.88 1.39 20.6.51 2.71 2.49 4.32 4.1 6.24.1.12.5-.02.86-.05-.15-1.75-.22-3.47-.48-5.15-.06-.37-.74-.65-1.29-1.09-.21 1.25-.36 2.09-.51 2.94zm-.92 7.72c.19-.11.37-.21.56-.32.52.61.95 1.34 1.58 1.78.62.44 1.45.59 2.17.86-.99-3.26-5.28-6.48-8.65-6.22 1.96 4.02 5.12 7.11 7.25 10.91-.32.21-.65.41-1.09.7.97 1.33.42 3.58 2.75 3.93.7 1.7.48 3.8 2.32 5.28.27-.53.55-.88.62-1.27.57-3.44-1.57-6.03-2.99-8.77-1.25-2.42-2.99-4.59-4.52-6.88zm-147.59-1.37c-4.6-1.51-6.13-5.66-8.84-9.3-1.32 2.21-3.99-.01-5.29 2.28.55.4.94.86 1.44 1.02 2.85.96 5.1 2.85 7.2 4.85 1.38 1.32 2.89 2.09 4.71 2.66.26-.5.46-.89.78-1.51zm52.68 6.65c.33-3.51 3.21-6.6 1.6-10.37-.49.27-1.08.59-1.79.98-1.38-2.71-.65-5.94-2.81-8.31-.06.51-.22.9-.14 1.22.74 2.71 1.54 5.39 2.29 8.1.19.68.58 1.55.32 2.05-1.14 2.22.2 4.2.53 6.33zm2.05 123.62c.31.01.62.03.93.04.11-2.89-.2-5.81-.14-8.7.06-3.01-.06-6.02-.1-9.04-.04-2.85-.07-5.7-.1-8.54-.19 0-.38.01-.58.01-.01 8.75-.01 17.49-.01 26.23zm-57.62-126.73c.23-2.22-.89-2.81-2.18-3.03-1.11-.19-1.7-.5-2.5-1.53-1.56-2.01-4.18-2.53-6.71-2.88.41.85.81 1.8 1.49 2.08 1.4.58 2.83.93 3.58 2.47.17.34.82.73 1.15.65 1.22-.28 1.78.67 2.61 1.15.68.4 1.46.63 2.56 1.09zm58.02 71.99c-.2-10.88-.41-21.76-.61-32.63-1.07 10.91-.03 21.78.61 32.63zm-43.88-158.6c5.94-1.6 11.88-3.2 17.81-4.82.6-.16 1.16-.47 1.72-.75.09-.05.07-.32.13-.67-.29-.08-.63-.3-.9-.23-6.44 1.59-12.79 3.47-18.76 6.47zm-27.29 79.9c.04-.15.08-.3.12-.46-1.29-.42-2.57-.84-3.85-1.26.28-2.16-.54-2.62-3.94-2.2-.58.88-1.13 1.7-1.68 2.53-.9.52-2.26-.43-3.02 1.06 2.23-.15 4.22-.44 6.19-.38 2.07.06 4.12.46 6.18.71zm107.74 153.98l.74.03c2.81-5.71 5.61-11.42 8.68-17.67-.68.42-.79.45-.83.52-2.98 5.24-5.97 10.48-8.89 15.76-.17.3.19.9.3 1.36zm-36.77-65.77c-.7 4.89-.46 16.18.36 17.82.74-6.1-.39-11.95-.36-17.82zm44.34-85.02c1.98 3.15 2.25 6.6 4.76 9.05-.71-2.86-1.43-5.72-2.11-8.48-.83-.18-1.43-.31-2.65-.57zm-47.03-12.33c1.09-.53 1.98-.96 2.89-1.4-.11-1.07.84-2.54-1.03-3.09-2.4 1.43-2.48 1.6-1.86 4.49zm-14.28-10.31c-1.43.44-1.54 1.17-.9 1.78 1.74 1.66 3.58 3.21 5.38 4.81.12-.13.24-.25.37-.38-1.63-2.07-3.25-4.14-4.85-6.21zm-45.43-41.56c-2.42 1.12-6.12 4.89-6.79 7.87 2.37-2.74 4.73-5.48 6.79-7.87zm133.98 2.11c.19-.74.46-1.24.33-1.38-1.28-1.39-2.62-2.72-4.14-4.26-.42 3.23 1.84 4.06 3.81 5.64zm-99.7 39.16c.17.33.23.55.29.55 1.64.02 3.28.02 5.05.02.28-.78.54-1.48 1.03-2.84-2.51.89-4.42 1.57-6.37 2.27zm128.81 18.58c.06 2.58-.27 5.21.85 8.1.92-1.82-.24-3.03-.18-4.03.1-1.51-.15-2.77-.67-4.07zm-99.25-11.27c2.27-.47 3.03-1.94 4-4.01-1.87 1-3.24 1.75-4.77 2.57.26.49.5.93.77 1.44zm-21.37-15.86l-1.41-1.79c-.78 1.21-1.58 2.44-2.44 3.77 1.92.34 2.52-1.34 3.85-1.98zm62.5 25.98c.14-.16.29-.32.43-.48-1.1-2.65-1.96-3.37-4.23-3.23 1.39 1.35 2.59 2.53 3.8 3.71zm-47.42 222.19c.02.25.04.5.07.75 1.6.59 3.11.67 4.25-1.4-1.44.22-2.88.44-4.32.65zm-61.76-229.6c-.98 1.56-1.65 2.62-2.61 4.14 3.01-1.35 3.29-1.74 2.61-4.14zm86.74 222.3c-.34.88-.68 1.77-1.19 3.07 1.48-1.28 3.51-1.22 3.66-3.41-.76.1-1.51.2-2.47.34zM194.8 118.02c-2.58.31-2.89.54-3.85 2.57 1.77-.24 2.9-1.29 3.85-2.57zm157.4 79.36c.62-1.8 1.8-3.62 0-5.71v5.71zM244.7 93.98l.1.1h7.23v-.1h-7.33zm-87.33 137.04c-.2.07-.41.14-.61.21.64 1.47 1.28 2.93 1.91 4.4 1.13-2.15-.73-3.13-1.3-4.61zm10.94-54.11c1.17-.84 2.33-1.68 3.5-2.52-2-.32-3.02.76-3.5 2.52zm129.93 2.36c-3.2 1.21-3.2 1.21-2.05 3.08.66-.99 1.28-1.93 2.05-3.08zm46.66 5.91c.74.88 1.33 1.96 3.06 2.23-.99-1.33-1.55-2.42-3.06-2.23zm-8.2-.78c.92 1.08 1.63 1.92 2.34 2.75.12-.09.23-.18.35-.27-.35-.98-.71-1.97-1.1-3.04-.45.16-.77.28-1.59.56zm-103.62-22.51c-1.25-.38-2.18-.86-2.69.29-.14.31.29.86.67 1.84.82-.87 1.34-1.42 2.02-2.13zm-85.99 33.19c-.13-.03-.26-.06-.39-.1-.26 1.11-.51 2.21-.77 3.32l.4.09c.25-1.1.5-2.21.76-3.31zm17.7-14.71l.33.63c1.22-.65 2.44-1.29 3.66-1.94-.1-.2-.21-.39-.31-.59-1.23.63-2.46 1.26-3.68 1.9zM274.94 338.6c2.34.52 2.34.52 4.33-.59-1.78.24-3.06.42-4.33.59zm8.14-165.31c-.08.26-.16.52-.23.78.94.38 1.89.77 2.83 1.15.09-.23.19-.47.28-.7l-2.88-1.23zm-105.15 7.78c.98.36 1.96.72 2.93 1.08-.6-1.26-1.31-2.22-2.93-1.08zm131.25 115.11l-.66-.24c-.52 1.39-1.04 2.78-1.56 4.18.18.07.36.13.54.2l1.68-4.14zM173.49 176.5c-.12-.19-.24-.38-.35-.56-.88.51-1.76 1.03-2.64 1.54 1.64.81 2.13-.41 2.99-.98zm2.41-5.12c-1.47.06-2.17.75-1.88 2.24.63-.74 1.26-1.49 1.88-2.24zm5.41 5.19c-.72.61-1.43 1.23-2.3 1.97 1.83.61 2.33-.33 2.3-1.97zm112.73 6.66l-.43.37c.47.81.93 1.62 1.59 2.76.62-1.85-.33-2.46-1.16-3.13zm-42.9 82.44c-.08.05-.15.09-.23.14v2.77h.08l.15-2.91zm98.4-71.6c.11-.03.23-.05.34-.08-.02-.44.02-.89-.1-1.3-.09-.33-.38-.6-.59-.89-.13.07-.25.14-.38.21.25.69.49 1.38.73 2.06zm-4.34-25.26l.62.18c.07-.91.13-1.83.2-2.74l-.28-.03c-.19.87-.37 1.73-.54 2.59zm-41 26.37c-.16.87-.26 1.43-.47 2.54 1.17-.9 2.03-1.26.47-2.54zm38.93-11.56c-1.06-1.07-1.79-1.17-2.78 0h2.78zm-96.75.54c.15-.08.29-.16.44-.24-.35-.76-.7-1.52-1.05-2.29-.17.08-.34.17-.51.25.37.77.75 1.53 1.12 2.28zm58.97 120.42c-.16-.13-.32-.25-.49-.38-.37.94-.74 1.88-1.11 2.81l.36.15c.41-.86.82-1.72 1.24-2.58zM251.33 100v.2c.85.05 1.7.09 2.55.14v-.49l-2.55.15zm-11.77-4.73v-.21h-2.2v.21h2.2zm108.27 70.23c-.26.13-.51.27-.77.4.28.69.56 1.37.85 2.06.2-.07.41-.15.61-.22l-.69-2.24zm-29.84 19.44c-.08-.15-.16-.3-.25-.45l-1.92.87c.1.2.21.4.31.6l1.86-1.02zm-46 136.3c-.88.55-1.36.86-1.89 1.19 1.3 1.04 1.63.34 1.89-1.19zm5.53 13.7c-.43.46-.82.88-1.22 1.3.08.04.16.09.24.13 1.39-.41 1.39-.41.98-1.43zm72.1-144.65c.37-1.18.28-1.83-1.2-2.31.51.97.79 1.52 1.2 2.31zm-.18-2.78c.18-.18.36-.37.54-.55-.43-.36-.85-.72-1.28-1.08-.12.12-.24.24-.36.37.37.42.74.84 1.1 1.26zm-29.85-62.21c.12-.08.23-.17.35-.25-.36-.49-.72-.98-1.08-1.48-.13.09-.25.18-.38.27.37.49.74.97 1.11 1.46zm-71.16 50.68c-.13.02-.26.03-.39.05.04.49.07.99.11 1.48.17-.02.34-.04.5-.05-.08-.5-.15-.99-.22-1.48zm20.35 221.21c1.2-.4 1.2-.4.93-1.76-.35.65-.59 1.11-.93 1.76zm30.45-80.4c-.18-.09-.37-.19-.55-.28-.2.52-.39 1.03-.59 1.55.13.06.26.11.39.17.25-.49.5-.96.75-1.44zm-48.56-141.17c.14.13.28.26.43.38.27-.44.53-.89.8-1.33-.13-.08-.25-.16-.38-.25-.28.41-.56.8-.85 1.2zm-80.01 4.03c-.04-.1-.09-.2-.13-.3-.51.23-1.02.45-1.54.68.05.11.1.23.15.34.51-.24 1.02-.48 1.52-.72zm108.23 155.46c.13-.15.26-.29.38-.44-.41-.32-.83-.64-1.24-.95-.09.1-.18.21-.27.31.37.36.75.72 1.13 1.08zm71.28-167.47c.12-.06.24-.11.37-.17-.22-.48-.44-.96-.66-1.45l-.39.18c.22.48.45.96.68 1.44zm-68.15-.5c.16.12.32.25.48.37.29-.42.58-.85.96-1.4-.49 0-.76-.07-.82.01-.24.31-.42.68-.62 1.02z" class="st0"/>
  <path d="M243.56 386.75c-1.1 1.81-2.18 3.49-3.15 5.24-1.18 2.12-4.05 3.08-6.25 2-2.4-1.18-3.36-2.59-2.8-5.29.49-2.38 1.52-4.65 2.41-7.25-.16-.19-.55-.69-1-1.13-2.34-2.26-2.4-5.1-1.77-7.94.7-3.11 3.99-4.46 6.97-2.91 1.94 1.01 3.73 2.3 5.59 3.46 1.4.87 2.74 1.87 4.23 2.51.7.3 2.04.2 2.46-.28.39-.44.25-1.85-.19-2.43-1.26-1.67-2.77-3.16-4.23-4.67-1.91-1.97-4.05-3.74-5.78-5.85-6.52-7.97-3.43-17.19 4.72-21.38.41-.21.82-.42 1.1-.56.48-1.86.82-3.66 1.43-5.37.92-2.57 2.69-3.78 4.62-3.42 2.58.48 3.93 2.25 3.81 5.19-.06 1.45-.38 2.88-.55 4.11 1.8 1.39 3.54 2.56 5.08 3.97 1.47 1.35 2.25 3.05 1.56 5.18-.84 2.63-2.55 3.63-5.25 2.85-1.13-.33-2.19-.86-3.32-1.19-.78-.23-1.63-.43-2.42-.35-2.31.24-3.38 1.88-2.35 3.81.46.86 1.08 1.7 1.8 2.35 3.27 2.93 6.69 5.7 9.89 8.71 4.83 4.54 5.16 14.05-1.19 17.92-2.09 1.27-3.75 3.38-6.44 3.42-1.89.02-3.79-.19-5.68-.33-1.09-.09-2.17-.24-3.3-.37zm6.86-24.6c.11 1.33.23 2.66.35 4.09h2.75c-1.39 1.6-1.05 2.94-.3 4.44.6 1.2.82 2.61 1.07 3.95.44 2.3-.82 3.95-3.11 4.59-1.86.52-3.42.18-4.89-.96-.94-.73-1.84-1.53-2.85-2.15-2.13-1.31-4.02-3.09-6.57-3.51-1.72 2.55-1.72 2.55-.99 5.08 1.75.25 3.51.51 5.47.79-1.13 1.36-.04 2.07.91 2.5 1.62.75 3.33 1.29 5.04 1.81.67.2 1.42.16 2.14.15 5.04-.08 7.51-3.16 8.85-7.58-.57.09-1.11.17-1.89.28.34-.49.48-.73.66-.93 1.99-2.18 2.02-4.81-.11-6.89-1.03-1.01-2.37-1.72-3.47-2.67-1.08-.92-2.04-1.98-3.06-2.98-1.45-1.74-3.11-3.34-4.3-5.24-1.69-2.69-1.13-5.48 1.24-7.59 2.17-1.93 4.79-2.02 7.45-1.77.9 1.73.9 1.73 2.44 1.58-.75-2.89-1.88-3.95-4.52-4.22-.82-.08-1.65-.04-2.47-.14-1.5-.18-2.47.29-2.46 2.58-1.38-1.42-2.1-.66-3 .1-1.91 1.61-3.3 3.41-3.05 6.06.24 2.45 1.19 4.33 3.77 5.16.67.22 1.41.98 1.65 1.66.7 2.12.86 2.29 3.25 1.81zM234.5 390.6c1.23 1.06 2.12 1.26 2.83.12 1.07-1.73 2.05-3.5 3.13-5.34-1.32-.83-2.3-1.43-3.56-2.22-.86 2.67-1.63 5.04-2.4 7.44zm17.56-55.73c-2.47 1.95-2.9 3.86-1.28 5.43 1.2-1.57 2.04-3.16 1.28-5.43z" class="st0"/>
</svg>
