<svg xmlns="http://www.w3.org/2000/svg" id="Layer_1" x="0" y="0" aria-hidden="true" version="1.1" viewBox="0 0 500 500" xml:space="preserve" fill="currentColor">
  <style>
    .st0{fill:#ef4723}
  </style>
  <path d="M272.08 358.31c-3.22-.16-5.6-.36-7.99-.38-9.46-.07-18.93-.12-28.39-.08-5.08.02-5.55.55-5.8 5.42-.44 8.64-.86 17.28-1.29 25.93-.18 3.71-.42 4.27-4.16 4.28-4.13.01-8.3-.35-12.38-.98-12.03-1.88-23.81-4.83-35.53-8.15-9.48-2.68-18.39-6.52-26.79-11.61-.82-.49-1.65-.97-2.53-1.35-4.39-1.92-4.63-2.15-4.42-6.59.71-15.04 1.37-30.08 2.25-45.1 1.18-20.12 2.59-40.23 3.81-60.35.49-8.12.68-16.26 1.15-24.39.27-4.73 3.54-7.71 6.64-10.82 7.88-7.91 17.82-11.68 28.34-14.33 9.32-2.35 18.63-4.74 27.98-6.99 3.25-.78 6.57-1.4 9.89-1.72 8.29-.81 16.6-1.53 24.91-2.07 14.17-.92 28.05.25 41.77 4.51 11.61 3.6 23.61 5.92 35.4 8.96 9.85 2.54 18.9 6.99 27.58 12.2 1.36.81 2.6 1.9 3.7 3.04 1.44 1.5 2.27 3.11 2.08 5.51-.6 7.49-.71 15.02-1.16 22.52-.66 11.19-1.46 22.38-2.17 33.57-.98 15.51-1.94 31.02-2.9 46.53-.66 10.71-1.33 21.42-1.91 32.14-.25 4.66-1.88 7.56-6.57 9.9-9.78 4.87-19.46 9.85-29.97 12.91-7.98 2.33-16.03 4.58-24.19 6.08-5.13.94-10.54.61-15.81.53-3.05-.05-4.13-1.75-3.92-4.65.6-8.31 1.11-16.62 1.67-24.94.2-3.02.45-6.01.71-9.53zm26.96 27.25c-1.64-.19-3.37-1.02-5.5.83 2.33-.35 3.91-.59 5.5-.83 1.64-.52 3.28-1.03 4.92-1.55-1.48.86-4.18-1.12-4.92 1.55zm35.01-145.38c-.76.8-1.53 1.6-2.29 2.4.17.25.34.5.5.75l11.46-5.97-.33-.66c-.62-.07-1.24-.13-1.87-.2 2.66-1.52 5.31-3.04 8.28-4.74-.78-.74-1.15-1.34-1.67-1.53-2.21-.83-4.48-1.48-6.69-2.3-8.11-3-15.92-6.87-24.54-8.4-.61-.11-1.54-.29-1.72-.7-1.54-3.51-5.05-3.49-7.91-4.25-11.14-2.94-22.28-6.01-33.84-6.91-4.94-.39-9.94-1-14.83-.55-4.83.45-9.68 1.02-14.48 2.62-5.68 1.89-11.86 2.24-17.83 3.27-2.82.49-5.63 1.01-8.45 1.51.03.14.06.29.08.43l3.38.54c-2.78.58-4.73 1.04-6.7 1.38-3.77.66-7.57 1.86-11.32 1.77-9.13-.22-16.8 4.44-25.27 6.63 11.4 3.5 23.26 2.66 34.71 4.97-2.86.09-5.68-.32-8.51-.29-5.41.05-10.81.37-16.22.52-1.63.04-2.95-.36-4.57-1.35-3.12-1.93-6.95-3.78-10.74-1.26-2.24 1.49-4.25 2.55-6.86.18-.06 1.25-.16 2.46.32 2.77 3.66 2.38 6.91 5.81 12 4.76 1.01-.21 2.18.34 3.27.61 8.22 2.02 16.43 4.05 24.92 6.15.1-.96-.05-1.8.29-2.09.43-.38 1.25-.34 1.9-.48-.23 4.05 3.08 3.18 5.26 3.63 6.42 1.35 12.89 2.48 19.32 3.8 3.96.81 7.83 1.43 11.57-.8.35-.21.93-.03 1.51-.03-.63.76-1.17 1.42-2.16 2.62 12.75 1.43 24.98 2.2 37.27 2.5-10.42.25-20.82.01-31.2-.46-6.4-.29-12.91-.31-19.15-1.55-11.58-2.3-23.01-5.41-34.5-8.17-5.27-1.27-10.54-2.52-15.8-3.79 1.49 1.59 3.18 2.72 5.04 3.39 7.51 2.7 15.38 4.43 22.34 8.59 1.07.64 2.4.97 3.65 1.16 7.28 1.06 14.55 2.23 21.87 2.97 8.59.86 17.23 1.34 25.85 1.92 1.42.09 3.22.33 4.21-.38 2.09-1.5 4.27-1.03 6.46-1.19 3.51-.25 7.06-.31 10.53-.86 9.62-1.52 19.12-3.75 28.91-4.39 4.8-.31 9.51-1.86 14.26-2.85-.04-.25-.07-.5-.11-.74h-6.13l.07.09c.18-1.64 1.2-2.06 2.68-1.89 3.79.44 7.17-1.06 10.62-2.27 1.04-.37 2.11-.59 3.16-.88zm-170.51 49.44c.19-.6.53-1.19.55-1.79.41-14.56.84-29.12 1.15-43.68.1-4.57-.45-5-5.51-5.68-.47 2.67-1.11 5.32-1.35 8.02-.2 2.18-.53 4.66.26 6.57 2.44 5.9 1.07 11.95 1.24 17.9.3 10.68.07 21.38.02 32.08-.01 1.58-.2 3.15-.3 4.73-.36-.02-.73-.03-1.09-.05 0-1.21.01-2.43 0-3.64-.07-6.25-.1-12.51-.26-18.76-.03-1.17-.61-2.33-.93-3.5.11-3.18.17-6.37.34-9.55.18-3.39.46-6.78.69-10.18-2.98 11.23-2.99 22.67-2.83 34.1.01 1.01.66 2 1.01 3-.55 11.92 1.13 23.97-2.41 35.8-.32-1.45-.63-2.89-.95-4.34l-.43.03v25.07c1.45.96 2.76 1.83 4.06 2.69-.06.16-.12.32-.17.48a578.8 578.8 0 01-3.99-.89c-.21 2.7-.39 5.08-.59 7.66 1.48 1.29 2.85 3.06 4.65 3.93 5.76 2.8 11.5 5.81 17.57 7.72 9.16 2.89 18.55 5.06 27.91 7.27 5.23 1.23 10.58 1.93 16.3 2.94 1.31-12.03 2.56-23.57 3.79-34.92-3.11-1.26-5.18 3.83-8.08.42 3.62-2.25 17.04-5.29 19.05-4.4-1.57.57-3.14 1.15-4.7 1.72 1.65.59 3.07.43 4.49.24 3.32-.44 6.63-1.14 9.96-1.27 2.67-.11 5.36.6 8.05.71 5.09.21 10.2.08 15.28.41 4.31.28 8.36 2.25 10.56 5.7 1.87 2.95 2.25 6.89 1.93 10.71-.51 6.06-.71 12.15-.96 18.23-.05 1.2.3 2.42.5 3.9 5.78-.34 11.2-.05 15.48-4.45 1.04-1.07 2.85-2.16 4.19-2.03 4.21.42 7.88-1.23 11.58-2.5 8.4-2.88 16.01-7.38 23.31-12.38 1.38-.95 2.59-2.25 4.71-.81-7.72 6.28-16.47 10.74-24.88 15.79 8.04-1.77 15.69-4.49 22.96-8.21 1.7-.87 3.01-2.11 5.28-1.48 2.01.55 3.29-.74 3.32-2.95.07-5.94.12-11.88.2-17.81.09-7.06-.03-14.14.36-21.19.62-11.18 1.85-22.34 2.34-33.53.68-15.36.89-30.73 1.38-46.1.08-2.61.54-5.21.91-8.65-4.94 3.42-10.5 4.89-10.69 11.44 0 .14-.36.28-.76.57.11-1.84.21-3.48.34-5.55-1.37.43-2.29.62-3.13 1-10.83 4.89-22.37 6.46-34.07 7.39-5.41.43-10.84.93-16.19 1.83-8.67 1.45-17.3 2.52-26.15 1.93-13.1-.87-26.24-1.3-39.36-1.83-3.75-.15-7.52-.02-11.28-.02l.03-1.05h13.9c-10.05-2.18-19.21-4.39-28.46-6.11-9.39-1.74-17.25-7.31-26.39-10.31-.4 5.5-.89 10.58-1.13 15.67-.47 9.92-.76 19.84-1.24 29.76-.04.74-.89 1.45-1.36 2.17-.02.03-.01.03-.01.03z" class="st0"/>
  <path d="M180.31 358.34c1.43.95 2.87 1.9 4.3 2.85-.03.15-.06.29-.08.44-.76-.18-1.56-.25-2.27-.55-6.14-2.69-12.26-5.44-18.4-8.13-2.84-1.25-5.71-2.42-8.56-3.63-.85-.36-1.68-.75-2.52-1.12l1.17-1.59c2.16.86 4.48 1.45 6.44 2.64 3 1.83 5.44 4.86 9.64 2.99.61-.27 1.77.52 2.61.96 2.36 1.22 4.69 2.5 7.04 3.76l.63 1.38zm26.45-97c-2.89.38-2.48 2.96-2.92 4.75-.44 1.82-.15 3.8-.37 5.69-.08.65-.73 1.23-1.11 1.84l.09.11c.22-3.82.45-7.64.7-11.96-7-2-14.21-4.05-21.41-6.11.06-.28.13-.56.19-.84.76.04 1.53-.01 2.27.12 3.6.61 7.2 1.2 10.78 1.92.98.2 1.88.81 2.81 1.23v.11c2.08.83 4.15 1.67 6.25 2.47.84.32 1.72.54 2.59.81l.13-.14zm103.91 37.1c-1.45-10.54-.98-26.59 1.17-29.53l-1.17 29.53zm-140.61-48.55c-.93 13.1-1.78 25.09-2.61 36.7-1.17-6.86.23-31.35 2.61-36.7z" class="st0"/>
  <path d="M206.64 261.47c.79.05 1.58.09 2.61.15-2.74 9.53-.89 19.21-2.5 28.74v-29.02c.01 0-.11.13-.11.13zm94.96 110.87c-3.29 1.46-6.58 2.92-9.87 4.37.07.27.14.55.22.82l9.42-1.89c-3.98 2.38-8.42 2.82-13.64 3.45 3.45-5.59 9.5-4.72 13.3-7.97.19.41.38.81.57 1.22zm-138.07-82.72c.02 6.17.14 12.35.03 18.52-.05 2.99-.51 5.98-1.35 8.94.44-9.15.89-18.3 1.33-27.45 0-.01-.01-.01-.01-.01zm179.86-15.05v22.49h-.41v-22.41c.14-.03.28-.06.41-.08zM209.71 300.8c-.49.94-1.22 2.35-2.17 4.17-.76-.29-2-.76-3.35-1.27.23-.68.25-1.27.54-1.5 1.49-1.17 3.4-2.01 2.94-4.51.72 1.11 1.33 2.03 2.04 3.11zm-17.48 60.96l17.16 4.89c-5.94-.22-11.45-2-16.85-4.19-.15-.06-.14-.54-.21-.82 0 .01-.1.12-.1.12zm112.13-96.53c-5.59.57-11.17 1.15-16.76 1.72l-.09-.9c5.6-.54 11.21-1.08 16.81-1.61.01.26.02.52.04.79zm-143.22 82.08c-2.38-4.52-2.47-5.95-1.02-11.91 1.5 1.81 1.1 3.66 1.04 5.45-.07 1.86-.02 3.72-.02 6.46zm57.81-78.19v18.84h-.53v-18.84h.53zm92.59 92.56c0 .16.04.43-.02.46-3.43 1.66-6.87 3.31-11.14 5.35 1.92-3.49 4.9-4.8 11.25-5.71l-.09-.1z" class="st0"/>
  <path d="M180.31 358.34l-.63-1.38c4.55.64 8.63 2.5 12.55 4.8l.11-.12c-1.2-.16-2.46-.14-3.6-.49-2.84-.84-5.62-1.86-8.43-2.81zm-13.98-52.13v-15.16h.48v15.34a4.68 4.68 0 01-.48-.18zm-9.96-6.94c.03-4.74-.01-9.48.12-14.21.03-1.14.63-2.27.97-3.4-.07 4.88-.1 9.76-.26 14.64-.03.99-.54 1.97-.83 2.97zm163.01 52.88c-2.24 3.09-5.35 4.87-8.88 6.03 2.18-3.21 5.69-4.4 8.97-5.93l-.09-.1zm-12.32 2.95c-1.75 1.01-3.44 1.98-5.24 3.02-1.57-2.67.82-3.26 1.2-4.06 1.43.37 2.61.67 4.04 1.04zm-143.85 10.57c-5.04-1.78-5.96-2.48-6.85-5.92l6.77 6.02.08-.1zm64.13-94.68c-.6 3.81-1.19 7.62-1.79 11.43-.23-.03-.47-.05-.7-.08l1.23-11.44 1.26.09zm84.3 90.79c3.9-1.57 7.8-3.15 11.7-4.72l-.08-.09c-3.48 2.62-7.4 4.14-11.7 4.72-.02-.01.08.09.08.09zm6-55.92c-.49 1.27-.75 1.96-1.09 2.84 1.12.2 2.13.37 3.14.55-2.1.21-4.23 1.42-6.4.09 1.46-2.1 1.46-2.1 4.35-3.48zm-25.88-33.42c-.54 3.36-1.07 6.71-1.61 10.07l-.74-.09c.4-3.39.79-6.79 1.19-10.18.39.07.77.14 1.16.2zm-29.4 15.5c.39-2.61.79-5.22 1.18-7.83.29.04.58.09.88.13l-1.26 7.97c-.26-.09-.53-.18-.8-.27zm-43.87 10.78c.37-2.82.62-4.79.87-6.76.97 4.31.97 4.31-.87 6.76zm-51.84 65.13c-2.1-1.03-4.2-2.06-6.29-3.09.1-.23.21-.46.31-.69 2.2.97 4.4 1.93 6.59 2.9l-.61.88z" class="st0"/>
  <path d="M319.46 352.24c.93-2.66 3.45-3.51 5.47-4.93-1.4 2.14-2.71 4.39-5.56 4.84.01 0 .09.09.09.09zm-46.98-88.52h7.49c.01.11.01.23.02.34h-7.49c-.01-.11-.01-.22-.02-.34zm-13.07 1.47l9.19-1.02.06.95c-3.11 0-6.22 0-9.34-.01-.01 0 .09.08.09.08zm83.96-1.28l.3-6.48c.13 0 .26 0 .39.01v6.59l-.69-.12zm-50.6-.71h-7.66v-.46h7.8c-.05.15-.1.3-.14.46zm44.92 2.98l-.27 5.56c-.12 0-.25-.01-.37-.01v-5.57c.21 0 .43.01.64.02zm-14.36 90.88c1.14-2.69 3.87-1.58 5.91-2.04-2 .65-3.99 1.3-5.99 1.96 0-.01.08.08.08.08zm19.29-86.2c.22-1.38.43-2.77.65-4.15.38.06.75.12 1.13.17-.18 1.4-.37 2.8-.55 4.2-.41-.08-.82-.15-1.23-.22zM191.24 378.13c1.49.48 2.98.97 4.47 1.45l-.15.55-4.55-1.26c.08-.24.15-.49.23-.74zm127.37-14.69c-1.4.71-2.81 1.43-4.21 2.14-.12-.24-.23-.49-.35-.73 1.41-.69 2.83-1.39 4.24-2.08.1.23.21.45.32.67zm24.38-50.06v-4.22c1.75 1.73 1.52 2.99 1 4.29-.33-.02-.67-.05-1-.07zm-145.18-55.19v-.11c1.86-.13 3.71-.25 5.57-.38 0 .3.01.59.01.89-1.86-.13-3.72-.26-5.58-.4zm-34.69 107.58c1.55.65 3.1 1.3 4.64 1.95-2.13.48-3.59-.32-4.56-2.05.01 0-.08.1-.08.1zm76.53-19.16c1.44-.75 2.89-1.49 4.33-2.24.11.32.23.65.34.97-1.6.38-3.2.77-4.79 1.15l.12.12zm94.54 8.64c1.03-.54 2.06-1.08 3.09-1.61.12.2.24.39.36.59-1.01.59-2.01 1.18-3.02 1.76-.14-.25-.29-.5-.43-.74zm-144.03-9.75v5.05c-.32-.05-.63-.11-.95-.16.36-1.6.71-3.2 1.07-4.8l-.12-.09zm12.2-71.88l.33 5.93-.93-.03c.24-1.92.48-3.84.71-5.78l-.11-.12zm81.32 6.69c-.07 1-.15 2-.22 3-.13-.01-.26-.01-.39-.02v-3.11c.2.04.4.09.61.13z" class="st0"/>
  <path d="M239.53 346.48c-1.2.42-2.41.84-3.61 1.26-.05-.29-.1-.57-.16-.86 1.29-.1 2.58-.19 3.88-.28l-.11-.12zm61.27-84.38h-3.18v-.24h3.18v.24zm-93.07 53.32v-3.51h.38v3.51h-.38zm101.83 32.29c-.66.83-1.32 1.66-1.97 2.49l-.57-.36c.57-.89 1.14-1.79 1.72-2.68.26.17.54.36.82.55zm18.87-32.58v-3.08l.33-.03v3.1c-.11.01-.22.01-.33.01zm8.11 35.85c-1.04.81-2.08 1.61-3.12 2.42-.17-.34-.33-.68-.5-1.02 1.24-.43 2.48-.86 3.73-1.29l-.11-.11zM177.48 367c1 .68 2 1.35 3.01 2.03-1.39-.15-3.31.43-3.01-2.03zm.01-.01c-1.54-.01-3.07-.01-4.61-.02.02-.33.03-.66.05-1 1.52.34 3.03.69 4.55 1.03l.01-.01zm5.16 8.19a568 568 0 003.87 1.16c-1.73.74-3.08.5-3.76-1.27l-.11.11z" class="st0"/>
  <path d="M336.64 351.09c1.16-.6 2.33-1.19 4.38-2.24-1.39 2.81-2.94 2.45-4.48 2.14 0-.01.1.1.1.1zm-153.88 23.99c-1.54-.21-3.08-.42-4.62-.64.11-.41.23-.81.34-1.22 1.39.66 2.77 1.32 4.16 1.97l.12-.11zm120.03-135.29c7.2-1.46 14.4-2.93 22.25-4.53-.49 1.71-.74 2.6-1.06 3.72-6.88.45-14.01.91-21.14 1.38-.02-.19-.04-.38-.05-.57zm38.93-3.43c-1.99 2.57-4.76 3.61-7.86 4-1.14-3.31-3.86-1.39-6.4-1.6 1.65-1.8 3.39-1.2 4.82-1.17 3.22.08 6.42.27 9.44-1.23zm-43.47-22.34c3.03.73 6.06 1.45 9.09 2.18-.06.29-.13.59-.19.88l-9.14-2.01.24-1.05zm-107.06 21.44c2.63.84 4.94 1.57 7.18 2.29-3.63.47-5.58-.06-7.18-2.29zm34.3-12.47c1.89-2.61 3.54-2.29 5.19-.29-1.81.1-3.5.2-5.19.29zm6.69-8.6c1.96-1.72 4.04-.4 4.79-.67-.8-.08-2.27 2.57-4.79.67zm85.35 30.73c-2.23 1.68-4.81 1.8-7.54 1.03 2.54-.31 5.07-.62 7.61-.94l-.07-.09zm-113.51-21.35c1.24-.27 2.48-.54 3.72-.8l.21.82c-1.24.38-2.47.77-3.71 1.15-.07-.39-.15-.78-.22-1.17zm22.59 16.11c.18.42.62.99.48 1.2-.27.41-.82.7-1.31.84-.14.04-.48-.59-.73-.91.36-.26.7-.51 1.56-1.13zm-29.92-61.84c-1.51-3.45-2.98-6.92-4.55-10.35-1.75-3.83-1.15-7.78-.35-11.59 1.13-5.41 8.69-7.87 13.52-4.54 4.39 3.02 7.02 7.17 7.81 12.54.31 2.12 1.12 4.19 1.83 6.24 1.31 3.8 2.31 7.68-.41 11.19-3.4 4.38-11.29 4.3-15.06-.01-.95-1.09-1.68-2.38-2.52-3.57-.1.03-.19.06-.27.09zm3.06-5.29c.07-.03.14-.05.22-.08.77 1.24 1.54 2.47 2.3 3.71 1.18 1.9 3.2 2.44 4.94 1.79 1.71-.64 3.07-2.24 2.53-4.52-.81-3.39-1.28-6.91-2.51-10.15-.94-2.47-2.68-4.71-4.37-6.8-1.08-1.34-3-1.23-3.69.32-1.37 3.07-3.76 6.05-2.02 9.81.91 1.95 1.74 3.94 2.6 5.92zm-60.43 26.53c-.32 5.68-5.2 9.22-10.45 7.4-.27-.09-.53-.26-.78-.41-7.32-4.4-13.8-9.8-17.99-17.34-2.78-5-.03-10.84 5.27-11.43 2.44-.27 5.31.35 7.52 1.47 6.25 3.18 10.88 8.29 14.55 14.16 1.1 1.77 1.28 4.09 1.88 6.15zm-24.16-16.4c-.3.35-.6.71-.89 1.06.46 1.29.63 2.81 1.45 3.82 1.63 2.02 3.52 3.86 5.47 5.57 2.62 2.3 5.31 4.54 8.17 6.5.85.58 2.75.58 3.53 0 .66-.5.44-2.22.49-3.41.02-.38-.32-.8-.55-1.16-3.05-4.73-6.91-8.67-11.96-11.19-1.69-.84-3.8-.82-5.71-1.19zm267.01.95c7.58.51 10.62 6.88 7.78 11.7-3.66 6.2-7.46 12.56-13.39 17.09-3.88 2.96-8.78 3.07-11.88-.09-1.32-1.34-1.66-3.59-2.67-5.31-1.36-2.32-.08-3.71 1.33-5.35 3.79-4.44 7.41-9.03 11.15-13.52 1.97-2.35 5.8-4.53 7.68-4.52zm2.22 8.42c-3.35-1.65-3.53-1.82-4.99-.26-3.77 4.03-7.37 8.23-11.01 12.38-.37.42-.75 1.01-.77 1.53-.03.97-.13 2.24.41 2.83.5.56 1.92.77 2.71.49 1.45-.52 3.03-1.24 4.04-2.34 2.56-2.79 5.01-5.73 7.17-8.84 1.16-1.71 1.66-3.88 2.44-5.79zm-88.49-39.73c.88-1.3 1.99-3.19 3.35-4.9 2.61-3.3 6.46-3.54 9.54-.72 3.05 2.79 3.99 6.29 3.31 10.25-1.08 6.32-2.84 12.47-5.14 18.45-.52 1.35-1.88 2.69-3.2 3.36-3.48 1.76-6.87.38-9.98-1.24-3.18-1.66-3.55-4.96-3.28-7.99.25-2.85 1.22-5.67 2.09-8.43.88-2.78 2.04-5.46 3.31-8.78zm7.99-1.87c-.82 1.01-2.17 1.97-2.52 3.22-1.58 5.6-2.92 11.28-4.27 16.95-.37 1.55.01 2.92 1.78 3.49 1.94.63 3.14-.36 3.84-1.96.69-1.59 1.32-3.26 1.66-4.96a259.1 259.1 0 002.17-12.4c.29-1.85-.25-3.47-2.66-4.34zm-56.43-38.77c1.68-2.74 2.73-5.03 4.31-6.87 1.62-1.89 3.72-3.23 6.58-2.13 2.91 1.12 4.87 3.5 4.95 6.15.21 7.1-.11 14.24-.59 21.33-.35 5.09-2.18 6.57-7.21 6.94-.72.05-1.46-.01-2.18.03-3.05.18-5.96-1.46-6.03-4.26-.2-7.23.09-14.47.17-21.19zm5.11 20.33c3.79-.32 5.39-1.19 5.48-3.75.23-6.56 1.35-13.19-.64-19.8-3.25 1.19-4.56 3.52-4.71 6.72-.09 2.03-.42 4.05-.42 6.07.01 3.58.19 7.16.29 10.76z" class="st0"/>
</svg>
