<svg xmlns="http://www.w3.org/2000/svg" id="Layer_1" x="0" y="0" aria-hidden="true" version="1.1" viewBox="0 0 500 500" xml:space="preserve" fill="currentColor">
  <style>
    .st0{fill:#ef4723}
  </style>
  <path d="M305.41 327.61c-.54-3.28-2.63-4.73-5.92-5.52 1.72-.33 3.44-.67 5.31-1.03.42-1.79.86-3.7 1.31-5.62.33.01.67.03 1 .04-.06 1.06-.01 2.14-.21 3.17-.68 3.42-.54 3.73 2.9 4.4 1.69.33 3.41.5 5.09 1.18l-6.83-.59c-2.57 6.16-1.83 8.99 2.84 10.41-1.03.36-1.78.62-2.51.88-.14 5.4-.13 5.39 4.5 7.21 1.68.66 3.33 1.41 4.99 2.11-.11.33-.22.66-.33 1-4.59-.98-9.17-1.96-14.29-3.05.57-.39.9-.62 1.77-1.21-12.69-3.44-25.41-5.15-37.84-8.01.08-.39.16-.77.23-1.16 9.59 1.87 19.18 3.75 29.15 5.7.52-1.87.95-3.43 1.48-5.33-2.79-.66-5.23-1.24-7.99-1.9.59-.47.74-.67.81-.64 5.21 1.86 9.96.46 14.55-2.03-.74 1.41-1.56 2.68-3.41 2.78-.24.01-.45.69-.81 1.3 1.48.13 2.75.24 4.03.35.07-1.69.12-3.07.18-4.44zm-7.48 9.46c3.17 1.61 5.92 2.6 9.08 2.44-1.11-6.11-1.4-6.37-7.27-6.54-.5 1.14-1.04 2.37-1.81 4.1zm-38.15-3.95c8.03 1.35 15.79 3.88 23.49 6.72-7.89-1.8-15.77-3.6-23.66-5.39.05-.45.11-.89.17-1.33zm-133.69-80.61c.63-2.02 1.27-4.04 1.9-6.06.05-.41.09-.81.14-1.22 1.01-1.31 2.02-2.62 3.07-3.99 1.6-.06 2.46.74 1.66 2.23-1.68 3.13-3.59 6.14-5.48 9.15-.11.17-.88-.07-1.34-.11h.05z" class="st0"/>
  <path d="M128.14 245.23c-.05.41-.09.81-.14 1.22-.84.66-1.76 1.23-2.49 1.99-.72.76-1.25 1.7-1.86 2.56l.11.11c1.17-3.74.61-8.19 4.63-10.78.64-.41.76-1.63 1.11-2.49l-.13-.12c-.42 2.49-.83 5-1.23 7.51zm-4.5 5.76c.04.93.32 1.92.09 2.77-1.1 3.94-2.3 7.85-3.59 11.73-.17.52-1.04.8-1.59 1.19h.01c1.15-3.74 2.26-7.5 3.46-11.22.48-1.48 1.16-2.9 1.74-4.35l-.12-.12zm2.41 1.52c.28 1.49.55 2.97.83 4.46-.35 1.78-.69 3.57-1.04 5.35-.88.48-1.76.96-3 1.63 1.15-3.98 2.22-7.7 3.27-11.43-.02-.01-.06-.01-.06-.01z" class="st0"/>
  <path d="M125.84 262.32c.35-1.78.69-3.57 1.04-5.35.96-.54 1.93-1.08 2.89-1.63.13.19.25.38.38.57-1.44 2.13-2.88 4.27-4.31 6.41zm237.02-69.25c-1.03-.13-2.06-.21-3.08-.41-11.87-2.34-23.56-5.79-35.85-5.42-4.53.13-9.09.14-13.6-.26-2.67-.24-5.25-1.38-7.96-2.55 2.1 0 4.2.09 6.29-.02 2.65-.14 5.3-.7 7.93-.61 3.92.13 7.84.54 11.73 1.06 7.95 1.06 15.87 2.26 23.81 3.42 1.64.24 2.99.52 4.41 2 1.41 1.46 4.23 1.57 6.42 2.27-.03.17-.06.34-.1.52zm-49.55 23.3c5.86 1.72 11.73 3.37 17.57 5.18 2.7.83 5.34 1.88 7.94 2.97 1.36.57 2.58 1.44 3.66 2.65-5.6.79-10.21-2.14-15.19-3.68.7-.18 1.41-.36 2.17-.56-.11-.23-.16-.58-.31-.63-4.46-1.49-8.94-2.91-13.38-4.45-.86-.3-1.57-1.05-2.35-1.59-.02.01-.11.11-.11.11zm-44.79 23.91c3.29-1.89 5.37-3.09 8.3-2.2 4.36 1.33 8.84 2.23 13.26 3.37 1.01.26 1.97.78 2.78 1.78-4.12-.77-8.25-1.54-12.37-2.29-.92-.17-1.84-.35-2.77-.42-2.51-.17-4.32.58-4.03 3.51-3.28.58-2.88-2.42-5.17-3.75zm-106.95-24.33c-4.54-.93-8.97-2.13-13.77-1.63-3.02.32-6.19-.68-9.28-1.16-2.31-.36-4.6-.84-6.88-1.6 4.36.25 8.71.51 13.07.76l.21-.97c-.94-.64-1.88-1.28-2.88-1.97.25-.22.52-.54.59-.5 5.62 2.94 11.74 4.14 17.87 5.38.45.09.72 1.11 1.07 1.69zm-32.91 7.68c6.63 1.66 13.27 3.28 19.88 5.02 1.31.35 2.5 1.15 3.76 1.74l.11-.12c-2.88-.51-5.84-.77-8.63-1.59-5.07-1.49-10.51-1.96-15-5.15l-.12.1zm34.11-.11c-1.08.09-2.24.46-3.24.21-4.86-1.19-9.68-2.55-14.41-4.27 6 .68 11.84 2.08 17.52 4.18.02-.01.13-.12.13-.12zm22.43 60.49c2.81-6.11 6.45-11.65 9.85-17.3 1.12-1.86 1.36-3.08-.5-4.46-4.04-2.98-5.11-8.55-9.66-11.11-.48-.27-.54-.87-.18-1.32.56-.68 1.38-.6 2.12-.44 3.73.79 7.57 1.29 11.16 2.5 4.02 1.36 6.48.26 8.36-3.38 1.57-3.04 3.45-5.92 5.24-8.85.57-.93.94-2.3 2.43-1.97 1.63.35 1.54 1.8 1.65 3.06.31 3.8.64 7.59.9 11.39.15 2.14 1.21 3.02 3.33 3.35 4.65.71 9.25 1.7 13.87 2.57 1 .19 2.14.27 2.42 1.49.32 1.41-.99 1.6-1.83 2.01-4.34 2.14-8.64 4.38-13.1 6.24-2.21.92-2.85 2.11-2.49 4.34.92 5.64 1.71 11.3 2.58 16.95.17 1.11.76 2.42-.72 2.95-1.57.56-2.09-.66-2.77-1.86-2.84-5.02-7.07-8.94-10.77-13.28-1.28-1.5-2.34-.31-3.3.33-5.08 3.41-10.62 5.97-16.02 8.81-.8.42-1.61.89-2.49.27-1.02-.74-.25-1.58-.08-2.29zm-61.41-77.73l2.36 1.07-.24-1.78c-.6.2-1.28.43-2.12.71z" class="st0"/>
  <path d="M404.92 183.93c-14.76-3.44-29.55-6.75-44.32-10.18-26.14-6.08-52.26-12.21-78.39-18.32-15.67-3.67-31.35-7.34-47.02-11-15.05-3.52-30.1-7.08-45.16-10.54-6.77-1.55-13.56-2.97-20.37-4.32-4.31-.86-6.98.99-7.94 5.2-.66 2.93-1.27 5.87-1.99 8.78-.97 3.92-2.02 7.81-3.1 12-4.6-.97-8.59-1.86-12.6-2.64-3.06-.6-4.45.13-5.18 3.1-2.08 8.41-4 16.86-6.04 25.53-4.77-1.11-9.65-2.23-14.54-3.37-4.47-1.05-5.98-.19-7.11 4.39-.98 3.99-1.36 8.16-2.73 12-2.32 6.51-1.79 12.06 2.82 17.54 2.74 3.26 4.13 7.55 3.03 12.04-1.88 7.71-6.35 13.87-12.91 18.03-2.29 1.45-2.94 2.72-3.3 4.97-2.05 12.93-4.18 25.84-6.27 38.76-1.21 7.47-2.29 14.96-3.64 22.41-.4 2.17-.09 3.79 1.74 4.91 1.99 1.21 3.97 2.72 6.16 3.26 13.16 3.29 26.38 6.32 39.57 9.49 23.78 5.73 47.55 11.52 71.33 17.25 17.18 4.14 34.37 8.22 51.56 12.35 13.04 3.14 26.07 6.31 39.1 9.49 6.74 1.64 13.51 3.17 20.19 5.04 4.7 1.32 6.69.48 7.76-4.46 1.56-7.24 2.9-14.54 4.37-21.8.34-1.66.82-3.29 1.33-5.32 1.69.33 3.03.58 4.37.86 5.09 1.07 10.16 2.3 15.29 3.17 3.89.66 4.96-.25 5.95-4.18.38-1.53.6-3.1.94-4.64.73-3.33 1.49-6.65 2.32-10.31 6.42 1.41 12.25 2.66 18.07 3.97 6.92 1.56 6.55.87 7.75-5.57 1.18-6.35 1.99-12.78 3.23-19.12 2.7-13.77 5.35-27.55 8.49-41.22 1.12-4.89.56-10.55 5.16-14.22-.31-.57-.44-1.08-.77-1.35-4.05-3.35-5.24-7.71-4.68-12.76.14-1.25-.06-2.54.04-3.8.37-4.75 2.36-8.52 6.97-10.32 1.36-.53 1.95-1.06 2.24-2.49.36-1.79 1.4-3.43 1.78-5.22 1.14-5.4 2.23-10.82 3.08-16.27.45-2.91.37-5.9.52-8.78-2.73-.9-4.87-1.82-7.1-2.34zm-28.26 4.52c1.34.18 2.67.37 4.01.55-.12.38-.24.75-.36 1.13-1.25-.36-2.51-.73-3.76-1.09.04-.19.08-.39.11-.59zm-234.88-8.77a28.47 28.47 0 001.85-8.15c.25-3.35.66-6.56 2.28-9.67 3.13-.85 5.34.82 8.59 2.84h-6.54c10.89 4.45 22.21 6.81 33.83 7.93-.86-.24-1.7-.51-2.57-.71-1.08-.25-2.17-.44-3.25-.68-5.21-1.14-10.44-2.21-15.62-3.5-1.03-.26-1.85-1.38-2.77-2.11l.48-.84c15.29 3.84 30.58 7.67 45.79 11.48-.14 2.94-1.58 2.58-3.06 2.38-4.02-.55-8.06-1.02-12.08-1.52l-.03 1.23c5.46 1.33 10.92 2.66 16.24 3.95 2.79-4.5 3.05-4.72 7.59-3.52 5.62 1.49 11.13 3.37 16.76 4.8 10.67 2.7 21.33 5.54 32.12 7.71 16.97 3.41 33.85 7.06 50.41 12.15 2.63.81 5.63.29 8.38.8 7.29 1.35 14.57 2.84 21.81 4.44 3.21.71 6.32 1.84 9.69 2.85-1.41 7.15-2.76 14.03-4.14 21.03-21.27-5.07-42.87-10.22-64.48-15.37-14.59-3.48-29.17-6.97-43.75-10.49-17.33-4.18-34.64-8.45-51.98-12.56-13.66-3.24-27.37-6.29-41.06-9.42-.92-.21-1.87-.37-2.76-.67-2.97-1.01-2.89-1.44-1.73-4.38zm84.57 28.91c-.06.28-.13.57-.19.85-3.12-.74-6.24-1.49-9.36-2.23l.21-.92c3.11.77 6.23 1.54 9.34 2.3zm-15.9-3.82c-.12.29-.24.58-.37.86-1.34-.45-2.67-.91-4.01-1.36.05-.17.09-.34.14-.5 1.42.33 2.83.66 4.24 1zm-14.53 2.97c-8-1.51-16.21-2.07-23.76-5.5-.76-.35-1.77-.18-2.66-.22-1.79-.08-3.58-.13-5.37-.19-.01-.5-.03-.99-.04-1.49 1.15-.12 2.36-.53 3.44-.31 9.61 2.01 19.31 3.72 28.39 7.71zm-63.26-16.8c1.67.76 2.95 1.34 5.13 2.34-2.33.95-3.67 1.5-5.81 2.37.29-1.99.44-3.01.68-4.71zm-2.24-.5c-.56 3.2-.65 3.22-6.57 1.35 1.85-2.81 4.31-1.39 6.57-1.35zm-10.19-3.4c.89.28 1.78.56 2.66.84.01.24.01.47.02.71-.58.13-1.2.44-1.74.34-.49-.09-.91-.61-1.35-.94.14-.32.27-.63.41-.95zm-11.55 123.57c1.78-1.66 2.86-2.13 4.2.26-1.47-.09-2.51-.15-4.2-.26zm43.25 10.95c1.27.19 2.53.38 4.04.6-1.67 1.99-2.8.38-4.04-.6zm18.15 3.42c.01-.16.02-.32.02-.47h7.15c.02.5.05 1.01.09 1.85-2.47-.47-4.86-.93-7.26-1.38zm17.34.52c-3.43-.37-6.8-.73-10.17-1.1v.08c-3.58-.83-7.18-1.66-11.73-2.72 4.15-.88 7.38-.32 10.59.19 2.6.41 5.15 1.22 7.75 1.53 3.75.44 7.54.52 11.3.87 1.06.1 2.08.58 3.12.88 1.34.4 2.65.95 4.02 1.17 3.8.61 7.63 1.08 11.45 1.6-.05.38-.09.77-.14 1.15-3.57-.42-7.14-.83-10.88-1.27-.32 1.05-.57 1.89-.82 2.73-4.14-.84-8.27-1.74-12.42-2.48-1.44-.26-2.37-.66-2.07-2.63zm14.71 5.12c3.68-.08 7.39-.51 11.01-.1 4.64.53 9.18 1.93 13.8 2.67 2.96.47 6 .44 9 .63.54.84 1.08 1.7 1.87 2.94-5.57-.78-10.77-1.69-16.01-2.18-6.7-.62-12.89-3.76-19.67-3.96zm33.53 7.89c3.39.72 6.77 1.43 10.16 2.15-3.77 1.17-6.94-.62-10.16-2.15zm26.23 8.33c-2.86-.49-5.67-1.27-8.4-2.41 3.49-.99 6.7.47 10.01.85-.55.62-1.17 1.64-1.61 1.56zm-9.39-6.13c1.95.37 3.91.74 6.3 1.19-3.27.5-3.27.5-6.3-1.19zm35.14 15.34c-3.45-.78-6.91-1.55-10.36-2.33.07-.34.14-.68.2-1.02l10.5 2.07c-.11.42-.22.85-.34 1.28zm-17.08-7.31c-2.69-.58-5.04-1.3-6.8-3.43h.01c2.02-1.47 4.39-1.29 6.22-.26 5.54 3.12 11.88 3.77 17.65 6.13 2.16.88 4.49 1.33 6.74 1.98-.42.55-.83 1.11-.91 1.22-7.78-1.94-15.3-3.99-22.91-5.64zm53.01-24.29c-.41-.12-.83-.24-1.24-.37.9-3.45 1.27-7.07 3.74-10.02-.83 3.46-1.67 6.92-2.5 10.39zm2.28 10.69l-1.41-.15c1.01-4.81 2.02-9.62 3.04-14.44l.93.18c-.85 4.81-1.7 9.61-2.56 14.41zm3.84-33.82c-1.08 4.17-.82 8.73-3.55 12.42 0 .01 0 .02-.01.03-.5-.27-.99-.53-1.48-.8-.6 1.28-1.53 2.5-1.75 3.84-1.18 6.95-2.18 13.92-3.24 20.89l-.1-.1c.85 1.45 1.7 2.89 2.54 4.32-1.98 2.41-1.98 2.41-4.69 2.7v5.95c1.22.46 2.46.93 3.82 1.44-.74 2.84-1.44 5.55-2.19 8.42-6.55-.38-12.05-3.74-18.72-6.22 5.27-.07 9.64-.13 14.01-.19l.15-1.05c-.77-.32-1.52-.7-2.32-.94-1.8-.54-3.83-.21-4.89-2.65-.56-1.28-5.97-.39-7.79.81-1.64 1.08-3.39 1.99-5.1 2.98-3.84-1.62-7.68-3.31-11.57-4.87-1.56-.63-3.24-.97-5.29-1.57 1.76-2.19 3.86-1.15 6.02-2-15.25-.44-28.7-6.2-42.63-9.94-1.67-.45-3.37-.75-5.06-1.11.03.04.05.08.08.12-1.22-.54-2.39-1.21-3.66-1.57-9.37-2.62-18.79-5.11-28.14-7.79-3.45-.99-6.84-2.16-10.24-3.32l-10.34-2.27c-6.59-.41-13.01-1.86-19.39-3.73.64-.06 1.29-.09 1.92-.1l-42.47-9.33c-.36.14-.59.45-.6 1.09 3.4 1.73 6.64 3.45 9.95 5 .81.38 1.86.31 2.8.33 9.96.27 19.47 3.03 29.86 5.14-1.34 1.12-2.11 2.31-2.91 2.33-3.09.08-6.03 1.28-9.3.28-6.27-1.93-12.68-3.4-19.09-4.87-5.06-1.16-10.18-2.01-15.27-3.01-.42-.08-.81-.3-1.17-.94h9.17c-5.91-1.39-12.5-.49-16.51-6.3 1.74-.81 3.72-1.73 5.72-2.65.01-.07.01-.14.02-.21l-1.85-2.2c-1.34 1.06-2.79 1.86-4.96 1.24.39.49.79.99 1.4 1.76-1.41.58-2.75 1.14-4.85 2.01 1.62 1.27 2.74 2.15 3.88 3.05-3.63 2.3-6.72.91-10.19-1.5 1.29-.63 2.26-1.11 4.09-2-2.04-.71-3.25-1.12-4.92-1.71 1.21-12.89 2.5-25.83 5.53-38.8 2.14.56 4.35 1.15 6.56 1.73.07-.17.15-.35.22-.52-1.76-.97-3.52-1.95-5.02-2.78.81-2.37 1.65-4.42 2.14-6.55.1-.42-1.11-1.14-2.13-1.63.37 1.72 2.67 3.71-.76 4.5-1.53-8.16.06-10.4 11.79-15.96-.39 3.39-.7 6.4-1.08 9.41-.62 4.85-1.28 9.7-1.94 14.54-.11.77-.23 1.55-.49 2.28-.57 1.62-1.6 3.18-1.73 4.82-.04.49.12.99.34 1.5.88-1.78 1.79-3.71 2.72-5.78.17-1.76.33-3.53.54-5.29.42-3.59 1.35-7.13 1.7-10.73.42-4.4 1.6-8.48 3.95-12.22.96.16 1.94.32 3.26.53.07-.28.13-.57.19-.86-.57-1.11-1.02-1.99-1.54-3.02.58-.39 1.18-.81 2.16-1.48-1.17-.48-2.12-.86-3.27-1.33.34-1.19.35-2.69 1.1-3.48.68-.7 2.18-.61 3.32-.87-.76-1.25-1.51-2.49-2.67-4.41 1.2.11 2.27.21 3.3.3.06-.52.11-1.04.16-1.57-.37-.28-.66-.66-.83-1.24-.2-.7-1.01-1.22-1.54-1.83.45-.38 1.1-1.18 1.31-1.08.47.23.9.54 1.32.89.06-.96.12-1.93.15-2.9h-2.49c-.14-2.72-.28-5.28-.44-8.26.83.2 1.45.35 1.93.56-.11-.82-.22-1.66-.33-2.51-.91-.08-1.78-.16-2.55-.23-1.68-3.86-3.27-7.49-5.22-11.94.19-.24.76-.96.89-1.12 3.61.23 6.69.42 10.27.64-.11.7-.22 1.42-.33 2.13l1.44.37c.14-.82.28-1.66.42-2.56 2.16.42 3.99.77 6.45 1.24-.34 1-.67 1.93-.98 2.85l1.44.37c.25-.54.56-1.01.96-1.36 1.6-1.38.73-3.6 2.44-4.56 6.97 1.33 13.89 2.72 21.24 5.59-3.57 1.74-6.3.51-8.72-.35-2.06-.73-3.9-.87-6.72-.37 3.52.57 2.7 2.24 1.96 3.94l1.53.4c.25-.81.55-1.66.81-2.59l9.98 1.74c-.38 1.17-.72 2.27-1.08 3.37l1.7.44c.33-1.15.66-2.32 1.02-3.57 13.7 3.23 27.1 6.4 41.17 9.72-.72 1.63 1.12 1.89 1.9.57 4.26 1.1 8.15 2.1 11.96 3.09.14 2.25 1.52 2.17 2.24.54 3.25.79 6.37 1.55 10.18 2.48-1.09 1.74.76 1.7 1.5.22 1.84.57 3.28 1.01 5.3 1.64-.97 1.6.62 1.95 1.13.51 3.19-.02 5.94 1.1 8.86 2.36 2.71 1.17 6 .99 9.64 1.48-.86 1.76.12 2.19 1.88 1.17.73.16 2.02.44 3.82.84-.62 1.6.93 2.25 1.73.73 1.67.34 3.68.74 5.83 1.17-.79 1.59 4.04 2.94 4.77 1.51 1.93.46 3.54.85 5.42 1.3-.71 1.47 2.3-.73 9.09.11-.64 2.24 1.85 1.74 3.16.67 2.54.42 5.52.91 8.81 1.45-.18 1.43-.13 2.54-.47 3.51-.49 1.37-.99 2.73-1.48 4.09l1.4.36c.97-2.43 1.98-4.89 3-7.49 7.91 1.9 15.7 3.78 23.49 5.66l-.21 1.24c-4.38-1.15-9.06.97-13.81-2.1-.55 1.57-1.12 3.11-1.62 4.67-.09.28-.19.56-.28.83l1.75.47c1.14-2.65 2.54-2.93 7.38-2.92-.44 1.61-.84 3.04-1.26 4.56l1.62.44c.16-.7.34-1.39.59-2.06 1.1-2.95 2.09-3.5 5.38-3.19.78.07 1.57.16 2.36.21.6.03 1.21.01 2.01.01.12 4.24-3.53 4.3-6.64 6.03 1.59.57 2.57.92 3.71 1.33.48 3.68-2.37 7.42-.54 12.12 1.02-4.6.7-8.77 4.1-12.31.46 1.07.77 1.79 1.2 2.78.81-.51 1.71-1.08 3.01-1.91 0 2.68.31 4.89-.12 6.94-.25 1.2-1.52 2.34-2.59 3.19-2.81 2.23-5.83 4.22-8.65 6.44-4.24 3.34-5.99 10.02-4.41 15.39 1.38 4.7 4.04 8.59 7.32 12.05 1.85 1.98 2.44 4.04 1.8 6.5zm27.05-5.85l-.71-.06c.12-1.64.25-3.28.44-5.87-.83 1.21-1.37 1.64-1.39 2.1-.19 4.71-.48 9.42-.38 14.13.14 6.6-2.02 12.61-3.78 18.75-.3-.05-.61-.09-.91-.14.27-2.16.54-4.32.82-6.53-4.76 1.61-5.51 3.99-2.72 8.21-2.23 4.89-2.23 4.89-.54 8.03-5.03-1.23-9.64-2.36-14.56-3.57 1.78-8.34 3.41-16.02 5.06-23.7.1-.46.22-.93.4-1.36 1.83-4.45.22-7.52-3.22-10.69-5.01-4.63-7.55-10.89-5.93-17.61 1.3-5.37 4.47-10.15 10.39-11.89 2.31-.68 3.22-1.99 3.58-4.3.89-5.73 2.03-11.42 3.73-17.09.13 1.46.26 2.92.39 4.42 1.75-3.05 1.68-3.05 1.88-9.44.14-4.57.4-9.14.82-13.69.4-4.42 1.66-8.62 4.06-12.93 2.7.78 5.35 1.54 8.61 2.48-1.36 5.09-2.64 9.9-3.93 14.71h-.02c1.93.38 1.97-1.27 2.27-2.33.92-3.18 1.59-6.44 2.52-9.62.3-1.04.44-2.72 2.8-1.9-.93 1.81-2.05 3.8.45 5.3.23.14-.03 1.18-.16 1.79-.68 3.36-1.39 6.71-1.66 10.19 2.69-5.11 2.72-10.99 4.5-17.13.73 1.28 1.52 2.02 1.46 2.69-.67 7.55-2.51 14.79-6.13 21.58.1-1.43.21-2.87.31-4.3-1.5 4.04-3.43 7.5-6.21 10.81-4.37 5.2-4.68 11.57-2.74 17.91.79 2.57.63 4.78-.25 7.27-1.24 3.5-2.01 7.17-2.35 10.96 1.29-3.88 2.58-7.76 4.14-12.48 1.89 2.42 3.29 4.21 4.26 5.45-1.88 7.01-3.59 13.43-5.3 19.85zm43.77-96.68c-.6 6.5-1.97 12.49-6.88 17.52-7.03 7.21-6.81 16.21-3.49 24.81 2.1 5.42.62 9.75-1.18 14.47-1 2.63-1.86 5.32-2.61 8.03-.22.81.18 1.79.26 2.7.14 1.53.5 3.1.35 4.6-1.4 13.67-3.91 27.15-7.36 40.46-.55 2.13-1.3 4.22-2.08 6.73L362.04 315c1.23-5.87 2.33-11.24 3.48-16.6 1.42-6.63 2.93-13.25 4.24-19.9.21-1.05-.2-2.43-.77-3.38-1.13-1.87-2.63-3.5-3.89-5.3-5.03-7.23-3.35-17.9 3.81-22.79 1.71-1.17 4.07-1.4 6.59-2.21 2.07-11.86 5.75-23.72 7.1-36.16-2.42-1-4.22-2.03-6.16-2.49-10.44-2.46-20.91-4.75-31.36-7.15-22.15-5.09-44.3-10.21-66.44-15.34-17.53-4.06-35.06-8.12-52.57-12.27-5.15-1.22-10.24-2.72-15.35-4.09.04-.33.09-.66.13-.99 5.51.4 11.03.79 16.54 1.19.01-.3.01-.61.02-.91-.86-.28-1.71-.72-2.58-.8-4.71-.39-9.43-.71-14.15-.99-1.1-.06-2.31-.14-3.29.24-4.73 1.8-8.93-.03-14.06-1.94h4.96c-2.61-1.14-5.1-3.08-7.98-.96-.35.25-.92.4-1.34.32-7.71-1.47-15.52-2.53-23.28-5.24 1.45-6.62 2.83-12.97 4.32-19.79 3.23 4.75 7.49 4 11.42 4.38 1.38.6 2.7 1.44 4.14 1.75 2.59.57 5.26.71 7.86 1.24 12.18 2.5 24.38 4.96 36.52 7.67 6.44 1.43 12.76 3.41 19.16 5.02 11.45 2.88 22.93 5.66 34.39 8.52 1.47.37 2.89.97 4.21 2.01-1.26-.09-2.52-.17-3.77-.26-.08.23-.16.47-.24.7.54.25 1.07.67 1.63.72 17.81 1.59 35.16 5.47 52.31 10.38 9.53 2.73 19.1 5.32 28.62 8.07 5.7 1.65 11.35 3.51 17.09 5.29-.55.65-1.3 1.54-2.06 2.43.13.18.27.36.4.54.86-.48 1.67-1.16 2.59-1.41 1.77-.47 3.77-1.32 5.37-.9 3.76 1 7.37 1.77 11.6-.55-.32 2.49-.59 4.11-.74 5.74z" class="st0"/>
</svg>
