<svg xmlns="http://www.w3.org/2000/svg" id="Layer_1" x="0" y="0" aria-hidden="true" version="1.1" viewBox="0 0 500 500" xml:space="preserve" fill="currentColor">
  <style>
    .st0{fill:#ef4723}
  </style>
  <path d="M248.42 138.6c0 2.26-.11 4.17.03 6.06.14 1.89.36 3.81.88 5.63.82 2.88.28 3.86-2.76 3.79-3.71-.08-7.42-.42-11.14-.51-17.5-.45-35-.88-52.51-1.27-8.53-.19-17.07-.27-25.6-.41-.96-.02-1.94-.02-2.89-.14-3.54-.46-4.85-1.87-4.92-5.37-.04-2.34.11-4.69.1-7.03-.01-1.56.82-2.28 2.24-2.42 1.09-.1 2.2-.13 3.3-.09 5.08.19 10.16.53 15.25.6 12.26.18 24.53.19 36.79.37 8.9.13 17.79.49 26.69.62 2.15.03 4.31-.63 6.46-.61 2.44.03 4.87.45 8.08.78zm-92.27 8.27h7.55c7.03.01 14.06-.07 21.08.06 7.7.14 15.4.51 23.1.71 9.76.25 19.52.45 29.28.59 1.62.02 3.28-.23 4.87-.6 1.68-.39 1.56-1.6.83-3.12-2.9-.38-5.89-.99-8.89-1.11-7.99-.32-15.99-.5-23.98-.61-10.17-.14-20.35-.17-30.53-.22-7.03-.04-14.05-.04-21.08-.04-.52 0-1.03.22-1.72.38-.14 1.16-.28 2.21-.51 3.96zm.11 54.69c-.33-5.37-1.16-10.42 1.3-15.48 21.24.57 42.35 1.14 64.04 1.73-.5-7.38 8.31-.71 11.24 2.11 0 .84.01 1.91 0 2.98-.03 2.31-.17 4.62-.09 6.92.1 2.9-.62 4.18-3.58 4.41-2.98.23-6.01-.09-9.02-.18-10.47-.34-20.94-.71-31.41-1.04-9.63-.3-19.26-.54-28.89-.86-1.18-.03-2.35-.37-3.59-.59zm3.82-5.05c5.03 0 9.67-.08 14.31.02 7.56.16 15.12.43 22.67.67 4.65.15 9.31.36 13.96.5 4.76.14 9.52.24 14.28.32.65.01 1.3-.19 2.19-.34-.3-1.33-.55-2.45-.9-4-21.74-1.09-43.41-1.48-65.18-1.32-.46 1.45-.86 2.71-1.33 4.15zm-7.15 104.56c-.31-4.16-.69-8.05-.85-11.94-.13-3.32.51-4.21 3.93-4.42 3.97-.23 7.97.04 11.95.15 1.64.05 3.28.34 4.92.35 17.99.03 35.98.02 54.04.02 1.53 3.52.94 6.87.2 9.91-.57 2.35-.93 4.16 1.24 5.57-1.2 2.46-3.23 2.11-4.87 2.07-10.73-.23-21.45-.65-32.18-.91-7.97-.19-15.95-.19-23.93-.34-4.78-.09-9.56-.3-14.45-.46zM158 296h4.55c6.85 0 13.71-.21 20.56.05 8.66.33 17.3 1.04 25.94 1.61 3.79.25 7.59.91 11.69-.17.3-2.12.59-4.2.94-6.68-21.52-1.14-42.49-1.8-63.69-1.03.01 2.13.01 3.87.01 6.22zm214.25-63.91c-3.7-16.67-12.29-30.3-25.61-40.85-4.73-3.74-9.97-6.84-15.04-10.14-6.12-3.98-12.76-6.39-20.18-6.3-5.21.06-10.42-.06-15.62.03-7.87.13-15.24 2.23-22.08 6.07-4.57 2.56-9.15 5.14-13.43 8.15-4.09 2.88-8.81 4.97-12.17 9.25-1.17-1.35-2.27-2.55-3.28-3.82-1.11-1.39-2.37-2.28-4.74-1.56 0 .9-.07 1.93.02 2.94.09 1.08.61 2.17.48 3.2-.86 6.68-1.88 13.34-2.76 20.01-.3 2.32-.51 4.67-.48 7.01.03 2.93 2 4.27 4.66 3.37 8.34-2.8 16.7-5.57 25.01-8.46 1.29-.45 2.39-1.44 3.68-2.25-2.54-3-4.73-5.57-7.11-8.38 3.44-1.64 5.26 1.39 7.99 1.43-1.05-3.21 2.18-2.37 3.41-3.53 2.83-2.69 6.57-3.61 10.06-4.83.57 2.11 1.47 3.91 1.47 5.71-.01 8.41-.21 16.83-.46 25.24-.22 7.52-1.68 15.03.89 22.52.76 2.22 1.58 3.52 3.75 4.31 7.9 2.87 15.77 5.8 23.59 8.88 2.12.84 4.13 2.13 5.97 3.5 1.97 1.47 3.82 2.11 5.45.59 1.96-1.84 3.86-4 5.02-6.39 1.67-3.42.3-8.43-2.36-9.62-5.26-2.35-10.53-4.74-15.98-6.58-7.21-2.44-10-7.12-8.01-14.59h.01c-1.79-1.62-2.09-3.73-2.12-5.99-.03-3.3.14-6.64-.31-9.88-.78-5.76-.07-11.75-2.57-17.25-.18-.23-.36-.46-.55-.7-3.7-2.49-7.45-2.24-11.27.25-.09-1.33-.15-2.22-.22-3.3 3.59-.67 6.95-1.32 10.32-1.91 1.51-.27 2.98-.47 3.88 1.35.22.44 1.2.79 1.77.71 3.71-.49 3.77-.6 5.12.82 1.89 1.98 3.66 4.07 5.7 6.35-.4 4.15-.87 8.88-1.33 13.62.24.02.48.05.72.07.86-5.35 1.73-10.69 2.71-16.81 1.81 2.04 3.12 3.52 4.55 5.12.52-1.56.89-2.66 1.31-3.92 1.45 1.27 2.6 2.28 3.66 3.21 1.11-3.46-1.45-4.79-3.27-6.58-.58-.57-1.02-1.28-2.07-2.64 6.51 3 11.42 6.51 15.48 11.05 2.64 2.96 5.9 5.96 7.07 9.54 3.28 10.04 6.61 20.18 6.54 30.97-.01 1.88.41 3.82.06 5.63-1.58 8.12-6.44 14.68-10.58 21.57a2.9 2.9 0 01-.54.62c-3.01 2.81-6.01 5.62-9.04 8.41-.17.16-.51.13-.84.2-.41-.44-.84-.92-1.26-1.38-4.52 2.33-8.83 3.37-15.07 3.64-.17-.84-.47-1.4-.85-1.78-3.42 1.4-6.71 2.29-9.87 2.73-.26.38-.53.77-.81 1.2l-1.02-.99c-2.07.18-4.09.17-6.04-.02 1.42.56 2.87 1.16 4.43 1.72-5.24 1.13-9.49-.16-12.3-3.45-11.76-4.13-20.98-14.43-27.7-24.93-.07.06-.15.11-.22.18-2.84-3.4-6.31-6.47-6.16-11.44.05.08.1.15.15.23-.1-.21-.2-.41-.3-.61 0 .02.01.03.01.05-1.59-.84-3.5-1.15-4.1-3.37-1.02-3.79-4.14-4.94-7.58-5.26-4.64-.42-9.47 4.54-8.6 8.92 1.06 5.39 2.35 10.74 3.68 16.07.63 2.52 1.58 4.95 2.4 7.42.55 1.67.84 3.5 1.73 4.96 3.61 5.91 8.29 10.97 13.54 15.44 6.09 5.18 12.64 9.77 19.89 13.22 9.18 4.37 18.91 6.67 29.04 7.39 1.9.13 3.82.93 5.65.73 4.35-.48 8.72-1.11 12.97-2.17 11.68-2.91 22.19-8.27 31.05-16.43 9.09-8.38 15.46-18.8 19.3-30.43 3.98-12.06 4.49-24.54 1.71-37.06zm-80.3-11.76c.45-4.07.76-8.16 1.2-13.03 2.07 2.25 2.82 4.22 3.02 6.36.44 4.66.82 9.32 1.11 13.99.35 5.5.57 11.01.89 16.51.08 1.34.13 2.75.58 3.98.9 2.47 2.38 4.19 5.16 5.23 6.17 2.3 12.59 4.13 18.18 7.84 3.21 2.13 3.51 3.18 1.58 7.01-1.33-1.7-1.35-1.59-3.38-1.98-2.02-.39-4.01-.95-5.96-1.61-5.87-1.98-11.73-4.01-17.57-6.08-4.18-1.48-5.91-4.81-6.03-8.93-.27-9.78.15-19.55 1.22-29.29zm-21.27-12.11c.47-1.65-.76-4.29 2.79-4.51-1.04 1.68-1.92 3.1-2.79 4.51zm11.39-4.38c-.88-1.14-1.33-1.73-2.12-2.74-.55.23-1.66.71-3.48 1.48 3.45-3.55 9.98-5.91 15.18-5.56-3.26 1.77-7.71 1.38-9.58 6.82zm18.22-7.69c3.83-2.33 9.44-1.26 12.63 2.52-.82-.35-1.64-.7-2.73-1.16.33.9.53 1.46.91 2.5-3.75-1.35-7.11-2.55-10.81-3.86zm11.05 6.43c2.03-.08 2.03-.08 2.89 2.11-.93-.68-1.86-1.36-2.89-2.11zm-7.45 92.48h-5.39c2.76-1.26 2.77-1.2 5.39 0zm-28.63-7.99c.36.04.78-.04 1.07.13.87.49 1.68 1.07 2.19 2.19l-3.45-1.83c.06-.16.13-.32.19-.49zm-6.22-8.42c.58.69 1.16 1.39 1.74 2.08-.22.2-.44.4-.66.61-.64-.66-1.29-1.32-1.93-1.98.29-.24.57-.47.85-.71zm82.89 8.32c-4.13-2.1-5.25 1.55-7.22 3.69.4.2.76.37 1.11.54-.09.24-.11.56-.28.7-2.23 1.79-4.71 3.28-5.09 6.63-.12 1.02-1.25 2.16-2.21 2.83-8.95 6.2-18.83 9.61-29.79 9.66-.35 0-.7-.2-1.24-.36 1.29-.78 2.41-1.45 3.51-2.14.09-.05.09-.25.32-1.01-1.61.38-2.93.71-4.26 1.02-1.55.36-3.07.76-2.53 3.04-2.22.12-4.13.22-5.89.31-1.21-1.81-2.3-3.45-3.39-5.07-2.36 1.45.64 2.03.11 3.08-3.42 1.3-6.72.65-10-.6-9.57-3.64-18.61-8.24-26.73-14.53-1.8-1.4-3.96-2.54-4.2-5.21-4.88-3.84-8.09-8.98-11.01-14.33-.96-1.76-1.58-3.71-2.42-5.76h1.68c-.97-3.1-1.94-6.19-2.99-9.56-.21 1.07-.4 2.02-.79 3.96-.82-3.57-1.64-6.18-1.99-8.85-.43-3.25.71-4.87 3.52-5.88 2.19 1.44 2.5 3.79 3 6.08 1.91 8.59 5.68 16.45 10.66 23.56 5.58 7.97 13.51 13.17 22.6 16.59 1.54.58 3.03 1.34 4.44 2.18 10.92 6.49 22.51 7.39 34.61 4.27 7.11-1.83 13.14-5.49 18.49-10.44 2.83-2.61 5.78-5.12 8.84-7.45 6.96-5.3 10.39-12.64 12.26-20.87.73-3.21 1.16-6.5 1.62-9.77.93-6.55.11-12.94-2.18-19.12-2.09-5.66-4.34-11.26-6.47-16.9-.63-1.66-.94-3.45-1.63-5.08-2.03-4.78-5.75-8.12-10.15-10.52-7.01-3.82-14.17-7.35-21.38-10.78-2.06-.98-4.48-1.49-6.78-1.66-9.95-.73-19.84-.64-29.29 3.3-3.87 1.62-7.12 4.1-10.17 6.94-2.31 2.15-4.81 4.12-7.37 5.96-.87.62-2.18.62-3.73 1.02.78 4.18 4.8 6.54 6.24 10.62-7.07 2.43-13.94 4.78-21.53 7.38.9-8.04 1.76-15.6 2.67-23.73 1.25.87 1.99 1.39 2.73 1.91 3.01 2.11 4.68 2.04 7.14-.87 7.22-8.53 16.56-14.04 26.49-18.63 2.69-1.24 5.78-1.82 8.75-2.24 9.44-1.35 18.89-1.34 28.25.7 3.68.8 7.08 1.95 10.22 4.59 4.28 3.59 9.51 6.02 14.11 9.26 8.21 5.78 14.1 13.47 17.62 22.89.69 1.86.77 3.95 1.13 5.93-.27.08-.54.16-.8.24-1.02-2.47-2.04-4.93-3.05-7.4-.25.09-.51.19-.76.28.38 1.27.78 2.53 1.12 3.8.82 3.04 1.63 6.08 2.41 9.13.14.53-.04 1.36.26 1.59 2.47 1.79 1.91 4.41 1.99 6.83.19 5.35.77 10.69-.64 16.02-.47 1.77.18 3.84.34 6.1.37-.78.91-1.42.96-2.1.45-6.4 1.56-12.78.62-19.22-.13-.93-.2-1.96.06-2.84.62-2.08.55-3.92-.53-5.92-.66-1.22-.52-2.88-.33-4.32 6.42 21.91 5.03 42.43-11.06 60.53z" class="st0"/>
  <path d="M332.84 337.27c-.09-.82-.05-1.65-.08-2.48-.21-4.68-.38-9.36-.68-14.03-.06-.91-.45-1.88-.94-2.65-1.28-2-3.41-2.03-4.63-.05-.64 1.03-.92 2.28-1.36 3.42-3.72-.12-4.07.21-4.45 3.99 1.42-.09 2.9-.19 4.34-.28.65 4.32-.25 6.21-3.61 8.08-2.53 1.41-2.52 1.41-1.11 3.85.31.54.53 1.14 1 2.19-1.07-.08-1.89.09-2.19-.22-.52-.55-.36-1.36-1.77-.92-1.73.53-3.75.33-5.62.15-1.2-.11-2.13-.2-2.76 1.02-.17.32-.49.56-.74.84-1.86-1.72-3.26.47-4.9.56-1.84.1-3.68.02-5.53.02l-.24-1.02c2.62-1.58 5.25-3.15 7.94-4.77-.69-.47-1.67-1.67-2.58-1.63-1.56.08-3.77.5-4.44 1.58-.87 1.38-2.03 1.61-3.13 2.28-.67.41-1.2 1.03-1.8 1.55.63-.12 1.26-.25 2.24-.44-.75 1.78-1.75 2.49-3.26 2.14-.26-.06-.33-.97-.48-1.49-.87.24-1.74.63-2.62.68-.63.04-1.28-.39-1.92-.6-3.56 1.02-7.01 1.33-10.7.07-1.9-.65-4.27.07-6.42.12-1.57.04-3.14.01-4.74-.38 2.28-2.42 5.13-2.72 7.78-1.66 2.35.95 3.72.68 4.76-1.54-2.37-.41-4.72-1.03-7.1-1.17-2.5-.14-5.03.16-7.54.28v1.54c-1.32.46-2.6.91-4.35 1.51 1.27.36 1.96.55 2.64.74-10.22.43-20.36.45-30.5.41-1.21 0-2.43-.51-3.64-.48-2.84.09-5.67.36-8.5.56 1.28.28 2.55.65 3.84.83 1.33.18 2.68.18 4.01.96h-15.97c-1.49 0-2.98.01-4.47.05-3.98.11-7.93-.18-11.97.1-10.55.73-21.18.36-31.77.46-2.89.03-5.78.18-8.67.26-4.92.13-9.7-.59-14.34-2.11 0-.29-.01-.57-.01-.86 2.6-.28 5.2-.63 7.81-.81 5.7-.41 11.41-.87 17.13-1.06 5.64-.18 11.3-.14 16.94-.02 5.06.11 10.12.47 15.18.74 1.37.07 3.04-.2 4.02.48 2.31 1.6 4.49.3 6.71.25.49-.01 1-.62 1.44-1.03 3.6-3.31 7.91-2.91 12.24-2.32.07.01.07.65.1.99.81-.13 1.68-.12 2.43-.43 3.3-1.36 6.58-2.04 9.94-.19.24.13.74-.05 1.04-.21 3.09-1.67 6.38-.77 9.59-.81.63-.01 1.25-.05 1.88-.08-.01-.21-.02-.42-.02-.62-2.08-.14-4.16-.29-6.23-.43 1.79-1.15 3.59-2.23 5.41-3.25l-14.09-.44c1.28.21 2.29.38 4.06.67-5.34 2.44-10.03 3.75-15.24 2.29 3.77-1.49 7.61-2.76 11.27-4.53l.24-4.46c-.27.03-.55.06-.82.1 0-.69-.01-1.38.03-2.07 0-.03.64-.06.65-.04.08.45.13.9.18 1.36l.17-3.09c-2.6-.06-3.26.53-4.28 3.37-.64 1.78-1.08 3.64-1.6 5.43-3.76 1.05-7.89 1.06-11.79-.02 1.97-1.04 3.8-2 5.62-2.97-.07-.19-.14-.37-.2-.56-1.13.19-2.27.38-3.39.57-.23-.72-.43-1.34-.44-1.37h-15.2c2.61 1.49 5.57-.06 8.67 1.66-1.92.97-3.31 1.67-5.42 2.73 4.15.42 6.35-3.22 10.1-2.49-2.38 3.16-5.44 3.67-8.62 4.04-3.63.43-7.25 1-10.87 1.52 3.34-.12 6.68-.24 10.74-.38-4.48 3.17-8.93 1.55-13.65 2.02 1.34-.78 2.19-1.27 3.05-1.77l-21.69 1.44c2.03-1.24 3.65-2.59 5.5-3.29 4.21-1.6 7.93-4.76 13.14-3.27 1.96.56 4.45-.71 6.62-1.14-2.85-.65-5.62-1.28-8.39-1.91-.07-.5-.13-.98-.22-1.72-1.92.96-3.49 1.78-5.09 2.54-1.19.56-2.43 1.03-3.66 1.5-.1.04-.32-.21-.62-.43.97-.68 1.86-1.3 2.75-1.92-2.62.64-4.9.69-7.13-.87-.57-.4-1.55-.22-3.12-.39 1.71 1.78 4.04 1.42 4.19 3.29-4 .74-7.85 1.55-11.74 2.13-1.14.17-2.38-.32-3.58-.51 0 .01.01.02.01.04-.92-.64-1.52-.35-2.42.36-2.19 1.71-4.76 1.93-7.87 1.18 3.5-1.32 5.34-6.13 3.9-8.29-1.34 1.7-2.58 3.65-4.19 5.23-2.29 2.26-3.98 4.79-5.21 7.75-1.65 3.96-2.64 4.35-7.56 3.53-.04-.87-.41-1.93-.09-2.7 2.73-6.41 5.6-12.77 8.4-19.15.08-.19-.05-.47-.09-.77-.5.15-.99.3-1.7.51.24-1.07.47-2.03.9-3.94-1.09 1.54-1.61 2.26-2.44 3.43-.9-6.07-.56-11.22 2.57-15.98-.77.95-1.55 1.9-2.75 3.39-.02-5.59-1.16-10.59 1.86-15.27.85-1.31 1.03-3.06 1.51-4.6-.94 1.24-1.88 2.47-2.83 3.72-1.65-5.15-1.41-7.86.94-12.13.51-.92.7-2.02 1.04-3.03-.77 1.06-1.54 2.13-2.31 3.19-.34-.25-.68-.49-1.02-.74-.07-4.64 4-8.01 4.14-12.62-1.23 2.14-2.46 4.29-3.91 6.82-1.01-4.11-1.49-7.6-.04-11.09.17-.4.05-1.35-.04-1.37-2.23-.36-.96-1.92-.92-2.89.14-4.31 2.84-7.63 4.55-11.33-.62.21-1.24.42-2.11.71.11-4.21 1.22-7.96 3.01-11.43l.37-4.42c-.05.08-.09.16-.14.24-1.06 1.71-2.1 3.44-3.14 5.16-.34-.12-.68-.24-1.01-.37.21-.9.32-1.83.64-2.68.57-1.52 1.27-2.99 1.91-4.48-.7.55-1.4 1.11-2.31 1.82V211.2c2.28 1.5 3.8.86 5.23-.16l.28-3.32c-1.67.77-3.49.94-5.55.26 0-2.83-.08-5.63.02-8.43.15-4.35.32-8.71.68-13.05.26-3.21-.64-6.68 1.8-9.05-2.48-4.04-.55-7.15 1.64-10.52-1.05.3-1.68.48-1.86.54-2.07-8.41 1.86-16.14 2.07-24.3-3.04 6.53-2.73 13.97-5.92 20.49v-2.32c-.82 2.2-1.64 4.41-2.46 6.61h-.36c.34-2.12.64-4.25 1.05-6.36.3-1.59.74-3.15 1.12-4.72.17 1.54.34 3.08.52 4.61.83-4.58 1.64-9.14 2.5-13.91-2.73.14-3.5-1.11-3.35-3.31.37-5.69.93-11.3 4.43-16.14.35-.48.34-1.22.52-1.95h6.68c-3.18 2.11-5.66 3.75-8.14 5.4.17.27.34.54.51.8 2.42-1.43 5.05-2.6 7.22-4.34 4.97-3.96 10.46-2.49 15.97-1.9l-4.2 2.74c3.21-.65 5.43-1.09 7.65-1.56.8-.17 2.15-.25 2.26-.66.6-2.09 2.19-1.52 3.54-1.56 2.03-.05 4.07-.01 6.13-.01.26.5.56 1.05.93 1.76l6.22-2.86c-.08-.2-.17-.39-.25-.59h-13.34c.19-.61.34-1.11.49-1.6-4 2.29-8.4 1.89-12.74 1.94-1.46.02-2.92.31-4.48.17 2.95-2.38 5.78-4.73 9.92-4.67 3.4.05 6.8-.32 10.42-.52-.08.71-.13 1.21-.19 1.72 3.46-1.64 7.09-1.87 10.86-1.62 4.53.3 9.08.34 13.63.5 3.26.12 6.53.25 9.79.37-.01.22-.01.44-.02.65H203.8v.43l39.1 2.52c-2.15 2.82-5.71 3.81-6.19 8.02 3.63-1.37 7.16-2.04 9.75-4.86-.52-.42-.85-.7-1.21-.99 2.75-2.82 5.12-1.12 7.66.12-.3 1.91-.58 3.67-.86 5.43.19.05.37.1.56.14.9-2.42 1.81-4.84 2.78-7.45-5.9-1.82-12.34-1.16-18.63-1.81-6.41-.66-12.87-.89-19.3-1.31 1.88-.54 3.71-.43 5.55-.35 5.22.23 10.44.72 15.65.61 6.35-.13 12.74 1.45 19.65-.72 0 2.99-.03 5.7.02 8.4.02.9.04 2.45.45 2.59 1.87.65 1.39 2.16 1.49 3.37.28 3.34.4 6.68.58 10.03.11 0 .22.01.33.01.2-1.32.41-2.63.75-4.84.28 1.47.41 2 .49 2.54 1.22 9.04 8.38 13.22 15.96 12.76 7.64-.47 15.31-.42 22.97-.48 6.15-.05 12.32-.5 18.56.77.3 1.71.42 3.37.92 4.91.7 2.2-.01 3.95-1.22 5.67.6.38 1.53.69 1.61 1.17.39 2.12.5 4.29.76 6.83 2.36.29 4.67.57 6.81.83 0-4.95.03-9.33-.01-13.7-.04-3.86-.1-7.72-.26-11.58-.15-3.52-.7-4.1-3.97-5.25-.89-.31-1.73-.83-2.51-1.37-6.87-4.81-13.71-9.67-20.58-14.49-7.77-5.45-15.53-10.9-23.35-16.26-.98-.67-2.28-1.15-3.46-1.22-4.09-.25-8.2-.36-12.31-.37-19.19-.03-38.39-.02-57.58-.01-.69 0-1.38-.02-2.07.05-5.04.5-10.04.48-15-.79-.63-.16-1.35.02-2.02.09-2.04.21-4.09.61-6.13.62-8.14.07-16.29.12-24.43-.03-4.53-.08-9.05-.62-13.58-.83-3.72-.17-7.1.73-9.56 3.81-3.59 4.48-7.27 8.92-5.55 15.32.03.12-.03.27-.03.41.08 21.76.13 43.53.26 65.29.04 6.6.35 13.19.45 19.79.2 13.32.32 26.65.52 39.97.16 10.89.41 21.78.54 32.68.09 7.45-.02 14.91.08 22.36.1 7.39.36 14.79.52 22.18.02 1.09.03 2.24-.26 3.28-1.88 6.79 4.23 13.42 11.71 13.66 10.34.34 20.69.03 31.04-.01 16.68-.06 33.37-.09 50.05-.2 23.71-.15 47.43-.52 71.14-.48 10.58.02 21.18-.98 31.74.44.4.05.93.1 1.21-.11 2.32-1.68 4.75-3.26 6.84-5.19 1.6-1.44.83-3.57.61-5.46zm-113.38-7.04c-3.65 3.73-7.93 2.86-12.22 1.98 3.88-2.07 8.2-.94 12.22-1.98zm-9.96 4.6c-4.76 3.04-4.76 3.04-10.47 1.4 3.17-1.88 6.43-.92 10.47-1.4zm-13.56 1.13c.01.13.01.26.02.38l-3.76.24-.09-.62h3.83zm-6.44-1.23c0 .32.01.63.01.95h-17.99c6-.18 11.96-2.62 17.98-.95zm-31.39-5.49c1.51-.25 3.36.21 3.53-2.12.41 1.14 1.25 1.38 2.47 1.24 4.64-.53 9.29-.96 13.93-1.42.54-.05 1.08-.05 1.91.51-2.42 1.41-4.82 2.84-7.26 4.22-2.79 1.58-5.71 2.56-9.02 2.54-4.85-.02-9.7.24-14.55.39.85-5.36 5.31-4.74 8.99-5.36zm-9.02 5.41c.58.29 1.16.57 1.74.86-.22.3-.44.6-.66.89-1.26-.2-2.65.76-4.02-.57 1.14-.45 2.05-.81 2.94-1.18zm140.98-206.26c3.93 2.65 7.85 5.3 11.78 7.95-5.02-.93-9.14-3.32-12.4-7.12.21-.27.41-.55.62-.83zm-5.03 3.84c-.31.03-.63.07-.94.1-.07-1.01-.14-2.02-.24-3.41 2 1.05 1.57 2.18 1.18 3.31zm-8.27-9.29c.68.53 1.35 1.07 2.03 1.6-.25.27-.51.54-.76.81-.63-.56-1.25-1.13-1.88-1.69.2-.23.4-.47.61-.72zm-1 3.36c2.69-.23 3.2 1.19 3.33 3.19.2 3.12.54 6.23.82 9.35.18-.05.35-.09.53-.14v-12.52c2.22 1.23 2.26 1.23 2.44 4.87.1 2.12.02 4.25.02 6.37.28.02.55.04.83.05.23-.95.46-1.91.75-3.14 2.2 1.81 1.26 4.54 2.79 7.08V130.8c3.5.9 5.27 3.11 5.43 6.88.24-.79.47-1.58.7-2.34 3.62 1.39 7.3 2.64 10.83 4.21 2.72 1.21 5.26 2.83 7.88 4.26l-.39.78c-2.19-.98-4.39-1.96-6.58-2.93 2 2.58 4.56 4.07 7.86 4.52-2.63 2.72-5.67 3.26-8.99 3.26-2.46 0-4.94.59-7.39.46-5.74-.3-11.54-.52-17.18-1.52-2.47-.44-4.67-2.64-6.87-4.22-.57-.41-1.12-1.66-.89-2.2 1.31-3.24-.82-6.44.33-10.33 1.71 3.8 1.76 7.37 2.75 10.93.34-2.62.81-5.22.97-7.85.16-2.75.03-5.51.03-8.41zm-3.33-1.51c2.53.21 2.55.3 1.67 7.9-.55-2.62-1.1-5.24-1.67-7.9zm2.34-2.57c-.18.27-.37.53-.55.8-.86-.69-1.71-1.37-2.93-2.35 2.27-.66 2.94.34 3.48 1.55zm-11.77-1.48v15.63c-.47-4.91-3.04-9.82 0-15.63zm-29.58-1.32c-5.37-.33-10.73-.67-16.1-1 5.47-1.92 10.74.71 16.1 1zm-93.96 135.69c-.01.02-.56-.23-.55-.26.21-.68.47-1.35.71-2.02.3.15.6.31.9.46-.35.61-.69 1.23-1.06 1.82zm.81 12.85h-.2v-3.88c.06.97.13 2.43.2 3.88zm-.69-10.87c.46 2.63-1.18 4.48-1.95 6.55-.83-2.49-1.23-4.88 1.95-6.55zm-.35 37.18c-.96-3.53-2.25-7.12.22-11.44.79 4.32 1.97 7.84-.22 11.44zm.35 28.92c-.77-6.64-.31-11.6 1.3-14.03 1.41 3.4.81 9.79-1.3 14.03zm-.08-15.52c-1.07-4.07-1.3-7.56 1.22-10.88-.01 3.49 2.09 7.19-1.22 10.88zm2.24-78.33c.77 4.88-1.57 8.37-3.03 12.36-.07.2.12.5.43 1.63 1.05-2.03 1.82-3.51 2.85-5.48.45 6.97-.06 8.58-5.06 16.89-1.29-3.52-1.95-15.35-1.31-23.42 1.71.06 2.19-1.17 2.53-2.54.75-3.06 1.5-6.12 2.26-9.18.38-1.53.79-3.06 1.19-4.58.28.05.56.09.85.14-.32 4.73-1.43 9.6-.71 14.18zm-2.35-39.49c1.23-1.12 2.08-1.9 3.12-2.86.05 3.77.05 3.77-3.12 2.86zm.89-4.74c.72-.42 1.44-.84 2.29-1.33-.91 2.26-.92 2.27-2.29 1.33zm2.23-10.63c1.67 4.09-.95 7.23-2.34 10.64-.37.09-.73.17-1.09.25-1.19-3.51-.02-6.62 1.59-9.65.62-.42 1.23-.83 1.84-1.24zm-1.45-5.93c-.2 2.78-.35 4.97-.5 7.15-.47.14-.95.29-1.56.47-.69-2.75.27-4.97 2.06-7.62zm.6-19.52c-.23 2.58-.46 5.19-.69 7.8-.45-.62-1.24-1.2-1.29-1.85-.17-2.02-.06-4.07-.06-6.12 1.01.08 1.54.13 2.04.17zm15.61-32.33h-15.5c5.13-1.88 10.31-1.33 15.5 0zm-19 2.28c2.56-.26 4.97-.5 7.38-.74 5.99-.29 11.98-.61 17.97-.85.42-.02.87.46 1.55.85h-19.53c.78 1.51 2.01 2.06 3.7 1.91 2.87-.26 5.74-.44 8.62-.59 1.48-.08 2.97-.01 5.39-.01-4.16 2.95-7.28 5.29-12.05 4.85-4.16-.39-8.43.44-13.02.76-.01-2.07-.01-3.89-.01-6.18zm-.14 7.28h4.66c-.19 3.3-1.87 5.11-4.66 6.32v-6.32zm2.19 7.29c.56 2.4-1.17 3.7-1.94 5.35-.78-2.2-.17-3.91 1.94-5.35zm-1.94 5.38c.45.4 1.26.8 1.26 1.21.02 2.04-.17 4.08-.3 6.12-.15 2.31-.26 4.63-.52 6.93-.16 1.39-.57 2.75-.87 4.12-.36-.06-.72-.11-1.07-.17l1.5-18.21zm-1.07 21.47c.26.05.52.09.78.14-.14.87-.28 1.75-.43 2.62-.3-.05-.59-.11-.89-.16.18-.87.36-1.74.54-2.6zm.54 10.16c.06 3.41.3 6.83.12 10.22-.17 3.21 1.14 6.83-2.23 9.39.18-6.57-1.6-13.25 2.11-19.61zm-3.16-24.43v16.68c-1.15-5.59-.98-11.15 0-16.68zm-.43 70.14c-1.2-3.56-1.13-7-1.07-10.4.07-4.09 1.21-8.17 1.88-12.25.3.01.59.01.89.02.25 1.18.49 2.37.73 3.49.34-.34.67-.68 1.09-1.1.18.87.33 1.62.48 2.37.15 0 .3-.01.44-.01v-6.63c2.35-.2 3.69.21 3.62 2.69-.07 2.45-.01 4.9-.61 7.48-.23-.49-.46-.98-1.04-2.23-.23 1.26-.65 2.46-.45 2.57 3.24 1.85 1.77 4.78 1.97 7.11-1.21.83-2.89 1.35-3.07 2.19-1.38 6.46-4.94 12.54-3.68 19.47-1.54-1-1.56-2.65-1.51-4.21.11-3.55 1.38-7.43.33-10.56zm.95 43.82c.3 2.27.87 4.53.84 6.79-.03 2.28-.21 4.48 1.34 7.3.34-2.42.57-4.08.81-5.74 1.11 3.93.71 7.73-1.59 11.28-.68 1.05-1.24 2.27-.23 3.81.45.69-.46 2.27-1.23 3.37-.07-8.98-2.21-17.86.06-26.81zm1.47 29.71c.2.75.52 1.5.56 2.26.33 5.33.68 10.67.84 16.01.05 1.64-.47 3.29-.73 4.93l-.92-.09c-1.59-7.62-2.53-15.25.25-23.11zm1.21 33.23c-.41-2.24-2.57-4.63 0-7.45v7.45zm116.88 18.32c-7.89-.19-15.78-.49-23.66-1.28h26.54l.12.52c-.99.27-2 .78-3 .76zm8.04-.58c-.01-.21-.03-.42-.04-.63h5.18c.01.13.01.27.02.4-1.72.08-3.44.16-5.16.23z" class="st0"/>
  <path d="M267.67 317.93l.69.54c.24-.18.47-.36.72-.55a9.45 9.45 0 00-1.41.01zM209.11 254.77c-.55.14-1.15.25-1.75.35l3.26-.27c-.1-.14-.19-.29-.29-.43-.46.13-.84.25-1.22.35zm19.02-14.41c-.1-2.97-1.97-4.9-4.84-4.97-6.17-.15-12.35-.22-18.51-.46-1.41-.06-2.81-.97-4.21-.97-1.44 0-2.86.84-4.31.96-1.67.14-3.77.63-3.79-2.25-.55.78-.9 1.8-1.41 1.89-1.59.28-3.25.3-4.87.25-7.16-.19-14.31-.51-21.47-.64-3.64-.07-4.49.41-4.91 4.11-.46 4.04-.1 8.18-.1 12.8 18.47 1.51 37.27 1.28 56.96 2.63-.45.27-.86.51-1.25.74l11.33-.94c.06-2.23-.81-4.14 1.13-5.41.39-.26.37-1.28.37-1.95 0-1.93-.06-3.86-.12-5.79zm-8.66 8.61c-4.02-.45-7.8-1.11-11.6-1.26-8.66-.33-17.09-2.34-25.66-3.22-4.09-.42-8.22-.54-12.29-1.1-2.92-.4-3.38-1.13-3.85-4.37 18-.41 35.66.34 53.31 1.34.74.04 1.46.64 2.69 1.22-.88 2.48-1.72 4.87-2.6 7.39z" class="st0"/>
</svg>
