<svg xmlns="http://www.w3.org/2000/svg" id="Layer_1" x="0" y="0" aria-hidden="true" version="1.1" viewBox="0 0 500 500" xml:space="preserve" fill="currentColor">
  <style>
    .st0{fill:#ef4723}
  </style>
  <path d="M126.38 154.24c-.34 5.24-.48 10.5-.55 15.76-.29 20.27-.52 40.54-.77 60.82-.25 20.25-.55 40.51-.74 60.76-.16 16.72-.2 33.44-.25 50.16-.02 5.43 2.8 8.96 7.81 9.88 1.47.27 2.99.3 4.48.3 18.65-.03 37.3-.09 55.95-.14 21.27-.05 42.53-.15 63.8-.05 4.21.02 7.61-1.94 11.16-3.73.62-.31 1.24-1.01 1.51-1.68 1.47-3.69 3.42-7.23 2.83-11.53-.27-1.93.03-3.94-.06-5.91-.42-8.63.96-17.32-.71-25.92-.09-.45.17-.98.3-1.47 1.52-6.13 6.31-9.02 13.27-8.37 5.3.5 8.72 6.44 8.7 10.74-.03 6.43-.17 12.85-.17 19.28 0 6.9.2 13.79.13 20.69-.04 3.27 1.26 6.92-1.83 9.6-.24.21-.23.73-.32 1.12-2.34 9.65-8.97 15.12-17.01 19.12-.84.42-1.96.31-2.94.29-7.73-.2-15.46-.55-23.2-.63-11.37-.11-22.74-.09-34.11-.02-18.25.12-36.5.34-54.75.53-1.25.01-2.5.11-3.74.27-7.56.99-15.14 1.03-22.74.75-4.33-.16-8.33-.96-12.38-3.18-7.49-4.1-14.21-8.71-17.79-16.9.35-3.15.95-6.26.99-9.38.25-18.3.47-36.61.53-54.91.08-25.57.04-51.13.01-76.7-.01-5.33-.23-10.66-.23-15.99 0-5.9.25-11.8.22-17.7-.05-9.05-.07-18.11-.46-27.14-.32-7.48 2.59-13.34 6.94-18.88 3.72-4.74 9.14-6.14 13.97-8.74 2.02-1.09 3.49.92 5.3.93.25 0 .5 0 .75.01 5.74.26 11.47.56 17.21.78 7.86.3 15.72.55 23.59.79 8.74.28 17.48.61 26.23.78 16.88.32 33.75.55 50.63.81 3.87.06 7.75.07 11.62.21 1.86.07 3.71.5 5.57.54 4.23.09 8.48-.1 12.7.13 1.51.08 3.3.64 4.41 1.65 6.85 6.28 10.43 14.06 10.23 23.88-.25 12.38.04 24.77-.01 37.15-.01 2.14.54 4.53-1.32 6.28-.61 5.5-4.61 7.53-8.82 8.24-7.11 1.21-10.33-.57-12.54-6.73-.26-.73-.56-1.44-.9-2.28 2.02-2.19 1.96-4.95 1.96-7.72 0-5.39-.05-10.79.14-16.18.22-6.14.52-12.2-1.76-18.13-.95-2.46-2.24-3.67-4.58-3.81-4.35-.26-8.71-.53-13.07-.66-7.24-.21-14.49-.27-21.74-.45-15.99-.41-31.99-.85-47.98-1.29-9.88-.27-19.75-.5-29.63-.82-4.98-.16-9.96-.55-14.94-.74-2.99-.11-5.98-.02-9.42-.02-.53 1.88-1.36 3.69-1.48 5.55zm30.48 206.19c-.87-.04-1.77.54-2.65.84-2.16-.51-4.3-1.13-6.48-1.43-.53-.07-1.19.93-1.79 1.43-4.16-2.57-8.7-3.63-13.54-3.78l.09 1.5c-2.83-1.79-6.32-3.01-8.31-5.54-2.25-2.86-3.8-6.76-4.47-10.45-.89-4.96-.91-10.15-.83-15.24.12-7.05.72-14.1 1.03-21.15.2-4.41.4-8.82.31-13.23-.04-1.89-.84-3.76-1.29-5.63.46-.24 1.25-.42 1.31-.74.23-1.27.29-2.59.29-3.9.01-9.39.04-18.78-.06-28.17-.02-1.78-.57-3.56-.87-5.34.25-.27.72-.52.73-.8.13-2.67.18-5.35-.85-8.6-.97 3.31-.89 5.94-.33 8.6-2 1.51-1.41 4-1.58 5.93-.61 6.7-.86 13.44-.97 20.17-.05 3.21.51 6.42.8 9.63-2.29-2.32-2.2-5.62-3.15-8.5l-.09.09c.46.04.92.08 1.63.15 0-2.59.29-5.21-.09-7.72-.34-2.28.16-4.38.36-6.55.47-5.07 1.02-10.14 1.37-15.22.08-1.11-.46-2.28-.78-3.39-.48-1.62-1.02-3.21-1.54-4.82.77 1.29 1.55 2.59 2.4 4.01 2.06-4.87 3.29-9.59.85-14.54 1.28-.13 1.18-1.11 1.15-2.04-.15-4.32-.41-8.65-.44-12.97-.02-3.04-.03-6.04-1.14-8.91.31.17.61.35 1.48.83.05-5.9.25-11.42.09-16.93-.17-5.62-.34-11.27-2.13-16.67 1.86-1.46.56-3.41.62-5.1.26-6.58-2.57-12.31-4.88-18.16-.22-.56-.75-.97-1.28-1.63-1.93 2.92-2.59 5.68-1.2 8.9 1.22 2.83 2.16 5.8 3.22 8.7-1.05-1.8-2.1-3.61-3.15-5.41-.45 2.98-1.42 5.77.49 8.55.96 1.39 1.1 3.43 1.53 5.19.2.83.41 1.85-1 1.74-.04.77-.14 1.54-.09 2.29.08 1.17.41 2.33.39 3.49-.1 4.77-.05 9.47 2.1 13.88.38.79.35 1.8.51 2.7-.62-.91-1.24-1.81-2.37-3.46.4 6.78-.06 12.72 1.45 18.52.13.49.04 1.04.05 1.57l-1.02-.78.06.08c-.33-1.5-.66-2.99-1.01-4.61-.21.69-.42 1.35-.63 2.02l-.38.06-.33-6.61c-1.25 2.91-1.81 5.71-.07 8.58.48.79.45 1.98.47 3 .04 2.5-.06 5-.04 7.49.01.9-.12 2.11.35 2.66 2.43 2.85 1.66 6.55 2.58 9.78-.41 1.71-.82 3.43-1.29 5.38-.53-3.71.7-7.47-1.57-11.34-.15 1.28-.35 2.06-.32 2.83.2 5.75.45 11.51.67 17.26.02.52.17 1.26-.09 1.54-3.39 3.65-2.31 8.36-2.51 12.61-.41 8.79-.23 17.6-.36 26.4-.06 3.54-.42 7.07-.46 10.6-.08 8.38-.23 16.77-.01 25.15.2 7.6.71 15.19 1.37 22.76.3 3.41 1.73 6.46 4.71 8.42.14-.45.26-.85.51-1.69 1.83 2.08 3.58 3.76 4.98 5.72 2.62 3.65 6.28 5.04 10.31 5.55 3.45.44 6.95.52 10.43.76-2.67 1.51-5.49.71-8.26.55-1.54-.09-3.06-.37-4.59-.56-.09.28-.18.56-.27.85 1.48.74 2.93 2.01 4.46 2.13 4.43.35 8.89.27 13.34.28.38 0 .75-.55 1.13-.84 1.95.31 3.91.97 5.84.86 9.46-.53 18.92-1.27 28.38-1.94.37-.03.79.01 1.09-.16 7.9-4.42 16.28-2.08 24.48-1.91 9.12.19 18.23.62 27.34.92.92.03 1.85-.15 2.78-.23l.09-.81c-1.51-.26-3.02-.72-4.54-.76-11.33-.31-22.67-.84-33.99-.69-6.81.09-13.6 1.31-20.41 1.96-5.08.48-10.17.87-15.26 1.29-.06-.57-.09-1.63-.19-1.64-2.41-.2-4.84-.3-7.26-.34-.12 0-.25.68-.38 1.04-1.42-1.05-2.84-2.1-4.26-3.16 2.79.94 5.57 1.89 8.37.05 3.3.54 6.6 1.09 10.62 1.75-.85-1.35-1.23-1.95-1.6-2.54 2.75 1.79 5.65 2.99 8.98 2.49 1.23-.18 2.5-.2 3.02-1.72 3.53 1.58 6.96.06 10.42-.41.18-.03.3-.64.44-.98 2.77.93 5.51 1.48 8.12-.49 5.19.24 10.36.18 15.41-1.38 2.88.28 5.75.48 8.85-.37-3.59-2.25-5.58-2.09-8.74.48-2.27-.53-4.51-1.27-6.79-1.53-3.67-.41-7.37-.54-11.06-.68-.76-.03-1.54.43-2.32.66-2.74-.19-5.47-.43-8.21-.52-.23-.01-.5.93-.74 1.42-3.62-2.03-7.47-1.76-11.85-1.42 1.25 1.36 2.19 2.39 3.14 3.41-2.89-.23-5.77-.5-8.66-.64-.43-.02-.89.59-1.33.91-2.77-1.63-5.84-1.51-8.84-1.64zm129.35-37.33c.19-2.74.57-5.6.01-8.21-.75-3.53-.06-6.78.48-10.13.24-1.51-2.38-6.87-3.68-7.4-1.48-.61-2.84-.26-4.11.92-1.11 1.04-2.65 1.68-1.72 3.72.21.45.23 1 .33 1.5-1.89 3.8-.9 7.76-.57 11.68.1 1.14.36 2.27.55 3.4-1.63 2.54-.28 5.33-.61 7.98 2.4 2.56 1.25 6.27 3.09 9.61-.82-.33-1.13-.45-1.44-.58-.83 3.24-1.56 6.5-2.51 9.69-.62 2.08-1.64 3.9-3.81 4.82-2.05.88-4.04 1.99-5.9 3.25-3.42 2.31-7.31 1.72-11.01 2.16-7.05.83-14.14 1.35-21.2 2.04-.7.07-1.39.38-2.14 1.09.73.13 1.46.4 2.18.36 4.31-.26 8.61-.72 12.92-.85 4.24-.13 8.48-.01 12.72.11 1.16.03 2.31.46 3.37 1.46-1.59-.08-3.2-.02-4.77-.25-5.08-.77-10.07-.69-15 1.02-.64.22-1.44-.11-2.16-.1-1.3.01-2.77-.65-3.72.92l.1-.11c-2.92-.17-5.88-1.37-9 .45 2.38 1.46 4.6 2.67 7.36 2.68 6.25.01 12.5.38 18.74.24 4.2-.1 8.38-.84 12.58-1.25 2.05-.2 4.11-.29 7.18-.5 1.04-.79 2.79-2.78 4.93-3.57 3.33-1.23 3.71-4.06 4.79-6.83.92-2.36 1.63-4.67 1.56-7.16-.04-1.53-.54-3.04-.83-4.56.38-.28 1.08-.57 1.08-.84-.04-3.76-.13-7.52-.32-11.27-.05-1.01-.51-1.99-.77-2.98.47-.83 1.24-1.64 1.3-2.51zm-7.99-126.32c-.33-.16-.66-.31-1.17-.55-1.26 2.8-.01 4.87 1.99 7.09.86-.32 2.2-.39 2.79-1.13 1.58-1.98 3.46-3.92 3.66-6.7.23-3.14.35-6.29.29-9.44-.02-1.08-.63-2.2-1.13-3.21-.62-1.26-1.39-2.43-2.1-3.64.34.14.68.27 1.02.41 1.02-4.13.56-5.14-3.67-7.98-.45 1.84.3 3.29 1.18 4.74.59.96 1.08 1.98 1.61 2.98-.53-.31-1.05-.62-1.89-1.11.17 3.56.34 6.94.5 10.32h-.3c-1.36-9.58-2.71-19.15-4.21-29.69.67 1.46 1.09 2.08 1.23 2.76.32 1.53.5 3.1.76 4.64.61 3.69.62 3.69 4.55 5.83-.65-3.19-1.25-6.15-1.85-9.11 2.51 5.07 2.83 10.71 4.3 16.1.67-3.32.62-6.64.43-9.95-.12-2.07-.42-4.14-.62-6.21-.27-2.87-.41-5.75-.8-8.6-.66-4.84-2.88-8.92-5.99-12.47-.8-.91-1.23-1.62.47-2.41-1.82-.35-3.35-.64-4.92-.94-.11.55-.21 1.11-.37 1.93-1-.44-2-.67-2.76-1.24-5.73-4.34-12.18-3.34-18.6-3.05-2.43.11-4.93-.47-7.33-1.03-4.35-1.03-8.64.33-13.65-.18.9 1.08 1.37 1.64 2.11 2.53h-13.6c0-.21-.01-.41-.01-.62h9.6c-1.72-1.66-1.72-1.7-3.54-1.72-4.88-.05-9.75-.13-14.63-.12-5.35.02-10.78-.41-16.04.39-3.93.6-7.59-.14-11.37-.33-3.99-.2-8-.04-12.12.44.75.25 1.5.49 2.24.74l-.03.74c-2.93.2-5.85.58-8.78.56-2.95-.02-5.89-.44-8.98-.19 3.38 1.42 6.77 2.83 10.15 4.25-.05.19-.11.37-.16.56-.74-.19-1.5-.32-2.22-.57-4.61-1.6-9.19-3.31-13.83-4.8-1.36-.43-2.9-.25-4.36-.34-.62-.04-1.35.15-1.83-.14-3.46-2.1-6.93-1.26-10.56-.55-2.04.4-4.54 1.18-6.36-1.28-.46-.62-1.8-1.06-2.49-.82a14.15 14.15 0 00-4.27 2.38c-2.52 2.07-4.91 4.33-7.29 6.58-.43.4-.57 1.14-.6 1.21 2.71 6.73 5.27 13.07 7.82 19.4l.48.03c.09-3.16.27-6.31.24-9.47-.04-5.03 3.91-9.66 8.68-9.9 1.74-.09 3.5.05 5.25.05 5.22 0 10.45.03 15.67-.04 2.24-.03 4.35-.56 6.57.93 1.3.87 3.4.51 5.14.53 5.99.05 11.98.02 18.27-.54-2-1.23-3.99-2.47-5.99-3.7 3.03.1 5.47 1.49 7.79 3.26.65.5 1.46 1.06 2.22 1.08 4.84.14 9.77.72 14.52.01 4.77-.72 9.26.8 13.89.56 4.24-.22 8.48-.62 12.72-.69 1.52-.03 1.74-1.23 2.49-1.99l-.04.03c.48.4 1.04 1.2 1.44 1.12 4.31-.8 8.4 1.53 12.71.9 2.67-.39 5.39-.41 8.09-.6.24-.02.49-.13.72-.08 5.97 1.22 11.93 2.44 17.89 3.71 2 .43 3.02 1.86 3.86 3.84 2.06 4.85 2.1 9.92 2.11 15.03.01 5.9-.2 11.81-.07 17.7.08 3.65.32 7.36 2.67 10.43.27.36.24.97.34 1.47l.07-.13zm-34.18 170.2c4.96.47 9.92 1.07 14.89 1.33 4.07.22 7.66-1.71 11.26-3.55-10.42 1.1-20.81 1.55-31.21 1.64 1.69.2 3.37.42 5.06.58zm-15.25-3.54c-1.3-1.66-2.99-2.3-4.87-1.97-3.42.6-6.83.98-10.31.83-.91-.04-1.85.53-2.78.82.01.11.01.22.02.32h17.94zM148.6 134.83c5.46.77 10.96.21 16.46-.09-5.48.31-10.94-2.53-16.46.09zm-28.67 40.87c.32-3.28 2.07-6.65-.73-10.12.27 3.68.5 6.9.73 10.12zm-9.48 7.74c.7-3.01.19-5.58-.1-8.17-.43 2.51-1.87 5.04.1 8.17zm-.41 13.59h.35v-9.08c-.12-.05-.23-.09-.35-.14v9.22zm113.48 161.6c2.39 1.97 4.31 1.29 6.25 0h-6.25zm-53.55 1.24c.01-.24.02-.49.04-.73h-6.11c-.01.13-.01.26-.02.38 2.02.12 4.05.24 6.09.35zm32.73 9.71h-3.91 3.91zm-54.19-10.85v-.29h-4.53c0 .1 0 .2-.01.29h4.54zm123.61 6.76c.1.22.19.44.29.66 1.13-.5 2.26-1 3.38-1.49-.15-.31-.29-.61-.44-.92-1.07.59-2.15 1.17-3.23 1.75z" class="st0"/>
  <path d="M313.6 213.67c-.37-4.16 1.5-7.17 4.58-9.27 3.19-2.17 6.61-2.83 10.18-.48 3.38 2.23 6.91 4.23 10.39 6.3 11.18 6.66 22.37 13.3 33.55 19.95 4.46 2.65 8.81 5.52 13.38 7.94 3.97 2.1 7.86 3.93 10.43 8.16 2.12 3.5 2.34 7.37-.15 10.64-2.76 3.63-6.55 5.52-10.39 7.48-12.69 6.48-25.33 13.07-38 19.62-6.5 3.36-13.12 6.5-19.44 10.2-2.32 1.35-4.41 1.96-6.67 1.01-2.73-1.16-5.34-2.68-7.9-4.24-3.75-2.27-3.84-6.4-4.3-10.25-.08-.67.36-1.67.87-2.1 1.79-1.51 2.98-3.95 5.73-4.09.94-.05 1.88-.62 2.77-1.07 5.86-2.95 11.73-5.89 17.55-8.94 1.07-.56 2.57-.87 3.01-2.63-.73-.05-1.23-.13-1.72-.12-8.75.17-17.5.39-26.25.51-13.36.18-26.73.21-40.09.47-13.74.27-27.47.77-41.21 1.1-13.87.33-27.75.49-41.62.85-5.6.14-11.18.64-16.77.92-.83.04-1.85.01-2.49-.44-2.47-1.74-5.05-3.41-7.18-5.56-4.94-5-2.92-10.49 1.45-14.59 1.28-1.2 2.54-2.44 3.83-3.69 13.01-.3 26.13-.65 39.24-.88 18.87-.33 37.75-.55 56.63-.84 16.25-.25 32.49-.57 48.74-.77 9.37-.12 18.75-.07 28.12-.11 1.16-.01 2.32-.14 3.48-.22.07-.33.13-.67.2-1-9.97-6.16-19.94-12.31-29.91-18.47-.01-2.01.12-3.71-.04-5.39zm-68.54 33.76c-2.63.21-5.1-.57-7.67-.21-2.17.3-4.39-.55-6.58.68-.77.43-2.11-.29-3.19-.45-1.1-.16-.62 1.63-2.27 1.56-6.82-.26-13.67.02-20.5.11-.01-.32-.01-.63-.02-.95h17.44c-1.43-1.73-2.67-1.87-3.77-1.77-10.14.86-20.31-.45-30.81.54 1.65 1.76 3.55 1.9 5.44 2.01 1.48.09 2.94-.5 4.1 1.44.54.9 2.54.78 3.83 1.25 1.84.67 3.64 1.46 5.92 2.39-2.64 2.11-5.02.96-7.3.76.9-.1 1.8-.21 2.7-.31.03-.19.05-.38.08-.57-.98-.28-1.96-.59-2.94-.83-1.33-.33-2.91-.24-3.97-.99-3.14-2.22-6.55-1.76-10.07-2 .49-.16.97-.31 1.46-.47-2.59-2.63-2.59-2.59-5.51-2.47-2.6.1-5.2 0-7.8.16-1.35.08-2.69.49-4.03.79-1.79.4-2.75 1.56-3.01 3.5-.2 1.47-.6 2.91-.93 4.48 1.57 3.88 4.89 4.03 8.55 3.88 13.1-.55 26.21-.94 39.32-1.38 1.12-.04 2.27.11 3.37-.06 1.21-.19 2.38-.64 4.09-1.12 1.67 1.7 4.36.9 6.89.89 2.24-.01 4.47-.44 6.71-.51 12.49-.4 24.98-.61 37.46-1.15 12.73-.55 25.44-1.62 38.19-1.15 5.35.2 10.71.62 16.02 1.32 5.36.71 10.66.99 16.04.3 2.59-.33 5.25-.06 7.88-.06 2.41 0 3.98 1.15 4.71 3.87-.76.46-1.44 1.15-2.22 1.3-6.4 1.21-11.82 4.92-17.63 7.61-4.34 2.01-8.57 4.28-12.88 6.36-5.2 2.52-6.16 4.66-4.39 11.49.19-2.18.31-3.56.45-5.07.99 1.86.99 1.86.74 6.02 1.55.24 3.14.48 5.52.84-1.69-1.64-2.75-2.65-4.3-4.16 2.36.27 4.12-.99 5.54 1.49.64 1.12 2.81.07 4.56-2.33.38.96.73 1.82 1.07 2.68 13.14-7.06 25.73-13.86 38.28-20.71-.12-.34-.24-.68-.35-1.02l-6.91 1.68c6.27-3.91 14.14-3.63 19.82-8.52-.65-1.92-1.19-3.56-1.74-5.19l.53-.41c1.08 1.51 2.17 3.01 3.22 4.47 1.42-.73 2.21-1.08 2.94-1.53.74-.45 1.43-1 1.8-1.27-1.43-3.12-2.86-5.99-4.05-8.96-.77-1.91-1.91-3.29-3.52-4.45-6.69-4.85-13.82-8.86-21.15-12.5-6.54-3.24-12.99-6.69-19.52-9.97-1.17-.59-2.55-.71-3.76-1.24-1-.44-1.96-1.06-2.81-1.76-2.93-2.44-5.76-5.03-9.73-5.36-1.21-.1-2.41-.18-3.54-.26-.85 3.4-.85 3.4 3.71 6.9.44-.51.88-1.03 1.56-1.82.65.82 1.55 1.49 1.81 2.36.71 2.45 2.54 3.79 4.22 5.33 5.38 4.9 10.82 9.68 17.1 13.34 1.41.82 2.43 2.53 3.41 3.99.71 1.05-.03 2.29-1.36 2.57-5.62 1.18-11.23 2.4-16.86 3.47-1.7.32-3.47.23-5.76.36 2.68 2.08 6.55 1.41 7.21 5.44-1.07-.36-2.42-.79-3.75-1.28-3.13-1.15-6.2-3.07-9.39-3.35-5.89-.51-11.86-.07-18.6-.01 2.69 2.11 5.28 2.06 7.55 3.34-.51.09-1.07.36-1.53.24-2.17-.56-4.37-1.08-6.47-1.88-4.29-1.64-8.52-2.27-13.11-1.2-2.16.51-4.6-.43-6.91-.46-1.95-.03-3.9.32-5.86.47-.72.06-1.45.13-2.16.05-2.7-.3-5.4-.66-8.35-.32.42.46.84.93 1.27 1.39-1.53-.43-3.05-1.14-4.6-1.21-1.67-.08-3.83-1.81-4.96 1.08-4.46-2.59-9.34-1.89-13.97-1.51zm-41.47-107.57c-4.53-2.47-8.24-2.58-12.8-.38 1.72.85 2.85 1.43 4 1.96 1.12.52 2.27.99 3.71 1.62-.22-.67-.37-1.13-.54-1.63 1.65-.46 3.32-.93 5.63-1.57zm-71.19.27c3.01 1.16 5.93 2.82 9.43 1.47-3.12-.81-6.24-1.61-9.35-2.42-.03.32-.05.63-.08.95zm96 3.22c-2.03-.05-2.85-1.47-3.3-3.47-1.3.12-2.58.24-3.85.36 2.26 1.7 4.16 3.97 7.18 3.09.01-.01-.03.02-.03.02zm56.94 24.31c-.62-3.2-1.25-6.39-1.87-9.59-.22.04-.45.09-.67.13l1.62 9.79c.3-.1.61-.22.92-.33zm-45.23-26.44h-5.03c1.63 1.67 1.87 1.7 5.03 0zm38.11 55.56c.62.44 1.24.87 2.29 1.61-.12-3.01-.33-5.35-2.36-7.07l.07-.07c.3 1.36.48 2.76.93 4.06.41 1.2-.37 1.25-1 1.55 0 .01.07-.08.07-.08zm-7.59-52.91c-1.46-.81-2.93-1.63-4.39-2.44 1.1 1.73 2.53 2.65 4.45 2.36l-.06.08zm14.12 48.35v-4.23l-.28-.03v4.35c.09-.04.18-.07.28-.09z" class="st0"/>
  <path d="M270.69 143.79c1.05.63 2.11 1.27 3.16 1.9-.53-2.1-1.86-2.02-3.22-1.83 0 .01.06-.07.06-.07zm7.46 47.53c.16-1.77-.49-3.15-2.27-3.96.78 1.3 1.56 2.59 2.34 3.89.01 0-.07.07-.07.07zm-17.37-46.9c-.85-.65-1.7-1.3-2.56-1.94-.15.2-.31.39-.46.59l2.49 2.13c.18-.27.36-.53.53-.78zm-2.61-5.86c-.78-.35-1.55-.7-2.33-1.05-.09.16-.18.31-.28.47.4.29.76.66 1.2.84.4.16.87.11 1.31.15.03-.14.07-.27.1-.41zm-144 137.57c.09-.51.36-1.06.25-1.51-.57-2.28-1.38-4.49-1.82-6.79-.44-2.27-.54-4.61-.82-7.16-2.29.84-2.05 2.84-1.65 4.22 2.43 8.35 2.08 17.05 3.61 25.54-.31-5.26-.61-10.53-.97-16.55.77 1.11 1.13 1.64 1.48 2.17 0-.01-.08.08-.08.08zm25.73 90.75l3.78.66c-.95-2.93-.95-2.93 1.27-4.33-2.59-1.08-5.09-2.25-8.06-2.21-1.5.02-3.02-1.39-4.53-2.15.28.39.49.9.85 1.17 1.36 1.01 1.93 2.19.73 4.16 1.74-1.15 3.05-1.26 4.59-.1 1.08.8 1.53 1.52 1.37 2.8zm-28.07-39.59c.42.14.98.34 1.58.54-1.47-9.64-2.94-19.26-4.41-28.89-.18.03-.37.05-.55.08 1.13 9.4 2.25 18.8 3.38 28.27zm2.15-33.68c-.46.06-1.07.14-1.88.25.88 2.96 1.76 5.91 2.65 8.86.17-.06.34-.11.5-.17-.41-2.89-.82-5.8-1.27-8.94zm1.23-54.84c-.53-1.37-1.06-2.75-1.59-4.12.53 1.38 1.06 2.75 1.59 4.12zm169.8 102.01c-2.31-4.66-.6-9.56-.73-14.35-.01-.22.49-.46.75-.7-1.17-6.37-2.34-12.75-3.51-19.13-.2.69-.42 1.49-.84 2.96l-3.28-6.11c.16.76.22 1.56.49 2.27 2.88 7.51 4.28 15.31 4 23.41-.02.7-.48 1.38-.73 2.08 1 3.32.91 7.12 3.85 9.57zm-13.29 20.2c3.89-2.34 7.59-4.84 9.32-9.3-.22-.24-.44-.47-.66-.71l-2.37 4.11c-.36-.25-.72-.49-1.09-.74-.16-1.74-.31-3.47-.49-5.43-.24.37-.42.52-.43.68-.06 2.21.44 4.64-.27 6.58-.69 1.87-2.62 3.23-4.01 4.81zm8.04-34.42l-2.34-8.08c.36 2.83.37 5.77 2.34 8.08z" class="st0"/>
  <path d="M281.26 331.33c.21-1.91-.35-3.54-1.59-4.93.53 1.64 1.06 3.28 1.59 4.93zm-43.64 29.88c.88.58 1.76 1.17 2.63 1.75.1-.26.21-.51.31-.77-1.01-.29-2.02-.58-3.04-.87 0 .01.1-.11.1-.11zM113.66 178.93c.33 1.16.65 2.32.98 3.48.18-.05.35-.11.53-.16-.33-1.16-.65-2.32-.98-3.47-.18.04-.35.09-.53.15zm1.47 18.53c.52 1.47 1.05 2.94 1.57 4.41-.52-1.47-1.04-2.94-1.57-4.41zm46.71 170.1c-1.99.03-3.99.07-5.98.1 2.02 2.24 4 .81 5.98-.1zm-49.05-155.13c-.26 2.13-.51 4.25-.77 6.38l.72.06v-6.51c-.01-.01.05.07.05.07zm155.62 36.49c-1.89 1.95-4.08.81-6.17.63-1.08-.09-2.14-.4-3.2-.61-2.28.32-4.55.87-6.83.9-5.6.07-11.2-.1-16.8-.15-1.24-.01-2.47.11-4.25.19 2.64.62 4.73.93 6.68 1.64 1.75.63 3.36 1.71 5.03 2.6.14-.26.27-.52.41-.77-.71-.54-1.42-1.08-2.64-2 3.01 0 5.33-1.52 7.79.22.51.36 1.74-.59 2.62-.57 3.86.11 7.72.31 11.57.6.83.06 1.63.62 2.22.87 2.32-.74 4.47-1.42 7.5-2.38-1.87-.56-2.9-.86-3.93-1.17zm61.65 27.72c4.56-1.52 8.1-4.6 11.58-7.78-.15-.24-.31-.49-.46-.73-2.8 2.05-5.61 4.06-8.38 6.15-.95.72-1.79 1.61-2.68 2.43l-.06-.07zm-51.11-24.99c3.84.66 7.36 1.27 11.24 1.94-3.42-3.67-7.17-2.85-11.24-1.94zm-101.09-1.79c1 3.1 3.56 2.31 5.43 3.23-.2-2.11-.2-2.11-5.43-3.23zm147.39.93c-1.91-.39-3.82-.79-5.73-1.18-.05.25-.11.49-.16.74l5.61 1.77c.09-.45.18-.89.28-1.33zm-101.28 3.52h6.21v-.24h-6.21v.24zm-1.69-.89c.67-1.55 1.01-2.34 1.41-3.25-.01-.01-.14-.26-.29-.27-2.45-.07-2.06 1.24-1.12 3.52zm76.1-2.06c1.45.57 2.9 1.14 4.35 1.72.09-.22.18-.44.26-.66-1.39-.69-2.79-1.38-4.18-2.07-.15.34-.29.68-.43 1.01zm-117.03 2.6c-1.33-.35-2.67-.69-4-1.04-.05.25-.11.5-.16.75 1.29.31 2.59.61 3.88.92.08-.21.18-.42.28-.63z" class="st0"/>
  <path d="M330.12 276.72c-1.13.43-2.26.86-3.38 1.29.16.31.31.62.47.93.95-.77 1.9-1.53 2.85-2.3l.06.08zm-55.78-24.83c.81.36 1.62.72 2.44 1.08l.21-.54c-.82-.35-1.63-.7-2.45-1.05-.06.16-.13.33-.2.51zm49.17 26.46l-2.19 1.62c.12.2.24.39.36.59.74-.53 1.48-1.05 2.23-1.58-.14-.22-.27-.43-.4-.63zm20.08-54.78c-.45-.44-.93-.92-1.41-1.39-.14.14-.28.27-.41.41.42.44.83.89 1.26 1.33.08.08.23.15.31.13.08-.03.11-.2.25-.48z" class="st0"/>
</svg>
