<svg xmlns="http://www.w3.org/2000/svg" id="Layer_1" x="0" y="0" aria-hidden="true" version="1.1" viewBox="0 0 500 500" xml:space="preserve" fill="currentColor">
  <style>
    .st0{fill:#ef4723}
  </style>
  <path d="M188.18 305.32c.02-.6.03-1.2.08-2.72-2.05 1.97-3.47 3.36-4.93 4.73-6.54 6.13-11.51 13.49-16.46 20.88-3.26 4.87-6.68 9.64-10.06 14.43-1.22 1.73-2.56 3.39-4.05 5.35.34.65.49 1.73 2.33 1.77 5.61.15 11.2.63 16.9.51-3.99-.95-7.99-1.89-12.06-2.86.01-.5.02-1.12.03-1.74.24-.11.5-.33.67-.28.74.23 1.44.57 2.17.83 2.84.99 4.8.33 6.66-2.15.78-1.04 1.63-2.04 2.46-3.05.25-.3.53-.57 1.32-.45-1.18 1.82-2.37 3.63-3.79 5.81 1.94.4 3.51.72 5.46 1.12-1.14.46-1.94.78-3.51 1.41 3.12.39 5.57.69 8.86 1.1-1.05.78-1.38 1.02-1.65 1.22 1.89 1.23 3.91 2.55 6.18 4.03.38-1.1.7-2.01 1.07-3.04.3.22.68.36.82.63 1.33 2.4 2.59 4.84 3.95 7.22.28.49.9.79 1.36 1.18l.07-.04c.12.5.07 1.22.39 1.48 3.4 2.8 3.78 6.51 3.22 10.57-1.34-5.89-5.08-10.49-7.79-15.64-.25.12-.51.23-.76.35.93 2.07 1.87 4.13 2.8 6.2.37.83 1.16 1.75 1.01 2.48-.92 4.67 2.55 7.65 3.82 11.69.71-.41 1.17-.52 1.3-.78 3.19-6.79 8.59-12.09 12.4-18.47 3.69-6.17 7.46-12.29 11.22-18.41 4.58-7.45 9.16-14.91 16.15-20.44 2.8 1.97 2.96 2.2 1.54 4.62-2.45 4.17-4.99 8.29-7.59 12.36-4.01 6.27-8.1 12.48-12.17 18.71-4.92 7.53-9.87 15.05-14.78 22.59-.79 1.2-1.75 2.38-2.16 3.72-.7 2.28-2.64 2.64-4.32 2.69-1.7.06-3.46-.39-4.42-2.51-2.9-6.41-6.21-12.64-9.03-19.09-2.1-4.8-3.9-8.95-10.61-8.6-6.21.32-12.5-.81-18.74-1.3-.66 4.09.12 5.14 3.92 4.95 3.99-.2 7.81.22 11.46 1.94.75.35 1.76.16 2.65.24 1.95.18 3.91.31 5.84.58 1.41.19 2.31 1.01 2.7 2.47.7 2.63 1.13 5.42 2.34 7.81 3.8 7.43 6.04 15.65 11.39 22.39 2.02.02 3.18-1.22 4.25-2.81 11.06-16.5 22.14-32.99 33.27-49.43 3.81-5.63 7.82-11.14 11.71-16.72.79-1.13 1.6-2.34 3.11-1.26 1.43 1.02 1.21 2.24.23 3.69-12.63 18.61-25.21 37.25-37.79 55.89-2.63 3.9-5.19 7.85-7.89 11.71-.96 1.37-2.25 2.5-3.33 3.8-1.87 2.25-4 2.66-6.07 1.3-3.18-5.84-6.18-11.33-9.17-16.82-1.94-3.56-4.06-7.04-5.76-10.71-.94-2.03-2.98-3.37-3.31-5.8-.06-.45-1.46-.91-2.28-1.02-5.19-.71-10.4-1.33-15.6-1.96-3.26-.39-5.54-1.67-6.1-5.35-.24-1.58-1.3-3.13-2.29-4.47-1.97-2.67-2.12-4.8-.08-7.6 4.55-6.24 9.11-12.47 13.71-18.67 6.86-9.24 13.74-18.47 20.64-27.67 1.25-1.67 2.63-3.26 4.07-4.77 1.64-1.72 2.77-1.63 4.15.2.61.81 1.06 1.74 1.59 2.62-.76 1.42-1.47 2.72-2.3 4.28 2.85-.67 2.88-.69 4.57 1.17 1.66 1.81 3.34 3.43 6.13 2.1-.77.4-1.54.8-2.87 1.5 2.25 1.62 4.03 3.56 6.22 4.32 2.94 1.03 4.26 3.41 5.99 5.87-.68-.24-1.4-.4-2.03-.74-.28-.15-.29-.78-.58-.96-4.04-2.59-8.08-5.16-12.17-7.66-.35-.21-1 .08-1.51.13-.71-2.83-1.46-3.3-4.17-2.65zm107.07 69.52c1.5-1.2 3.01-2.39 4.51-3.59 2.32 1.35 3.38-.91 4.49-1.94 2.4-2.23 5.03-3.92 8.46-5.08-1.26-1.14-2.27-2.06-3.28-2.97.1-.17.19-.34.29-.5.72.31 1.43.66 2.17.93 2.16.81 4.28 2.79 6.51-.14.38-.49 1.98-.21 2.98-.05 5.03.78 10.06 1.41 15.17.88-1.3 1.81-3.21 1.9-5.19 2-.4.02-.77.82-1.15 1.26 3.31-.2 6.45 1.4 9.68-.22-1.32-1.15-2.38-2.07-3.43-2.99-1.15-3.42-1.65-7.28-3.61-10.15-2.87-4.21-3.02-9.04-4.56-13.52-2-5.8-4.18-11.55-6.36-17.29-2.13-5.61-4.35-11.18-6.52-16.74 3.04-2.27 4.75-1.72 6.16 1.81 2.76 6.91 5.49 13.84 8.32 20.72 4.57 11.09 9.17 22.17 13.85 33.22.8 1.9 2.03 3.62 3.12 5.51-1.17 2.47-3.27 3.93-5.63 5.37-2.53 1.53-4.92 3.5-6.91 5.7-3.64 4.02-8.14 3.44-12.69 2.98-1.02-.1-2.01-.53-3.02-.82-2.54-.73-4.77-.38-7.02 1.23-8.5 6.07-17.12 11.96-25.66 17.98-4.17 2.95-5.64 2.63-8.3-1.74-.95-1.56-2.35-2.85-4.02-4.82 1.04-3.95-1.68-7.96-2.94-12.24-2.14-7.25-4.71-14.37-7.12-21.54-2.83-8.42-5.69-16.82-8.49-25.25-.61-1.84-1.04-3.74-1.53-5.51 2.09-2.24 4.4-.55 6.46-.87.38-.06 1.2 1.25 1.44 2.04 3.15 10.27 7.3 20.14 11.89 29.84 1.44 3.05 2.53 6.27 3.79 9.41 1.24 4.51 2.54 9.01 3.69 13.55.39 1.53 1.53 3.24-.43 4.62-.24.17-.43.71-.35.99.67 2.29.82 4.81 2.4 6.87 6.48-3.54 12.45-7.24 17.41-12.36 3.9-4.03 8.96-5.71 14.22-6.95.59-.14 1.3-.11 1.88.08 4.05 1.32 8.17 1.04 12.31.72.8-1.57 1.55-3.05 2.52-4.96-6.02-.75-11.57-1.48-17.13-2.07-.8-.09-1.85.25-2.47.77-6.03 5.15-12.01 10.37-17.98 15.6-1.89 1.65-3.8 3.17-5.97 2.98-3.12-1.36-4.05-3.73-4.84-6.29-1.11-3.61-2.34-7.19-3.64-10.74-.36-.99-1.16-1.81-1.75-2.71-.17-1.26-.13-2.59-.55-3.76-4.46-12.53-8.99-25.03-13.53-37.53-.53-1.47-.81-2.84.72-3.8 1.17-.73 2.91.09 3.81 1.8.54 1.03.85 2.18 1.25 3.28.76 2.08 1.5 4.16 2.54 7.03l.45-3.62c.61.75 1 1.04 1.11 1.41 1.62 5.49 3.23 10.99 4.76 16.51.37 1.34.44 2.77.66 4.15.37.93.75 1.86 1.12 2.79.77 2.45 1.53 4.91 2.32 7.36 1.7 5.29 3.4 10.59 5.13 15.87.4 1.22.92 2.41 1.46 3.81 2.35-1.34 4.51-2.47 4.31-5.52.89-.92 1.8-1.85 2.71-2.79zm29.72-10.08l.03-.52-2.78-.18-.03.55 2.78.15z" class="st0"/>
  <path d="M322.58 333.77c.92-.67 1.3-.94 1.99-1.45.32 1.45.58 2.55.8 3.66.22 1.15.54 2.32.5 3.47-.02.6 1.36 1.87-.64 2.08-.23.02-.26 1.87-.59 2.92-2.97-10.95-9.41-20.62-11.62-32.02 5.13 1.73 4.68 6.59 6.11 10.23 1.38 3.5 2.26 7.19 3.45 11.11zm-42.86 13.65c-.25-.26-.65-.49-.72-.79-1.41-6.2-2.78-12.4-4.14-18.54 3.42-1.19 5.31-.47 5.25 1.97-.15 5.63 2.11 10.72 3.26 16.05.26 1.21.55 2.41.82 3.62-.26.07-.52.13-.78.2-1.84-6.33-3.69-12.66-5.53-18.98l-.82.15c.13 2.55.53 5.06 1.05 7.59.6 2.91 1.03 5.86 1.53 8.79-.01 0 .08-.06.08-.06zm15.53 27.42c-.91.93-1.82 1.87-2.72 2.8-.73.45-1.45.89-2.18 1.34-.15-.13-.3-.27-.45-.4.33-.54.58-1.15 1-1.59 2.49-2.57 4.94-5 5.94-8.75.76-2.83 2.67-5.35 4.66-7.71-.75 1.85-1.5 3.71-2.37 5.84.9.05 1.47.08 2.05.11-1.97 2.79-3.95 5.58-5.93 8.36zm-94.9-42.36c-.57-1.46.72-1.47 1.45-1.69 2.85-.85 4.42-2.87 5.7-5.43 1.68-3.36 3.63-6.59 5.49-9.85.29-.51.75-.92 1.75-1-2.48 4.37-4.96 8.74-7.6 13.4 1.17.07 1.83.11 2.26.13l-5.23 4.41c-.07-.25-.21-.73-.41-1.45-1.17.47-2.32.94-3.47 1.41l.06.07zm93.31 1.83c-2.04.22-1.1-1.99-2.16-2.61-.7.37-1.42.74-2.84 1.48.86-1.91 1.41-3.12 1.96-4.33l-.63-.36c-.61 1.07-1.26 2.12-1.82 3.21-.57 1.12-1.05 2.28-1.91 3.27.05-3.87 2.76-6.57 4.65-10.71.55 2.17.87 3.54 1.25 4.91.47 1.72.99 3.43 1.49 5.14h.01zm25.93 4.58c-.28-.24-.7-.42-.81-.72-2.31-6.33-4.6-12.67-6.85-19.02-.19-.53-.03-1.18-.04-2.7 2.78 7.72 5.24 14.53 7.67 21.35.12.34-.03.77-.05 1.15l.08-.06zm-134.12-30.34c.15 1.06.7 1.04 1.58.76 1.03-.33 2.14-.45 3.21-.66-.44.26-.87.55-1.33.78-1.72.89-3.58 1.58-5.12 2.7-1.4 1.02-2.47 2.51-4.39 4.55.13-1.63-.09-2.65.3-3.04 1.83-1.79 3.82-3.41 5.75-5.09zm29.92 24.58c1.56-3.17 3.13-6.33 4.9-9.92 1.7 2.21.04 3.1-.55 4.11-.66 1.12-1.18 2-.97 3.5.1.72-1.82 1.73-2.83 2.61-.19-.1-.37-.2-.55-.3zm11.3-8.87c-2.18 3.22-4.36 6.43-6.53 9.65 1.07-3.96 3.06-7.32 5.77-10.22.25.19.51.38.76.57zm-64.11 18.31c1.97-2.05 3.93-4.1 5.9-6.15-.89 2.99-2.14 5.65-5.9 6.15z" class="st0"/>
  <path d="M200.27 332.41c-2.99 1.22-6.19 2.12-7.98 5.18l.1.12c.32-1 .42-2.16 1.01-2.98.87-1.21 2.08-2.18 3.16-3.27.66 2.61 2.75-.28 3.78 1.01.01.01-.07-.06-.07-.06zm16.13-7.25c-1.64 2.79-3.28 5.58-4.92 8.38 1.05-2.87 1.09-6.18 3.61-8.34.26-.22.89-.02 1.35-.01.01 0-.04-.03-.04-.03zm-17.29 17.15c-.13-2.74 1.23-4.75 3.24-6.54.39.28.8.57 1.15.82-1.48 1.94-2.92 3.82-4.39 5.72zm93.79 6.88c.97-1.9 1.94-3.79 3.06-5.98.31-.07 1.12-.26 2.1-.49-1.59 2.29-3.11 4.48-4.62 6.67-.18-.07-.36-.13-.54-.2zm-114.58-22.25c.31.4.63.79 1.21 1.53-1.95 1.11-3.83 2.19-5.71 3.26-.17-.25-.35-.49-.52-.74l5.1-3.96-.08-.09zm26.52 20.58c-1.12 1.69-2.24 3.39-3.4 5.13-.84-.27-1.52-.48-2.19-.7l.08.11c1.83-1.51 3.67-3.03 5.51-4.54z" class="st0"/>
  <path d="M192.29 337.59c-.98 1.09-1.96 2.17-3.52 3.89-.01-1.71-.04-2.46 0-3.19.03-.53-.03-1.35.27-1.54 1.14-.72.88.65 1.3.94.46.32 1.34.03 2.04.02.01 0-.09-.12-.09-.12zm87.03 18.53c-.37-.93-.75-1.86-1.12-2.79 1.74.89 3.15 2.05 3.34 4.18l.09.11-2.31-1.5zm43.75-9.12c.67 1.98 1.34 3.95 2 5.93-.29.1-.58.19-.87.29-.66-1.98-1.33-3.96-1.99-5.94.29-.09.57-.19.86-.28zm-127.79-28.2c.09-3 2.59-1.45 3.93-2.09-1.01 1.31-1.95 2.77-3.99 2.02l.06.07z" class="st0"/>
  <path d="M281.63 357.62l-.09-.11c.44.11 1.18.09 1.28.34.52 1.25.88 2.58 1.04 3.98-1.06-1.25-2.69-2.17-2.23-4.21zm-100.91-20.4c-1.18 1.67-2.37 3.34-3.55 5.02.5-2.19.65-4.65 3.62-4.97l-.07-.05z" class="st0"/>
  <path d="M180.79 337.28c.14-.77.03-1.8.49-2.26.76-.76 1.89-1.14 3.08-1.8-.31 2.33-2.48 2.71-3.65 3.99l.08.07zm98.84 10.2c1.74 1.35 1.48 3.3 1.81 5.06-.27.07-.54.13-.81.2-.3-1.77-.61-3.55-.91-5.32l-.09.06zm14.02-13.16l1.08 5.43c-1.71-2.66-1.71-2.66-1.08-5.43.01-.01 0 0 0 0zm6.22-2.76c-.69 1.28-1.37 2.55-2.05 3.83-.3-.16-.6-.33-.9-.49.77-1.23 1.55-2.46 2.34-3.67.01-.02.28.14.61.33zm-104.66-12.84c-.71 1.33-1.43 2.65-2.14 3.98-.08-1.82.6-3.16 2.21-3.9l-.07-.08zm-3.18 42.48l-.07.04c-.46-1.37-.93-2.74-1.39-4.11 1.36 1.13 2.65 2.29 1.46 4.07zm7.58 1.02c-.65 1.79-1.02 2.8-1.65 4.55-.17-2.4-.17-2.4 1.65-4.55zm16.84-37.03c-1.21-2.35.98-3.39 1.64-5.02.23.1.46.2.7.3-.8 1.55-1.61 3.1-2.4 4.67.01.02.06.05.06.05zm89.57 21.66c.64-.89 1.29-1.78 1.93-2.68.19.13.39.26.58.39-.68.94-1.35 1.88-2.03 2.82-.16-.17-.32-.35-.48-.53zm13.48-7.9c.71 1.2 1.41 2.41 2.12 3.61-.3.13-.6.25-.9.38-.38-1.35-.76-2.7-1.13-4.05l-.09.06zm9.82 18.38c-.45-.98-.9-1.96-1.35-2.95l.69-.3c.42.99.85 1.99 1.27 2.98-.21.09-.41.18-.61.27zm-150.5-39.13l-2.19 2.67c-.16-.12-.32-.24-.49-.36.68-1 1.36-2 2.04-2.99.22.22.43.45.64.68zm-.42 8.84c.68-1.05 1.37-2.09 2.44-3.74-.61 2.52-.61 2.52-2.52 3.64l.08.1zm3.76-4.84c.69-.99 1.38-1.97 2.07-2.96.18.1.36.21.53.31-.65 1.01-1.29 2.03-1.94 3.04l-.66-.39zm17.09 29.75c-1.2.59-2.41 1.17-3.61 1.76 1.52-1.71 1.52-1.71 3.68-1.66.01.01-.07-.1-.07-.1zm14.16-13.08c-.4.85-.81 1.7-1.21 2.55-.15-.06-.31-.13-.46-.19.38-.9.77-1.79 1.15-2.69.17.11.35.22.52.33zm-8.57 8.65c-.34-1.42-.01-2.61 1.65-4.2-.75 1.91-1.2 3.06-1.65 4.2zm11.37-6.12c-.43.65-.86 1.31-1.28 1.96-.13-.08-.27-.16-.4-.24.4-.72.81-1.45 1.21-2.17.16.15.32.3.47.45zm73.96 26.9c-.26-.75-.51-1.5-.77-2.25.18-.06.35-.13.53-.19.28.74.56 1.48.84 2.23l-.6.21zm17.52-47.71c.47 1.64.72 2.49.96 3.34-.15.07-.31.14-.46.21-.24-.57-.54-1.12-.71-1.71-.08-.3.06-.66.21-1.84zm8.1 25.07c-.23-.68-.45-1.35-.68-2.03l.39-.15c.29.59.58 1.18.86 1.78-.19.13-.38.26-.57.4zm-122.11-4.45c.8-.34 1.61-.69 2.41-1.03.09.23.18.45.27.68-.82.3-1.63.6-2.45.91-.08-.18-.16-.37-.23-.56z" class="st0"/>
  <path d="M130.07 203.84c1.12-6.3 2.17-12.62 3.41-18.9.41-2.06 1.45-4 1.93-6.05.88-3.71 2.84-7.13 2.56-11.17-.24-3.41 2.51-5.69 3.97-8.43 1.25-2.36 2.86-4.61 4.65-6.6 6.23-6.93 12.47-13.85 18.97-20.52 5.44-5.59 12.17-9.56 18.49-14.07 8.19-5.86 17.53-9.3 26.61-13.16 8.89-3.78 18.57-4.92 28.2-5.47 10.07-.57 20.14.05 30.01 2.09 15.45 3.19 29.98 8.75 43.13 17.7 9.35 6.37 17.39 14.09 24.73 22.64 1.95 2.28 4.27 4.24 6.48 6.29 5.22 4.85 9.36 10.29 11.82 17.17 4.02 11.22 9.35 21.98 12.31 33.56 1.34 5.23 1.76 10.7 2.45 16.09.38 2.99.68 6.02.64 9.02-.1 6.14-.33 12.28-.75 18.4-.31 4.55.06 9.24-2.08 13.52 1.08 5.43-2.52 9.51-4.28 14.06-1.81 4.66-4.34 9.04-6.67 13.49-1.53 2.93-3.46 5.66-4.85 8.65-4.2 9.05-11.36 15.48-18.98 21.38-6.23 4.83-12.96 9-19.25 13.76-3.54 2.68-7.55 4.17-11.58 5.62-4.45 1.61-9.04 2.83-13.61 4.08-6.22 1.7-12.44 3.44-18.73 4.83-10.45 2.31-21.01 2.67-31.65 1.22-11.39-1.55-21.88-5.53-31.86-11.08-5.65-3.14-11.45-6-17.11-9.13-7.89-4.36-14.29-10.52-20.26-17.16-4.9-5.45-9.66-11.03-14.55-16.49-5.65-6.3-9.35-13.81-12.86-21.35-4.99-10.7-8.69-21.87-10.56-33.59-1.59-10.1-1.45-20.19-.73-30.4zm42.32-54.35c-1.09 1.25-2.16 2.53-3.29 3.75-1.09 1.19-2.66 2.07-2.71 4.01l5.85-3.54c-.44.56-.77 1.3-1.34 1.67-4.79 3.14-7.29 8.67-12.24 11.65-.44.26-.67.92-.93 1.43-1.14 2.31-2.5 4.55-3.34 6.97-2.59 7.44-5.08 14.92-7.37 22.45-.73 2.4-.87 5.01-1.03 7.54-.13 1.99.18 4.01.17 6.02-.01 3.38-.1 6.76-.16 10.15-.7-2.74-.8-5.45-1.01-8.15-.21-2.71-.93-5.44-.74-8.1.53-7.29 1.44-14.56 2.16-21.84.08-.84-.08-1.7-.14-2.88-4.13 3.62-6.6 7.52-6.54 12.66.04 3.82.2 7.65.19 11.47-.01 2.93-.2 5.86-.31 8.79-.31 0-.63.01-.94.01-.21-3.02-.41-6.04-.69-10.11-1.07 1.6-1.92 2.38-2.15 3.32a16.52 16.52 0 00-.43 4.7c.39 7.88.65 15.79 1.41 23.64.5 5.1 1.21 10.3 4.27 14.73l-.07-.11c.6 1.76 1.2 3.52 1.79 5.29 1.03 3.06 4.01 5.58 2.49 9.37-.19.48.5 1.3.77 1.96 3.23 7.93 7.84 15 13.34 21.53 6.64 7.89 16.07 12.99 21.77 21.82.07.1.24.15.37.21 4.4 2.09 8.82 4.14 13.2 6.28 2.3 1.13 4.54 2.39 6.79 3.62 2.13 1.17 4.24 2.37 6.35 3.56.23-.25.47-.49.7-.74-1.6-1.85-2.91-4.14-4.87-5.47-5.82-3.98-10.17-9.3-14.36-14.79-.97-1.27-1.53-2.86-2.28-4.3.26-.15.52-.31.79-.46l1.47 1.74c3.86 4.63 7.7 9.27 11.58 13.89.55.65 1.34 1.74 1.86 1.66 2.81-.43 3.29 1.87 4.37 3.42 2.21 3.18 4.84 5.53 9.26 5.34-1.54-3.57-5.16-5.54-6.2-9.77 6.74 6.9 16.95 9.69 23.68 8.04-3.67-3.31-3.67-3.31-8.82-3.48 1.27-.92 2.42-1.74 2.91-2.09 9.18 1.7 17.53-.23 25.91-1.34V315c-.67 2.38-3.21 1.04-4.47 2.24.25.4.49.79 1.23 1.99-6.1-2.85-11.44-.96-17.08-.55 2.86 2.97 4.25 3.82 6.72 3.66 5.01-.34 10.04-.62 15.02-1.28 10.38-1.37 20.71-3.21 31.12-4.36 4.73-.52 9.42-1.55 13.4-3.59a99.02 99.02 0 0018.2-12.15c10.28-8.66 18.54-19.22 25.87-30.45 1.94-2.97 3.54-6.28 4.62-9.65 2.19-6.8 4.34-13.67 5.71-20.66 1.38-7.03 2.29-14.23 2.53-21.39.34-10.19-.95-20.32-3.05-30.32-.2-.97-.8-1.86-1.21-2.79-.25.06-.51.13-.76.19l-1.26 10.14c2.02 1.61.55 3.36.22 5.08-.13.66-.17 1.33-.37 2.91 1.35-2.15 2.16-3.42 2.96-4.69.31 1.08.02 1.82-.34 2.53-2.98 5.87-5.59 11.8-5.86 18.57-.11 2.87-1.06 5.7-1.63 8.55l1 .3c1.18-2.83 2.64-5.57 3.45-8.5.83-2.99 1.02-6.16 1.49-9.25.32.04.64.07.96.11-.09 1.66.11 3.4-.31 4.97-2.47 9.22-5.08 18.4-7.59 27.42.78-.58 1.83-1.37 2.88-2.16l-.07-.08c-.71 1.2-1.34 2.44-2.13 3.58-1.79 2.59-3.63 5.03-3.97 8.41-.27 2.69-1.37 5.29-2.11 7.94l-.69-.18c.35-1.7.7-3.39 1.04-5.09-1.17.93-1.69 2.07-2.33 3.16-1.77 3.03-3.59 6.04-5.39 9.06 1.52-3.46 3.04-6.91 4.54-10.37.31-.72.89-1.63-.63-1.72 1.42-2.55 2.6-5.27 4.32-7.6 2.19-2.97 2.08-6.2 1.77-9.68-1.48 1.48-2.97 2.96-4.45 4.44.58-1.13.97-2.44 1.79-3.36 2.66-2.95 4.47-6.29 5.02-10.23.56-4.02 1.01-8.05 1.62-12.95-.96 1.47-1.43 2.27-1.98 3.02-1.66 2.24-3.35 4.45-5.04 6.67.26-1.24.31-2.58.82-3.71 1.48-3.27 3.15-6.44 4.72-9.67 2.9-5.98 5.14-12.05 4.88-18.94-.12-3.21.74-6.57 1.76-9.67.59-1.79.75-3.21.01-4.85-.41-.92-.73-1.88-1.09-2.82-4.99-13.08-11.64-25.02-23-33.77-1.86-1.43-3.24-3.15-3.74-5.6-.23-1.12-1.1-2.28-1.99-3.06-8.1-7.13-16.65-13.56-26.74-17.73-7.03-2.91-14.07-5.95-21.57-7.16-7.07-1.14-14.3-1.26-21.46-1.82-.57-.04-1.2-.18-1.71-.01-3.7 1.25-7.51.28-11.22.67-3.81.4-7.84.99-11.2 2.65-2 .98-3.86 2.09-6.07 2.5 1.15-1.25 2.29-2.5 3.44-3.74-2.86.1-5.38.64-7.71 1.63-5.53 2.37-11 4.89-16.45 7.45-4.41 2.08-8.56 4.91-13.16 6.33-5.93 1.82-10.23 5.8-14.58 9.59-7.92 6.91-14.63 15.05-20.89 23.45-3.14 4.21-5.52 9.08-7.68 13.9-1.38 3.08-2.68 6.44-2.09 10.18 1.35-1.15 2.86-2.38 3.17-3.86.5-2.44 1.87-4.18 3.36-5.89 3.02-3.47 6.18-6.82 9.24-10.26 1.33-1.49 2.54-3.09 3.76-4.68.11-.14-.06-.51-.11-.78-.7.07-1.4.14-2.55.26.57-.94.74-1.55 1.15-1.86 4.24-3.2 7.14-7.35 9.05-12.27.46-1.19 1.22-2.29 2.01-3.31.46-.58 1.25-.9 1.89-1.34l.39.33c-1.39 2.45-2.77 4.9-4.16 7.35.26.21.51.43.77.64 6.74-10 15.56-17.19 27.13-20.64-3.48 3.08-6.97 6.16-10.45 9.24h.11c-5.29 1.8-14.66 10.22-15.55 13.92.42-.04.84-.04 1.26-.05zm56.44 182.98c3.15.96 6.1 1.99 9.11 2.76 9.13 2.35 18.41.88 27.39-.27 14.52-1.85 28.62-5.72 41.78-12.71 13.73-7.3 25.43-16.66 33.93-29.8 4.14-6.39 8.39-12.71 12.51-19.12 2-3.12 4.22-6.19 5.6-9.59 1.87-4.63 2.88-9.6 4.54-14.32 1.91-5.4 2.28-10.95 2.01-16.55-.16-3.35-.78-6.68-1.2-10.02-.68.33-.81.58-.85.83-.16 1.14-.32 2.28-.42 3.43-1.69 18.02-6.99 34.83-16.7 50.19-11.61 18.36-26.62 33.09-46.12 42.89-6.26 3.15-12.72 5.99-19.85 6.86-2.4.29-4.87.84-7.08 1.8-6.72 2.95-13.86 3.84-21.02 4.05-7.72.23-15.47-.25-23.63-.43zm14.68-8.77c0 .35-.01.7-.01 1.05 3.04.62 6.16 2.01 9.1 1.71 8.53-.88 17.02-2.3 25.48-3.79 3.19-.56 6.25-1.9 9.37-2.88l-.21-.67c-14.57 1.52-29.15 3.05-43.73 4.58zm-25.97-2.17c4.98 4.73 19.82 7.19 26.05 4.12-3.3-.68-6.05-1.68-8.82-1.73-5.85-.1-11.62-.38-17.23-2.39zm-71.7-128.44c.26.14.53.28.79.42 2.31-6.82 4.62-13.63 6.93-20.45-1.72 1.14-3.6 2.45-4.09 4.16-1.5 5.2-2.46 10.56-3.63 15.87zm200.42 40.64c-.27-.14-.54-.29-.82-.43l-1.05 3.69c.21.06.41.12.62.19.42-1.16.83-2.31 1.25-3.45zm-178.49-82.54c-.33-.16-.65-.31-.98-.47-.64 1.28-1.29 2.55-1.93 3.83.3.16.61.31.91.47.67-1.28 1.33-2.55 2-3.83z" class="st0"/>
  <path d="M186.7 135.59h-.11c.21.52.42 1.05.63 1.56 1.53-.35 2.95-.68 4.81-1.11-.47 1.55-.72 2.37-.93 3.07 4.08-2.1 8.02-4.12 11.96-6.17 1.01-.53 2.74-1 2.85-1.7.52-3.27 3.17-2.62 5.15-3.23 2.73-.84 5.45-1.73 8.18-2.57 13.53-4.17 27.1-7.53 41.19-2.35 4.83 1.78 10.03 2.72 14.63 4.93 14.86 7.13 27.76 17.02 38.87 29.22l-.11-.11c2.87 3.57 6.4 6.8 8.5 10.78 6.42 12.14 13.3 24.23 13.23 38.64-.01 1.81.39 3.39 2.22 4.23l-.01-.01c-1.78 1.02-1.64 2.82-1.78 4.48-.37 4.34-.75 8.69-.99 13.04-.05.94.47 1.92.73 2.88-1.58 4.91-3.17 9.82-4.74 14.74-.39 1.22-.87 2.43-1.04 3.68-.1.7.35 1.48.55 2.22-1.5 2.09-3.08 4.13-4.47 6.29-1.7 2.65-3.14 5.48-4.86 8.12-6.2 9.46-14.63 16.93-22.49 24.9-4.54 4.61-9.36 8.7-15.8 10.62-4.94 1.47-9.63 3.8-14.55 5.35-7.53 2.37-15.16 4.54-23.18 4.37-4.44-.09-8.89-.28-13.31-.68-8.01-.71-15.98-1.58-23.39-5.18-5.82-2.83-11.35-6.12-16.41-10.1-3.83-3.01-7.8-6.11-10.76-9.91-8.4-10.75-16.94-21.44-23.56-33.46-.39-.72-1.02-1.3-1.53-1.95 1.02 6.27 2.37 12.29 4.03 18.23 1.65 5.92 3.61 11.76 5.43 17.64-1.54-2.17-2.58-4.52-3.46-6.94-.65-1.79-1.73-2.45-3.8-1.86.87 2.18 1.7 4.29 2.74 6.91-2.62-.91-2.92-2.75-3.24-4.29-.77-3.67-2.47-6.6-5.33-9.07-2.23-1.93-3.75-4.51-4.29-7.59 2.61 2.18 3.37 6.05 7.19 7.83-1.95-10.2-2.38-20.15-6.6-29.33-1.58-3.44-1.05-4.19 2.67-5.57-.46-2.68-.89-5.37-1.39-8.05-1.29-6.89-.36-13.74.51-20.55.42-3.24 1.72-6.36 2.66-9.52 2.83-9.52 5.91-18.9 11.3-27.41 3.62-5.72 6.75-11.76 10.19-17.82-.82.29-1.6.57-2.38.85 1.56-1.13 3.09-2.3 4.68-3.39.91-.62 2.03-.97 2.85-1.68 1.6-1.38 4.21-2.87 4.28-4.42.11-2.21 1.74-3.12 2.89-5.29-2.3 1.23-3.87 2.07-5.44 2.92 1.66-2.06 3.35-4.13 5.03-6.19zm127.78 53.25c.51.13 1.03.26 1.96.49-.24-1.23-.44-2.28-.64-3.32-.28.04-.55.07-.83.11l-.36 2.88c-1.16 2.31-.18 7.28 2.23 9.83-.07-1.78-.31-3.54-.75-5.24-.42-1.61-1.07-3.17-1.61-4.75zm-31.55-41.08c.07-1.11.13-2.21.22-3.67-2.35-.68-4.68-1.36-7.02-2.03-.14.33-.29.65-.43.98 2.43 1.57 4.4 3.79 7.35 4.62 1.3 1.15 2.6 2.3 3.9 3.46l.59-.8c-1.22-1.34-2.22-3.01-4.61-2.56zm28.85 35.53c.63.48 1.25.97 1.96 1.52.7-1.91 1.32-3.57 1.94-5.24-1.8-2.05-3.47-3.99-5.2-5.89-.25-.28-.75-.33-1.44-.6-.03 1.82-1.53 3.41.21 5.06-1.63 4.24-1.22 8.93.97 9.78.66-.36 1.39-.77 2.1-1.15-.21-1.3-.37-2.39-.54-3.48zm-157.62 69.55c.99 6.37 1.96 12.73 2.97 19.1.28 1.79 1.23 3.1 3.39 3.97-.08-.87-.06-1.42-.19-1.92-1.71-6.51-3.42-13.02-5.18-19.52-.16-.57-.73-1.04-1.09-1.56-.39-3.3-.79-6.6-1.18-9.9-.34.06-.68.11-1.02.17.24 3.32 1.05 6.53 2.3 9.66zm173.35-40.63c-3.12 5.34-3.71 12.27-1.31 16.45.44-3.53.85-6.91 1.27-10.28.33 1.12.66 2.24.97 3.31.68.08 1.34.17 2.11.26.82-6.5.96-12.88-1.3-19.28-.58 3.17-1.16 6.36-1.74 9.54zm-.54-8.38c2.14-4.78 2.44-9.45-.74-13.95-1.23 1.52-.86 3.11-.51 4.84.61 3.06.91 6.18 1.35 9.27-1.42-.54-1.78-1.57-1.77-3.06.01-6.15-3.9-10.8-6.35-16.01-.09-.19-.43-.27-.71-.43.1 1.48.62 3.04.23 4.33-1.46 4.8.84 8.64 2.77 12.61 2.39.49 1.95 2.43 2.13 4.08.09.81.37 1.6.73 3.07.51-1.53.82-2.45 1.36-4.06.06 1.82.1 2.83.13 3.85.1-.01.21-.01.31-.02.36-1.5.73-3 1.07-4.52zm-46.93-53.73l-.1-.14c-.82-2.54-2.8-3.97-5.04-5.05-4.26-2.06-8.57-4.01-13.62-6.36 6.26 1.05 11.74 1.97 17.85 2.99-3.24-3.38-6.87-3.95-10.58-4.39-3.94-.48-8.27-.06-11.55-2.59-4.11-3.17-8.55-2.48-13.07-2.22-3.14.18-6.28.33-9.42.49l.09.13c.71-.41 1.42-.82 2.13-1.22-1.49-1.95-3.32-2.08-5.58-1.36-2.18.69-4.53.83-6.75 1.4-10.02 2.58-19.91 5.45-26.98 12.67-1.18-.04-2.16-.39-2.59-.04-2.11 1.7-4.18 3.49-6.07 5.44-1.49 1.54-2.71 3.35-4.03 5.05-6.29 8.04-12.72 16.01-16.33 25.72-1.94 5.23-3.76 10.54-5.12 15.95-1.93 7.66-3.47 15.41-4.96 23.17-.39 2.05-.43 4.4.15 6.37 1.92 6.46 3.88 12.94 6.44 19.16 2.94 7.17 6.06 14.34 9.94 21.03 6.12 10.54 15.04 18.77 24.13 26.74.81.71 1.89 1.13 3.22 1.9.12-1.52.21-2.64.29-3.75l-.1.09c.55 1.07 1.1 2.14 1.61 3.12 2.06.65 4.06 1.29 6.06 1.92l-.11-.11c1.77.85 3.52 1.75 5.32 2.54 4.78 2.1 10.52.99 14.91 4.43.2.15.55.11.84.15 4.42.51 8.82 1.29 13.25 1.47 5.76.24 11.36-.62 16.56-3.49 1.96-1.08 4.19-1.65 6.3-2.46-.12.5-.24 1-.45 1.83 2.2-.62 4.23-1.6 6.3-1.68 4.31-.16 7.79-2.2 10.79-4.76 2.96-2.52 7-4.27 8.03-8.73-.5-.06-.92-.11-1.34-.17 1.09-.88 2.07-1.98 3.28-2.61 7.86-4.05 13.97-10.02 19.06-17.1 3.49-4.86 6.83-9.82 10.22-14.71-1.84-.85-3.11-1.44-4.75-2.21-3.42 6.67-5.45 14.13-10.43 19.99 2.34-5.67 4.67-11.33 7.01-17-.19-.07-.37-.14-.56-.21-3.3 4.2-6.61 8.41-10.45 13.29.9-3.72.43-6.98 3.46-8.85-.01.54-.02 1.08-.03 1.79 5.32-5.47 7.64-10.92 7.34-16.83-.83 1.4-1.74 2.92-2.65 4.44.42-1.51.56-3.16 1.3-4.5 4.03-7.32 5.9-15.2 6.47-23.46.08-1.21.43-2.39.66-3.59.24.03.48.07.72.1-.4 3.23-.8 6.46-1.25 10.11 5.37-5.05 4.53-15.52-1.09-23.03-1.4 3.23 2.48 6.6-.03 10.2-2.62-5.95-5.05-11.5-7.47-17-1.07.4-1.61.6-2.12.77.49-1.5 1.57-3.05-1.07-5.09.48 2.24.79 3.65 1.09 5.06-.42 1.46-.84 2.91-1.25 4.33-2.49-2.31 2.11-6.77-2.73-8.32 1.6-5.4 1.32-6.4-3.06-10.51-.76 2.17-1.51 4.29-2.26 6.42-.11-3.37 1.17-6.8.43-9.72-.73-2.89-3.03-5.65-5.59-7.8-1.96 4.53-1.51 9.51-3.96 13.59.48-4.14 1.3-8.2 1.9-12.28.65-4.46-1.17-7.75-5.52-10.35l-.94 2.91c1.31-4.17-.83-7.03-3.33-9.8-.98-1.07-1.89-2.18-2.82-3.27zm31.9 21.7c-2.45-11.69-12.46-15.55-20.8-21.11 6.9 7.01 13.8 14 20.8 21.11zm-16.16-10.94c-.8 5.49 3.38 8.46 5.9 12.39.48-2.79.69-5.49.22-8.07-.55-3.04-4.31-2.34-6.12-4.32zm27.11 63.34c-4.59 6.4-5.16 14.05-6.95 21.35 1.28-1.72 2.13-3.62 2.77-5.58.75-2.3.78-5.05 2.1-6.9 1.99-2.79 1.84-5.81 2.08-8.87zm1.42 21.6c4.06-6.09 6.19-14.89 5.24-20.1-4.13 5.97-2.55 13.57-5.24 20.1zm-17.68-64.19c-.05-3.54-.71-6.54.05-9.14.79-2.7-.63-3.12-2.42-4.34-.83 4.83-2.78 9.4 2.37 13.48zm-12.79-22.93c-1.53-1.24-3.29-2.68-5.29-4.31-1.61 4.48 1.68 5.96 3.15 8.04l2.14-3.73zm24.73 15.42c-1.15 6.57-.69 7.39 3.89 7.66-.14-2.95-1.15-5.42-3.89-7.66zm1.57 72.98c.49.2.99.4 1.48.61 1.23-3.24 2.47-6.49 4-10.52-5.9 2.15-3.98 6.78-5.48 9.91zm-64.89-116.1c-7.45-2.68-13.25-2.95-16.83-1.2 5.76.41 11.3.8 16.83 1.2zm61.06 45.55c1.88-2.86 1.27-4.58-.45-6.21-1.34-1.27-2.59-2.63-3.88-3.95-.2.17-.41.34-.61.52 1.53 2.99 3.07 5.99 4.94 9.64zm-22.47-19.66c.25-.3.5-.6.74-.91-1.67-1.4-3.35-2.8-5.02-4.2-.27.33-.54.66-.81.98 1.7 1.39 3.39 2.76 5.09 4.13zm-7.31-1.41c1.03-3.54-1.6-3.81-3.7-4.56 1.24 1.52 2.47 3.04 3.7 4.56zm9.97 2.48c-.23.22-.47.44-.7.67l2.59 2.05c.15-.19.3-.39.46-.58-.79-.71-1.57-1.43-2.35-2.14z" class="st0"/>
  <path d="M304.86 221.43c-1.86 2.62-3.5 5.06-5.27 7.39-7.04 9.27-14.49 18.18-22.84 26.35-9.85 9.65-19.48 19.53-29.21 29.3-2.82 2.83-5.44 5.93-8.6 8.34-1.79 1.37-4.44 1.7-6.77 2.23-.6.14-1.66-.59-2.11-1.21-3.06-4.16-6.36-8.21-8.93-12.66-10-17.32-19.74-34.78-29.6-52.17-2.41-4.25-5-8.41-7.4-12.67-1.36-2.41-.58-7.11 1.23-9.11 6.74-7.45 13.44-14.94 20.18-22.39 13.13-14.51 26.26-29.02 39.41-43.51 3.13-3.45 4.28-3.34 6.83.51 8.33 12.58 16.6 25.19 25 37.72 3.2 4.77 6.72 9.33 10.03 14.04 4.05 5.77 8.11 11.53 11.98 17.42 2.25 3.42 4.14 7.08 6.07 10.42zm-30.97 26.26c.49-.28 1.08-.46 1.45-.86 5.45-5.71 10.88-11.44 16.29-17.19.76-.81 1.36-1.76 2.53-3.3-2.19 0-3.71-.22-5.15.04-6.77 1.23-13.52 2.56-20.26 3.9-14.48 2.89-28.95 5.79-43.41 8.78-1.42.29-2.72 1.19-4.13 1.82 1.3 4.34 2.36 8.22 3.63 12.02 1.32 3.93 2.97 7.75 4.24 11.7 1.23 3.82 1.92 7.82 3.32 11.57 1.43 3.81 1.29 8.19 3.97 12 .95-1.06 2.24-1.9 2.13-2.49-.5-2.68 1.57-3.79 2.9-5.29 1.71-1.93 3.63-3.68 5.4-5.56.57-.6 1.52-1.67 1.34-2.03-1.08-2.09.76-2.54 1.74-3.29 4.45-3.41 8.72-6.95 12.35-11.29 2.37-2.83 5.25-5.23 7.9-7.83 1.26-.89 2.51-1.79 3.76-2.7zm-25.7-84.34c-1.2-1.29-2.39-2.57-3.92-4.22-8.92 24.96-17.87 49.4-25.9 74.38 3.91-.28 7.58-1.44 10.2-2.66 2.38-1.1 4.69-2.9 7.65-1.33.62.33 1.67-.1 2.5-.26 8.45-1.58 16.9-3.19 25.35-4.78 8.45-1.59 16.89-3.17 25.34-4.73 1.91-.35 3.83-.63 6.59-1.07-2.69-3.85-4.94-7.1-7.2-10.34-3.78-5.39-7.24-11.04-11.41-16.1-8.91-10.82-16.16-22.82-24.73-33.87-.22-.29-.23-.78-.26-1.18-.21-3.24-2.54-5.07-4.67-7.62-.7 1.73-1.23 3.01-1.72 4.31-.49 1.3-.95 2.61-1.41 3.89 2.55 1.23 3.34 3.24 3.59 5.58zm-11.82-1.12c-.31-.18-.61-.36-.92-.55-2.26 2.55-5.18 4.79-6.57 7.75-1.03 2.19-2.05 4.34-3.5 6.22-5.62 7.28-11.34 14.48-16.44 20.97-.54 2.77-1.32 4.78-1.2 6.73.14 2.16 1.11 4.26 1.71 6.39l-.81.27c-1.23-2.93-2.45-5.85-3.88-9.27-3.06 3.35-5.72 6.26-8.38 9.17-.24-.21-.48-.41-.72-.62 9.49-11.63 20.22-22.26 29.26-35.19-5.78 3.47-29.22 27.78-34.24 35.39 6.29 6.63 12.68 13.37 19.23 20.28 1.13-3.2 2.42-5.71 2.83-8.35.39-2.54-.13-5.22-.26-8.03.67.9 1.16 1.56 1.87 2.51 2.01-7.92 3.88-15.32 5.75-22.72-3.97 2.63-5.62 7.11-9.59 9.38 1.19-2.12 2.55-4.1 3.98-6.02 1.46-1.96 3.09-3.8 4.49-5.8 2.68-3.83 2.65-3.88 4.71-4.35-.8 1.56-2.01 3.1-2.39 4.81-1.68 7.69-3.13 15.43-4.64 23.16-.57 2.93-.26 6.47-1.84 8.66-1.8 2.49-2.11 5.39-3.99 7.68.89.71 1.53 1.21 2.67 2.12 2.31-7.34 4.57-14.25 6.66-21.21 2.31-7.69 4.26-15.5 6.77-23.13 2.94-8.81 6.29-17.5 9.44-26.25zm-37.34 66.75c6.85 17.19 17.09 32.36 26.16 48.29.38-.36.58-.49.56-.54-3.73-10.41-7.44-20.83-11.26-31.21-.36-.97-1.29-1.78-2.1-2.52-1.45-1.33-3.15-2.4-4.47-3.83-3.05-3.32-5.94-6.79-8.89-10.19z" class="st0"/>
  <path d="M248.06 163.18c1.71.13 3.42.26 5.57.43.74 3.64 3.56 6.31 6.23 9.31 3.59 4.03 6.17 8.95 9.34 13.37 4.93 6.88 9.95 13.68 15.03 20.45.62.83 1.82 1.22 2.76 1.81-.07 2.43 1.64 3.81 3.08 5.39.7.77 1.94 1.54.7 2.92-6.45-5.58-12.89-11.16-19.37-16.76-1.76 1.56-1.14 2.72-.18 3.87 2.45 2.96 4.9 5.91 7.35 8.86l-.78.78c-1.01-.86-2.17-1.59-3-2.6-1.54-1.89-2.85-3.97-4.34-5.9-.99-1.29-1.61-2.75-3.99-2.52-1.24.12-2.9-1.65-3.99-2.91-1.3-1.51-2.19-3.37-3.33-5.18-2.45 1.55-4.18 2.64-5.9 3.73l-.41-.59c1.44-1.27 2.88-2.55 4.39-3.89-1.23-1.99-2.4-3.88-3.57-5.76 1.66 1.54 3.32 3.09 4.98 4.63.23-.23.46-.46.69-.68-2.01-2.55-3.62-5.43-7.04-7.11.35.91.69 1.82 1.04 2.74-1.14-.4-1.84.02-2.44 1.06-.99 1.7-2.13 3.31-3.81 4.68.29-.86.48-1.77.89-2.57.73-1.39 1.61-2.7 2.42-4.05 1.28-2.13 2.25-4.28.39-6.81 1.3.97 2.38 1.55 3.24 2.96 1.92 3.15 4.11 6.62 7.1 8.52 5.42 3.44 10.06 7.98 15.88 10.92-2.4-3.92-4.55-7.83-8.31-10.83-2.72-2.18-4.58-5.47-6.72-8.34-1.88-2.52-3.63-5.14-5.43-7.72l1.14-.12c-.54-1.88-1.12-3.73-3.51-3.97-1.39-.36-2.81-1.79-4.26.09.31-1.01.62-2.01 1.03-3.35-.76.17-1.31.13-1.43.34-3.2 5.56-6.35 11.15-9.53 16.72-.34.6-.79 1.14-1.86 1.36 1.27-2.46 2.46-4.97 3.84-7.38 1.63-2.85 3.27-5.71 5.17-8.38 1.72-2.44 1.99-4.84.94-7.52zm17.65 37.74c-1-3.63-2.44-5.25-6.09-6.58 1.85 1.99 3.7 3.99 6.09 6.58zm-.02 46.96c-2.42 3-4.73 6.09-7.28 8.98-2.56 2.89-5.32 5.6-8.07 8.31-.54.54-1.42.74-3.1 1.57.88-1.78 1.31-2.66 1.63-3.31-1.47-1.82-2.88-3.57-4.21-5.22 2.35.2 4.2 1.18 6.99 3.97 3.67-3.97 7.33-7.92 10.99-11.87-.16-.25-.33-.49-.49-.74-1.24.7-2.47 1.39-4.03 2.27-.2-.63-.38-1.18-.58-1.81l-22.57 1.62c-.02-.25-.04-.5-.05-.75 6.7-.67 13.39-1.41 20.09-2 3.32-.29 6.57-.53 8.99-3.29.29-.33 1.09-.2 1.66-.29-.36.86-2.41 1.75.03 2.56z" class="st0"/>
</svg>
