<svg xmlns="http://www.w3.org/2000/svg" id="Layer_1" x="0" y="0" aria-hidden="true" version="1.1" viewBox="0 0 500 500" xml:space="preserve" fill="currentColor">
  <style>
    .st0{fill:#ef4723}
  </style>
  <path d="M128.48 247.01c.34-6.39.61-12.79 1.06-19.18.15-2.1.94-4.14 1.17-6.24.41-3.79 1.95-7.42 1.17-11.4-.65-3.35 1.8-5.95 2.9-8.85.95-2.5 2.27-4.93 3.8-7.13 5.33-7.64 10.68-15.28 16.31-22.7 4.71-6.21 10.91-10.98 16.62-16.24 7.41-6.82 16.25-11.38 24.79-16.32 8.36-4.84 17.83-7.17 27.32-8.89 9.93-1.8 19.99-2.43 30.04-1.61 15.73 1.27 30.83 5 44.98 12.27 10.06 5.17 18.99 11.85 27.32 19.43 2.22 2.02 4.76 3.69 7.21 5.45 5.78 4.17 10.55 9.06 13.84 15.59 5.37 10.64 11.97 20.66 16.34 31.79 1.97 5.03 3.06 10.41 4.41 15.66.75 2.92 1.42 5.89 1.74 8.87.66 6.1 1.18 12.22 1.51 18.35.25 4.55 1.2 9.16-.4 13.67 1.74 5.26-1.33 9.75-2.52 14.48-1.22 4.85-3.2 9.51-4.96 14.21-1.16 3.09-2.74 6.04-3.75 9.18-3.06 9.5-9.37 16.75-16.21 23.55-5.59 5.56-11.76 10.53-17.41 16.02-3.18 3.09-6.98 5.06-10.8 7-4.21 2.14-8.62 3.92-13.01 5.72-5.97 2.45-11.92 4.94-18 7.09-10.09 3.57-20.52 5.23-31.26 5.1-11.49-.14-22.39-2.8-32.98-7.08-5.99-2.42-12.1-4.55-18.1-6.96-8.36-3.36-15.48-8.69-22.21-14.54-5.53-4.81-10.94-9.76-16.47-14.57-6.38-5.56-10.98-12.56-15.39-19.61-6.26-10.01-11.31-20.63-14.6-32.04-2.83-9.82-3.93-19.86-4.46-30.07zm35.32-59.14c-.93 1.38-1.84 2.77-2.8 4.13-.94 1.32-2.38 2.39-2.2 4.31l5.37-4.23c-.37.61-.61 1.38-1.13 1.82-4.36 3.71-6.17 9.5-10.71 13.06-.4.31-.56.99-.74 1.53-.85 2.43-1.92 4.82-2.46 7.32-1.65 7.7-3.21 15.43-4.56 23.19-.43 2.47-.24 5.08-.1 7.61.12 2 .67 3.96.91 5.96.41 3.36.73 6.73 1.09 10.09-1.03-2.63-1.46-5.31-2-7.97s-1.59-5.28-1.73-7.95c-.37-7.3-.36-14.62-.54-21.94-.02-.84-.29-1.68-.5-2.85-3.66 4.1-5.62 8.27-4.93 13.36.51 3.79 1.14 7.57 1.6 11.36.35 2.91.52 5.84.77 8.76-.31.04-.62.08-.94.13-.58-2.97-1.15-5.95-1.93-9.95-.87 1.72-1.61 2.6-1.72 3.56a16.6 16.6 0 00.15 4.72c1.35 7.78 2.58 15.59 4.31 23.29 1.12 5 2.46 10.08 6.05 14.1l-.08-.1c.81 1.68 1.62 3.35 2.43 5.03 1.4 2.91 4.66 5.04 3.63 9-.13.5.66 1.23 1.01 1.85 4.18 7.47 9.62 13.92 15.88 19.73 7.56 7.02 17.54 10.92 24.28 18.98.08.1.26.12.39.16 4.62 1.53 9.26 3.03 13.87 4.62 2.42.84 4.8 1.81 7.18 2.76 2.26.9 4.5 1.83 6.74 2.75.2-.27.4-.55.6-.82-1.82-1.64-3.4-3.75-5.51-4.83-6.27-3.23-11.23-7.98-16.06-12.91-1.12-1.14-1.87-2.65-2.79-3.98.24-.18.48-.37.72-.55.56.52 1.12 1.03 1.67 1.55 4.4 4.12 8.78 8.26 13.19 12.36.62.58 1.54 1.56 2.05 1.42 2.73-.77 3.49 1.45 4.75 2.86 2.58 2.88 5.49 4.89 9.85 4.16-1.97-3.35-5.81-4.86-7.35-8.93 7.54 6.02 18.01 7.53 24.49 5.07-4.05-2.83-4.05-2.83-9.18-2.37 1.15-1.07 2.19-2.02 2.63-2.44 9.32.56 17.37-2.38 25.55-4.51v-.01c-.37 2.45-3.06 1.42-4.16 2.77.29.36.58.73 1.47 1.83-6.41-2.07-11.48.46-17.02 1.55 3.2 2.6 4.68 3.27 7.12 2.8 4.93-.95 9.89-1.85 14.75-3.11 10.14-2.63 20.16-5.73 30.34-8.15 4.63-1.1 9.16-2.69 12.85-5.21 6-4.09 11.63-8.97 16.57-14.3 9.14-9.85 16.04-21.35 21.93-33.4 1.56-3.18 2.74-6.67 3.4-10.15 1.34-7.02 2.63-14.1 3.13-21.21.51-7.15.53-14.4-.11-21.54-.91-10.16-3.44-20.05-6.75-29.71-.32-.94-1.02-1.75-1.55-2.62-.24.09-.49.19-.73.28v10.22c2.2 1.35.96 3.27.84 5.01-.05.67-.01 1.34-.01 2.93 1.08-2.3 1.72-3.66 2.36-5.02.44 1.03.24 1.8-.03 2.55-2.23 6.19-4.1 12.4-3.53 19.15.24 2.86-.35 5.79-.56 8.68.34.06.69.11 1.03.17.82-2.95 1.93-5.85 2.38-8.86.45-3.07.25-6.24.34-9.36.32 0 .64 0 .97-.01.12 1.66.52 3.36.3 4.97-1.32 9.45-2.78 18.89-4.17 28.14.7-.67 1.64-1.58 2.59-2.49l-.08-.07c-.55 1.27-1.03 2.59-1.67 3.81-1.46 2.79-2.98 5.43-2.91 8.83.06 2.7-.71 5.42-1.12 8.13-.24-.03-.47-.06-.71-.1.14-1.73.27-3.45.41-5.18-1.04 1.06-1.43 2.26-1.92 3.42-1.39 3.23-2.82 6.44-4.24 9.65 1.08-3.62 2.17-7.23 3.23-10.85.22-.75.68-1.73-.83-1.63 1.1-2.7 1.93-5.55 3.35-8.07 1.81-3.22 1.3-6.41.57-9.83-1.29 1.65-2.58 3.3-3.88 4.95.44-1.19.66-2.54 1.36-3.55 2.28-3.26 3.66-6.79 3.72-10.77.06-4.05.01-8.11.01-13.06-.77 1.57-1.14 2.43-1.6 3.24-1.37 2.42-2.78 4.83-4.18 7.24.11-1.27-.01-2.6.36-3.78 1.06-3.42 2.34-6.78 3.5-10.17 2.15-6.29 3.62-12.59 2.52-19.39-.52-3.17-.07-6.62.56-9.81.36-1.85.35-3.28-.58-4.81-.52-.86-.95-1.78-1.42-2.67-6.56-12.37-14.63-23.4-26.97-30.69-2.02-1.19-3.6-2.73-4.4-5.1-.37-1.08-1.37-2.12-2.35-2.79-8.91-6.08-18.19-11.41-28.72-14.31-7.33-2.02-14.7-4.18-22.29-4.46-7.15-.27-14.35.51-21.52.83-.57.03-1.21-.04-1.7.2-3.52 1.7-7.42 1.2-11.05 2.04-3.74.86-7.66 1.94-10.79 4-1.86 1.22-3.57 2.55-5.72 3.23.98-1.38 1.97-2.76 2.95-4.14-2.83.45-5.26 1.3-7.45 2.57-5.2 3.03-10.32 6.2-15.41 9.42-4.12 2.6-7.89 5.93-12.29 7.89-5.66 2.54-9.44 7.01-13.29 11.31-7.01 7.83-12.67 16.73-17.86 25.84-2.6 4.56-4.36 9.69-5.91 14.74-.99 3.23-1.87 6.73-.82 10.36 1.2-1.31 2.55-2.71 2.67-4.22.2-2.48 1.35-4.38 2.61-6.26 2.57-3.82 5.3-7.52 7.91-11.31 1.13-1.65 2.14-3.38 3.16-5.1.09-.16-.13-.5-.2-.76-.69.16-1.37.32-2.49.57.45-1 .55-1.63.91-1.99 3.81-3.7 6.18-8.17 7.47-13.29.31-1.24.93-2.43 1.59-3.53.38-.63 1.13-1.05 1.71-1.56l.43.28c-1.08 2.6-2.15 5.2-3.23 7.81l.84.54c5.46-10.75 13.33-18.97 24.39-23.81-3.08 3.48-6.16 6.97-9.24 10.45l.11-.01c-5.03 2.44-13.3 11.94-13.72 15.73.44-.07.85-.13 1.27-.18zm78.49 174.66c3.25.57 6.3 1.22 9.38 1.62 9.35 1.21 18.37-1.39 27.15-3.63 14.18-3.62 27.7-9.2 39.9-17.75 12.73-8.93 23.19-19.66 30.01-33.74 3.32-6.85 6.77-13.65 10.06-20.51 1.6-3.34 3.43-6.66 4.38-10.2 1.29-4.82 1.68-9.88 2.75-14.77 1.23-5.6.92-11.14-.04-16.68-.57-3.31-1.6-6.53-2.42-9.8-.63.42-.74.67-.74.93-.02 1.15-.03 2.3 0 3.45.53 18.09-2.66 35.43-10.41 51.86-9.26 19.64-22.36 36.11-40.51 48.23-5.83 3.89-11.89 7.51-18.85 9.24-2.35.58-4.73 1.43-6.8 2.66-6.31 3.75-13.28 5.51-20.36 6.61-7.63 1.18-15.38 1.66-23.5 2.48zm13.49-10.51l.12 1.05c3.09.24 6.36 1.24 9.24.58 8.36-1.92 16.61-4.38 24.82-6.89 3.1-.95 5.97-2.65 8.94-4.01-.1-.21-.19-.43-.29-.64-14.27 3.29-28.55 6.6-42.83 9.91zm-26.04 1.04c5.53 4.08 20.55 4.7 26.36.89-3.36-.27-6.21-.92-8.96-.63-5.83.62-11.59 1.05-17.4-.26zm-86.93-118.67c.28.11.56.21.84.32 1.45-7.05 2.91-14.09 4.36-21.14-1.57 1.34-3.27 2.87-3.55 4.63-.85 5.35-1.14 10.79-1.65 16.19zm203.89 15.72c-.29-.11-.57-.22-.86-.33-.2 1.26-.39 2.53-.59 3.79.21.04.43.07.64.11.26-1.19.54-2.38.81-3.57zm-187.28-59.99c-.34-.12-.69-.23-1.03-.35-.48 1.34-.96 2.69-1.45 4.03.32.12.64.24.97.35.5-1.33 1.01-2.68 1.51-4.03z" class="st0"/>
  <path d="M176.3 172.32l-.11.01c.27.49.55.99.81 1.47 1.48-.54 2.84-1.04 4.63-1.69-.28 1.59-.42 2.44-.55 3.16 3.79-2.59 7.45-5.08 11.11-7.59.94-.65 2.6-1.33 2.62-2.04.12-3.31 2.82-2.99 4.72-3.84 2.61-1.17 5.2-2.39 7.8-3.56 12.92-5.8 25.97-10.8 40.59-7.39 5.01 1.17 10.29 1.47 15.13 3.09 15.63 5.25 29.64 13.48 42.17 24.22l-.12-.09c3.29 3.19 7.18 5.96 9.76 9.65 7.86 11.26 16.18 22.42 17.87 36.72.21 1.8.81 3.31 2.72 3.93h-.01c-1.64 1.23-1.28 3-1.22 4.66.17 4.36.32 8.71.62 13.06.06.94.7 1.85 1.08 2.77-.97 5.07-1.94 10.14-2.89 15.21-.24 1.26-.57 2.52-.58 3.78-.01.71.53 1.42.82 2.14-1.23 2.26-2.55 4.47-3.66 6.79-1.36 2.84-2.44 5.83-3.83 8.66-4.99 10.15-12.44 18.6-19.26 27.48-3.94 5.13-8.22 9.79-14.38 12.48-4.73 2.06-9.09 4.96-13.78 7.1-7.19 3.28-14.49 6.37-22.47 7.19-4.42.45-8.86.81-13.3.96-8.03.28-16.05.39-23.85-2.27-6.12-2.09-12.02-4.68-17.53-8.01-4.17-2.52-8.49-5.11-11.9-8.51-9.66-9.64-19.44-19.2-27.49-30.32-.48-.66-1.17-1.17-1.76-1.75 1.79 6.1 3.86 11.91 6.23 17.6 2.37 5.68 5.02 11.23 7.55 16.84-1.79-1.97-3.12-4.17-4.29-6.46-.86-1.7-2.01-2.22-4-1.37 1.13 2.06 2.22 4.05 3.57 6.52-2.71-.58-3.23-2.37-3.74-3.86-1.22-3.54-3.26-6.25-6.41-8.35-2.45-1.64-4.27-4.02-5.19-7.01 2.86 1.85 4.09 5.59 8.1 6.89-3.19-9.88-4.84-19.71-10.15-28.3-1.99-3.22-1.55-4.03 1.97-5.86-.78-2.6-1.54-5.22-2.37-7.82-2.12-6.68-2.05-13.59-2.01-20.46.02-3.26.93-6.52 1.47-9.78 1.64-9.79 3.55-19.49 7.85-28.59 2.89-6.13 5.25-12.5 7.92-18.94-.78.39-1.52.76-2.26 1.14 1.4-1.32 2.78-2.66 4.23-3.94.83-.73 1.89-1.21 2.62-2.01 1.41-1.57 3.82-3.37 3.71-4.91-.16-2.2 1.34-3.31 2.22-5.6-2.13 1.5-3.59 2.53-5.04 3.56 1.42-2.25 2.84-4.51 4.26-6.76zm133.35 37.15c.53.06 1.05.13 2 .24-.39-1.19-.72-2.21-1.05-3.22l-.81.21v2.91c-.86 2.43.71 7.24 3.42 9.49-.29-1.76-.74-3.47-1.39-5.11-.61-1.55-1.44-3.02-2.17-4.52zm-36.36-36.9c-.07-1.11-.14-2.21-.24-3.67-2.41-.39-4.81-.77-7.21-1.16-.1.34-.21.68-.31 1.02 2.6 1.27 4.83 3.22 7.86 3.69 1.43.98 2.86 1.97 4.3 2.95.16-.29.32-.58.49-.86-1.38-1.17-2.58-2.71-4.89-1.97zm33 31.72c.68.4 1.36.81 2.13 1.26.47-1.98.87-3.71 1.28-5.44-2.03-1.81-3.94-3.54-5.89-5.21-.28-.24-.79-.23-1.5-.42.19 1.81-1.1 3.58.83 4.99-1.1 4.4-.12 9.01 2.16 9.59.61-.44 1.28-.93 1.94-1.4-.36-1.24-.65-2.31-.95-3.37zM158.4 292.68c1.76 6.2 3.51 12.4 5.3 18.59.5 1.74 1.6 2.93 3.85 3.52-.19-.85-.23-1.4-.42-1.88-2.49-6.25-4.99-12.51-7.54-18.73-.23-.55-.85-.94-1.27-1.41-.8-3.23-1.59-6.45-2.39-9.68-.33.1-.66.19-.99.29.64 3.25 1.84 6.34 3.46 9.3zm167.05-61.62c-2.44 5.68-2.18 12.63.72 16.48v-10.36c.46 1.07.93 2.14 1.37 3.16h2.12c.01-6.55-.63-12.9-3.66-18.98-.18 3.24-.37 6.47-.55 9.7zm-1.57-8.25c1.54-5 1.26-9.68-2.45-13.76-1.03 1.66-.47 3.19.09 4.86.98 2.96 1.67 6.02 2.47 9.03-1.47-.36-1.96-1.34-2.14-2.81-.75-6.1-5.2-10.24-8.26-15.11-.11-.18-.46-.21-.76-.34.28 1.46.99 2.94.76 4.27-.86 4.94 1.89 8.47 4.3 12.18 2.44.19 2.23 2.17 2.62 3.79.19.79.56 1.54 1.1 2.96.32-1.58.51-2.53.86-4.2.29 1.8.44 2.8.6 3.8l.3-.06c.18-1.53.36-3.06.51-4.61zm-53.17-47.56l-.11-.13c-1.12-2.42-3.27-3.59-5.62-4.39-4.48-1.52-9-2.93-14.3-4.64 6.34.27 11.89.51 18.08.78-3.63-2.96-7.3-3.07-11.04-3.06-3.97.01-8.21.96-11.78-1.15-4.47-2.65-8.79-1.41-13.24-.6-3.09.57-6.19 1.1-9.29 1.65l.1.12c.66-.49 1.31-.98 1.96-1.47-1.72-1.76-3.55-1.65-5.7-.67-2.08.95-4.39 1.38-6.53 2.22-9.63 3.79-19.09 7.86-25.22 15.88-1.18.1-2.19-.12-2.58.28-1.89 1.95-3.72 3.98-5.35 6.14-1.29 1.71-2.27 3.66-3.38 5.5-5.25 8.75-10.66 17.45-13.05 27.53-1.29 5.43-2.44 10.92-3.13 16.45-.97 7.84-1.55 15.73-2.08 23.61-.14 2.09.11 4.42.93 6.3 2.7 6.17 5.44 12.36 8.74 18.22 3.8 6.75 7.78 13.49 12.45 19.65 7.37 9.71 17.23 16.78 27.23 23.58.9.61 2.01.89 3.42 1.49l-.17-3.76-.09.1c.68.99 1.36 1.99 1.98 2.9 2.13.39 4.19.78 6.25 1.16l-.12-.1c1.86.62 3.71 1.3 5.59 1.86 5 1.5 10.56-.31 15.35 2.57.21.13.56.04.85.04 4.45-.03 8.91.2 13.33-.17 5.74-.47 11.2-2.01 16-5.5 1.81-1.31 3.95-2.16 5.95-3.21l-.22 1.87c2.11-.88 4.01-2.11 6.05-2.44 4.26-.69 7.46-3.14 10.13-6.05 2.63-2.87 6.42-5.1 6.9-9.65h-1.35c.97-1.01 1.81-2.22 2.94-2.99 7.3-4.98 12.63-11.66 16.82-19.32 2.87-5.25 5.57-10.59 8.33-15.86-1.93-.62-3.26-1.05-4.99-1.61-2.58 7.04-3.67 14.69-7.89 21.12l4.86-17.73c-.19-.05-.39-.09-.58-.14-2.76 4.58-5.53 9.16-8.74 14.48.43-3.8-.43-6.98 2.35-9.21.06.54.11 1.07.19 1.78 4.61-6.08 6.24-11.77 5.22-17.6-.66 1.49-1.37 3.11-2.09 4.73.23-1.55.17-3.21.73-4.62 3.1-7.76 3.98-15.81 3.54-24.08-.06-1.21.14-2.43.21-3.64.24 0 .48.01.72.01v10.19c4.71-5.67 2.59-15.96-3.91-22.72-.99 3.38 3.27 6.24 1.22 10.12-3.33-5.59-6.42-10.79-9.5-15.96-1.01.53-1.52.79-2.01 1.02.3-1.55 1.18-3.22-1.68-4.92.76 2.17 1.23 3.53 1.71 4.89-.24 1.5-.48 2.99-.71 4.45-2.75-1.99 1.26-6.98-3.73-7.92.92-5.56.52-6.51-4.33-10.05l-1.45 6.65c-.53-3.33.32-6.89-.77-9.7-1.08-2.78-3.7-5.23-6.51-7.06-1.39 4.74-.33 9.62-2.26 13.97-.03-4.17.28-8.29.37-12.42.1-4.51-2.12-7.55-6.75-9.59-.19 1.02-.38 2.01-.57 3.01.79-4.3-1.69-6.88-4.51-9.32-1.07-.91-2.11-1.9-3.17-2.87zm34.33 17.62c-3.86-11.3-14.28-13.9-23.24-18.39 7.7 6.1 15.41 12.2 23.24 18.39zm-17.38-8.88c-.12 5.55 4.39 7.98 7.37 11.57.14-2.83.01-5.53-.77-8.03-.92-2.95-4.56-1.79-6.6-3.54zm34.68 59.54c-3.77 6.91-3.39 14.58-4.27 22.05 1.06-1.87 1.67-3.85 2.06-5.87.46-2.38.15-5.1 1.23-7.11 1.63-3.03 1.11-6 .98-9.07zm4.06 21.26c3.28-6.55 4.31-15.53 2.73-20.59-3.37 6.43-.87 13.78-2.73 20.59zm-25.43-61.54c-.48-3.5-1.51-6.41-1.08-9.07.45-2.77-1.01-3.02-2.94-4.01-.22 4.89-1.6 9.67 4.02 13.08zm-15.51-21.18c-1.67-1.05-3.59-2.25-5.78-3.63-1.04 4.64 2.4 5.71 4.11 7.6.48-1.15.91-2.17 1.67-3.97zm26.44 12.27c-.33 6.66.22 7.42 4.8 7.13-.51-2.92-1.81-5.25-4.8-7.13zm10.52 72.23l1.54.42c.83-3.37 1.65-6.74 2.68-10.93-5.59 2.87-3.11 7.22-4.22 10.51zm-78.66-107.25c-7.72-1.74-13.51-1.3-16.85.88 5.77-.3 11.31-.59 16.85-.88zm66.19 37.71c1.52-3.07.7-4.7-1.21-6.11-1.49-1.09-2.9-2.29-4.34-3.44-.18.2-.36.39-.54.59 1.89 2.78 3.79 5.57 6.09 8.96zm-24.72-16.75l.63-.99c-1.83-1.18-3.66-2.37-5.5-3.55-.23.36-.45.72-.68 1.08 1.85 1.15 3.7 2.3 5.55 3.46zm-7.42-.51c.59-3.64-2.05-3.58-4.23-4.07 1.41 1.36 2.82 2.71 4.23 4.07zm10.2 1.24c-.21.25-.41.5-.62.75.94.57 1.88 1.15 2.82 1.72.13-.21.25-.42.38-.64l-2.58-1.83z" class="st0"/>
  <path d="M304.1 242.99c-1.53 2.83-2.85 5.45-4.33 7.98-5.85 10.07-12.15 19.83-19.43 28.96-8.59 10.79-16.93 21.78-25.39 32.67-2.45 3.16-4.67 6.56-7.51 9.33-1.61 1.58-4.2 2.23-6.45 3.04-.58.21-1.72-.38-2.25-.94-3.54-3.76-7.32-7.36-10.42-11.47-12.05-15.96-23.86-32.09-35.79-48.14-2.92-3.92-5.99-7.73-8.9-11.66-1.64-2.22-1.45-6.99.1-9.19 5.77-8.22 11.5-16.48 17.28-24.7 11.24-16.02 22.5-32.02 33.77-48.02 2.68-3.81 3.84-3.84 6.84-.33 9.81 11.46 19.57 22.96 29.44 34.36 3.76 4.34 7.82 8.43 11.67 12.7 4.72 5.23 9.46 10.45 14.03 15.81 2.69 3.13 5.01 6.53 7.34 9.6zm-27.51 29.87c.45-.34 1.01-.59 1.34-1.03 4.71-6.34 9.39-12.69 14.05-19.06.65-.89 1.13-1.91 2.11-3.58-2.18.27-3.71.24-5.1.67-6.57 2.05-13.1 4.2-19.63 6.36-14.01 4.65-28.02 9.3-42 14.04-1.38.47-2.56 1.51-3.87 2.31 1.83 4.15 3.35 7.87 5.08 11.48 1.79 3.74 3.9 7.33 5.65 11.09 1.69 3.63 2.86 7.53 4.72 11.07 1.89 3.61 2.28 7.97 5.42 11.43.81-1.17 1.98-2.16 1.81-2.73-.83-2.6 1.09-3.95 2.23-5.61 1.46-2.13 3.15-4.1 4.68-6.18.49-.67 1.3-1.85 1.08-2.18-1.33-1.94.44-2.61 1.32-3.48 4-3.93 7.8-7.96 10.87-12.72 2-3.1 4.57-5.84 6.88-8.74 1.1-1.04 2.23-2.09 3.36-3.14zm-35.86-80.54c-1.35-1.13-2.69-2.26-4.41-3.71-5.79 25.86-11.67 51.23-16.56 76.99 3.85-.75 7.35-2.36 9.8-3.89 2.22-1.39 4.3-3.46 7.43-2.26.65.25 1.64-.3 2.45-.56 8.19-2.61 16.38-5.24 24.57-7.85 8.19-2.61 16.38-5.22 24.57-7.81 1.85-.59 3.73-1.09 6.41-1.87-3.14-3.49-5.78-6.43-8.42-9.37-4.41-4.88-8.54-10.07-13.3-14.58-10.17-9.64-18.84-20.67-28.7-30.57-.26-.26-.32-.75-.4-1.14-.6-3.19-3.14-4.72-5.57-6.99-.48 1.81-.85 3.14-1.18 4.49-.33 1.35-.62 2.71-.92 4.03 2.66.9 3.7 2.79 4.23 5.09zm-11.87.34c-.33-.14-.65-.29-.98-.43-1.93 2.81-4.56 5.39-5.57 8.5-.75 2.3-1.5 4.56-2.71 6.6-4.68 7.91-9.48 15.76-13.74 22.83-.19 2.81-.72 4.9-.36 6.82.4 2.12 1.62 4.09 2.49 6.13-.26.12-.51.25-.77.37-1.58-2.75-3.15-5.51-4.99-8.72-2.63 3.7-4.91 6.92-7.19 10.13l-.79-.52c7.99-12.71 17.33-24.58 24.72-38.52-5.31 4.16-25.58 31.16-29.63 39.33l21.58 17.76c.73-3.32 1.7-5.96 1.78-8.63.08-2.57-.77-5.16-1.25-7.94.78.81 1.34 1.4 2.16 2.26 1.02-8.1 1.97-15.68 2.92-23.25-3.62 3.1-4.7 7.74-8.36 10.49.92-2.25 2.02-4.38 3.21-6.46 1.21-2.12 2.6-4.15 3.74-6.3 2.19-4.13 2.16-4.18 4.14-4.9-.6 1.65-1.62 3.32-1.78 5.07-.72 7.84-1.21 15.7-1.76 23.55-.21 2.98.54 6.45-.76 8.82-1.48 2.7-1.43 5.61-3.01 8.12.97.59 1.66 1.01 2.91 1.78 1.39-7.57 2.78-14.7 4-21.87 1.35-7.92 2.32-15.91 3.88-23.78 1.81-9.14 4.07-18.17 6.12-27.24zm-28.85 70.82c8.91 16.22 20.94 30.01 31.89 44.71.33-.4.51-.55.49-.6-4.98-9.87-9.95-19.76-15.01-29.59-.47-.92-1.5-1.61-2.39-2.24-1.6-1.14-3.42-1.99-4.91-3.25-3.44-2.92-6.73-6.01-10.07-9.03z" class="st0"/>
</svg>
