<svg xmlns="http://www.w3.org/2000/svg" id="Layer_1" x="0" y="0" aria-hidden="true" version="1.1" viewBox="0 0 500 500" xml:space="preserve" fill="currentColor">
  <style>
    .st0{fill:#ef4723}
  </style>
  <path d="M199.83 238.64c1.45.25 2.07 1.79 3.01 2.74.67.68 1.3 1.4 1.93 2.13 1.85 1.33 4.13 2.57 6.94 3.62-.71-.6-1.35-1.35-1.87-2.29-.24-.44-.79-.96-1.23-.99-3.91-.25-4.76-3.81-6.75-6.12-.19-.17-.36-.35-.51-.54-1.01-.34-1.86-.38-2.28.31.23.36.48.75.76 1.14zm140.43 121.11c.01-.03.03-.06.04-.09h-.11l.07.09zM165.41 257.93l.06-.27c-.05.05-.1.11-.16.16l.1.11zm112.43-109.71c.04 0 .09 0 .13.01-.02-.03-.03-.06-.05-.09l-.08.08zm23.41 25.3c-.03-.06-.05-.12-.08-.18-.01.03-.02.05-.02.08l.1.1zm-48.85-49.47c-.04.02-.07.04-.11.06.01 0 .03.01.04.02l.07-.08zm55.53 240.74c.02.06.04.13.06.19.01-.03.03-.07.04-.1l-.1-.09zm-114.2-107.76l.06-.46c-.05.12-.09.24-.14.36l.08.1zm68.59-27.25c.02-.01.04-.02.07-.03-.05-.02-.1-.04-.14-.06l.07.09zm21.84 126.71c.01.02.03.05.04.08.01-.01.02-.01.03-.02l-.07-.06zm-89.9-61.32c-.03.01-.06.02-.1.03 0 .02.01.04.01.06l.09-.09zm-10.03-24.05c.03-.05.07-.1.1-.15-.06.03-.12.05-.18.08l.08.07z" class="st0"/>
  <path d="M360.54 315.57c-.62-4.81-1.92-9.53-2.49-14.35-1.78-15.23-5.55-29.94-10.83-44.32-3.83-10.43-10.06-19.43-16.55-28.23-4.1-5.55-9.18-10.28-15.28-13.74-1-.57-1.89-1.34-2.73-1.95 1.67-4.06 3.49-7.71 4.69-11.55 3.45-11 3.81-22.17 1.43-33.49-4.43-21.08-16.28-36.8-34.55-47.75-6.03-3.62-12.67-6.33-19.68-7.24-6.92-.89-13.9-1.32-20.98-.56-11.12 1.19-21.43 4.15-30.37 11.04-3.95 3.04-7.66 6.39-11.68 9.33-6.1 4.47-10.07 10.53-13.15 17.2-4.17 9.01-6.73 18.48-7.33 28.45-.08 1.28-.71 2.53-1.06 3.7 1.56 8.22 3.12 16.49 4.65 24.53-1.68.98-3.36 1.77-4.83 2.86-7.55 5.6-12.64 13.28-17.09 21.32-4.45 8.04-7.98 16.54-10.15 25.51-3.1 12.86-6.05 25.75-9.05 38.63-.58 2.49-1.32 4.97-1.65 7.49-1.26 9.62-2.32 19.27-3.6 28.9-.2 1.53.07 2.56 1.12 3.61 4.36 4.37 9.27 7.8 15.33 9.36 9.41 2.42 18.84 4.73 28.22 7.23 9.51 2.53 18.98 5.18 28.45 7.87 18.42 5.22 36.84 10.47 55.24 15.79 6.6 1.91 13.11 4.13 19.69 6.13 3.99 1.21 8.01 2.33 12.05 3.38 3.38.88 6.85 1.41 10.18 2.43 4.38 1.35 8.46 1 12.79-.54 13.11-4.67 24.7-12.09 36.45-19.29 1.94-1.19 2.91-2.42 2.95-4.74.13-6.71.29-13.42.78-20.11.66-9.01.17-17.97-.97-26.9zm-14.95-38.96c.58 2.45 1.15 4.89 1.73 7.34-.32.07-.64.14-.97.21-.51-2.46-1.01-4.92-1.52-7.38.26-.06.51-.11.76-.17zm-.21 19.26c-2.31-4.57-2.19-9.45-1.68-15.09 3.11 5.26 2.64 10.15 1.68 15.09zm-16.92-56.25c.38.73.76 1.45 1.13 2.18l-.51.27c-.41-.71-.82-1.42-1.22-2.13.2-.11.4-.21.6-.32zm-23.18-30.66c1.93-5.55 3.85-11.1 5.78-16.64.88 6.57-2.67 11.69-5.78 16.64zm.06-8.75c.31.1.62.2.93.29l-2.31 7.58c-.35-.16-.71-.32-1.06-.47.81-2.46 1.62-4.93 2.44-7.4zm-.18-4.9c.61-4.68 1.23-9.35 1.84-14.03 3.03 3.41 1.11 7.11.48 10.67-.22 1.24-1.1 2.35-2.32 3.36zm4.23-24.95c.03 3.18-.17 6.37-.22 9.55-.03 1.67-1.12 1.43-2.16 1.34v-.01c.25-.54.8-1.13.71-1.6-.71-3.98-1.29-8.02-3.59-11.51 1.31-.45 2.62-.91 4.35-1.51.39 1.53.9 2.64.91 3.74zm-12.44-29.68c5.18 6.78 6.53 15.35 10.27 23.11h-3.4c-1.01-5.87-3.76-10.96-7.43-15.59-1.82-.35-2.33-1.72-2.96-3.96 1.36.84 2.15 1.33 2.94 1.82.02-1.77-1.85-3.63.58-5.38zm5.23 22.66c-.39.07-.77.15-1.16.22-.87-1.17-1.78-2.34-.11-4.46.51 1.69.89 2.97 1.27 4.24zm-7.73-20.13c-1.57.63-2.22-.33-2.9-1.53-1.64-2.89-3.38-5.73-5.21-8.81 4.5 2.1 6.54 5.92 8.11 10.34zm-4.51-1.08c-.89.24-1.69.46-2.47.67-.82-1.41-1.64-2.82-2.47-4.24 2.03-.65 2.03-.65 4.94 3.57zm-37.11-24.86h-3.18c.98-1.66 1.87-1.17 3.18 0zm-64.86 52.37c1.55-4.29 2.42-8.84 4.11-13.07 1.63-4.09 3.86-7.96 5.99-11.83.75-1.37 1.9-2.56 3.03-3.67 3.75-3.69 7.67-7.19 11.32-10.97 4.44-4.6 9.9-7.44 15.85-9.28 5.24-1.63 10.64-2.78 15.99-4.01.96-.22 2.5-.2 3.03.38 2.41 2.66 5.5 1.51 7.88.98 3.96-.88 7.36-.08 10.84 1.13.11.81-2.47.76.18 2.17-3.59 0-6.61.16-9.61-.04-3.74-.25-7.45-.81-11.17-1.23-.13-.02-.3-.08-.4-.02-3.6 1.88-7.37.2-11.04.58-1.85.19-4.3-.21-4.58 2.75 2.19-1.92 4.81-2.1 7.87-1.94-.18.77-.19 1.79-.47 1.88-3.9 1.16-7.54 3.96-11.97 2.13-1.69.78-3.47 1.43-5.06 2.38-1.75 1.05-1.89 2.46-.27 3.94.68-3.22 3.31-4 5.83-4.41 3.54-.59 7.16-.7 10.97-1.03.5 2.01 1.56 3.16 3.86 2.31-.29-.51-.56-.99-.83-1.47.2-.14.41-.4.6-.39 4.75.14 9.51.3 14.26.47-.85-.25-1.69-.66-2.55-.73-5.32-.39-10.64-.7-16.04-1.62.57-.13 1.14-.38 1.71-.38 4.67-.04 9.35-.03 14.02-.08.33 0 .65-.26.97-.44-.81-.26-1.61-.69-2.43-.72-2.82-.09-5.65-.04-8.52-.75 2.37-.19 4.73-.49 7.1-.54 2.42-.06 4.85.16 7.28.19 2.55.04 5.1.01 7.76.55-.93.51-1.86 1.01-2.79 1.52 4.65-.62 7.78 1.52 10.65 5.29h-.12c1.72.69 3.54 1.62 5.39 2.85 1.78.23 3.15.4 4.52.58-.39-.32-.74-.85-1.17-.92-3.15-.48-4.32-2.59-4.6-5.52-.86-.11-1.63-.2-2.4-.3.46 1.23.91 2.46 1.39 3.74-1.27-1.56-2.48-3.06-3.51-4.33.1-.02.23-.05.35-.07-1.83-.62-3.65-1.24-6.41-2.18 2.98-.86 5.22.84 7.16-.82.3-.26 1.7.55 2.45 1.07 2.08 1.45 4.09 3.01 6.46 4.78-.98.11-1.66.19-2.33.27.02.29-.03.67.06.71 2.18.89 4.53 1.53 5.92 4.01-.62.1-.98.16-1.35.23 1.07.72 2.14 1.43 3.21 2.15-.05.22-.09.45-.14.67h-4.59c1.8 1.75 3.6 3.84 5.35 6.32.17.02.34.05.52.07l2.4 3.9c-.27-.99-.54-1.99-.82-2.99 3.37.29 5.91 4.66 7.19 12.36-1.57.57-2.2-.46-2.83-1.48.44 1.03.87 2.1 1.29 3.22.83.12 1.69.25 2.65.38.25 1.22.53 2.6.85 4.14-.62.17-1.22.32-1.79.41.15.49.31.98.46 1.48 1.66.22 1.77.72 2.22 2.99-.47.14-.89.25-1.27.33.15.56.3 1.12.44 1.69.35-.03.68-.07 1.03-.1.47 1.05 1.16 2.55 1.84 4.06.31-1.07.76-2.14.87-3.23.15-1.56.04-3.15.04-5.6.65 1.82 1.04 2.91 1.45 3.99.01.03.26.03.35-.03.1-.07.16-.21.23-.33.27 1.8.59 3.62.81 5.46.24 1.98.37 3.97-.13 6.07-.26-.95-.53-1.9-.89-3.22-.45.54-.98.88-.98 1.21-.01 4.81.31 9.64-.07 14.41-.1 1.25.04 3.73-2.55 4.28-.08.52-.17 1.05-.26 1.59.16-.1.33-.21.47-.32.27.17.54.35.81.52-1.18 5.3-2.24 10.64-3.59 15.89-.41 1.57-1.15 1.96-2.97 1.68-.13.28-.26.56-.39.83.23.21.47.43.75.69-.7.95-1.4 1.91-2.46 3.36.03-.31.06-.6.09-.89-4.17 7.45-10.38 13.99-19.59 17.08-.29.46-.58.92-.88 1.37-.67 1.47-.27 3.92-3.39 3.56 1.27-1.34 2.33-2.46 3.4-3.57-1.64.21-2.16.27-2.05-.52-.74.18-1.49.34-2.26.47-.34.27-.68.53-1.02.8l-2.03 2c-1.12.18-2.29.65-3.36.48-3.72-.57-7.4-1.37-11.44-2.15 1-.25 1.91-.47 2.78-.69-2.1-.15-3.96-.39-5.6-.69-.41.17-.83.37-1.25.61-1.5.85-3.7-.46-5.03 1.6-.31.48-1.77.21-2.71.27-1.28.08-2.57.13-4 .95 1.04.6 2.07 1.21 3.11 1.81l-.15.57c-3.29-.85-6.58-1.71-9.92-2.58 1.55-3.55 3.85 1.41 5.54-1-.49-.38-.95-.73-1.96-1.52 2.74-.92 5.12-1.72 8.36-2.8-3.17-.01-5.16-.89-6.94-2.58-.71-.68-2.25-.48-3.43-.67v-.02c.11-.88.24-1.77.37-2.75-.62.12-1.34.26-1.91.36-1.03-1.76-1.98-3.41-3-5.03-.04-.06-.66.24-.75.27.53 1.57 1.04 3.02 1.46 4.49.01.04-.82.32-1.27.48-1.74-1.55-2.75-4.04-5.55-4.17-1.04-.07-2.11-.01-3.12-.25-1.51-.36-2.98-1.32-4.36.37-.11.14-1.17-.51-1.94-.86 2.32-1.98 4.73-1.18 7.05-1.09-.47-.63-1.15-1.19-1.39-1.9-1.31-3.94-4.7-4.39-8.04-4.82-.33-.04-.8.96-1.21 1.48 1.82 1.37 3.65 2.74 5.35 4.01-1.93 1.3-4.04 1.21-6.12-1.08-1.41-1.55-3.16-2.78-5.21-4.54 1.42.09 2.4.15 3.38.22-1.3-.67-2.62-1.31-3.89-2.03-2.95-1.68-5.31-3.72-4.86-7.62.1-.89-.1-1.92-.49-2.74-2.5-5.26-3.28-10.99-4.52-16.57-.75-3.37-.75-6.93-.79-10.41-.01-2.86-1.23-5.67-.14-8.69zm106.78 54.12l-4.33 5.05c-.41-3.33 1.84-4.28 4.33-5.05zm-6.58 4.7c-.59 5.16-4.48 7.05-8.23 8.98-1.6.82-3.42 1.23-4.91 1.75.54-1.37.57-1.32 6.25-5.28 2.39-1.67 4.6-3.62 6.89-5.45zm-45.57 13.55c.57-.35 1.18-.75 1.83-.85 3.25-.5 6.19.66 9.22 1.87-3.21-1.19-4.46 2.54-7.06 2.61-2.48.07-4.97.01-7.71.01.77-2.32 2.53-2.47 4.29-2.32-.26-.61-.61-1.29-.57-1.32zm-13.68-9.45c.94.62 1.88 1.24 2.94 1.93-2.46.68-2.48.68-2.94-1.93zm-7.87 2.59c1.96.79 5.2-1.44 5.93 2.58l-3.91 2.39c.34-1.44.49-2.08.68-2.85-.89-.69-1.8-1.4-2.7-2.12zm-3.93-1.79c-1.99-1.11-3.49-3.1-5.75-5.22 4.76.88 8.63 1.59 12.49 2.3.15.33.31.69.65 1.42-2.87-.53-4.72 2.98-7.39 1.5zm-31.74-22.46c.71.88 1.35 1.68 1.99 2.47-2.34.4-.86 2.67-1.97 4.07-.33-.98-.59-1.76-.87-2.59l-3.13.84-.42-.63c1.36-1.29 2.72-2.57 4.4-4.16zm-1.68 33.94c-.12-1.09-.25-2.18-.41-3.55-.94 1.06-1.8 2.32-3.11.76-.95-1.12-2.06-2.14-2.84-3.37-.35-.54-.39-1.65-.06-2.21 2.2-3.82 4.53-7.56 6.85-11.38.51.38.73.48.85.66 3.07 4.23 3.73 8.66 1.44 13.52-.83 1.75-1.18 3.74-1.74 5.61-.34-.01-.66-.02-.98-.04zm.75 1.36c-.38 1.5-.72 2.86-1.11 4.43-1.64-.66-2.31-1.55-1.85-3.13.32-1.14.79-2.05 2.96-1.3zm-3.35.07l-1.19.06c-.15-.88-.3-1.77-.44-2.65l.92-.21c.23.94.47 1.87.71 2.8zm-6.03-21.66c.27.14.54.27.8.41-1.28 2.42-2.55 4.84-3.9 7.39-.97-.88-1.79-1.53-2.46-.11-1.32 2.79-2.81 5.51-3.9 8.39-1.09 2.89-1.73 5.95-2.68 8.9-.38 1.18-1.07 2.26-2.03 3.17 2.2-10.71 5.29-20.94 14.17-28.15zm-24.42 88.31c.29-.02.58-.04.88-.07v10.54c-.27 0-.55-.01-.82-.01-.87-3.48-.53-6.97-.06-10.46zm154.26 67.22c-1.04-.33-2.07-.65-3.11-.98.1-.31.2-.62.29-.92 1.03.35 2.06.69 3.09 1.04l-.27.86zm5.72 1.37c-1.4-.33-2.42-2.67-2.41-5.54 2.65 1.57 2.89 2.14 2.41 5.54zm8.12-8.9c-.11 0-.23-.01-.34-.01v-2.96c.11 0 .23 0 .34.01v2.96zm31.93-21.26c-3.28-.37-5.32.94-6.16 3.96-.4-.41-1.06-.8-1.09-1.24-.13-1.81-.17-3.65.01-5.45.07-.69.69-1.43 1.24-1.94.77-.7 1.71-1.21 2.35-2.51-1.25.26-2.5.52-3.73.78-.35-7.66-.15-8.02 5.81-10.01v9.6h.59v-12.69c-1.14 2.86-4.55 2.22-6.64 4.46v-25.89c-1.66 3.81-2.84 7.65-1.47 12.14.73 2.4.16 5.24-.07 7.87-.07.78-.91 1.54-1.51 2.2-1.32 1.46-2.72 2.85-3.63 4.79 1.53-1.28 3.05-2.57 4.64-3.9 2.32 4.32-1.45 6.08-2.58 9.06.9-.59 1.8-1.18 2.98-1.95.48 3.75 1.04 7.26-2.2 10.03-.68 1.33-1.35 2.67-2.03 4 .46.18 1.1.64 1.35.48.97-.61 1.81-1.41 2.87-2.28 1.52 2.77-.2 4.71-1.1 6.78 2.89-.16 1.44 1.75 1.29 3.5 2.53-1.98 4.8-3.78 7.06-5.55 1.57 1.28 1.54 2.53.24 3.82-.48.47-.96.97-1.51 1.35-7.81 5.31-15.62 10.61-23.46 15.88-.66.44-1.46.67-2.19.99-1.84-4.22-1.63-5.21 1.26-8.08 3.82-3.8 7.58-7.65 11.35-11.5.35-.35.56-.84.9-1.34-.47-.06-.71-.12-.95-.12-.12 0-.24.11-.36.17-1.43 1.39-2.85 2.78-4.28 4.17-.29.41-.58.83-1.2 1.7-1.27-5.3-1.8-10.19-2.13-15.1-.03-.51.04-1.16.33-1.55 1.11-1.52 1.96-2.8.04-4.53-.55-.5.05-2.3.15-3.5.09-1.03.24-2.05.37-3.21-.52.18-.93.23-.95.35-.58 3.45-2.22 6.34-3.97 9.35-1.97 3.41-1.46 7.48-.11 11.31.29-3.32.59-6.64.88-9.95.36-.04.71-.07 1.07-.11.43 1.34 1.04 2.64 1.25 4.01.63 4.12 1.14 8.27 1.61 12.41.09.75.02 1.79-.43 2.29-1.75 1.97-3.69 3.78-6.15 6.24-.21-1.55-.31-2.14-.36-2.74-.09-1.19.46-2.66-1.63-2.8-.27-.02-.58-1.41-.65-2.19-.11-1.2-.03-2.42-.03-3.76.23 1 .43 1.86.62 2.73.23.01.46.01.69.02.16-.54.52-1.1.45-1.61-.59-4.54-1.27-9.06-1.88-13.59-.2-1.46-.73-3.09-.31-4.38 2-6.01 1.07-12.22 1.48-18.32.49-7.33.12-14.72.12-22.19-2.36 1.41-.94 3.9-1.96 6.5 0-3.92-.02-7.09.01-10.27.01-.66.46-1.44.24-1.95-.97-2.23-2.12-4.38-3.43-7.01-.75 1-1.21 1.59-1.65 2.19-.39.53-.81 1.56-1.15 1.53-4.16-.31-3.06 2.95-3.32 5.02-.4 3.2-.37 6.45-.65 9.67-.29 3.34-.8 6.67-1.06 10.02-.21 2.7-2.2 5.54.69 8.09.48.43.11 1.82.13 2.77.09 5.54.16 11.08.29 16.62.02.99.27 1.98.41 2.97.27 0 .54-.01.81-.01.56-4.73 1.11-9.46 1.63-13.86 1.73 3.33 1.45 7.43.58 11.13-1.08 4.58-1.04 9.07-.96 13.64.04 2.08.01 4.17.01 6.25-.28.03-.56.05-.84.08l-.69-2.25c-.33 1.02-.84 2.03-.92 3.06-.22 2.89-.24 5.8-.35 9.06-3.58-1.05-5.81-4.68-9.67-3.67.75.45 1.51.9 2.58 1.54-2.06.12-3.9.74-4.9-1.54-1.96-.55-3.91-1.1-5.87-1.64 1.14.77 2.28 1.54 3.42 2.32l-.09.76c-1.24.03-2.59.39-3.7.02-3.7-1.25-7.33-2.71-10.95-4.21-1.18-.49-2.56-.88-2.73-2.65-.04-.44-1.07-.96-1.73-1.15-4.01-1.18-7.98-2.74-12.08-3.24-2.54-.31-4.61-1.3-6.91-1.98-2.57-.77-5.21-2.43-8.16-1.17-.31.13-.79-.08-1.18-.16-3.12-.65-6.22-1.6-9.38-1.92-8.13-.82-15.55-4.14-23.29-6.31-1.83-.51-3.53-1.51-5.06-2.91 2.27.59 4.53 1.19 6.8 1.78.07-.19.14-.39.2-.58l-6.72-2.96c.97-5.05 1.56-5.27 6.4-2.9v-.04c2.64.87 5.29 1.74 7.93 2.61.1-.27.2-.53.31-.8-2.57-1-5.15-2-7.72-3.01.09-.27.18-.54.27-.8 4.5 1.11 8.99 2.22 13.62 3.37v8.89c.19.01.37.03.56.04.15-1.64.31-3.27.46-4.92l5.61.95c-1.3-.64-2.65-1.18-3.87-1.95-.61-.39-.98-1.17-1.45-1.78.17-.25.35-.49.52-.74 7.4 1.7 14.79 3.41 22.43 5.17v3.33c-6.02-1.4-11.89-2.77-17.77-4.13 6.38 2.04 12.75 4.1 19.13 6.13 2.67.85 5.35 1.63 8.03 2.87-1.28.11-2.55.23-3.83.34l-.06.7c3.4.51 6.8 1.41 10.21 1.42 4.77.02 8.88 2.1 13.25 3.36.5.15 1.24.98 1.15 1.34-.15.63-.74 1.29-1.32 1.66-.52.34-1.28.32-2.54.58 3.26 3.08 7.12 1.96 10.4 2.82-1.75-.77-3.5-1.55-5.68-2.51 1.5-1.04 2.66-1.84 4.12-2.85-1.22-.67-2.2-1.21-3.4-1.88.77-1.93-.83-4.27 1.15-6.16.15-.14-.62-1.25-1.01-1.96-1.44 1.06-2.98.76-4.57.39-2.35-.55-4.72-1.02-7.09-1.52 2.46.84 4.92 1.71 7.4 2.49 1 .32 2.05.44 3.35.71l-.61 6c-3.26-1.08-5.32-3.45-8.3-5.03-2.15.88-4.78 1.15-7.63.09-3.66-1.35-7.48-2.26-11.19-3.47-2.65-.87-2.62-.96-1.67-4.35 3.37 1.09 6.86 1.27 10.23 2.96 2.37 1.19 5.67.54 8.55.71-2.26-.78-4.52-1.56-7.06-2.43-.16-1.03-.35-2.09-.35-3.11-.26-.05-.52-.11-.79-.16-.07.99-.13 2.01-.21 3.19-3.69-.88-6.86-1.64-10.46-2.5.12-.94.24-1.87.36-2.79l-1.01-.21c-.08.69-.17 1.37-.25 2.05-2.87.35-15.38-2.31-22.9-4.82-.07-.69-.15-1.39-.22-2.09-.31-.06-.61-.13-.92-.19l-.43 2.04c-4.11-.98-8.09-1.93-12.3-2.93v-1.7c-.47-.09-.94-.19-1.4-.27-1.43 1.75-2.64.5-3.8-.73-.93-.17-1.79-.33-2.59-.47l-.12.24c-1.68-.26-3.22-.5-5.71-.88-.01.01-.01.02-.01.03 1.65 1.11 2.53 1.71 4.19 2.83-2.14.14-3.4.22-4.67.3.81.3 1.59.71 2.42.86 1.54.28 2.41 1.2 2.3 2.66-.11 1.48-1.06 2.32-2.68 2.1.44.88.39 1.7-.79 1.53-1.35-.2-2.65-.74-3.84-1.89l2.07-.24c-1.08-.96-3.19-1.14-2.6-3.39-1.16 2.77-3.66 1.32-5.59 1.89-.19-.59-.35-1.08-.52-1.58-1.56 2.65-2.97-.07-4.87.22.55-1.87-.81-3.81 1.6-4.75.15-.06.34-.47.29-.52-1.82-2-.4-4.08-.17-6.13.23-2.12.52-4.23.83-6.72 2.8.53 5.34 1.02 8.48 1.62-1.82-1.31-3.08-2.21-4.33-3.11-.11-.08-.18-.2-.27-.3-1.22 1.17-2.67.99-3.19-.36-.43-1.1.21-2.59.27-3.91.36-6.99.69-13.98 1.03-20.97.04-.79.08-1.58.11-2.31l1.58-.46c-1.02-5.07-.7-10.08.36-14.95-.44-2.45-.54-5.02-.14-7.66-.17.13-.39.27-.67.43-1.11.62-1.52 2.49-2.61 4.52-1.17-4.37-.09-7.79.68-11.21-.28-.07-.57-.14-.85-.2-.47 1.4-.94 2.8-1.4 4.19-2.74-2.93-.06-5.21 1.24-7.65-.26-.12-.52-.25-.79-.37-1.88 2.89-3.77 5.78-5.65 8.66.4-.19.85-.33 1.1-.64.34-.4.45-.99.66-1.5.39.18.78.36 1.18.53.13 2.3.26 4.61.41 7.09-2.67.5-3.15 2.37-3.35 4.48-.18 1.95-.06 3.94-1.77 5.51-.5.46-.27 1.74-.32 2.65-.33 5.45.33 10.93-1.3 16.34-.95 3.17-1.01 6.61-1 10.04.49-1.54.98-3.09 1.47-4.63-.27 9.92-1.28 19.75-4.28 29.26.12 1.68 3.78.16 2.54 3.16-3.2.26-6.33-.58-9.29-1.77-2.64-1.06-3.74-3.88-5.86-6.16-3.53 3.18-7.13-.62-10.93-.14-1.67.21-2.24-1.8-2.43-3.27-.26-1.96-.22-3.97.28-6.09.19.62.39 1.25.52 1.67 2.38-3.58 2.09-8.07 1.77-11.92-.39-4.66.77-9.09.48-13.63-.48 1-.97 1.99-1.77 3.65v-6.64c-.75 3.21-1.42 6.33-2.2 9.43-1.7 6.8-1.03 13.67-.59 20.53.08 1.18.2 2.35.31 3.61-3.04.14-3.34-1.94-3.37-3.75-.05-2.82.16-5.67.51-8.47 1.22-9.61 2.44-19.23 3.86-28.81 1.05-7.06 2.12-14.13 3.73-21.07 1.06-4.59 3.09-8.96 4.69-13.43.36.08.72.17 1.08.25-.21 1.33-.33 2.69-.66 4-1.71 6.78-3.5 13.55-5.21 20.33-.26 1.02-.54 2.19-.29 3.15 1.01 3.85.88 7.72.6 11.62.31-1.23.65-2.46.91-3.71 1.41-6.74 2.23-13.57 3.25-20.36.77-5.12 2.63-10.08 4.03-15.11.5-1.8.98-3.61 1.66-5.35.64-1.64 1.51-3.2 2.29-4.79.31.12.62.23.93.35-.82 3.43-1.65 6.86-2.47 10.29 2.4-2.37 3.58-5.37 4.4-8.57-.06-.4-.24-.84-.16-1.2 2.25-9.18 4.6-18.32 11.06-25.7 1.31-1.49 1.27-1.52 3.43-1.98-2.54 3.66-5.07 7.41-7.71 11.09-1.44 2.01-2.28 4.72-2.23 7.22.02 1-.33 2.05-.68 3.02-.45 1.25-1.06 2.43-1.59 3.65 1.26-1.8 2.52-3.61 3.97-5.67.45.6 1.07 1.11 1.28 1.75a86.9 86.9 0 011.83 6.49c.22.89.43 1.9.21 2.75-1.18 4.5-2.5 8.97-3.77 13.45h-.01c1.06.31 1.39-.26 1.62-1.18.65-2.61 1.37-5.2 2.09-7.79.36-1.29.79-2.55 1.23-3.96 1.78.32 2.4 1.29 2.11 2.84-.23 1.26-.6 2.5-.4 3.92.49-1.04.99-2.08 1.48-3.11 1.39.62 2.65 1.17 4.12 1.83 0-.72.08-1.1-.01-1.15-4.63-2.35-3.78-3.89-2.11-7.73.22-.51.34-1.09.39-1.65.24-2.7 2.08-8.71 3.57-11.28.37 1.33.68 2.43.99 3.53.4 1.42.43 3.12 1.25 4.22 3.29 4.44 2.64 9.27 1.96 14.15.75-1.92 1.5-3.85 2.31-5.91.41.14.88.29 1.76.59.01-.16.01-.33.02-.49-2.24-2.65-.9-5.12-.42-7.83-.78 1.02-1.56 2.04-2.44 3.2-1.74-2.68-2.92-5.43-2.86-8.83.69.25 1.16.41 1.63.58-.21-.85-.44-1.69-.61-2.55-.26-1.36-.48-2.74-.71-4.1-1.57-5.17-3.16-10.33-4.69-15.51-.2-.67-.2-1.41-.26-2.13 2.2 3.27 4.37 6.57 6.61 9.81 2.43 3.51 4.93 6.86 8.63 9.35 3.44 2.32 6.35 5.43 9.52 8.17 7.04 6.09 15.3 9.53 24.46 10.55 6.28.7 12.63.88 18.96 1.01 5.91.12 11.39-1.88 16.81-4.02 1.49-.59 3.09-.88 4.63-1.36.86-.27 1.79-.48 2.53-.96 7.33-4.82 14.74-9.52 20.55-16.28 2.79-3.25 5.72-6.37 8.65-9.63 1.8.8 2.22 2.12 1.17 4.05-.85 1.57-1.45 3.24-2.48 4.72l4.28-2.97c1.82 1.23 2.35 2.32 2.21 3.78-.13.04-.26.09-.38.13l.16.35c.08-.13.16-.25.24-.38.75.5 1.51 1 2.43 1.61-.12-.86-.23-1.67-.4-2.89 3.93 2.55 6.04 6.12 8.27 9.54 2.18 3.33 4.16 6.8 6.71 9.91v6.56c.82-1.06 1.11-1.44 1.56-2.02.83.75 1.66 1.49 2.58 2.32.58-2.27.58-2.27-.36-5.41 1.57 1.46 1.47 1.5 2.37 3.98.98 2.69 1.01 5.84 3.73 7.77.54.38.6 1.46.86 2.22 1.46 4.29 2.2 8.76 1.48 13.19-1.12 6.94-1.24 13.36.41 18.9.42 1.41.89 2.84 1.59 4.12.34.62 1.26.93 2.35 1.67 0 .91-.14 2.4.04 3.85.17 1.4.72 2.75 1 4.14.31 1.57.51 3.15.75 4.73.72 4.88 1.62 9.75 2.11 14.66.71 7.52.34 15.03-.91 22.6zm-7.7 8.54c.67-1.92 1.12-3.2 1.56-4.46 1.61-1 3.22-1.99 4.9-3.04.24 2.45-.7 3.57-6.46 7.5zm-32.7-62.46c-.34 3.92-.68 7.84-1.05 12.17-1.42-2.41-1.09-7.62 1.05-12.17zm-1.08 18.29v11.13h-.38v-11.5c.13.13.26.25.38.37z" class="st0"/>
</svg>
