<svg xmlns="http://www.w3.org/2000/svg" id="Layer_1" x="0" y="0" aria-hidden="true" version="1.1" viewBox="0 0 500 500" xml:space="preserve" fill="currentColor">
  <style>
    .st0{fill:#ef4723}
  </style>
  <path d="M372.13 358.54c.99.52 2.91 1.28 4.55 2.44 4.04 2.85 7.17 6.65 10.18 10.51 1.64 2.1 1.6 4.27.08 6.59-1.24 1.9-2.68 3.41-4.97 2.78-2.15-.6-4.33-1.54-6.15-2.82-3.55-2.5-6.57-5.62-9.44-8.91-1.81-2.08-2.9-4.25-1.62-6.79 1.25-2.49 3.48-3.83 7.37-3.8zm10.21 17.47c.28-.13.57-.25.85-.38-.27-1.09-.2-2.51-.87-3.21-3.36-3.52-6.44-7.38-10.71-9.92-.55-.33-1.35-.22-2-.3-.67 1.73-.46 3.03.62 4.18 3.56 3.81 7.45 7.22 12.11 9.63zm6.19-126.83c-.92-4.64 2.07-8.14 6.38-8.19 3.8-.05 7.6 0 11.4.13 2.41.08 4.73.6 6.74 2.12 1.51 1.14 2.32 2.57 2.21 4.47-.08 1.29-.13 2.59-.38 3.84-.24 1.2-1.91 2.21-3.21 2.11-.42-.03-.89-.32-1.25-.2-5.23 1.74-10.34.05-15.46-.58-1.47-.18-2.99-.69-4.26-1.44-1.05-.62-1.75-1.8-2.17-2.26zm23.13-1.17c-1.29-.86-2.27-2-3.39-2.15-3.42-.46-6.9-.59-10.36-.73-.71-.03-1.48.37-2.14.72-.43.22-1.07.8-1 1.06.13.52.63 1.25 1.08 1.34 3.5.7 7.01 1.41 10.56 1.83 1.68.2 3.47-.12 5.25-2.07zM381.15 119c2.67.09 4.53 1.35 5.77 3.41 1.3 2.14 1.2 4.5-.34 6.43-2.3 2.86-4.8 5.58-7.36 8.22-1.64 1.69-3.36 3.44-5.36 4.62-3.65 2.14-7.84.25-9.46-3.64-.97-2.34-.05-4.35 1.23-5.71 4.01-4.24 8.33-8.18 12.63-12.14.72-.67 1.91-.81 2.89-1.19zm-9.83 19.61c2.1.08 2.91-1.73 4.06-2.91 2.63-2.7 5.71-5.01 7.61-8.38.68-1.21 1.16-2.54-.02-3.54-1.11-.95-2.24-.14-3.17.68-3.01 2.64-6.1 5.19-8.99 7.95-2.69 2.57-2.5 3.78.51 6.2zM262.38 273.79c.14-14.29.05-27.39.49-40.47.21-6.34 1.55-12.61 2.13-18.95.67-7.3 2.59-14.12 4.69-20.85 2.49-7.96 6.96-14.14 11.96-19.68 2.23-2.47 4.57-4.85 7.06-6.85 4.88-3.9 10.39-5.31 15.93-3.75 7.86 2.21 14.07 7.75 18.13 16.95 4.56 10.33 8.39 20.86 10.65 32.54 1.83 9.47 3.14 18.92 3.53 28.56.56 13.8.09 27.61-4.22 40.52-2.5 7.5-6.02 14.45-8.91 21.75-2.55 6.43-6.18 11.7-10.43 16.27-4.02 4.33-8.32 7.13-14.04 7.62-5.25.44-9.57-1.2-13.94-3.97-4.42-2.8-8.13-6.54-11.35-11.55-3.95-6.15-6.33-12.99-8.1-20.38-.97-4.05-2.62-7.82-2.79-12.2-.09-2.25-.62-4.47-.79-5.56zm58.98 15.98c-.29-.71-.58-1.43-.87-2.14 1.88-4.47 3.41-9.03 4.38-14.05 1.34-7 2-12.55 1.05-19.18-.44 3.63-.88 7.35-1.33 11.06-.54-1.52-.36-3.06-.69-4.4-.9-3.66-.82-6.92.54-10.57.98-2.64.88-6.05.92-9.12.07-4.54.03-9.11-.3-13.63-.5-6.8-1.83-13.35-4.77-19.25l2.4 17.11c-.68-.15-.88-.39-.91-.67-1.48-13.65-4.96-26.4-10.65-38.14-.65-1.33-1.61-2.42-2.43-3.62-.28-.66-.56-1.33-.83-1.99-.91-6.01-5.15-7.94-8.22-11.32-2.47 1.78-4.76 3.43-7.04 5.07.3-.54.6-1.08.9-1.61-3.19 1.62-5.95 3.76-8.58 6.14-.75.68-1.14 2.03-1.65 3.11-.45.95-.66 2.25-1.3 2.84-.51.47-1.49.09-2.38.09.54 2.72 2 2.06 3.21 2.13-.78 2.15.66 2.87 1.56 3.91 1.53 1.77 3.45 3.05 4.71 5.36-2.49 1.01-4.1-.24-5.67-2-1.02-1.14-2.24-2-3.62-3.2-3.22 6.77-6.98 12.58-8.48 20.51 3.66 1.84 7.31 3.42 10.76 5.51 2.62 1.58 5.12 1.87 7.77.39 2.15 2.35 4.34 4.39 6.17 6.86 3.06 4.1 3.75 9.37 4.4 14.83 1.28 10.68-.69 20.22-5.35 28.94-1.74 3.25-3.99 6.21-7.34 6.68-5.79.82-11.44 2.14-16.81 6.21.31 1.37.49 3.21 1.11 4.76 2.21 5.49 4.34 11.07 6.96 16.25 1.57 3.09 3.96 5.52 6.02 8.19.72.93 1.59 1.65 2.32 2.57 3.56 4.48 5.79 4.93 10.34 2.08.3-.19.7-.12 1.1-.18-.24.81-.45 1.51-.69 2.31 9.39 1.1 14.31-2.58 15.03-10.95-.67.22-1.35.43-2.04.65-.14-.27-.29-.54-.43-.81 1.06-1.21 2.13-2.42 3.19-3.63.86-.8 1.99-1.37 2.54-2.43 1.81-3.5 3.41-7.17 5.12-10.81l1.13 2.4c.61-2.8 1.05-4.78 1.48-6.76l-.35-.09c-.79 1.52-1.59 3.05-2.38 4.59zm-11.97-113.7c-.54-.05-1.07-.1-1.9-.17 2.32 5.03 4.44 9.61 6.56 14.19.11-.06.22-.13.34-.19-.85-3.55-1.7-7.09-2.56-10.64 1.81.79 1.76 3.01 2.23 4.79 1.74 6.56 3.68 13 6.4 19 .27-.11.54-.23.81-.34l-4.17-17.18c.25-.11.49-.22.74-.33.27.68.61 1.32.79 2.04 1.96 7.99 4.07 15.93 5.81 23.99 4.04 18.79 6.89 37.76 3.72 57.46-.16-.48-.33-.99-.49-1.5-.13 3.08-.06 5.4-1.03 8.13-1.24 3.49-1.25 7.68-1.79 11.57 5.3-10.69 5.67-22.71 5.83-34.63.1-7.68-.69-15.38-1.13-23.07-.8-14.27-3.83-27.85-8.71-40.64-1.93-5.06-5.05-9.38-7.76-14.25-.77 1.17-1.17 1.79-1.57 2.4-1.07-2.29-1.74-5.23-4.74-4.9.96 1.57 1.79 2.92 2.62 4.27zm-32.86 88.84c-.24.06-.49.13-.73.19-.23-1.54-.49-3.08-.67-4.63-.52-4.48-2.17-9.12 1.16-13.08.22-.26.11-.95.2-1.43.46-2.39.77-4.85 1.43-7.14 1.36-4.69 2.91-9.3 4.36-13.88-3.79-1.87-7.61-3.75-11.73-5.78v4.6c2.33.39 4.42.74 6.53 1.09-.54 4.28-1.01 7.91-1.47 11.54l-.44-.09c-.19-1.48-.39-2.96-.58-4.44-.26-.01-.52-.01-.79-.02-1.3 10.09-3.34 20.04-2.65 30.8-1.5-1.76.15-4.64-2.08-5.86v16.34c4.37-1.62 8.25-3.06 12.33-4.58-2.68-5.67-5.08-10.88-5.69-17.12.28 4.5.55 8.99.82 13.49zm14.63-32.69c-5.33-.05-5.16.05-6.98 5.28-.82 2.35.05 4.13.13 6.18.2 5.41.61 10.7 2.22 15.8.23.72-.43 1.88-.67 2.8 1.23.78 2.55 1.61 4.31 2.73.74-2.67 1.99-5.09 1.96-7.48-.05-4.18-.81-8.32.2-12.53.19-.79-.62-1.94-.9-2.95-.48-1.68-.99-3.38.45-4.8.11-.11-.01-.58-.01-.89-.54-.28-1.07-.56-1.6-.83.31-1.21.59-2.21.89-3.31zm-21.83 19.17c0-3.37-.42-6.86.12-10.09.54-3.25 1.12-6.37.93-10.16-2.47 3.95-3.18 14.41-1.05 20.25zm11.19 56.26c1.08 5.69 1.44 6.09 5.12 5.91-1.64-1.89-3.11-3.58-5.12-5.91zm47.96-65.61H328v6.06h.48v-6.06zm-56.09-15.3c1.15.99 1.77 1.52 2.55 2.19.36-2.47-.26-3.08-2.55-2.19zm-2.18-1.54c-.32 1.52-.62 2.22-.54 2.85.04.37.67.64 1.03.95.18-.56.5-1.12.49-1.67-.01-.46-.4-.92-.98-2.13zm13.07 24.62c-.15.02-.31.03-.46.05.1 1.04.2 2.09.29 3.13.06-.01.11-.03.17-.04v-3.14zm-169.06 32.13l.25-.31c0-.07-.01-.15-.01-.22-.09.17-.17.35-.24.53z" class="st0"/>
  <path d="M349.71 239.96c-.06-4.56-.1-9.19-.72-13.66-1.58-11.38-4.84-22.11-8.56-32.6-1.59-4.48-3.54-8.77-4.97-13.32-4.69-14.9-13.33-25.03-23.94-32.91-3.16-2.35-6.6-2.3-10.09-2.72-6.84-.82-12.96 1.57-18.84 5.55-3.16 2.14-5.54 6.33-9.67 5.91-.22-.02-.46.28-.68.44-2.37 1.67-4.82 3.19-7.09 5.06-2.18 1.8-4.74 2.21-7.05 3.94-6.54 4.89-13.51 8.88-20.97 11.23-5.62 1.77-11.32 3.3-16.77 5.73-8.19 3.65-16.65 5.7-25.1 7.91-14.94 3.9-29.86 2.16-44.52-1.72-9.65-2.56-19.4-5.34-28.55-10.45-2.65-1.48-5.12-1.18-7.54 1.29-5.04 5.14-7.82 12.1-10.15 19.46-1.43 4.52-2.63 9.15-3.91 13.65-.73 0-1.11.04-1.47-.01-6.94-.81-8.56.62-10.9 8.71-3.48 12.01-3.89 24.39-3.14 36.94.15 2.51 1.06 4.57 2.54 6.42 2.63 3.29 6.03 4.36 9.29 5.79 1.82.79 2.63 2.04 3.08 4.38 1.9 9.81 5.61 18.72 9.47 27.39 1.88 4.22 2.77 8.19 2.73 12.87-.09 12.64-.33 25.28 2.41 37.68 1.23 5.55 3.69 9.11 8.09 9.8 3.94.62 7.99.88 11.94.52 4.44-.41 8.17-6 8.38-11.65.14-3.78.08-7.57.21-11.34.21-6 .49-11.99.76-18.31 2.04.73 3.65 1.25 5.24 1.88 5.23 2.07 5.97 1.52 6.74-5.31.58-5.16 1.11-10.32 1.71-15.89 6.41-.42 12.46-1.12 18.51-1.14 13.32-.06 26.54 1.74 39.62 4.88 8.42 2.02 16.32 6.11 23.82 11.36 7.88 5.51 15.86 10.85 23.43 17 4.31 3.51 8.97 5.36 13.67 7.28 3.42 1.4 7.01 2.13 10.45 3.43 3.84 1.45 7.69 2.68 11.72 2 3.8-.64 7.82-.69 11.34-2.36 11.07-5.24 19.11-15.3 24.97-28.11 3.05-6.65 5.57-13.69 8.26-20.6 3.9-10 5.76-20.73 6.23-31.78.33-8.2.12-16.42.02-24.62zM94.73 224.94c.32.1.64.2.95.3-.49 2.5-.79 5.09-1.51 7.48-.72 2.38.4 5.58-2.81 7.93 1.27-5.94 2.32-10.82 3.37-15.71zm3.38 16c-.28 7.3-.06 14.63-.42 22.18-2.18-2.66-4.4-5.11-5.87-8.44l.07.1c-1.04-3.78-1.04-3.78.59-7.23-.53-1.68-1.01-3.21-1.54-4.88 4.74-1.77 4.9-6.83 5.55-11.2.47-3.2 0-6.61.19-9.91.11-1.83 1.19-2.77 3.06-2.54-.57 7.37-1.35 14.63-1.63 21.92zm245.37-2.96c.61 2.28.93 4.55-.17 6.76-.68-2.28-.89-4.55.17-6.76zm-126.29-41.77c-.97.3-1.76.55-2.69.83.95-2.23.95-2.23 2.69-.83zm-25.69 2.02c-3.78 3.2-7.72 2.13-11.64 1.8-.01-.38-.03-.75-.04-1.13 3.89-.22 7.78-.44 11.68-.67zm-20.09 2.75h-5.53v-.32c1.61.09 3.22.19 5.53.32zm-8.67 1.99l-2.19.99c-.07-.38-.14-.76-.22-1.14.77-.1 1.54-.19 2.32-.29.03.14.06.29.09.44zm-.3-2.91c-.03.35-.06.71-.1 1.06-1.27-.06-2.6.55-4.42-1.06h4.52zm-4.24 2.11c.1.24.19.49.29.73l-1.83 1.47c-.18-.42-.36-.84-.55-1.26.7-.32 1.4-.63 2.09-.94zm-7.36-3.75l4.95.96c-.07.42-.13.84-.2 1.27-1.63-.28-3.27-.57-4.9-.85.05-.47.1-.92.15-1.38zm-2.92 3.16h5.56c-.49 2-.93 3.8-1.42 5.79-1.87-.31-2.92.97-3.44 3.25-.41 1.8-.95 3.55-1.75 5.2-1.44-3.22-.26-5.95 1.07-8.27 1.1-1.94 1.87-3.5-.02-5.97zm-39.05 70.68c-.8-3.36-2.08-6.77.81-10.74-.32 4.27-.57 7.51-.81 10.74zm30.73 38.09c-2.84-1.39-4.11 1.1-4.99 3.19-2.29 5.48-3.67 11.43-4.29 17.71l4.95-16.27c.21.09.43.17.64.26-1.25 8.01-2.5 16.02-3.75 24.02.25.08.51.16.76.24 2.06-8.23 2.14-17.22 5.45-26.08-.3 9.47-.55 17.86-.86 26.26-.07 1.95-.28 3.9-.48 5.84-.41 4.07-2.23 6.85-5.01 8.79-.99-1.55-.15-5.25-3.08-4.28.6 3.19-1.21 5.18-2.89 5.98-1.42.68-3.49-.3-5.1-1.12-.65-.33-1.06-2.15-1.18-3.35-.54-5.52-.96-11.06-1.37-16.59-.53-7.16-1.02-14.32-1.51-21.48-.03-.47.1-.95.2-1.8l4.49-1.83c.15.31.29.61.44.92-.95 1.02-1.9 2.03-3.28 3.51 2.86-.23 5.25-.42 7.64-.6v.03c.4-.93.64-2.14 1.24-2.72 1.86-1.78 5.12-.57 6.04-4.53.03-.12.48-.09.74-.12 1.75-.22 3.5-.43 5.56-.69-.12 1.52-.22 2.9-.36 4.71zm-18.56-11.08c.31-.02.96 1.1.93 1.15-.6.95-1.29 1.81-2.29 3.14-.73-3.26-.02-4.19 1.36-4.29zm9.37 8.5c-2.12 1.48-3.81 2.67-5.55 3.89-.42-2.8 1.21-4 5.55-3.89zm18.56 8.03c-1.81-.43-3.15-.75-4.67-1.11-.46-3.71-.12-7.09 1.29-10.44 1.61-.24 2.88-.43 4.72-.71-.45 4.12-.87 8.01-1.34 12.26zm106.27 5.54c-2.49-1.93-5.06-3.7-7.36-6.28l5.68.72c.04-.33.08-.65.11-.98-3.53-1.01-7.15-1.68-10.56-3.14-3.48-1.49-6.75-3.76-9.98-6.06 2.44-.1 4.67-.75 6.7 2.4 1.08 1.67 3.95 1.46 6.1 2.12-.18-2.54-1.36-3.43-2.8-3.91-2.24-.75-4.5-1.42-6.76-2.11-2.26-.7-4.7-.63-6.71-2.32-10.55-3.49-31.94-9.89-52.57-12.02-.77.45-1.46 1.1-1.97 2.24-.19.44-1.2.45-1.82.39-8.09-.73-15.82 2.61-23.78 3.38-.38.04-.75.23-1.13.3-3.94.68-6.1-.21-7.35-3.48-2.31.61-4.12 1.06-5.51 1.37.63 1.08 1.31 2.2 2.03 3.46-4.83 1.13-9.37 2.19-14.04 3.28.3-3.65 2.56-2.5 4.08-2.92 1.68-.46 3.4-.76 5.47-1.21-2.48-2.57-4.94.41-7.23-.88.02-.08.03-.15.05-.22-.61.25-1.34.37-2.2.27-1.2 1.25-2.76 1.88-4.85 1.86.1-1.3.2-2.61.31-3.96-.68-.51-1.41-1.13-2.18-1.88-.4-.27-.92-.62-1.57-1.07-.13 1.38-.26 2.69-.41 4.2-2.75-3.17-3.39-6.68-2.09-10.75-.55.33-1.1.65-1.89 1.12-1.49-4.75-1.77-9.34-.13-14-.84-4.77-.59-9.42.41-13.99.36.05.71.1 1.07.14-.49 4.62-.99 9.24-1.48 13.86.54.97 1.08 1.94 1.79 3.21.62-2.79-.72-6.4 1.78-8.37.04-.88.08-1.78.13-2.68-.4.59-.94 1.1-1.69 1.5.5-5.51.33-10.78 2.7-15.71 0-.03 0-.05.01-.08-.75.22-1.22.36-1.92.56-.33-5.91-.56-11.59 3.42-16.04.01-.01.02-.03.03-.04l.21-1.9-.99 1.11c-.81-2.55-1.55-4.91-2.3-7.27-.15 3.51.32 7.32-.55 10.55-1.05 3.9-.79 7.69-.63 11.45.22 5.25-1.67 8.89-4.87 12.25.19-3.47.38-6.94.58-10.7h-2.12c.85-5.53.37-11.24 3.08-16.6-1.86-2.84-1.51-6.2-.44-9.45.49-1.49 1.49-2.7 2.25-4.04-.43.3-.86.59-1.73 1.19.57-2.89 1.05-5.32 1.53-7.74.06-.31.13-.84.27-.88 2.96-.88 3.44-5.06 5.79-7.29.62 3.99-.68 6.91-1.93 9.85 1.69 3.35-.14 6.28-.7 9.36-.13.7-.35 1.38-.52 2.07 1.04-1.93 4.14-1.71 3.5-5.41-1.35-3.95-.79-5.93 1.71-9.39.3-.41.56-.87.8-1.35.37-2.79.72-5.34 1.04-7.6.03-.36.08-.69.14-1.02.81-5.76 1.36-9.31 1.36-9.31-.37.13-.74.13-.82.32-.77 1.83-1.47 3.7-2.24 5.53-.94 2.23-.65 5.81-3.83 5.67-.22-.01-.46.98-.7 1.5-.49 1.07-.99 2.13-1.87 2.96 1.07-7.47 3.32-14.32 6.2-20.71 2.54.95 5 1.87 7.66 2.86-.73 1.35-1.29 2.38-1.83 3.36l.4.23c.65-.37 1.31-.73 1.83-1.31 1.63-1.81 3.11-1.59 5.38.79-1 1.03-1.97 2.01-2.92 2.99l2.35 1.36c.2-4.88 1.3-5.35 5.08-3.03-1.35 1.16-2.74 2.35-4.16 3.57l1.43.83c.7-.54 1.51-1.07 2.46-1.63-2.85 6.69-3.84 13.76-7.76 19.02.37.52 1.11 1.11 1.06 1.54-.42 3.34-2.42 6.61-.05 10 .1.14-.07.61-.15.91-1.27 5.36-2.55 10.72-3.82 16.08-.01.58-.02 1.17-.02 1.75.41.19.87.37.88.57.08 4.01.06 8.02-.21 12.05v-7.26c-.2-.02-.41-.05-.61-.07-.02.15-.05.31-.07.46.04 8.2.36 16.07.74 22.7l.49-.03c.18 4.77.35 9.54.53 14.31l.03.31c.57.46 1.31.76 1.67 1.41.47.85.62 1.98 1.15 3.81.88-3.86-2.06-6.92.42-10.25.96 2.49 1.7 4.82 2.71 6.95.25.53.51 1.04.79 1.55 1.72-.77 3.84-1.63 5.62-2.34-.12-.54-.22-1.11-.32-1.73-.24-1.6.1-3.39-.32-4.88-.35-1.24-1.76-2.01-2.07-3.25-.96-3.73-1.8-7.55-2.37-11.41-1.63-10.87-.08-21.55 1.87-32.05.96-5.17 2.96-10.04 4.97-14.97.16 1.51.31 3.02.47 4.54.15.03.29.05.44.08.33-2.58.66-5.16 1.03-8.11.58-.1 1.28-.21 2.4-.4-.45 2.78-.84 5.2-1.24 7.61.45-.17.74-.46.93-.81.06-.13.12-.26.18-.4.28-.82.26-1.84.51-2.66.87-2.84 1.32-5.96 3.89-8.27-.23 1.52-.38 2.5-.53 3.48.03.02.06.04.1.05l.52-.79c1.36-3.46 2.73-6.92 4.09-10.39l.75.15.78 3.19c.46-.75.84-1.86 1.42-2.04 3.96-1.3 7.95-2.4 11.95-3.5.26-.07.61.46.98.75-.16.83-.31 1.63-.47 2.44.28-.05.57-.11.85-.16.43-.7.9-1.47 1.45-2.37 1.54.18 3.48.41 5.42.64.01.14.02.28.04.42 9.34-1.75 19.67-3.59 28.09-5.06l2.6-.78c-5.03.73-10.16-.17-15.09 2.4-2.29 1.19-5.03 1.02-7.61 1.15 5.17-2.87 10.57-4.54 16.11-5.55.64-.12 1.45-.5 1.89-.16 1.71 1.32 3.08.52 4.66-.46 1.08-.67 2.46-.52 3.95.12-1.34.87-2.68 1.74-4.02 2.6.41.01.84.01 1.32.01 1.4-.24 2.72-.47 3.95-.69 1.97-1.47 4.35-2.2 6.96-2.86-.74-.52-1.1-.77-1.71-1.2 5.9-2.72 11.61-5.36 17.49-8.08-.49 1.95-.95 3.81-1.41 5.65l1.72-.7c.74-1.7 1.61-3.28 2.99-4.4l.07.1c-.27-.52-.53-1.04-.9-1.78 4.92-2.86 9.66-5.61 14.7-8.54-.38 1.03-.77 2.04-1.13 3.06-1.1 3.09-2.19 6.18-3.28 9.27.21.01.42.03.63.05.08-.31.1-.79.26-.9 3.54-2.46 4.62-7.12 6-11.36.98-3.02 2.65-4.09 5.39-4.82-.8 2.59-1.37 4.45-3.33 5.29-.81.34-1.88 1.41-.44 2.82.23.23.27 1.22.08 1.64-1.23 2.8-2.55 5.53-3.83 8.29-1.73 7.03-3.79 13.96-5.11 21.11-1.34 7.32-2.2 14.82-2.84 22.3-1.15 13.43.03 26.84.74 40.24.03.49.07.99.17 1.46 1.22 6.03 2.66 12.01 3.63 18.1 1.39 8.7 4.93 16.14 8.04 23.84 1.29 3.2 2.71 6.32 4.49 10.43-3.16-2.58-5.61-4.71-8.14-6.67zM130.65 282.3l-.92.24c-.89-1.42-.7-3.16.1-5.18.27 1.65.55 3.29.82 4.94zm167.2 55.73c2.53-1.14 5.06-2.27 7.59-3.41-1.94 3.42-4.79 3.31-7.59 3.41zm26.29-15.53c2.01-7.14 6.53-12.36 9.19-18.98-2.19 7.03-4.94 13.61-9.19 18.98zm8.87-24.89c-.08-.03-.39.92-.6 1.41-2.71 6.29-5.34 12.64-8.15 18.85-1.5 3.32-4.58 4.96-5.96 8.53-.25.65-1.05 1.48-1.51 1.41-3.43-.57-5.41 3.21-8.28 4.28-2.84 1.05-5.59 2.58-8.47 3.41-3.38.98-6.84 1.56-10.29 2.1-3.06.48-5.92-.61-8.48-2.67-3.27-2.63-6.43-5.47-9.62-8.26-.42-.37-.79-.87-1.09-1.39-2.52-4.35-5.02-8.72-7.54-13.07-2.15-3.72-3.53-7.67-2.82-12.73-.54.79-1.08 1.59-2.02 2.97-.94-4.67-1.84-8.7-2.55-12.78a627.52 627.52 0 01-2.66-16.84c-.3-2.08-.47-4.22-.48-6.34-.01-2.23 1.09-4.44-.7-6.58-.52-.63-.05-2.85.23-4.26.39-1.97 1.46-3.91-.8-5.24-.26-.16-.27-1.23-.27-1.87-.06-13.18 1.03-26.18 3.97-38.87 1.02-4.39 1.69-9.01 3.22-13.1 2.09-5.59 4.7-10.91 7.4-16.08 1.62-3.11 3.76-5.81 5.82-8.5.74-.97 1.39-3.15 3.14-1.58.14.13 1.11-1.06 1.6-1.74 5.95-8.35 13.32-13.88 21.71-17.06 2.65-1 5.63-.57 8.46-.73.48-.03 1.11.12 1.45.5 4.09 4.59 8.27 9.06 12.15 13.92 4.01 5.02 6.47 11.42 8.87 17.81 3.5 9.32 7.05 18.62 10.52 27.96.66 1.77 1.08 3.69 1.54 5.57.19.77.44 1.78.21 2.42-2.6 7.17-.49 14.36.04 21.45.86 11.6-.67 22.87-1.88 34.24-.73 6.86-1.86 13.57-3.88 20-.39 1.17-.09 3.7-2.28 2.86zm5.77-10.26c1.35-7.85 2.7-15.7 4.05-23.54.24 8.29-1.87 15.92-4.05 23.54zm4.94-26.47c-2.54-4.35-.75-8.57-.91-13.45 1.82 3.25 1.82 3.43.91 13.45z" class="st0"/>
</svg>
