<svg xmlns="http://www.w3.org/2000/svg" id="Layer_1" x="0" y="0" aria-hidden="true" version="1.1" viewBox="0 0 500 500" xml:space="preserve" fill="currentColor">
  <style>
    .st0{fill:#ef4723}
  </style>
  <path d="M128.07 329.51c-3.12-2.99-7.71-4.95-13.07-4.74-2.6.1-4-.99-4.96-3.35-2.17-5.35-3.05-10.89-2.15-16.54.88-5.52 2.22-10.97 3.6-16.39.21-.84 1.83-2 2.62-1.88 2.43.37 4.81 1.2 7.15 2 8.26 2.82 16.49 5.7 25.15 8.7 1.83-3.97 3.5-7.61 5.2-11.23 1.58-3.37 3.21-6.71 4.77-10.09 4.77-10.36 9.61-20.69 14.23-31.12 3.67-8.29 6.82-16.81 10.62-25.03 6.55-14.17 13.52-28.14 20.11-42.29 2.83-6.08 5.05-12.45 7.73-18.61 2.17-4.99 4.41-9.98 6.97-14.78 5.55-10.37 14.14-16.94 25.68-19.41 1.62-.35 3.46-.18 5.11.18 8.7 1.86 17.36 3.9 26.05 5.79 16.8 3.66 33.61 7.26 50.41 10.89 13.58 2.94 27.13 6.01 40.75 8.77 4.56.92 9.28.97 13.91 1.58 1.81.24 3.88.47 5.3 1.47 5.03 3.55 8.96 7.66 9.11 14.64.17 7.71.4 15.3-2.36 22.67-.63 1.67-.54 3.61-1.22 5.25-1.28 3.1-2.44 3.89-5.09 2.73-6.74-2.94-14.12-2.45-21.03-4.33-.43-.12-.92-.02-1.82-.02-2.2 4.85-4.47 9.78-6.69 14.74-5.68 12.69-11.45 25.35-16.99 38.1-9.6 22.08-19.03 44.24-28.61 66.33-4.97 11.47-10.38 22.77-15.08 34.35-2.84 6.99-7.77 12.69-10.78 19.54-1.87 4.25-6.34 6.39-10.27 7.66-3.04.98-7.1-.19-10.43-1.28-12.32-4.04-24.49-8.51-36.77-12.69-14.2-4.83-28.45-9.5-42.66-14.29-16.86-5.68-33.71-11.43-50.58-17.09-.9-.32-1.98-.14-3.91-.23zm214.69-140.92l.12-2.6c-.23-.04-.45-.09-.68-.13-.48 1.33-.97 2.65-1.45 3.98l-1.02 3.21-.07.27-.27-.07c-1.08 1.93-2.17 3.85-3.25 5.78l.05-.05c-.36-.37-.71-.75-1.07-1.12 1.53-3.22 3.72-6.31 4.43-9.71.99-4.7 3.93-7.99 6.45-11.66 1.58-2.3 3.26-4.42 3.71-7.43.45-2.97 2.3-5.5 4.73-7.57l-.81 3.24c.21.1.43.2.64.3 1.18-2.02 2.35-4.03 3.81-6.53-1.57-.15-2.74-.63-3.21-.25-4.57 3.66-8.03 8.18-9.87 13.9-.86-2.96.21-5.64 1.43-7.97 1.29-2.46-1.22-5.11 1.12-7.23-4.72-2.52-7.01 1.47-10.28 3.15.93-1.53 1.86-3.07 3.34-5.5-2.86 1.59-4.54.86-5.98-1.82-3.38 4.12-6.37 7.76-9.52 11.6-2.26-2.64.36-4.39.69-6.25.36-2.03 2.18-3.8 3.38-5.71-1.83-1.49-3.4-1.53-4.82.46-1 1.39-2.09 2.71-3.14 4.07-.9 1.17-1.89 1.98-3.5 1.17 1.62-3.12 1.62-3.12.8-6.5-1.48 2.07-2.77 3.86-4.33 6.05-.93-3.72 3.12-5.26 3.06-9.11-2.45 2.16-4.32 3.78-6.16 5.43-1.57 1.41-3.18 1.83-5.53.47 2.73-1.97 5.06-3.64 7.98-5.75-2.65-.75-4.59-1.47-5.87.41-2.85 4.16-5.45 8.49-8.38 13.11 8.15 2.33 15.68 4.34 23.12 6.66 5.26 1.64 11.06 2.23 15.14 6.57-.34 3.07-.18 6.48-3.07 8.07-2.87 1.59-6.27 2.71-9.61 2.18-4.14-.66-8.24-1.8-12.26-3.03-7.01-2.14-13.96-4.49-20.93-6.79-2.22-.73-4.58-1.29-6.51-2.5-1.27-.8-2.44-2.54-2.69-4.03-.92-5.57 5.45-10.94 10.81-9.35 1.6.48 3.21.94 5.22 1.52 1.47-3.2 2.78-6.07 4.09-8.93-1.25.03-1.76.58-2.38.94-.75.44-1.59.72-2.63 1.17-.76-3.21 1.41-4.47 2.91-6.06v3.19c1.87-2.44 4.99-1.16 6.01-4.94-2.23.54-3.92.94-5.6 1.35.2-.86.77-2.01-.76-2.04-1.01-.02-2.03.45-2.56.58-3.04-3.95-7.48-3.54-11.18-4.96l-12.55 16.5c.91-4.38 2.47-8.28 4.14-12.13.9-2.07 1.96-4.07 2.95-6.09-.69-.43-1.06-.77-1.49-.9-2.23-.7-4.48-1.35-6.72-2.01-2.02-.59-4.03-1.26-6.07-1.75-2.26-.54-4.64-1.53-6.8-1.21-2.33.35-3.6-1.57-5.81-1.46-3.54.17-7.11-.53-10.82-.87-.19.99-.33 1.7-.47 2.41-4.3 1-6.81 2.35-10.02 5.46-1.46 1.42-2.98 2.79-4.3 4.33-5.77 6.71-12.2 12.95-15.31 21.57-1.79 4.98-3.63 9.95-5.56 14.88-.84 2.15-1.59 4.2.16 6.09-6.31 6.55-10.1 14.3-14.25 21.79-1.79 3.23-2.87 6.85-4.27 10.29l.17-.16c-1.87 3.63-3.74 7.26-5.88 11.42 1.47-.38 2.05-.53 3.44-.88-1.26 2.05-2.32 3.5-3.1 5.09-1.16 2.36-2.12 4.81-3.17 7.22l.17-.16c-1 1.13-2.23 2.12-2.94 3.41-1.33 2.45-2.44 5.03-3.5 7.62-1.23 3.03-3.3 6.16-3.18 9.17.12 3.02-1.5 4.64-2.52 6.83-1.16 2.48-2.27 4.98-3.4 7.47 3.15-3.12 4.08-7.83 8.6-9.61.22-.08.3-.53.42-.81 1.14-2.55 2.38-5.06 3.38-7.66 1.18-3.06 3.13-4.63 6.5-5.19 3.35-.56 5.64 1.5 8.41 2.32 11.82 3.47 23.59 7.1 35.38 10.69 4.31 1.31 8.6 2.69 12.91 4.01 1.13.35 2.45 1.09 2.92-.87l.14-.15c.74.22 1.52.35 2.21.67 2.79 1.32 5.48 2.88 8.34 4 5.37 2.1 11.18 3.32 16.16 6.08 4.46 2.47 9.22 3.69 13.81 5.55 1.97.8 3.45.8 5.05-.83 1.55-1.58 3.45-2.83 5.19-4.22l.96 1.08c-2.01 1.56-4.02 3.13-6.24 4.85 1.72 2.28 3.08 3.97 4.32 5.75 1.64 2.35 1.5 4.57-.31 6.83-2.93 3.67-8.73 5.14-13.61 3.4-7.06-2.52-14.09-5.14-21.17-7.61-13.7-4.79-27.41-9.55-41.15-14.24-7.08-2.42-14.2-4.7-21.33-6.96-3.44-1.09-4.05-.6-4.43 2.88-.07.65-.24 1.38-.62 1.88-1.47 1.93-3.16 3.69-4.54 5.68-1.5 2.15-2.74 4.48-4.1 6.73-.28-.18-.57-.36-.85-.53 3.23-5.92 6.46-11.84 9.71-17.79-5.02-2.2-9.6-4.21-14.31-6.28-1.37 2.45-2.92 5.24-4.47 8.02-.17-.07-.33-.15-.5-.22l.81-3.65c-.33-.15-.65-.3-.98-.45-1.82 3.15-4.21 6.11-5.3 9.49-1.23 3.81-3.29 6.83-6.02 9.45-3.31 3.19-5.93 6.8-8.15 11.27 6.54 2.1 13.03 4.15 19.5 6.26 6.53 2.13 13.08 4.21 19.55 6.54 6.45 2.32 12.78 4.97 19.21 7.36 6.59 2.44 13.23 4.76 19.86 7.09 6.47 2.27 12.94 4.58 19.46 6.71 6.41 2.1 12.88 4 18.81 5.82.32 6 .59 11.26.92 16.55-.9 3.21-.86 6.38.23 9.52 3.3.62 5.38-.79 6.73-3.33 1.46-2.75 2.71-5.61 4.03-8.44l3.66-6.99c-2.86 1.66-3.99 4.07-3.54 7.12-.54.02-1.27-.18-1.59.1-1.81 1.57-3.52 3.26-5.35 4.99-1.47-1.03-2.92-2.06-4.37-3.08 1.53.08 1.63-.85 1.73-2.09.16-1.92.62-3.81.95-5.71l-.12-.11v5.34c1.11-.98 1.71-1.51 2.66-2.34-.49 1.77-.85 3.08-1.34 4.84 4.19-2.67 8.97-9.42 10.07-13.09 1.01-3.36 2.46-6.6 3.71-9.89.12 2.48.24 4.96.38 7.96.65-1 1.13-1.58 1.45-2.25 2.9-6.13 5.83-12.24 8.61-18.42 1.2-2.67 1.96-5.53 3.13-8.21 1.8-4.14 3.83-8.18 5.67-12.31 1.14-2.56 2.1-5.19 3.13-7.79l-.87-.36c-2.74 5.75-5.45 11.51-8.23 17.24-1.59 3.29-3.27 6.53-4.91 9.79-.6-.85-1.2-1.71-1.81-2.56.73-3.27.87-6.83 2.31-9.74 4.68-9.5 9.77-18.8 14.84-28.11 1.62-2.97 3.68-5.7 5.53-8.53-.45 1.46-.68 3.04-1.4 4.35-2.79 5.05-5.84 9.95-8.6 15.02-2.89 5.3-6.04 10.52-7.05 16.63-.67 1.14-1.33 2.28-2 3.42.35.14.71.27 1.06.41.28-1.3.57-2.61.85-3.91.48-.49 1.1-.91 1.42-1.49 2.62-4.72 4.95-9.63 7.84-14.18 3.98-6.26 7.46-12.69 9.37-19.9-.54-.08-1.07-.15-1.61-.23.31-.86.54-1.75.93-2.56 3.21-6.58 6.49-13.13 9.64-19.74.65-1.36 1.58-3.61 1-4.33-1.9-2.37-.34-3.99.52-5.82 1.47-3.1 3.01-6.16 4.54-9.23 1.95-3.88 4.37-7.6 5.76-11.67 1.51-4.41 2.97-8.73 5.68-12.56 1.26-1.78 1.44-3.73.14-5.65v-1.66c.29-.35.68-.67.87-1.07 2.27-4.87 5.21-9.36 6.48-14.78.82-3.5 3.47-6.57 5.34-9.81 1.91-3.31 3.88-6.58 5.84-9.89-1.61-1.14-2.91-1.94-3.97-.27-1.98 3.13-3.88 6.33-5.64 9.59-2.2 4.07-4.1 8.3-6.36 12.33-1.25 2.23-2.96 4.2-4.47 6.29l.13.1zm-189.8 123.78c1.93 1.46 3.86 2.92 5.8 4.38-1.51-.31-3.02-.61-5.14-1.04 4.1 5.21 7.57 9.97 13.64 11.8.83.25 1.51 1.04 2.26 1.58h-2.84c6.74 5.17 14.44 7.59 22.62 10.12-1.28-3.08-3.52-3.91-5.85-4.74-1.55-.55-3-1.37-4.49-2.06.87-.07 1.75-.15 3.57-.3-1.92-2.37-3.44-4.11-4.81-5.96-.71-.96-1.15-2.12-1.71-3.19 2.05 1.08 4.09 2.17 6.14 3.25.24-.38.47-.75.71-1.13-1.94-1.41-3.87-2.82-6.15-4.48-.29 1.36-.41 1.94-.53 2.52-.39-.22-.87-.37-1.16-.68-2.62-2.84-4.84-6.24-9.38-6.19-.25 0-.73-.29-.74-.46-.26-3.87-3.63-2.64-5.67-3.63 2.32 4.56 7.59 6.65 9.88 12.44-4.03-3.04-7.26-5.48-10.52-7.94.02-3.85-1.8-5.85-5.71-6.23v1.78c-1.04-.73-2.08-1.47-3.84-2.7 2.28 2.93 2.28 2.93 3.92 2.86zm-27.42-14.82c.24 3.66 2.17 5.53 5.83 5.94 2.57.28 5.09.94 7.64 1.43.05-.12.1-.24.14-.37-4.56-2.3-9.12-4.6-13.69-6.89-1.55-.84-3.1-1.69-4.96-2.71-.55 1.51-.93 2.53-1.3 3.54.2.12.4.23.6.35.69-.63 1.39-1.25 2.17-1.96.47.86.82 1.5 1.13 2.07.85-.48 1.64-.94 2.44-1.4zm82.1 30.63c.12.82-.02 1.83.41 2.42 3.36 4.59 8.39 5.65 13.62 6.21-1.42-.94-2.95-1.61-4.47-2.33-.69-.32-1.97-.88-1.92-1.08.82-3.49-2.43-2.62-3.85-3.57-1.13-.76-2.57-1.04-3.9-1.49-2.43-.77-4.87-1.54-7.75-2.44 2.06 5.21 5.91 8.51 7.38 6.78-.56-1.02-1.13-2.05-1.67-3.02.92-.62 1.54-1.05 2.15-1.48zm8.94 16.52c-.55.09-1.09.19-1.64.28 3.59 2.44 7.33 4.1 11.12 5.64.32.13.94-.49 1.43-.76 2.92 1.91 5.84 3.83 9.16 6 1.08-.97 2.14-1.92 3.19-2.87 3.46 2.23 6.91 4.46 10.2 6.58-.16.81-.34 1.75-.56 2.87 3.8 1.51 7.44 2.96 11.44 4.55-.36-2.48-.94-4.28-.8-6.02.22-2.94-.53-5.47-2.16-7.84h2.63c.11-2.54.22-4.94.31-7.15-7.34-2.43-14.2-4.71-21.21-7.03.88 3.82 2.99 5.52 6.25 6.02 1.53.23 2.98.88 4.5 1.2 4 .85 6.63 3.13 7.69 7.13-.62-.44-1.47-.75-1.82-1.34-2.45-4.17-6.68-4.54-11.2-4.87 2.01 2.31 4.02 4.61 6.03 6.92-6.09-5.08-11.11-11.56-19.93-11.72 1.11 1.77 2.25 3.57 3.38 5.38-1.35-1.27-2.83-2.43-4.04-3.83-3.4-3.92-7.88-4.68-12.55-5.01-.19.29-.37.59-.56.88 3.47 2.92 6.93 5.83 10.51 8.84 0 .01-.22.68-.46 1.33-2.6-1.27-5.21-2.55-7.82-3.81-1.07-.52-2.17-.99-3.25-1.48h4.67c-4.79-4.2-8-8.83-14.59-8.41 2.39 4.3 5.79 6.92 10.08 8.52zm-27.04-13.04c-2.36-.76-3.57-4.04-6.74-3.09 3.12 5.36 4.43 6.35 8.09 6.18-.5-1.07-1.01-2.17-1.52-3.26 1.4 1.19 2.84 2.34 4.2 3.58.91.84 1.54 2.26 2.58 2.63 3.75 1.36 7.61 2.38 11.8 3.64-5.31-8.06-8.85-10.31-17.02-10.93-.44-.03-.93.82-1.39 1.25zm-52.47-11.76c.84.63 1.79 1.16 2.51 1.92 2.2 2.29 3.28 2.75 6.79 2.59-.62-1.28-1.26-2.59-1.9-3.91.99.91 1.99 1.81 2.95 2.74.88.86 1.54 2.14 2.58 2.59 4.3 1.87 8.86 2.87 14.03 3.67-2.1-3.26-5.09-3.9-7.7-5.22-2.43-1.23-5.3-1.97-7.08-4.17.23-.37.47-.75.7-1.12 2.19 1.29 4.38 2.58 7.09 4.16-4.02-8.93-11.08-12.22-19.44-13.81.63 1.61 1.64 2.88 2.53 4.24 1.52 2.32 2.97 4.68 4.44 7.02-3.52-4.1-7.01-8.23-10.58-12.28-1.01-1.15-2.27-2.08-3.41-3.11-.26.23-.51.47-.77.7.72 1.3 1.65 2.52 2.13 3.91 1.02 2.91 4.19 4.73 4.08 8.17-2.85-4.19-5.68-8.4-8.57-12.57-.59-.85-1.42-1.54-2.13-2.31-.23.19-.46.39-.69.58 1.24 3.04 2.47 6.08 3.71 9.12-1.92-3.12-3.92-6.19-5.73-9.37-1-1.74-1.71-3.63-4.22-3.82-1.33 3.71-2.6 7.29-2.03 11.33 1.15-.52 2.02-.92 2.36-1.07 1.21 1.97 1.86 4.06 3.28 5.1 2.44 1.79 5.37 2.92 8.32 4.45.31-.96.49-1.52.68-2.08 2.18 1.23 2.62 4.95 6.38 4.2-.11-.55-.21-1.1-.31-1.65zm142.29-26.27c2.77.47 5.27 1.4 6.67 4.43.98-1.06 1.58-1.71 2.37-2.57-1.18-1.28-2.11-2.52-3.26-3.49-3.15-2.65-4.32-2.26-5.66 1.73-3.56-.87-4.6-2.42-4-6.15-4.62-2.11-9.25-4.33-13.97-6.34-2.96-1.26-3.65-.89-5.58 2.2-1.39-.61-2.8-1.22-4.66-2.04 1.28-.66 1.77-.91 2.26-1.16-4.54.42-9.03-1.41-14.41.39 7.57 3.96 14.86 5.85 21.8 8.53 2.63-3.37 3.49-3.47 10.83-1.36-1.52 2.06-3.39 3.59-6.41 2.81 3.97 1.87 7.85 3.39 11.76 4.85 1.7.64 2.25-.29 2.26-1.83zm9.37-124.84c1.75.94 3.14 1.87 4.65 2.49 9.25 3.77 18.84 6.5 28.55 8.75 2.63.61 5.45.49 8.73-1.02-6.47-4.55-12.9-5.43-20.31-3.5 1.33-1.64 2.45-3.1.39-3.98-1.84-.79-3.78-2.19-5.98-.57-1.25.92-2.23.29-3.18-.8-3.05-3.51-7.68-4.09-12.85-1.37zm81.12 18.27c4.46-2.16 8.1-3.87 11.7-5.68 1.64-.83 2.07-2.19 1.19-3.88-8.5 2.84-8.5 2.84-10.76 1.98 3.64-2.04 7.23-4.05 10.81-6.06-.12-.29-.24-.58-.35-.87-1.77.12-3.54.24-6.45.43 4.17-2.09 6.86-4.2 6.93-8.81-2.66 1.37-5.86 1.98-7.21 3.9-3.69 5.24-5.61 11.33-5.86 18.99zm-138.44 85.63c-3.7-.38-7.18-.73-10.66-1.09.72-.94 1.51-1.22 2.32-1.33.96-.13 1.94-.12 2.91-.18l.06-.73c-2.14-.64-4.28-1.28-6.87-2.05-.61 3.7-3.37 3.9-6.43 4.2 13.53 5.86 14.72 6.15 18.98 4.5-.11-1.13-.22-2.31-.31-3.32zm-34.08 52.42c-4.37-1.35-8.6-2.81-12.85-.69 2.16 3.42 8.72 6.11 14.94 5.91-.67-1.67-1.33-3.33-2.09-5.22zm51.12-46.98c.12-.25.24-.5.37-.76-4-1.41-7.97-2.91-12.02-4.13-.63-.19-1.9.68-2.42 1.39-.87 1.18-1.37 2.64-2.32 4.57 5.62-.37 11.01-.72 16.39-1.07zm-48.28 63.51c4.24 4.14 9.93 5.1 15.27 6.88-4.2-4.2-10.01-4.89-15.27-6.88zm146.32-141.63c5.65-5.32 7.35-12.51 9.3-19.58-3.1 6.53-6.2 13.06-9.3 19.58zm-164.14 59.55c0 1.39-.31 2.75.05 2.95 2.51 1.44 5.14 1.76 8.2-.28-2.92-.95-5.38-1.74-8.25-2.67zm-44.78 47.29c3.22 1.43 6.44 2.86 9.65 4.29.15-.34.3-.69.44-1.03-2.38-3.37-6.22-3.35-10.09-3.26zM379.9 184.29c-2.36 1.29-4.29 2.35-7.04 3.86 3.12.56 5.17.93 7.04 1.27v-5.13zm-145 156.74c.18-.35.36-.69.55-1.04-2.68-2.34-5.83-3.49-9.64-3.03 3.03 1.36 6.06 2.72 9.09 4.07zm49.66-199.57c-3.55.78-4.73 2.84-5.11 7.34 1.87-2.69 3.49-5.02 5.11-7.34zm-87.44 201.25l.66-.99c-1.48-1.82-3.09-3.4-6.14-2.54 1.83 1.18 3.66 2.35 5.48 3.53zm-6.06-78.77c-.09.39-.18.78-.26 1.17 1.52.46 3.03.92 5.22 1.59-1.13-3.71-3.13-3.02-4.96-2.76zm7.61 3.54l5.37 1.62c-1.06-3.04-3.28-2.09-5.37-1.62zm-25.6 47.79c1.85 2.08 1.85 2.08 4.84 1.29-2.03-.54-3.44-.92-4.84-1.29zm192.8-150.75c.67-1.02 1.15-1.75 1.75-2.66-1.86-.8-3.25-1.34-3.74 1.03.57.47 1.13.93 1.99 1.63zM206.16 268.63c-.09.23-.17.46-.26.69.46.33.88.84 1.39.95.57.13 1.23-.09 1.84-.16.01-.25.03-.5.04-.74-1-.24-2-.49-3.01-.74z" class="st0"/>
  <path d="M210.49 251.08c.96-1.01 1.92-2.01 2.87-3.03.95-1.02 1.88-2.06 3.28-3.6-6.5-2.08-12.56-4.26-18.77-5.91-2.51-.67-4.47-1.24-4.94-4.07-.05-.29-.23-.61-.44-.82-2.76-2.83-2.1-5.7.13-8.34 2.35-2.78 5.31-4.37 9.11-3.24 4.34 1.29 8.67 2.6 12.98 3.97 15.57 4.97 31.12 10.05 46.71 14.95 13.56 4.27 27.2 8.28 40.74 12.61 1.78.57 3.17 2.35 4.72 3.6.99.8 1.93 1.67 3.17 2.76-.63 1.35-1.31 3.41-2.48 5.14-1.86 2.74-4.63 4.19-7.99 4.18-3.09-.01-5.25 1.39-7.09 3.79-2.41 3.15-5.13 6.07-4.64 11.16-2.56-3.99-1.22-6.89 6.16-14.8-2.43-.92-4.65-1.88-6.94-2.62-21.26-6.85-42.55-13.61-63.79-20.52-3.47-1.13-6.07-.38-8.41 2.21-1.08 1.19-2.29 2.25-3.44 3.38-.3-.26-.62-.53-.94-.8zm52.55.51c6.23 2.4 11.48 4.79 16.95 6.38 2.72.79 5.87.14 9.03.14-1.01 2.35-.19 3.5 2.09 3.81 2.52.35 3.25-.3 4.13-3.79-4.79-1.82-9.57-3.66-14.37-5.46-2.25-.84-4.45-1.16-6.74.2-.84.5-2.13.22-3.22.29l-.09-.86c.79-.41 1.59-.83 2.63-1.37-3.55-2.33-6.5-1.14-10.41.66zm-11.22-8.33c-10.56-2.68-19.56-7.19-29.88-8.95 2.01 3.86 2.02 3.84 5 4.84 3.39 1.14 6.8 2.21 10.13 3.49 4.42 1.69 8.81 3.03 14.75.62zm-39.15-11.1c-5.88-2.2-5.88-2.2-8.61 0h8.61zm53.83 16.94c-3.61-2.97-5.76-.84-8.42.14 2.96 2.37 5.2.25 8.42-.14zm-11.18-1.14c-2.28-3.47-2.28-3.47-6.76-1.38 2.04.42 4.09.83 6.76 1.38zm45.33 17.22c-.17-1.69-.27-2.78-.42-4.3-1.42.91-2.4 1.54-3.77 2.42 1.5.68 2.56 1.15 4.19 1.88zm-85.3-33.73c1 2.85 2.87 2.5 4.91 1.54-1.63-.51-3.27-1.03-4.91-1.54zm38.12-55.93c0 4.3-.42 8.17.08 11.91 1.78 13.4-5.95 18.83-16.81 20.67-4.1.69-8.06-.37-11.52-2.35-1.22 1.39-2.07 3.05-3.41 3.68-1.22.58-3.05.34-4.46-.06-4.39-1.24-6.59-3.78-5.16-7.9 1.91-5.51-1.06-10.45-.48-15.67.07-.61-.9-1.34-1.51-2.18 2.18-2.8 4.29-5.81 8.14-6.46 5.22-.88 9.43 1.49 11.9 6.37.49.97.74 2.36 1.53 2.82 1.22.71 2.87 1.16 4.22.96.64-.1 1.45-1.97 1.43-3.02-.04-1.84-.48-3.73-1.07-5.49-1.64-4.85-1.92-9.69-1.01-14.75 1.18-6.59 6.72-14.96 16.25-13.06 1.91.38 3.34-.22 4.62-1.57.75-.79 1.53-1.58 2.4-2.22 2.38-1.74 4.66-1.76 6.82.09 1.52 1.3 2.84 2.83 4.5 4.52-1.87 2.44-3.53 4.62-4.89 6.39 1.26 3.79 2.47 7.13 3.47 10.54 1.27 4.3-.05 8.13-3.31 10.26-2.7 1.76-6.21 1.05-9.74-1.98-.56-.44-1.15-.85-1.99-1.5zm5.78-2.01c4.1-1.73 4.52-2.49 3.89-5.67-1.09-5.49-4.25-9.27-9.31-11.53-3.7-1.66-7.18-.64-9.35 2.81-2.31 3.67-3.36 7.77-3 12.03.38 4.49 1.33 8.93 1.97 13.4.2 1.38.39 2.8.3 4.19-.22 3.43-2.74 5.8-6.12 5.76-3.05-.04-5.83-1.01-8.25-2.92-2.59-2.04-4.96-4.16-5.87-7.61-.27-1.02-2-2.39-2.93-2.3-1.02.1-2.33 1.56-2.74 2.7-1.46 4.12 1.13 11.02 4.72 13.42 1.23.83 2.48 1.66 3.58 2.65 7.23 6.54 19.09 2.52 20.5-5.34.41-2.29 1.24-4.61 1.11-6.87-.24-4.18-1.2-8.31-1.57-12.49-.31-3.4-.5-6.87-.16-10.25.2-2.03.97-4.48 3.65-4.88 2.51-.37 5.32 1.34 6.45 3.82.71 1.55 1.14 3.24 1.7 4.86.45 1.3.89 2.6 1.43 4.22zm-.62-21.12c1.51 2.43 2.58 2.71 3.91 1.32 1.22-1.28 2.01-2.48-.89-4.34l-3.02 3.02zm-41.09 53.07c.38-.06.75-.13 1.13-.19 1.06-3.05 1.06-3.05-1.81-5 .27 2.09.48 3.64.68 5.19zm48.26-5.39c-.36 1.01-.71 2.02-1.16 3.28 5.96-1.35 11.53-.79 17.1 1.01 10.11 3.26 20.25 6.41 30.43 9.45 3.72 1.11 5.23 4.19 6.76 7.12.56 1.07.05 3.13-.64 4.35-2.22 3.91-6.82 5.45-11.3 4.16-9.25-2.67-18.52-5.25-27.73-8.06-3.85-1.18-7.58-2.78-11.31-4.33-.93-.39-1.72-1.27-2.42-2.05-1.44-1.63-2.78-3.35-4.16-5.03-2.76 3.23-5.44 6.37-8.12 9.5l.1.1c.45-1.31.67-2.76 1.38-3.9 3.23-5.16 6.6-10.25 9.97-15.32.14-.22.8-.1 1.21-.13.01-.04-.11-.15-.11-.15zm42.58 22.68c.9-2.91-.61-3.47-2.14-3.98-6.49-2.15-12.97-4.31-19.47-6.42-2.13-.69-4.11-.46-6.09 1.39 5.11 1.03 9.9 1.91 14.64 2.99 2.25.51 4.49 1.23 6.57 2.2.74.35.77 2.18 1.52 2.54 1.44.71 3.17.86 4.97 1.28zm-29.25-11.41c-3.83-2.8-6.05-3.27-10.29-2.41 3.45-.33 5.84 3.37 10.29 2.41zm40.22-4.19c-1.52-.3-3.72-.53-5.78-1.17-10.71-3.33-21.4-6.71-32.06-10.21-1.54-.51-2.98-1.58-4.22-2.68-2.19-1.95-4.59-4.08-3.33-7.46 1.35-3.63 5.97-6.09 9.9-5.59.77.1 1.53.31 2.28.54 11.31 3.44 22.61 6.91 33.92 10.34 2.31.7 4.56 1.06 6.44 3.11 2.35 2.56 2.87 5.14 1.73 8.11-1.24 3.24-4.75 5.23-8.88 5.01zm-24.24-17.04c-.97.67-1.93 1.34-3.07 2.13 2.35 2.12 4.95 2.07 7.59 1.85.43.57.75 1.45 1.32 1.66 3.59 1.33 7.24 2.53 10.88 3.73.38.13.85.02 1.42.02-.23-1.48-.43-2.81-.63-4.07-2.3-.78-4.37-1.38-6.37-2.18-2.48-.99-4.78-1.39-6.75.98-1.23-.84-2.47-1.67-3.62-2.45.33-.3.62-.55 1.05-.94-.81-.26-1.37-.44-1.95-.6-2.7-1.49-5.45-1.05-8.2-.23 2.76 1.57 5.55.24 8.33.1zm-13.88-2.57c.9.4 1.8.81 3.01 1.35.03-2.76-1.45-2.21-3.01-1.35zm-98.49 113.92c-.5-.28-1.07-.49-1.5-.86-2-1.69-2.19-1.67-4.55.79-2.45-1.2-2.45-1.2-3.42-4.26 2.38-1.54 4.72-3.05 7.66-4.94-.69 1.92-1.18 3.29-1.88 5.24 4.32.82 8.49 1.6 12.95 2.45 1.38-2.48 3.14-4.64 3.79-7.09.66-2.52 3.41-2.91 3.71-5.4.31.17.62.34.94.51-.69 1.47-1.23 3.03-2.09 4.39-1.79 2.84-4.42 5.2-4.22 9.05.04.7-1.26 1.46-2.1 2.36 1.1.63 2 1.13 2.9 1.64l.12-.13c-1.6.42-3.2.85-5.03 1.33-.48-.6-1.03-1.27-1.57-1.94.72-1.06 1.42-2.09 2.23-3.3-1.86-.18-3.14-.44-4.4-.38-1.22.05-2.43.44-3.65.67l.11-.13zm58.77-8.67c-2.14 2.95-4.47 5.77-6.35 8.88-2.04 3.37-3.63 7.01-5.45 10.51-.63 1.21-.82 2.24.62 2.98-1.02.48-2.05.97-3.09 1.46-.2-.99-.36-2.86-3.49-.65.68-1.95.85-3.12 1.44-3.99 1.82-2.67 3.63-5.39 5.79-7.77 1.78-1.97 1.08-5.04 3.58-6.67 2.3-1.5 4.3-3.46 6.42-5.21.18.15.35.3.53.46zm42.92 31.26c1.3-3.77 2.61-7.55 3.91-11.32l.87.03c-.08.6-.31 1.23-.21 1.8.8 4.32-1.88 6.88-4.66 9.41l.09.08zm-78.85-14.74c-.81-.23-1.63-.47-2.45-.67-.02.03-.05.14-.06.16.99-1.68 2.43-1.95 4.53-1.2-.83.67-1.47 1.19-2.14 1.72-.02.01.12-.01.12-.01z" class="st0"/>
</svg>
