<svg xmlns="http://www.w3.org/2000/svg" id="Layer_1" x="0" y="0" aria-hidden="true" version="1.1" viewBox="0 0 500 500" xml:space="preserve" fill="currentColor">
  <style>
    .st0{fill:#ef4723}
  </style>
  <path d="M182.38 135.53c7.36.05 14.72.12 22.08.13 5.66.01 11.32-.08 16.98-.1 2.24-.01 4.48.13 6.72.06 9.25-.28 18.49-.35 27.75-.19 6.3.11 12.6-.2 18.91-.26 9.5-.1 19-.12 28.49-.25 1.69-.02 3.38-.55 5.07-.6 5.86-.18 11.72-.4 17.58-.34 4.26.05 8.51.44 12.76.83 2.1.19 3.87 1.13 4.85 3.18 1.18 2.47 2.71 4.85 1.22 7.76-.27.52-.16 1.25-.16 1.89-.01 5.55.02 11.1 0 16.65-.03 6.72-.11 13.44-.13 20.15-.02 9.07.05 18.14-.01 27.21-.06 8.59-.28 17.18-.34 25.77-.04 6.4.09 12.81.09 19.22 0 5.76-.12 11.51-.14 17.27-.01 3.31.08 6.63.09 9.94.02 5.84-.02 11.68.01 17.52.03 6.62.07 13.24.17 19.86.09 5.55.25 11.1.43 16.65.03 1.05.24 2.11.45 3.15.88 4.4-1.95 7.85-6.37 7.12-4.06-.68-7.83.18-11.69.9-3.64.68-7.28 1.49-10.95 1.86-1.27.13-2.97.12-3.99-1.48-.46-.72-1.5-1.12-2.33-1.56-15.12-7.96-30.24-15.91-45.36-23.86-1.51-.8-3.05-1.56-4.52-2.42-2.14-1.25-4.19-1.22-6.37-.03-4.21 2.31-8.46 4.53-12.72 6.75-8.43 4.38-16.88 8.73-25.31 13.11-10.14 5.26-20.31 10.45-30.38 15.83-3.37 1.8-6.51 4.03-10.19 5.24-.89.29-1.83.78-2.45 1.46-1.7 1.88-3.89 2.31-6.15 2.01-3.71-.5-7.47-1.16-9.45-5.02-.05-.1-.09-.23-.17-.27-3.1-1.58-2.16-4.52-2.18-6.99-.04-6.7.09-13.4.22-20.09.14-7.25.4-14.49.53-21.74.09-5.23.07-10.47.06-15.7-.01-4.99-.13-9.98-.09-14.96.04-5.2.23-10.4.31-15.61.12-7.35.2-14.71.29-22.06.13-10.24.23-20.47.37-30.71.13-9.59.29-19.17.43-28.76.1-6.5.12-13 .33-19.5.07-2.32.66-4.44 2.31-6.41 3.15-3.76 5.94-7.83 8.82-11.81.88-1.21 1.72-2.47 2.34-3.82 2.14-4.63 5.51-7.21 10.79-6.83.32.02.64-.03.96-.04.04-.04.04-.08.04-.11zm118.2 191.82c-1.77-1.42-3.7-2.53-5.91-3.14 1.32 1.21 2.73 2.28 4.24 3.17.41.24 1.15-.07 1.73-.11.53 1.66.53 1.66 3.16 2.45-1.07-.79-2.15-1.58-3.22-2.37zm-66.05-7.65c-.52-.58-1.04-1.17-1.56-1.75 5.01-1.58 9.88-3.4 12.87-8.24-1.87.4-3.63 1.02-5.26 1.87-4.18 2.19-8.86 3.59-12.05 7.42-.09.11-.4.04-.6.05-1.17-1.21-2.13-.05-3.02.4-6.53 3.31-13.01 6.71-19.52 10.05-2.04 1.05-2.98 2.96-4.51 5.12 4.92-2.02 9.3-3.83 13.69-5.63-.69.56-1.33 1.22-2.09 1.64-1.08.6-2.31.93-3.39 1.53-.87.49-1.69 1.21-.13 1.96-.89.94-1.77 1.88-2.66 2.83.13.18.26.36.4.54.64-.15 1.28-.31 1.93-.46-.85.56-1.67 1.21-2.57 1.67-.92.47-1.46 1-1.16 2.47 2.62-1.49 4.96-2.82 7.43-4.23-.37-.19-.53-.35-.69-.34-.53.02-1.05.09-1.58.15 1.95-.97 3.9-1.95 5.84-2.92 3.76-.15 6.14-3.01 9.1-4.72.22-.13.47-.67.37-.83-.99-1.66.8-2.22 1.63-3.43-.91.1-1.42.16-1.94.22 1.27-.53 2.53-1.06 3.8-1.6.46.19.92.39 1.37.58l-3.7 3.43c2.25-.39 4.13-1.26 6.02-2.11 1.87-.83 3.25-2.27 4.66-3.68.22.35.44.69.68 1.08-.33.2-.61.34-.84.53-.22.18-.4.43-1.05 1.15 3.16-1.56 6.08-2.1 7.57-4.84.38.23.85.74 1.13.65 1.92-.62 3.77-1.48 5.71-2.04 3.63-1.04 7.3-1.92 10.88-2.85-.84-1.6-3.86-1.57-4.75-4.55 2.44 1.6 4.39 2.87 6.34 4.14.18-.22.35-.45.53-.67-2.17-2.83-5.75-4.36-7.85-7.72 4.11-.62 5.88 3.13 9.05 3.91.83-.61 1.72-1.27 3.08-2.27-3.48-1.67-6.43-3.09-8.83-4.24-1.82.72-3.05 1.2-4.27 1.7-2.17.87-4.37 1.71-6.51 2.66-.5.22-1.06.81-1.17 1.32-.62 2.96-2.87 4.56-4.98 6.29-.13-.15-.32-.45-.39-.43-2.62.95-5.35 1.69-7.01 4.19zm-30.73 17.36c.71-1.44 3.33-1.48 2.9-4.05-3.4 2.11-7.94 2.22-9.77 6.98.74-.25 1.1-.38 1.47-.51-.29.5-.58 1.01-1.18 2.03 1.56-.64 2.69-1.11 3.82-1.57-1.42.83-2.78 1.79-4.28 2.47-3.11 1.41-3.71 2.02-4.74 5.59 3.49-1.85 6.95-3.64 10.34-5.55.54-.3.87-1.13 1.06-1.79.05-.18-.78-.61-1.21-.92.84-.55 1.89-.94 2.48-1.69.91-1.15-.18-1.02-.89-.99zm-23.58 10.51l.57 1.88c-.98.93-2.19 2.79-2.89 2.61-1.95-.48-2.93 1.01-4.39 1.39-1.39.36-2.44 1.09-2.35 2.91.04.67-.78 1.41-1.28 2.06-.09.12-.54-.03-.92-.06.25-.95.47-1.8.7-2.69-1.84-.35-2.87 1.66-4.77 1.04.44-.4.66-.6.87-.82 1.27-.53 2.58-.98 3.79-1.63.69-.37 1.45-.96 1.75-1.63 1.21-2.69 2.26-5.46 3.43-8.37-3.13-1.26-4.17-3.99-5.37-6.89-3.04 6.16-5.41 12-3.5 18.62-.55-1.59-1.1-3.18-1.65-4.8-.39.13-.79.26-1.18.39 1.61-2.92.43-6.01.44-9.01.02-4.25-.28-8.5-.44-12.75l.74-.03.54 10.45c.68-.47.89-.94 1.09-1.42 1.77-4.29 1.48-8.77 1.32-13.26-.06-1.58.13-3.16.21-4.74.1 1.43.2 2.86.29 4.29.09 1.48.16 2.97.26 5.07 2.58-5.02 2.34-9.7 2.37-14.35.04-6.92.15-13.84.18-20.76.01-1.84-.17-3.69-.27-5.63-.61.29-.89.42-1.18.56.23-1.31 1.34-2.18 1.34-3.75-.03-8.21.26-16.42.34-24.62.06-5.98-.02-11.95-.03-17.93 0-.42.19-.83.21-1.25.02-.3-.1-.61-.16-.91-1.77 3.59-3.06 7.12-2.24 11.05.59-.14 1.1-.26 2.13-.5-2.08 3.8-2.5 7.36-2.34 11.04.05 1.07.13 2.14.1 3.21-.02.86.03 2.34-.32 2.46-1.41.47-.86 1.67-1.05 2.43-.82 3.19-1.45 6.43-2.05 9.67-.23 1.25-.53 2.59.3 3.91.52-.67.9-1.15 1.27-1.63l.22.4c-1.44 2.78-2.37 5.78-2.49 9.04-.06 1.67.4 3.54-1.1 4.96-.23.22-.12.82-.1 1.25.07 2.1.49 4.26.16 6.3-.46 2.8-.17 5.45.18 8.2.16 1.32.37 3.19-1.2 4.93.14-2 .3-3.36.32-4.71.01-1.33-.12-2.66-.21-4.44-1.82 2.82-2.37 10.69-1.38 16.48.22-1.31.41-2.38.59-3.46.91 7.32-.01 14.57.21 21.87-.18-.94-.35-1.87-.6-3.16-.51 5.08-.26 9.74.54 14.63.74-1.18 1.29-2.04 1.83-2.89-.07.53-.04 1.1-.24 1.57-.65 1.57-1.05 3.24.41 4.4 1.72 1.37 3.56 2.86 6.08 2.07 9.07-2.87 17.73-6.35 22.86-15.63-2.68.48-4.74 1.38-5.77 3.43-1.15.06-2.06 0-2.92.18-.92.19-1.79.6-2.66.9 1.37-.79 2.72-1.6 4.1-2.37 1.93-1.06 2.44-2.06 2.19-4.52-2.58 1.34-5.39 2.3-6.9 5.09-.37-.44-.61-1.11-1.41-.47-1.16.92-2.31 1.89-3.61 2.57-1.95 1.02-2 .93-2.23 2.97 2.82-1.27 5.65-2.36 7.27-5.2zm-14.28-96.08c.26-1.69 1.22-3.37.17-5.15-.41.29-.73.52-1.05.75.52-2.4 1.05-4.8 1.57-7.2.42-.91.87-1.81 1.25-2.74.42-1.03.78-2.09 1.16-3.13.24.09.48.18.71.27-.82 2.48-1.64 4.97-2.47 7.45-.41 1.22-.42 1.21.75 2.32 1.63-3.61 2.59-7.42 2.56-11.36-.03-3.92.32-7.9-.6-12.2-.72 1.14-1.16 1.84-1.6 2.55.52-1.81.94-3.66 1.6-5.43.95-2.55.58-5.03.19-7.97-2.95 4.86-3.54 7.88-3.13 15.21.49-.65.97-1.29 1.45-1.93-.16.72-.22 1.47-.48 2.14-1.89 4.85-1.87 9.85-1.29 14.91-.27-.75-.65-1.48-.79-2.25-.32-1.75-.56-3.52-.77-5.29-.06-.5.15-1.02.19-1.53.19-2.63.41-5.27.5-7.91.02-.51-.53-1.05-.81-1.57.4-2.5.9-4.98 1.17-7.5.28-2.63.35-5.29.49-7.93.02-.31-.02-.84-.16-.89-1.69-.57-.81-1.64-.53-2.56.39-1.33.89-2.63 1.23-3.96 1.18-4.58 1.09-9.24.59-13.96-.77 1.67-1.55 3.35-2.33 5.03.41-1.61.67-3.28 1.26-4.83 1.5-3.9 2.38-7.87 2.05-12.67-.67 2.25-1.17 3.91-1.71 5.73-.38-.47-.63-.77-.84-1.02-.51 1.01-1.04 2.04-1.56 3.07.56-1.93 1.07-3.88 1.68-5.79.52-1.62 1.22-3.18 1.71-4.8.55-1.8.86-3.6 2.22-5.14.76-.86 1.06-2.33 1.12-3.55.12-2.55-.04-5.11-.14-7.67-.02-.65-.22-1.3-.39-2.21-1.91 2.37-3.96 4.23-5.1 6.53-1.11 2.24-1.47 4.93-.47 7.65 1.33-3.57 2.65-7.14 3.98-10.71.21.07.41.14.62.2-.12.69-.13 1.42-.37 2.07-.93 2.48-1.76 5.03-2.94 7.39-2.29 4.58-3.35 9.35-2.98 14.46.06.85.18 1.42 1.15 1.42-1.04 4.1-1.26 8.28-1.17 12.82.79-1.21 1.38-2.14 1.98-3.06-2.19 6.5-3.04 13.18-2.63 20.01.06.92.94 1.84.88 2.72-.24 3.9-.71 7.78-1.01 11.67-.03.4.56.84.86 1.27-.88 3.19-1.46 6.43-1.19 9.76.11 1.34.96 2.87.56 3.97-1.37 3.77-.27 7.64-.79 11.41-.09.67-.53 1.78.8 2.02-.33 1.54-.69 3.08-.97 4.63-.18.97-.73 2.08.62 2.73-1.29 2.73-1.28 5.69-1.34 8.59-.02 1.1.74 2.22 1.14 3.32-1.11 7.47-.6 15.03-1.13 22.56.86-2.5 1.56-5.04 1.83-7.62.28-2.73.14-5.51.22-8.26.01-.5.18-1.02.36-1.5.46-1.25 1.11-2.45 1.44-3.73.69-2.66 1.19-5.38 1.84-8.05.3-1.23.48-2.37-.17-3.56-.46.45-.75.73-1.04 1.02.26-1.24.59-2.47.78-3.73.35-2.49.9-5-.73-7.29zm116.49 74.43c1.81.46 3.15 3.06 5.94 1.04-7.43-4.6-14.61-9.04-21.8-13.45-.09-.06-.46.33-.77.57.21.3.33.61.56.76 3.97 2.68 7.97 5.31 11.91 8.01 1.02.7 1.87 1.63 2.79 2.46-.18 1.66 1.11 1.78 2.71 2.57-.7-1.02-1.02-1.49-1.34-1.96zm23.83 14.74c.33 1.71 1.16 2.03 2.67.96-.36-.42-.63-.73-.9-1.04 2.66 1.03 5.04.48 7.45-1.27-2.05-1.37-3.84-2.71-5.76-3.8-.85-.48-1.98-.48-2.99-.69.64-1.09-.21-1.4-.92-1.86-4.2-2.68-8.39-5.37-12.55-8.09-.79-.52-1.9-1.06-2.14-1.82-.63-1.99-2.28-2.62-3.81-3.49-1.95-1.1-3.89-2.2-5.85-3.27-3.72-2.05-7.44-4.08-11.18-6.11-.67-.45-1.34-.89-2.16-1.43-.92.85-1.77 1.63-2.61 2.41.16.26.32.51.48.77 1.45-.6 2.9-1.2 4.34-1.8-.47.66-.94 1.32-1.46 2.06.33.34.59.68.92.93 1.53 1.16 3.05 2.33 4.63 3.42 1.57 1.09 3.21 2.08 4.81 3.13 1.58 1.04 3.16 2.98 4.7 2.94 2.42-.06 2.02 2.67 3.84 2.8.48.03.98.8 1.37.72 2.02-.42 2.06 1.27 2.91 2.66-1.23-.49-2.16-.85-3.14-1.24-.84.74-1.54 1.36-2.2 1.94 1.32 3.3 2.81 3.91 5.81 2.52-.23.57-.46 1.15-.79 1.96 2.54 1.52 5.06 3.02 7.61 4.55.56-.82 1.01-1.49 1.69-2.49-1.64-.7-3.06-1.31-4.5-1.92l-.08-1.64c.54.16 1 .3 1.62.48-.27-.6-.46-1.03-.66-1.47 1.11.41 2.22.82 3.55 1.3-.77.44-1.24.71-1.8 1.04 1.91 1.82 3.79 2.61 6.12 1.23.43-.26 1.03-.25 1.54-.35l-2.96 2.24c.7.7 1.38 1.38 2.46 2.47-4.08-1.84-4.08-1.84-5.1-.03 1.6.77 3.05 2.06 5.04 1.28zM177.94 146.69l.09-.07c-1.22.07-2.04.61-2.17 1.9-.12 1.16-.31 2.33-.28 3.49.13 4.45.39 8.89.48 13.34.13 6.6-.35 13.19.47 19.8.57 4.61.53 9.3.61 13.95.05 3.19-.14 6.39-.28 9.58-.29 6.6-.77 13.2-.91 19.81-.17 8.43-.11 16.86-.1 25.29 0 5.75.09 11.51.12 17.26.05 8.62.08 17.24.14 25.86 0 .58.16 1.63.36 1.66 1.26.17.87.97.73 1.64-.56 2.8-1.56 5.57-1.64 8.38-.23 7.36-.13 14.73 0 22.09.03 1.76.73 3.52 1.13 5.27.34 1.49 1.36 1.91 2.66 1.38 1.57-.63 3.13-1.33 4.57-2.21 4.72-2.88 9.18-6.29 14.14-8.65 4.31-2.05 8.89-3.46 12.61-6.62.22-.19.56-.25.86-.33 1.4-.38 2.88-.58 4.2-1.16 7.54-3.28 15.03-6.68 22.55-9.99 3.12-1.37 6.28-2.64 9.41-3.98 1.33-.57 2.3-1.43 2.01-2.68.83.14 1.66.51 2.37.35.91-.2 1.73-.81 2.58-1.25 2.06-1.06 4.04-1.09 6.06.19.97.62 2.15.91 3.21 1.4 3.38 1.56 6.84 2.99 10.12 4.75 4.51 2.42 8.86 5.14 13.33 7.66 6.78 3.81 13.57 7.64 20.44 11.29 2.37 1.26 4.2 3.94 7.46 3.16.14-.03.39.41.59.62.71.74 1.29 1.7 2.14 2.19 5.18 2.97 10.4 5.87 15.66 8.7 1.2.65 2.57 1.02 3.91 1.35 1.11.28 1.95-.26 1.94-1.48-.02-1.91-.18-3.82-.27-5.73-2.25.32-2.92-.3-2.28-2.34.41-1.31 1.07-2.54 1.61-3.81-.32 1.7-.64 3.39-1.07 5.69 2.58-2.63 2.66-5.03 1.47-7.63.19-1.15.54-2.31.53-3.46-.08-5.5.84-11.04-.82-16.47-.11-.36.14-.82.19-1.23.25-2.11.56-4.21.7-6.33.22-3.4.49-6.82.44-10.22-.07-4.55-.43-9.09-.68-13.91-.76.5-1.14.74-1.49.97.3-2 1.01-4.03.8-5.95-.29-2.63-.04-5.11.21-7.71.38-4.01.07-8.09 0-12.15-.05-3.3.37-6.66-1.16-9.78 1.04-1.33 1.02-1.34.77-2.76-.26.32-.55.69-.84 1.05.21-1.47.36-2.96.63-4.42.37-1.98.29-3.92.02-6.05-.71.49-1.13.79-1.55 1.08 1.52-2.75 1.86-5.59 1.8-8.47-.05-2.33-.49-4.66-.43-6.97.11-4.24.48-8.46.69-12.7.05-1-.09-2.01-.18-3.74-1.22 2.08-2.1 3.57-2.97 5.05.51-2.3 1.59-4.32 2.6-6.36.41-.84.96-1.73.99-2.61.15-5.75.21-11.51.21-17.26 0-1.26-.51-2.51-.54-3.78-.15-5.01-.16-10.02-.32-15.03-.11-3.48-.46-6.93-2.55-10.05.56 5.62 1.11 11.23 1.67 16.85-1.12-3.97-2.13-7.95-2.69-11.98-.32-2.34-1.15-4.76-.06-7.21.22-.5-.18-1.44-.55-2.01-1.83-2.81-4.14-4.31-7.83-4.43-5.63-.18-11.06-.45-15.71 3.43-.05.05-.28-.11-.42-.18.56-.69 1.1-1.36 1.86-2.3-4.66 0-8.9-.23-12.93 1.43-.2.08-.54.25-.58.2-1.63-2.04-3.7-.59-5.54-.65-6.38-.2-12.77-.19-19.15-.39-1.81-.06-3.6-.57-5.2.75-.2.17-.83.2-.87.13-1-2.32-2.09-.3-2.95.04-1.7.68-3.27 1.67-4.9 2.53l-.24-.45c1.38-.87 2.76-1.74 4.15-2.61-2.16-.74-4.14-.91-6.12-.97-4.15-.13-8.3-.34-12.45-.27-5.76.09-11.53.6-17.29.59-8.64-.02-17.27-.27-25.9-.57-4.98-.18-9.94.39-14.94-.17-2.25-.26-4.69.22-6.92.81-3.41.91-3.9 1.98-3.44 5.78 1.67-.89 3.32-1.78 4.97-2.66.06.12.13.24.19.35-1.4 1.05-2.82 2.08-4.24 3.1zM329.77 344.4c.1-.24.19-.48.29-.71-6.92-3.68-13.5-7.97-20.69-11.19 3.3 1.79 4.72 6.11 8.95 6.53-1.44 1.67-4.85.81-5.05 3.67 2.01 3.24 5.64.65 7.73 2.84 2.92-.39 5.84-.76 8.77-1.14zM167.29 212.18c3.46-5.26 4.66-12.5 3.06-18.97-.67 1.48-1.56 2.66-1.71 3.93-.58 4.95-.91 9.92-1.35 15.04zm7.56 135.37c3.83-1.07 6.56-3.67 9.97-4.86.99-.34 1.84-1.06 2.81-1.49 1.33-.58 1.58-1.64 1.93-3.34-2.16 1.19-3.82 2.12-5.49 3.02-2.06 1.11-4.02 2.62-6.23 3.17-1.91.49-2.73 1.28-2.99 3.5zm-5.98-155.74c1.84-.83 2.2-2.08 2.14-3.74-.08-2.43.14-4.87.18-7.3.02-1.07-.1-2.14-.15-3.21l-.76.03c-1.74 4.47-.81 9.28-1.41 14.22zm19.33 152.74c5.22-1.75 6.94-3.19 7.63-6.49-2.76 1.99-6.79 2.01-7.63 6.49zm-19.25-14.26c-.79 2.49-1.52 5.01-2.38 7.48-1.79 5.14-2.01 6.04-1.47 7.96 1.25-5.49 4.8-9.82 3.85-15.44zm21.89 9.2c2.8-2.01 7.16-1.91 8.34-6.81-3.12 2.46-7.32 2.51-8.34 6.81zm83.68-17.04c-4.37-4.41-8.67-6.96-11.16-6.86 4.04 2.48 7.6 4.67 11.16 6.86zm-113.57-14.43c.81-3.03.67-6.05.19-9.08-1.72 2.98-.75 6.05-.19 9.08zm8.88-134.26c1.75-2.39 1.39-5.1 1.33-8-.38.38-.75.58-.77.8-.22 2.39-.38 4.8-.56 7.2zm5.85 166.55l-.09.67c1.03.15 2.07.3 3.1.44.03-.26.07-.51.1-.77-1.04-.11-2.07-.23-3.11-.34zm87.09-28.29c.17-.23.34-.45.5-.68-.84-.56-1.68-1.12-2.52-1.67-.1.14-.2.29-.3.43.78.64 1.55 1.28 2.32 1.92z" class="st0"/>
  <path d="M327.47 149.58c.75.66 2.85.5 2.81 3.02-.03 1.6.45 3.05-.04 4.84-.74 2.71-.7 5.68-.69 8.54.02 11.53.19 23.06.22 34.59.02 6.83-.13 13.66-.18 20.48-.01.85-.02 1.73.17 2.55.11.45.64.8 1.18 1.44-1.5 2.25-1.75 5.18-1.09 7.94.48 2.01.24 3.69-.11 5.6-.36 1.96-.06 4.04-.07 6.07-.04 8.63-.07 17.27-.14 25.9-.06 7.57-.25 15.14-.23 22.7.03 8.63.23 17.25.37 25.88.02 1.27.41 2.86-1.1 3.37-1.54.52-3.2 1.11-4.91.16-10.81-6.03-21.61-12.08-32.48-18.01-9.81-5.37-19.7-10.61-29.55-15.9-.47-.25-.99-.43-1.42-.74-2.42-1.77-4.55-1.17-7.03.24-12.16 6.92-24.4 13.69-36.66 20.43-1.76.97-3.13 2.45-5.24 3.02-1.97.54-3.68 2.03-5.52 3.08-1.86 1.06-3.72 2.09-5.6 3.12-1.87 1.03-3.75 2.04-5.62 3.07-1.87 1.03-3.77 2.02-5.61 3.1-1 .59-1.83 1.52-2.89 1.94-.77.31-1.85.23-2.63-.08-.38-.16-.63-1.27-.54-1.89.84-6.05.69-12.14.75-18.22.1-10.45.2-20.9.22-31.35.01-6.38-.19-12.76-.21-19.14-.02-5.73.12-11.45.11-17.18 0-2.65-.28-5.3-.28-7.95 0-6.7.1-13.41.14-20.11.01-1.5-.06-2.99-.07-4.49-.04-6.17-.15-12.34-.09-18.51.04-4.14.4-8.28.45-12.42.06-5.12-.06-10.24-.08-15.36-.01-2.12-.04-4.25.07-6.37.05-.9.45-1.79.68-2.66 1.01-.05 1.74-.12 2.47-.12 7.86.03 15.72.07 23.58.11 6.94.04 13.87.12 20.81.11 10.25-.03 20.5-.14 30.75-.19 7.47-.03 14.94 0 22.41-.01 5.01 0 10.03-.04 15.04-.04 8.54.01 17.07.04 25.61.03.59-.01 1.15-.29 2.24-.59zm-7.54 7.19c-.95-.87-1.61-.9-2.37.38-.63 1.05-1.47 1.9-.61 3.15.09.14.39.13.59.19-1.34 1.38-1.42 2.9-.71 4.7.66-.55 1.13-.94 1.6-1.33-.73 1.38-1.9 2.7-2.12 4.16-.57 3.79-.73 7.64-1.06 11.46l.64.18c.41-.54.87-1.06 1.23-1.64 2.89-4.57 2.86-9.86 3.65-14.95.05-.29-.58-.69-.89-1.04 1.05-1.57 2.09-3.14 3.57-5.36-1.63.05-2.58.07-3.52.1zm.35 30.84c-1.2 5.47-1.22 13.78-.04 16.93l.87-.33c-1.24 2.36-1.35 4.86-1.04 7.44.1.83.1 1.67.14 2.51-1.57-6.24-.83-12.63-1.59-18.91-.75-6.27.83-12.47.55-19.44-1.32 2.78-2.43 4.94-3.37 7.17-.4.96-.65 2.05-.66 3.09-.05 5.83.02 11.66-.01 17.49 0 .79-.32 1.58-.48 2.37-.85-1.39.74-3.22-.82-4.48.12-1.48.3-2.96.36-4.44.23-5.91-.27-11.83.32-17.75.28-2.81.16-5.67.23-8.62-.65.3-1.03.47-1.94.89 1.84-2.79 3.14-5.08 2.16-7.95-.11-.33.27-.8.32-1.21.19-1.64.35-3.29.55-5.27-2.15-.01-3.97-.3-5.66.04-4.08.8-8.13 1.22-12.3.94-4.25-.28-8.52-.34-12.78-.26-8.53.16-17.06.5-25.59.74-.74.02-1.48-.21-2.22-.32l.06-.32 6.99-.36c-2.81-.75-5.63-1.1-8.47-1.25-4.56-.24-9.13-.37-13.7-.52-3.19-.1-6.4-.33-9.58-.16-4.47.24-8.92.76-13.37 1.25-1.02.11-2 .6-3 .91l.06-.07c-3.24.29-6.68 1.37-9.68.65-3.01-.72-6.23-.43-9.77-1.72 9.63-.24 18.57-.46 27.5-.68-11.56-.56-23.1-2.08-34.95-.72.13 6.26.21 12.22.4 18.17.08 2.51.83 5.02-.35 7.49-.15.31.06.8.11 1.21.2 1.55.59 3.11.57 4.66-.1 7.55-.43 15.09-.46 22.64-.03 7.37.22 14.73.34 22.1.03 1.92.03 3.84-.03 5.76-.2 6.71-.43 13.42-.67 20.14-.04 1.06-.15 2.11-.21 3.17-.24 4.14-.56 8.28-.71 12.43-.2 5.93-1.31 11.81-.74 17.79.43 4.47.5 8.98.73 13.47.14-1.57-.07-3.14 0-4.7.28-5.61.77-11.21.97-16.82.19-5.36.12-10.74.16-16.11.41.72.48 1.45.48 2.18.02 4.68.1 9.36.02 14.04-.07 4.14-.06 8.32-.56 12.42-.51 4.23.23 8.5-1.2 12.75-.79 2.33.11 5.23.25 7.93 4.8-1.58 3.92-3.23 3.52-7.02-1.59-1.27-.82-3.01-.82-4.55-.01-4.35.1-8.71.17-13.06.17-.01.33-.01.5-.02.36 7.06.73 14.13 1.12 21.78 1.73-1.01 2.96-1.78 4.23-2.46 4.63-2.47 8.33-6.37 13.79-7.72 3.72-.92 7.14-3.33 10.5-5.4 9.18-5.67 18.24-11.52 27.38-17.26.79-.5 1.77-.7 2.65-1.04.06.15.13.3.19.44-5.63 3.59-11.26 7.17-16.89 10.76.13.24.25.48.38.73 2.24-.91 4.5-1.78 6.72-2.75 3.81-1.67 7.49-3.68 11.41-5.03 3.71-1.28 7.56-1.81 10.98 1.31 1.39 1.27 3.3 1.96 4.9 3.03 1.11.74 2.44.4 3.66 1.42 2.59 2.17 5.52 4.08 8.59 5.5 8.91 4.11 17.95 7.93 26.93 11.88 1.04.46 2.02.71 3.01-.04 1.23 2.24 1.73 2.51 4.11 2.24.67.49 1.36.96 2.01 1.48 1.99 1.6 4.1 2.94 7.29 3.4-.39-1.72-.68-3.09-1.02-4.45-.1-.39-.5-.77-.46-1.13.25-2.51.63-5.01.85-7.52.11-1.22.35-2.7-.19-3.64-.9-1.55-.76-3-.63-4.57.11-1.37.18-2.75.17-4.12 0-1.92-.08-3.84-.15-5.76-.16-4.9-.33-9.81-.52-14.71-.03-.72-.29-1.43-.31-2.14-.13-4.89-.21-9.79-.35-14.68-.02-.7-.5-1.43-.39-2.08.63-3.71 1.68-7.38 2-11.11.36-4.2.24-8.46.07-12.68-.15-3.72-.7-7.42-1-11.13-.05-.58.28-1.2.43-1.8.24.02.47.04.71.05l.45 8.68c.08-.01.16-.01.23-.02l-.21-21.06c-1.63 2.55-1.23 5.36-1.53 8.04-.47-1.63-.92-3.2-1.37-4.77.89-2.31 1.08-4.68.93-7.16-.15-2.41.25-4.85.18-7.27-.04-1.41-.54-2.8-.83-4.2.15-2.32.35-4.64.43-6.96.08-2.19.02-4.38.03-6.57-.24-.03-.48-.05-.73-.08-.37 1.07-.95 2.11-1.07 3.2-.41 3.89-.69 7.79-.93 11.69.04.63.48 1.31.69 1.97zm3 9.8l.98.09c.47-4.99-.07-9.98-.91-14.96-.02 4.95-.05 9.91-.07 14.87zm-.95-37.2c-1.01 1.58-1.27 5.15-.72 7.42 1.35-2.52.52-5.04.72-7.42zm2.63 75.28c-.13 2.39-.25 4.79-.4 7.52 1.68-2.68.28-5.17.4-7.52zm-121.15 75.78c3.62-.75 3.8-.87 5.17-3.26-2.1 1.32-3.64 2.29-5.17 3.26zm120.39-41.16h-.04c-.07-1.31-.14-2.63-.2-3.94h.04c.07 1.31.13 2.63.2 3.94zm.79-14.26c-.18 0-.35 0-.53-.01.14 1.13.27 2.27.38 3.19.04-.92.09-2.05.15-3.18zm-1.14-7.65c-.09.02-.18.05-.27.07.06 1.09.11 2.18.17 3.27.09-.01.18-.02.27-.02-.05-1.11-.11-2.22-.17-3.32zm1.08-.51c.02.36 0 .05-.01-.26-.01-.13-.01-.26-.02-.38.01.21.03.41.03.62.01.21 0 .41 0 .02zm-1.39-77.61l-.14-.14c.04.74.08 1.48.11 2.22.08-.01.16-.01.24-.02-.06-.69-.14-1.38-.21-2.06z" class="st0"/>
  <path d="M250.18 205.66c.15-2.68.36-5 .38-7.33.05-5.44 0-10.88-.01-16.32 0-1.04-.15-1.99 1.11-2.7.68-.38.9-1.61 1.29-2.47 1.31-2.96 4.63-4.4 7.43-2.91 3.57 1.89 5.94 4.31 6.56 8.96.81 6.11-.16 12.14.49 18.18.08.73-.01 1.49.11 2.21.39 2.33.81 2.75 3.08 2.81 1.92.06 3.85-.03 5.77-.06 3.84-.07 7.67-.14 11.51-.22 2.55-.05 5.1-.08 7.66-.17 1.73-.05 2.78.6 3.91 2.1 3.93 5.21 1.45 12.79-4.73 15.82-.26.13-.55.33-.81.3-5.97-.72-11.83.84-17.77.87-1.28.01-2.56.07-3.84.18-3.3.29-3.96 1.58-3.63 4.86.39 4.01.3 8.07.29 12.11 0 2.12-.27 4.24-.38 6.37-.24 4.35-3.43 7.69-7.58 7.89-4.14.21-7.12-2.72-8.34-6.88-1.49-5.1-.93-10.28-1.55-15.4-.23-1.9-.38-3.81-.72-5.69-.2-1.09-.42-2.57-1.17-3.07-1.16-.78-2.78-1.19-4.22-1.2-3.71-.03-7.42.24-11.13.41-.64.03-1.29.08-1.9.23-4.13 1.04-7.86-.18-11.19-2.43-4.04-2.73-4.33-7.7-1.49-11.76 1.95-2.78 4.35-3.76 7.56-3.75 5.75.02 11.5-.07 17.25-.23 2-.04 3.98-.45 6.06-.71zm11.77-16.42c-.27 3.51-3.25 1.5-4.84 2.74-1.36-3.6 2.35-6.58.73-9.93-2.65 1.12-3.72 2.97-3.64 5.53.05 1.58.13 3.16.15 4.74.03 4.36-.01 8.72.08 13.08.02.95.46 1.9.8 3.19-.3.24-.79.97-1.41 1.1-1.87.39-3.79.76-5.68.76-5.75-.01-11.51-.21-17.26-.31-1.07-.02-2.14.09-3.2.15-1.12.06-1.75.61-1.78 1.78.44.22.84.41 1.73.85-1.58.01-2.47 1.38-3.86.14.15-.67.31-1.42.47-2.17-.99.95-1.67 2.02-1.97 3.2-.75 2.95.72 5.49 3.69 6.32 1.61.45 3.37.83 5 .68 5.61-.54 11.28-.08 16.88-1.28 4.24-.91 6.97 1.7 6.93 6.09-.01 1.38-.21 2.75-.3 4.13-.03.42-.12.94.08 1.24.21.31 1.08.53 1.06.6-.21.65-.59 1.24-.83 1.88-.14.38-.16.83-.15 1.24.06 2.88.03 5.78.28 8.65.13 1.45.59 2.95 1.23 4.26 1.11 2.3 5.53 3.18 7.46 1.53.47-.4.7-1.22.8-1.88.16-1.02.12-2.08.16-3.12.1-3.51.27-7.02.27-10.52 0-2.46-.32-4.91-.34-7.37-.02-3.9 2.11-6.11 5.96-6.22 5.65-.17 11.31-.11 16.94-.42 3.03-.17 6.21-.35 8.49-2.9.18-.2.19-.55.28-.81-.57-.28-1.08-.54-1.64-.82 2.3-2.83 1.9-4.89-1.01-5.12-5.82-.46-11.58-1.87-17.51-1-2.52.37-5.12.24-7.68.21-3.06-.03-4-.86-4.3-3.85-.2-2.01-.2-4.04-.23-6.06-.05-3.7-.06-7.39-.08-11.35-.89.56-1.38.87-1.88 1.19.23-.9.47-1.8.68-2.6-.49-.09-.85-.15-1.49-.27l2.27-2.71c-.67-2.39-1.55-4.74-4.22-5.35-1.18-.27-3.06-.31-3.41 2.17 1.28-.45 2.31-.81 3.72-1.3-.16 2.09-.18 3.85-.47 5.55-.29 1.75-.84 3.45-1.33 5.38 1.62-.4 3-.71 4.37-1.02zm52.03 27.63c.19-1.43.46-2.85.55-4.29.14-2.25.15-4.51.22-6.76.16.6.44 1.2.46 1.81.03.73-.33 1.49-.24 2.19 1 7.11.19 14.3 1.1 21.42.43 3.37.25 6.82.4 10.23.14 3.21.36 6.42.02 9.96-.4-.45-1.14-.89-1.14-1.34-.02-5.12.17-10.25.09-15.37-.08-5.1-.36-10.2-.64-15.29-.04-.87-.53-1.71-.82-2.56zm-110.6-32.85c-.7 15.99-.48 31.87 1.66 47.78-.48-1.94-1.25-3.86-1.4-5.82a689.59 689.59 0 01-1.32-22.71c-.17-4.36-.07-8.73.1-13.09.1-2.06.63-4.1.96-6.16zm-1.38 33.1c.09.59.46 1.37.21 1.74-2.2 3.31-1.43 6.94-1.26 10.49.44 9.16.93 18.32.86 27.53-.09-.59-.24-1.19-.27-1.78-.57-10.14-1.15-20.28-1.65-30.42-.08-1.69.06-3.41.33-5.08.15-.92.77-1.77 1.18-2.66.19.06.4.12.6.18zm97.19 60.18l-1.56-30.26c.14-.01.28-.02.42-.02l1.56 30.3c-.14-.01-.28-.01-.42-.02zm21.09-45.52c-.24 2.61-.53 5.22.59 7.74.42.94-.64 3.5-1.96 4.53 1.21-3.27.65-6.38.66-9.48 0-.94-.77-2.19.74-2.75l-.03-.04z" class="st0"/>
</svg>
