<svg xmlns="http://www.w3.org/2000/svg" id="Layer_1" x="0" y="0" aria-hidden="true" version="1.1" viewBox="0 0 500 500" xml:space="preserve" fill="currentColor">
  <style>
    .st0{fill:#ef4723}
  </style>
  <path d="M357.51 283.08c-1.99.65-3.47 1.13-5.37 1.75.93 1.37 1.69 2.53 2.49 3.67 3.23 4.56 2.78 6.48-2.27 8.69-6.69 2.92-13.47 5.62-20.13 8.6-13.59 6.09-27.13 12.3-40.7 18.45-11.34 5.15-22.67 10.33-34.05 15.4-10.97 4.9-21.97 9.71-32.99 14.5-2.6 1.13-5.37 1.86-7.95 3.01-2.17.97-4.17 2.28-6.8 3.75-.81-1.09-1.95-2.32-2.71-3.74-.79-1.48-1.21-3.15-1.95-5.16-1.69.57-3.07 1.03-4.83 1.63 1.12 2.46 2.02 4.52 3 6.54 1.28 2.63 1.32 3.53-1.12 4.96-3.57 2.09-7.33 3.86-11.1 5.58-8.87 4.03-17.78 7.97-26.71 11.85-1.06.46-2.44.55-3.6.35-2.8-.48-5.67-.95-8.31-1.96-3.65-1.39-6.88-3.44-7.56-7.88-.17-1.1-.68-2.21-1.25-3.19-6.23-10.84-10.53-22.53-15.31-34.01-.76-1.84-1.72-3.6-2.69-5.34-1.55-2.78-.85-6 1.92-7.72 3.83-2.38 7.19-5.24 9.63-9.06.84-1.31 1.8-2.68 2.17-4.15 1.68-6.71-1.12-10.67-7.56-12.01-3.8-.79-7.87-.32-11.82-.29-1.62.01-3.27 1.17-4.75-.67-.28-.34-1.76.29-3.12.55-.48-1.18-.97-2.45-1.51-3.7-6.42-15.03-12.84-30.06-19.25-45.09-.39-.92-.58-1.95-1.08-2.8-3.8-6.57-.34-11.96 2.8-17.38.33-.57 1.03-.99 1.63-1.33 5.98-3.36 11.91-6.83 18.01-9.99 5.33-2.76 10.79-5.28 16.29-7.68 3.63-1.58 4.48-1.13 6.46 2.49 1.09 1.99 2.09 4.04 3.22 6.23 1.61-.35 2.97-.64 4.54-.98-1.61-3.61-3.13-7.05-4.74-10.68.72-.54 1.44-.83 1.77-1.36 4.42-7.15 12.39-8.24 19.21-11.22 11.02-4.81 22.15-9.36 33.17-14.18 9.97-4.36 19.86-8.93 29.78-13.42 10.69-4.84 21.37-9.7 32.05-14.56 5.7-2.59 11.41-5.16 17.09-7.79 3.5-1.62 6.91-3.43 10.45-4.94 3.44-1.47 4.32-1.01 5.98 2.43.5 1.03 1.04 2.05 1.57 3.07 2.27 4.4 2.27 4.4 7.23 2.13-.98-2.57-1.87-5.22-3.02-7.74-.62-1.36-.79-2.59.36-3.48 1.8-1.4 3.64-3.17 5.73-3.65 2.62-.61 4.64-2.07 6.94-3.13 7.28-3.36 14.54-6.79 21.93-9.89 6.36-2.67 12.67-1.55 18.61 1.49 1.21.62 2.04 2.33 2.66 3.7 6.12 13.57 12.16 27.18 18.23 40.77.53 1.18 1.16 2.3 1.72 3.46 2.37 4.92 1.61 8.79-2.44 12.47-2.97 2.7-5.92 5.3-7.61 9.17-3.33 7.65 2.12 15.96 10.39 15.16 3.65-.35 7.26-1.42 10.81-2.46 2.65-.78 3.9-.72 5.52 1.51.83 1.14 1.35 2.52 1.94 3.82 7 15.54 13.93 31.12 21.04 46.62 1.62 3.53 2.82 6.9.91 10.59-1.7 3.29-3.41 6.35-7.08 8.24-11.61 5.99-23.46 11.35-35.74 15.8-1.87.68-3.63 1.74-5.54 2.22-2.35.59-3.1-.31-3.38-2.85-.17-1.65-.74-3.25-1.21-5.17zM248.99 177.57c1.48-.36 2.99-.63 4.42-1.12 1.17-.4 2.26-1.07 3.38-1.63-.13-.32-.25-.65-.38-.97l-6.56 1.11c2.22-1.18 4.4-2.44 6.67-3.5 3.26-1.53 6.58-2.92 9.87-4.36-.13-.33-.26-.66-.38-.99-2.13.7-4.33 1.24-6.38 2.13-7.33 3.2-14.65 6.42-21.89 9.83-13.98 6.59-27.91 13.3-41.84 19.98-.75.36-1.39.94-2.09 1.42 2.24.5 4.21.31 6.18.17.95-.07 1.9.01 2.85-.04 1.5-.07 3.12.12 4.49-.35 2.95-1.03 5.78-2.41 8.64-3.68.16-.07.19-.42.28-.65-.49-.2-.99-.39-1.72-.68.89-.73 1.53-1.59 2.37-1.9 3.33-1.26 6.66-2.67 10.12-3.43 6.46-1.42 11.36-6.17 17.63-7.92.32-.09.51-.64.76-.98 3.51-.41 3.51-.41 5.83-2.54-.9.03-1.58.06-2.25.1zm-49.78 25.92c.64-.75 1.28-1.5 2.53-2.96-2.09.47-3.29.8-4.51.99-1.22.2-2.57.63-3.67.31-2.86-.83-5.4-.15-7.88 1.07-2.7 1.32-5.29 2.87-8.02 4.12-2.73 1.25-4.57 3.82-7.47 4.84-.36.13-.33 1.37-.53 2.34l11.83.59c-5.62 2.59-11.64-1.28-16.6 2.65 6.23.37 11.45 2.93 16.48 6.19.93.6 2.59.09 4.43.09-.78-1.96-1.3-3.29-1.81-4.58.63-.33 1.01-.52 1.39-.72.63 1.81 1.93 1.04 3.16.92 2.34-.24 4.76-1.06 7.42.37-2.08 1.25-3.78 2.27-5.55 3.33-.67-.7-1.37-1.43-2.55-2.67-.61 2.09-1.04 3.58-1.49 5.14.76.2 1.29.33 1.82.47-.08.52-.15 1.03-.23 1.55-4.43.36-8.89.62-12.13 4.31-.85-.13-1.7-.26-3.1-.47 2.81-2.81 7.04-2.59 8.63-6.16-2.18-.19-2.36-.3-2.99.7-1.12 1.79-2.47 1.95-4.68 1.14 1.4-1.19 2.47-2.1 3.74-3.17-.83-.33-1.2-.53-1.6-.64-5.65-1.56-11.32-3.05-16.95-4.69-1.17-.34-2.83-.61-2.68-3.01 1.44.49 2.57.88 3.62 1.24 2.3-1.65 4.55-3.28 6.8-4.9l-.33-.81c-1.6.32-3.25.5-4.8.99-4.69 1.51-9.02 4.29-14.43 3.47.17 1.1.16 1.69.36 2.2.99 2.53 2.09 5.01 3.06 7.55.94 2.46.54 3.37-1.73 4.41-1.82.83-3.63 1.69-5.46 2.48-3.35 1.44-4.91.68-6.13-2.74-.6-1.68-1.41-3.29-2.22-5.14-6.27 2.94-12.1 5.62-17.88 8.42-2.7 1.3-5.39 2.67-7.91 4.29-2.68 1.73-3.5 4.39-2.56 7.46.57 1.89 1.37 3.71 2.06 5.56.18-.04.35-.09.53-.13-.46-2.18-.91-4.36-1.37-6.54.2-.04.41-.09.61-.13.47.66.95 1.32 1.54 2.14.94-2.03.28-4.65 3-5.91-2.56 4.11.23 7.76.58 11.6.18 1.95.64 4.11 1.69 5.71 1.58 2.4 1.15 5.02 1.45 7.65-.83-1.6-1.67-3.2-2.5-4.81-.1 4.13 2.1 7.36 3.66 10.85 1.45 3.23 3.82 5.31 7.16 6.3 3.12.93 6.26 1.81 9.4 2.65 7.8 2.09 14.36 5.7 17.32 13.85.29.79.87 1.47 1.8 2.99-.13-2-.2-2.99-.26-3.97l-.1.08c.32 1.24.86 2.46.92 3.71.16 3.52-.2 7.08.23 10.56.95 7.8-.69 14.64-6.25 20.4-.96 1-1.64 2.29-2.34 3.51-.16.27.12.8.2 1.25.68-.54 1.3-1.03 2.05-1.63.38.67.83 1.13.89 1.63.53 4.28 2.84 7.71 5.12 11.18 1.96 2.97 3.86 5.98 5.78 8.96-2.28-2.39-4.56-4.77-6.84-7.16-.16.08-.31.15-.47.23 2.14 4.17 4.28 8.34 6.51 12.67.95-.46 1.76-.85 2.05-.99.7-2.31-2.51-2.69-1.35-4.84.95-.39 1.91-.79 3.31-1.37-2.94-3.95-4-8.3-7.85-11.06-1.24-.89-1.18-3.59-1.71-5.46.27-.11.53-.22.8-.33 1.03 1.29 2.06 2.58 3.17 3.96.63-.31 1.26-.61 1.91-.93-.43-.69-.8-1.28-1.27-2.02 2.43-.99 4.6-2.71 7.19-1.71.64 2.18-3.48 2.44-1 4.59-2.05.58-3.92 1.11-6.26 1.77 1.23 2.33 2.19 4.14 3.38 6.39 1.7-1.64 3.03-2.93 5.06-4.89-2.71.12-4.25.19-5.79.26-.05-.32-.09-.64-.14-.95 1.93-.5 3.85-1 5.53-1.44 2.64 2.85-.21 4.42-.91 6.53 1.31.24 2.49.46 3.86.71-.11 1.12-.2 2.02-.29 2.92 3.62.47 7.22 1.28 10.75-.29l-.01-.01c-.29 1.57-1.54 1.43-2.67 1.49-3.98.21-7.03 1.71-8.08 5.92-.06.24.06.52.16 1.28 3.45.31 6.83 1.62 10.6-.05 5.08-2.24 10.36-4.02 15.96-6.15-1.01-1.89-1.95-3.61-2.83-5.35-.44-.87-1.06-1.79-1.08-2.7-.07-2.99 2.3-5.12 6.94-6.51 2.44-.73 3.69-.21 5.49 2.74 1.1 1.8 1.88 3.8 2.91 5.93 1.24-.39 2.34-.63 3.34-1.08 6.01-2.68 12.02-5.33 17.97-8.14 3.99-1.89 7.86-4.02 11.79-6.05l-.09.09c1.86-.73 3.84-1.25 5.55-2.25 4.3-2.52 8.92-4.3 13.45-6.31 9.29-4.11 18.43-8.54 27.54-13.03 12.97-6.39 25.86-12.95 38.77-19.46.26-.13.37-.56.84-1.31-2.44.22-4.49.15-6.39.64-3.03.79-6.03 2.9-8.92 2.7-3.18-.23-6.13.49-9.19.56-1.79.04-3.57.53-5.36.82-.02-.17-.05-.33-.07-.5l11.47-2.49c-9.88.16-19.61 2.04-29.47 1.74 3.81-.63 7.64-.99 11.47-1.42 7.23-.81 14.45-1.67 21.67-2.47 2.27-.25 4.77.11 6.77-.74 4.15-1.77 8.04-4.17 12.38-6.49-4.65-2.74-9.25-.84-13.21-1.74 1.83-.7 3.77-1.45 6.31-2.43 4.23 2.47 9.67.13 15.82.94-3.15 1.16-6.01.09-8.67 2.01h3.62c-3.61 2.38-6.4 4.22-9.68 6.38 5.1.64 8.94-.42 12.6-2.73 1.76-1.11 3.91-1.61 5.86-2.43.88-.37 1.72-.87 2.69-1.38-.76-2.85-2.86-5.32-1.17-8.66 1.82-.73 3.9-1.64 6.03-2.41 2.08-.76 3.57-.12 4.52 1.98.99 2.17 2.17 4.26 3.51 6.86 5.24-2.63 10.04-5.03 14.88-7.45-.31-.46-.43-.69-.6-.88-.09-.1-.3-.09-.37-.19-.06-.09 0-.26.01-.44 5.06-2.61 11.02-3.54 15.28-7.91-1.56-.1-2.98.17-4.33.66-4.29 1.56-8.55 3.22-12.85 4.77-.57.2-1.3-.04-1.96-.08 2.06-1.14 4.06-1.78 6.03-2.5 3.22-1.18 6.38-2.57 9.66-3.58 2.04-.63 3.86-1.23 4.6-3.75.44 1.67.69 3.21.37 4.62-.31 1.38-1.21 2.62-2.23 4.72 2.25-1.18 3.82-1.99 5.29-2.76-.9-5.81-2.89-10.75-6.86-15.27-1.96 1.39-3.88 2.75-5.79 4.11l.05-.03c-.76.16-1.51.33-2.27.49-.09-.19-.19-.39-.28-.58 2.42-1.64 4.83-3.28 7.29-4.95-1.98-5.41-4.9-10.01-9.34-13.89 1.15-.13 1.9-.22 3.14-.36-1.03-1.76-1.84-3.15-2.59-4.44-1.86.71-3.26 1.24-4.65 1.77-.08-.17-.15-.34-.23-.51 1.44-.99 2.87-1.99 4.14-2.87-.28-2.32-1.57-2.92-3.25-3.32-3.61-.87-7.14-2.17-10.78-2.81-4.72-.83-8.06-4.27-12.26-6.09-1.61-.7-2.46-3.38-3.43-5.28-2.84-5.52-6.12-10.71-4.78-17.67 1.08-5.65 2.53-10.97 5.34-15.95.51-.9.95-1.85 1.72-3.39-4.04 2-7.35 3.63-10.67 5.27 4.09-3.69 9.45-5.28 13.23-9.01-.34-3.17-2.01-5-4.9-6.47-.62.89-1.29 1.84-1.88 2.69-2.16.69-4.51 1.45-7.31 2.35 1.52-1.66 3.97-1.85 3.74-4.29l-.07.09c2.48.32 4.28-.91 6.05-2.6-.33-1.95-.39-3.96-2.48-5.04l.09.1c-.41-4.48-3.33-7.61-5.97-10.84-.38-.47-1.8-.28-2.69-.1-1.22.24-2.39.76-3.59 1.17 1.04-.97 2.09-1.93 3.42-3.17-5.79.75-5.79.75-7.83-1.33-3.22 1.48-6.51 2.99-9.8 4.5-.01.33-.03.66-.04.99 1.15.55 2.28 1.49 3.45 1.55 1.65.08 3.35-.4 4.99-.83 2.02-.52 4-1.23 5.99-1.86-2.07.69-2.35 3.63-5.17 3.65-4.28.03-8.58.83-12.57-1.55-.48-.29-1.42-.13-2.01.13-2.38 1.06-4.69 2.04-7.42 1.23-.53-.16-1.37.73-2.1 1.15 1.24 3.28 2.45 6.31 3.54 9.39.96 2.7.62 3.58-1.92 4.7-1.93.85-3.95 1.49-5.82 2.19-3.04-1.79-3.04-1.79-5.02-5.63-1.37-2.67-2.07-2.76-4.54-1.08-2.34 1.6-4.75 3.15-7.26 4.45-3.91 2.02-7.93 3.8-11.9 5.69-1.28.5-3.04.6-2.39 2.77 1.87 2.21 4.62-.09 7.37 1.73-3.55 0-6.39-.1-9.22.06-.81.05-2.29.9-2.26 1.28.25 2.74-2.05 2.59-3.39 2.78-7.49 1.04-13.27 5.66-19.62 9.06-3.6 1.93-6.98 4.32-10.67 6.03-4.5 2.1-9.23 3.71-13.91 5.55l.65 1.88c-1.68.1-3.65-.34-4.98.4-3.61 2-7.52 2.88-11.42 3.9l.02.07zm103.18-59.96c.56-.16 1.13-.24 1.64-.46 6.18-2.67 12.43-5.19 18.5-8.1 3.83-1.83 8.17-2.74 11.29-5.99.47-.49 1.61-.48 2.43-.47 3.54.06 5.89 1.89 7.29 5.07 2.07 4.72 4.09 9.47 6.27 14.15 2.95 6.34 6.02 12.64 9.07 18.94.82 1.7.96 3.25-.47 4.73-1.59 1.64-3.02 3.46-4.69 5-5.52 5.08-7.08 11.55-6.56 18.66.6 8.15 6.15 12.88 12.33 17.03 2.81 1.89 5.94 2.31 9.38 1.94 2.92-.31 5.96-.03 8.88.46 1.56.26 3.04 1.25 3.44 3.32.44 2.34 1.08 4.69 2.01 6.87 3.05 7.1 6.28 14.14 9.45 21.19 1.41 3.13 2.14 6.99 4.45 9.19 2.53 2.42 2 4.76 2 7.32 0 1.83-1.24 2.7-2.95 3.18-2.03.57-4.04 1.24-5.97 2.08-4.58 1.99-9.06 4.25-13.68 6.14-4.34 1.77-8.82 3.21-13.44 4.86l1.75 5.54c7.52-3.25 14.76-6.34 21.97-9.51 4.85-2.13 9.62-4.47 14.5-6.55 2.74-1.16 4.41-3.37 4.1-5.94-.41-3.42-1.56-6.88-3.03-10.02-3.43-7.4-7.12-14.67-9.35-22.57-2.28-8.09-6.75-15.05-11.56-22.03-.84.14-1.76.1-2.49.45-3.94 1.86-8.15 1.78-12.26 1.42-4.17-.36-8.09-1.7-10.85-5.3-5.75-7.48-5.3-24 7.85-28.87 1.42-.53 2.81-1.12 4.49-1.79-1.92-3.24-3.7-6.16-5.39-9.12-2.21-3.85-4.7-7.58-6.45-11.63-3.4-7.87-6.36-15.92-9.5-23.89-1.44-3.67-3.27-6.68-8.08-5.59-1.07.24-2.3-.28-3.42-.16-2.83.32-5.81.36-8.43 1.32-4.41 1.61-8.68 3.68-12.86 5.85-4.41 2.3-8.64 4.95-13.16 7.57-.51 1.97-.42 3.97 1.5 5.71zM192.43 359.3c-9.43 4.48-18.36 8.65-27.22 12.97-3.2 1.56-4.4 1.7-6.83-.87-1.34-1.42-2.35-3.24-3.18-5.03-5.08-10.9-10.13-21.82-15.02-32.81-.78-1.74-1.13-3.91-.9-5.79.13-1.11 1.81-2.01 2.72-3.07 2.88-3.36 5.74-6.72 7.13-11.08 1.92-6.02.5-11.7-2.05-17.02-2.44-5.07-6.29-8.99-12.32-9.65-4.11-.45-8.25-.72-12.38-.79-2.92-.05-3.93-.37-5-2.88-1.62-3.81-3.07-7.7-4.78-11.47-3.61-7.95-7.35-15.84-11-23.77-.4-.87-.69-1.84-.82-2.79-.43-3.37.75-6.26 2-9.4 1.22-3.06 2.87-4.2 5.68-5.35 8.42-3.44 16.65-7.35 25.15-11.17-1.18-1.76-2.03-3.02-3.07-4.57-4.15 1.89-8.17 3.72-12.18 5.56-5.34 2.44-10.71 4.81-15.99 7.37-4.3 2.09-6.91 5.38-6.93 10.46-.01 1.54-.75 3.09-1.05 4.24.65 1.23 1.47 2.25 1.74 3.39 1.08 4.57 4.26 8.5 4.11 13.44 4.65 9.55 7.3 20.11 14.34 28.47 1.28 1.52 2.42 3.17 3.36 4.43 4.13 0 7.85.08 11.56-.02 6.05-.15 10.7 2.46 13.38 7.68 2.72 5.31 3.31 10.81-.7 16.16-2.51 3.35-5.09 6.49-8.49 9-3.66 2.7-3.77 2.89-2.08 7.13 3.08 7.7 6.24 15.37 9.68 22.9 2.61 5.71 5.46 11.35 8.69 16.74 3.05 5.09 7.01 6.16 12.52 4.09 8.71-3.28 17.39-6.63 26.07-9.98 1.84-.71 3.61-1.57 5.63-2.46-.58-1.29-1.02-2.3-1.77-4.06zm93.39-210.06c-1.43-1.54-2.91-3.13-4.36-4.7-1.72 1.06-3.08 2.18-4.64 2.83-9.25 3.84-18.32 8.02-27.32 12.42-6.53 3.19-13.52 5.44-20.22 8.33-9.72 4.19-19.38 8.52-29.01 12.91-6.24 2.85-12.31 6.07-18.56 8.89-10.56 4.76-21.21 9.33-31.81 14.01-.88.39-1.63 1.05-2.75 1.79.76 1.88 1.47 3.62 2.22 5.49 45.82-20.8 91.1-41.37 136.45-61.97zM212.69 353.4c8.83-2.64 131.83-57.92 134.73-60.55-.95-1.91-1.93-3.88-2.94-5.93-1.11.49-1.77.77-2.41 1.07-7.67 3.53-15.33 7.1-23.02 10.6-5.2 2.36-10.52 4.45-15.64 6.96-8.48 4.15-16.81 8.61-25.26 12.81-10.5 5.23-21.01 10.46-31.62 15.46-8.27 3.9-16.71 7.45-25.09 11.12-3.38 1.48-6.8 2.85-10.37 4.34.62 1.6 1.08 2.76 1.62 4.12zm-51.73 12.62c4.69-2.23 8.58-4.09 12.47-5.94-4.76-2.08-9.43-.89-14.49-1.74.71 2.7 1.24 4.7 2.02 7.68zM298.7 149.87c-1.75.96-3.16 1.74-4.85 2.68 1.12 2.43 2.11 4.56 3.19 6.89 1.68-.54 2.96-.95 4.56-1.46-1.02-2.82-1.91-5.32-2.9-8.11zm-154.54 71.09c-1.91.81-3.36 1.42-5.19 2.2.91 1.83 1.57 3.16 2.39 4.83l4.55-1.97c-.6-1.74-1.06-3.05-1.75-5.06zm51.3 122.15c1.56 2.34 2.82 4.24 4.39 6.6 2.07-3.47.59-5.69-.55-8.25l-3.84 1.65zm156.64-69.99c-3.25 1.86-3.25 1.86-1.18 6.34 1.08-.32 2.2-.65 3.69-1.08-.97-2.04-1.74-3.64-2.51-5.26zm-185.2 83.93c-1.03-1.44-2.07-2.9-3.3-4.64-.51.1-1.36.28-2.27.46 1.56 3.95 2.3 5.58 5.57 4.18zm-4.2-9.05c.4.46.81 1.32 1.21 1.31 1.5-.02 2.27-.98 2.68-2.62-1.27.24-2.2.38-3.11.6-.21.05-.37.33-.78.71zm2.03 4.33c2.65.18 2.65.18 3.88-1.61-1.32.55-2.22.93-3.88 1.61zm3.33-142.61c.08.21.15.42.23.63.83-.3 1.65-.6 2.48-.89-.08-.22-.17-.44-.25-.66-.81.3-1.63.61-2.46.92z" class="st0"/>
  <path d="M287.97 199.03c4.45 9.88 8.54 18.99 12.64 28.09 3.29 7.31 6.58 14.61 9.89 21.91.9 1.99.62 2.76-1.83 3.88-6.9 3.17-13.83 6.27-20.75 9.4-15.41 6.97-30.81 13.95-46.21 20.93-3.4 1.54-6.83 2.99-10.18 4.63-2.94 1.44-5.77 3.13-8.68 4.65-2.9 1.52-4.34.84-5.71-2.2-3.41-7.55-6.9-15.07-10.42-22.57-2.62-5.58-5.44-11.06-7.94-16.68-1.03-2.32-1.54-4.9-2.1-7.4-.44-1.94.46-3.2 2.34-4.02 7.74-3.39 15.47-6.81 23.13-10.37 15.96-7.42 31.86-14.97 47.82-22.38 5.68-2.64 11.48-5.03 18-7.87zm-1.72 7.85c-5.89 1.1-80.44 33.72-84.45 36.81 2.68 9.07 16.92 38.93 19.75 41.47 3.02-.91 6.1-1.6 8.99-2.76 4.64-1.85 9.2-3.91 13.7-6.06 11.11-5.31 22.16-10.74 33.24-16.1 6.17-2.99 12.36-5.96 18.56-8.87 2.03-.95 4.14-1.73 6.27-2.6-6.44-13.88-13.64-27-16.06-41.89zm-34.69 95.54c.41 1.51-2.84 1.23-1.6 3.51.38.7-1.2 2.48-1.88 3.76-.32-.11-.65-.22-.97-.34 1.61 0 3.23.17 4.81-.03 8.91-1.1 17.82-2.21 26.7-3.5 3.5-.51 6.91-1.7 10.57-.16-1.58.17-3.16.33-4.74.51-7.07.82-14.13 1.65-21.2 2.45-2.4.28-4.9.19-7.19.85-1.94.55-3.61 1.99-5.46 2.93-1.11.57-2.32.95-3.48 1.41l.74-1.48c-9.46-2.02-17.77.97-26.56 4.75 1.14.6 1.96.76 2.15 1.2.27.61.07 1.43.07 2.32 6.09-.67 11.88-1.3 17.58-1.92.89-3.44 1.67-4.04 6.13-4.97-.98.76-1.95 1.52-2.68 2.09 1.8.77 3.65 1.56 6.33 2.7-6.69.8-12.46 1.56-18.24 2.17-3.39.36-6.81.42-10.2.73-1.11.1-2.32.32-3.26.87-1.97 1.18-3.74.92-5.9-.42 2.13-.65 4.01-1.22 6.34-1.93-1.78-1.97-3.59-.61-5.04-1.06l.07.08c-.19-1.36.67-1.57 1.75-1.84 2.32-.59 5-.84 6.81-2.19 2.77-2.08 5.77-2.93 8.96-3.84 3.24-.92 6.27-2.61 9.39-3.96-.88.99-1.76 1.98-3.2 3.61 2.78-1.41 5.58-.77 7.35-3.43-1.19-.19-2.01-.32-2.84-.45 2.92-1.45 5.83-2.89 8.75-4.34l-.06-.08zm-75.63-23.33c-.39.89-.52 2-1.09 2.34-2.45 1.44-4.98 2.76-7.6 3.84-.5.2-1.9-.7-2.24-1.4-1.97-4.11-3.83-8.28-5.54-12.5-1.28-3.16-.54-4.69 2.54-6.11.26-.12.53-.21.8-.32 5.68-2.21 5.63-2.18 8.08 3.34 1.16 2.6 2.58 5.09 3.83 7.65.48 1 .81 2.08 1.22 3.16zm-5.53.14c-.17-3.7-1.99-6.46-3.52-9.25-.75-1.35-2.29-1.63-3.44.01 2.52 6.62 4.1 8.87 6.96 9.24zm8.24 8.47c1.88 3.46 3.58 6.53 5.22 9.64.59 1.13 1.15 2.3 1.52 3.51 1.1 3.63 1.06 3.65-2.02 6.03-1.35 1.04-2.63 2.22-4.1 3.05-1.8 1.01-3.16.57-3.57-1.43-.76-3.75-2.65-6.86-4.54-10.05-.63-1.07-.84-2.41-1.13-3.65-.39-1.71.01-3.03 1.83-3.82 2.31-1 4.55-2.19 6.79-3.28zm1.09 16.83c.66-1.24 1.48-2.1 1.3-2.57-1.15-3-2.53-5.92-3.95-9.13-1.19.75-2.21 1.4-3.3 2.09 1.95 3.15 3.71 6 5.95 9.61zm169-50.83c-.12 1.72.27 3.46-1.4 4.38-2.07 1.13-4.31 2.21-6.6 2.64-1.36.25-2.94-.64-3.67-2.4-1.1-2.62-2.48-5.13-3.69-7.71-2.06-4.39-1.55-6.19 2.79-8.1 2-.88 3.53-2.76 6.16-2.5 1.96.2 3.05.48 3.49 2.7.74 3.7 1.92 7.33 2.92 10.99zm-3.66.9l-3.2-10.35c-2.14 1.2-3.89 2.19-5.71 3.22 1.8 3.28 3.34 6.08 4.92 8.96 1.39-.64 2.4-1.1 3.99-1.83zm-17.45-41.22c-5.12-3.52-6.96 1.66-10.37 2.31-.39-.45-.91-.81-1.09-1.29-1.54-4.28-3.07-8.57-4.48-12.89-.22-.68-.06-1.76.36-2.33.65-.88 1.59-1.62 2.55-2.17 6.02-3.4 7.03-3.03 9.63 3.43 1.17 2.91 2.35 5.81 3.35 8.78.32.94.05 2.08.05 4.16zm-8.26-14.57c-1.52 1.07-2.51 1.77-3.48 2.45 1.1 2.9 2.09 5.52 3.19 8.44 1.44-.73 2.53-1.29 4.02-2.05-1.23-2.92-2.38-5.63-3.73-8.84zM197.22 328.03c-1.81 1.26-3.42 2.41-5.06 3.5-2.61 1.73-5.42 1.08-6.83-1.67a147.07 147.07 0 01-3.83-8.13c-1.48-3.38-.84-5.37 2.3-7.16 1.84-1.05 3.78-1.91 5.58-2.81 3.72 3.43 4.39 4.83 7.84 16.27zm-8.18-.53c2.08-.18 3.39-.74 2.82-2.67-.76-2.55-1.77-5.03-2.78-7.84-1.6.8-2.82 1.42-4.5 2.26 1.55 2.85 2.95 5.44 4.46 8.25zm112.22-151.54c.78-1.29 1.26-2.7 2.23-3.56 4.61-4.05 7.83-3.12 10.05 2.53 1.16 2.97.69 6.56 3.46 8.98.3.26-.17 1.99-.75 2.55-1 .97-2.34 1.6-3.59 2.28-3.14 1.71-4.77 1.74-6.5-1.21-2.05-3.51-3.24-7.52-4.9-11.57zm7.88-1.21c-3.35 1-3.63 1.18-2.95 2.91 1.01 2.58 2.29 5.04 3.79 8.27 1.81-4.45.21-7.63-.84-11.18zm14 50.1c.43-.66.84-1.76 1.63-2.41 1.42-1.18 3.05-2.1 4.61-3.11 1.83-1.18 3.48-.67 4.33 1.09 1.91 3.96 3.67 8.01 5.22 12.13.69 1.83-.46 3.06-2.51 3.55-1.64.39-3.23 1.07-4.89 1.32-.96.14-2.6.01-2.93-.56-1.81-3.19-3.33-6.56-4.91-9.88-.23-.5-.29-1.09-.55-2.13zm3.65 1c1.81 2.55 3.33 4.67 5.3 7.44.76-1.37 1.67-2.25 1.49-2.81-.74-2.38-1.79-4.65-2.85-7.24l-3.94 2.61zM156.13 240.1c4.71 4.36 5.8 10.03 6.96 15.87-2.47 1.11-4.58 2.26-6.84 2.95-.78.24-2.37-.41-2.8-1.12-2.06-3.41-3.98-6.93-5.69-10.53-.81-1.7-.29-3.46 1.6-4.34 2.18-1.01 4.43-1.86 6.77-2.83zm1.49 13.33c.31-.23.62-.46.94-.68-.99-2.55-1.98-5.09-3.11-8.03-1.34.78-2.33 1.36-3.47 2.03 1.91 2.61 2.45 5.82 5.64 6.68zm-4.37 38.83c-1.14-1.58-2.55-3-1.89-5.31.15-.51-.61-1.53-1.2-1.96-2.99-2.18-6.06-4.25-9.19-6.42.5-1.26 1.55-.68 2.63-.24 2.17.87 4.36 1.67 7.09 2.71-.27-.66-.15-.51-.18-.4-.03.09-.24.12-.34.21-1.31 1.15.09 1.8.61 2.35 2.24 2.41 4.68 4.65 6.93 7.06 3.24 3.45 6.46 6.95 7.4 11.85.1.5.01 1.03-.46 1.66-.59-1.52-1.19-3.04-1.89-4.83-.47.81-.77 1.33-1.12 1.94-3.06-1.05-1.32-4.4-3.07-6.11-1.69-1.65-2.98-3.7-4.71-5.9-.32 1.57-.51 2.52-.71 3.48 0-.01.1-.09.1-.09zm197.56-68.25c-3.63-1.33-6.06-4.33-8.28-7.1-4.77-5.95-8.23-12.73-10.44-20.11-.67-2.22-.41-4.14 1.1-6.09 1.07 3.72 2.13 7.26 3.1 10.83 2.02 7.47 6.58 13.37 11.63 18.98 1.02 1.13 1.89 2.38 2.84 3.58l.05-.09zm-11.16-62.99c-2.5-.89-5.02-1.75-7.51-2.67-2.77-1.02-3.35-.79-4.84 2.45-1.46-.66-2.92-1.32-4.34-1.97.32-1.06.88-1.91.69-2.55-.21-.73-1-1.36-1.66-1.87-.74-.57-1.61-.97-3.18-1.88 3.34.58 5.8 1.43 8.22 1.32 2.4-.11 4.73-.9 7.4.92-1.85.3-3.25.52-4.95.79 3.58 1.97 6.83 3.76 10.09 5.55.01 0 .08-.09.08-.09zm-209.99 83.36c1.93-.16 3.88-.53 5.79-.41 1.13.07 2.22.9 3.94 1.65-1.42.65-2.45 1.59-3.29 1.44-6.13-1.08-9.75 2.23-12.74 6.86-.05.08-.27.06-.8.17.09-.8-.09-1.73.29-2.12 1.66-1.71 3.5-3.24 5.24-4.87.79-.74 2.71-.87 1.6-2.74l-.03.02z" class="st0"/>
  <path d="M129.69 244.37c-1.18-.75-2.37-1.49-3.65-2.3 3.14-.2 3.14-.2 3.63 2.31-.01 0 .02-.01.02-.01zm149.65-30.3c2.92.22 3.89 2.58 4.79 4.52 2.71 5.84 5.07 11.84 7.6 17.77 1.01 2.36 2.05 4.72 3.16 7.03 1.06 2.19.72 3.72-1.51 4.35-11.78 3.31-22.41 9.31-33.51 14.2-8.25 3.63-16.5 7.27-24.74 10.93-2.34 1.04-4.65 2.14-6.98 3.2-1.11.51-2.52 1.68-3.27 1.35-1.87-.82-3.98-1.99-5-3.63-1.63-2.62-2.44-5.75-3.64-8.64-1.86-4.48-3.64-9.01-5.68-13.41-1.7-3.65-1.5-3.25 1.44-6.34 3.57-3.76 8.41-4.71 12.7-6.72 17.35-8.13 34.86-15.91 52.32-23.8.78-.36 1.62-.57 2.32-.81zm-53.67 57.23c22.01-7.6 42.38-18.35 63.71-27.65-2.74-7.42-5.7-14.59-9.43-21.98-22.15 8.84-43.37 18.67-64.85 28.54 3.77 7.15 5.66 14.77 10.57 21.09z" class="st0"/>
  <path d="M250.3 242.47c.11-.37.1-.94.34-1.07 4.32-2.34 8.66-4.63 13.34-7.12-2.19 2.94-7.37 5.91-13.79 8.09l.11.1z" class="st0"/>
  <path d="M250.19 242.37c-2.05 1.16-4.09 2.31-6.14 3.47-.13-.26-.25-.52-.38-.78 2.11-1.07 3.86-2.96 6.62-2.6l-.1-.09z" class="st0"/>
</svg>
