<svg xmlns="http://www.w3.org/2000/svg" id="Layer_1" x="0" y="0" aria-hidden="true" version="1.1" viewBox="0 0 500 500" xml:space="preserve" fill="currentColor">
  <style>
    .st0{fill:#ef4723}
  </style>
  <path d="M257.12 119.2c8.39-2.39 16.84-2.68 25.35-2.45 1.07.03 2.19.08 3.22-.16 6-1.41 11.17.62 16.19 3.63 3.03 1.81 6.51 2.99 9.24 5.15 4.2 3.32 8.2 7 11.81 10.97 6.31 6.94 12.32 14.16 18.32 21.38 3.24 3.9 7.15 7.64 9.05 12.16 2.51 5.96 4.69 12.24 4.84 19 .28 13.31-1.84 26.33-3.67 39.46-1.69 12.15-6.2 23.13-10.87 34.21-2.69 6.39-4.56 13.13-7.46 19.41-3.29 7.13-7.22 13.96-11.02 20.84a208.436 208.436 0 01-16.91 25.82c-2.44 3.18-4.86 6.38-7.48 9.41-6.94 8.02-13.87 16.04-21.04 23.86-2.15 2.35-4.87 4.35-7.66 5.91-8.85 4.94-17.75 9.81-26.84 14.28-4.16 2.05-8.96 2-13.57 1.61-9.67-.82-19.35-2.13-28.31-5.95-7.75-3.3-15.71-6.34-22.71-11.23-.38-.26-.75-.69-1.16-.73-7.73-.92-10.83-8.06-16.18-12.16-5.66-4.34-8.1-11.06-11.43-17.14-5.16-9.42-4.12-19.36-3.51-29.34.21-3.37.44-6.76 1.02-10.09 1.03-5.92 2.31-11.79 3.51-17.67.31-1.51 1.04-3.03.95-4.51-.42-7.05 2.83-13.14 4.79-19.57.8-2.63 1.45-5.31 2.04-7.99 1.34-6.14 4.64-11.32 7.8-16.63 3.06-5.15 5.67-10.57 8.42-15.91 1.48-2.86 2.84-5.78 4.26-8.66 10.42-21.11 24.15-40.01 38.98-58.14 7.06-8.63 15.45-15.97 25.04-21.69 4.72-2.87 9.98-4.77 14.99-7.08zm-46.07 246.21c-.54-.22-1.18-.75-1.6-.61-2.02.66-3.93 1.71-5.98 2.23-2.04.52-4.21.57-6.31.83.01.32.03.64.04.96.84.2 1.75.72 2.5.54 2.34-.57 4.64-1.35 6.92-2.16 1.54-.55 3.02-1.28 4.54-1.96 2.52 2.17 4.85.17 7.19-.46.29-.08.2-1.53.33-2.66-3.06.64-5.74 1.01-7.63 3.29zm1.9-195.27l.11-.08c-4.08 4.4-8.26 8.72-12.19 13.25-2.11 2.43-3.78 5.23-5.66 7.87-7.13 10.04-14.3 20.06-18.49 31.82-.41 1.15-1.05 2.23-1.7 3.28-6.75 10.94-12.44 22.28-13.94 35.29-.1.91-.42 1.8-.68 2.68-1.63 5.61-3.74 11.14-4.83 16.86-2.85 14.86-4.11 29.82-.69 44.89.68-.13 1.25-.23 1.82-.34l-.13-.06c-.87 3.38.13 6.15 2.4 8.76 2.11 2.43 3.92 5.11 5.76 7.76.58.83 1.37 2.09 1.12 2.81-.68 1.93.22 2.95 1.55 3.85 5.45 3.7 10.9 7.39 16.43 10.98.66.43 1.74.19 2.63.26l-.19-.11c1.57.42 3.12 1.09 4.72 1.23 7.52.68 14.45-1.52 21.14-4.65 3.46-1.61 6.88-3.3 10.32-4.96l-.13-.06c-.21.73-.43 1.47-.81 2.78 7.32-2.75 13.69-6.44 19.22-11.34 6.45-5.71 12.69-11.69 18.68-17.89 5.22-5.41 10.43-10.94 14.79-17.03 5.06-7.07 9.48-14.66 13.65-22.31 4.04-7.4 7.55-15.1 11.05-22.77 3-6.57 5.71-13.28 8.42-19.98.74-1.82 1.69-4.01 1.29-5.72-.46-1.93.22-3.17.71-4.76 2.64-8.53 5.22-17.08 7.68-25.65 1.48-5.15 1.73-10.65 4.74-15.36.62-.96.7-2.38.74-3.59.11-3.69.15-7.39.06-11.08-.1-3.69-2.71-11.29-5.15-15.01-.14 5.56-.27 10.56-.39 15.56-.12 5.16-.23 10.31-.36 16.04-.79-.7-1.01-.8-1.01-.9.1-10.44.21-20.88.34-31.32.02-1.36.45-2.82.1-4.06-1.3-4.59-2.91-9.09-4.3-13.66-3.66-12.01-17.49-22.07-31.12-20.44-3.41.41-5.88 2.34-8.97 2.99l.17.08c.27-.6.53-1.21.82-1.87-2.54.24-4.93.48-7.33.68-7.58.63-14.73 2.75-21.11 6.88-3.18 2.06-5.83 4.92-7.58 8.39 4.43-3.1 8.58-6.46 12.81-9.72 2.44-1.87 2.8-1.82 5.88-.68-5.86 2.62-13.78 8.36-18.01 12.67-1 1.02-.92 1.98-.99 3.09-3.15-.29-4.37 2.66-5.9 4.27-3.11 3.27-7.63 5.84-7.76 11.32-.02.75-1.36 1.48-2.09 2.21.03-.53.06-1.06.16-2.66-3.06 3.72-5.43 6.61-7.8 9.51zm101.99 91.37c-.49 4.62.91 8.83 2.71 13.98 3.2-6.12.25-10.85-.2-16.59-1.33 1.4-1.95 2.05-2.55 2.67.14-1.21-.02-2.57.48-3.6 1.87-3.88.41-7.24-1.07-11.22-1.28 3.1-2.31 5.6-3.34 8.11.41 2.6-.5 4.9-1.94 6.91-2.73 3.83-1.2 7.36.24 11.35 4.36-6.11 4.35-12.15 1.68-18.36l3.99 6.75zm17.01-25.3c.34-.06.68-.13 1.01-.19.34-3.03.27-6.19 1.12-9.07 1.71-5.83-.8-10.88-2.31-16.14-.19-.65-.81-1.67-1.24-1.67-2.26 0-1.84-1.34-1.41-2.59 1.13-3.29 1.16-3.28-.67-6.44-1.45 3.84-2.04 7.49-.59 11.32.6 1.57 1.19 3.2 1.43 4.85.97 6.62 1.79 13.28 2.66 19.93zm-10.93 31.16c5.21-7.39 5.48-15.2 1.19-21.73-5.12 6.77-3.54 14.05-1.19 21.73zm-23.05 20.6c-4.78 7.41-5.63 16.15-2.31 19.48 6.5-5.56 2.74-12.32 2.31-19.48zm31.43-128.13c-.32.04-.64.08-.97.11.97 9.62 3.89 18.82 6.36 28.44 1.8-2.02 2.39-3.69 1.6-6.06-2.47-7.44-4.68-14.98-6.99-22.49zm10.65 33.81l-1.02.21c-1.86 6.72.17 12.96 2.41 20.15.89-2.04 1.41-3.23 2.37-5.41.27 2.18.42 3.29.56 4.41.5-1.5.5-2.94.1-4.26-.42-1.38-1.43-2.58-1.8-3.97-.98-3.68-1.76-7.42-2.62-11.13zm-8.21 10.99c4.15-7.98 1.48-14.79-1.15-21.93-2.96 7.51-.44 14.33 1.15 21.93zm-66.45 138.13c-5.32 4.25-5.03 10.12-6.83 16 7.95-4.96 8.39-6.05 6.83-16zm8.18-6.8c-.31-.21-.63-.42-.94-.63-1.62 1.71-4.25 3.22-4.64 5.17-.67 3.37-.95 7.08-.11 10.78 2.49-.73 3.52-2.11 3.85-4.06.62-3.74 1.22-7.5 1.84-11.26zm-24.3 29.61c6.6-3.04 9.56-8.4 8.49-14.83-6.54 5.61-6.85 6.15-8.49 14.83zM322 241.7c-.27-.87-.81-2.32-1.15-3.81-.34-1.52-.47-3.09-.79-5.37-5.3 9.63-5.6 12.48-1.81 17.12 1.16-2.44 2.32-4.91 3.75-7.94zM278.08 331c-.63 7.07-.48 9.25.91 11.78 1.29-1.37 3.29-2.51 3.57-3.98.64-3.31 1.13-6.82-.18-10.55a683.23 683.23 0 01-4.3 2.75zm23.76-52.12c-4.19 5.75-2.25 11.27-.98 17.24 4.42-5.64 3.77-11.15.98-17.24zm-6.38 46.13c4.6-5.43 5.92-10.12 4.7-16.66-5.45 7.06-6.19 9.67-4.7 16.66zm33.25-99.57c-.37.08-.75.15-1.12.23-2.81 6.92.68 13.16 2.34 19.71.84-1.03 1.63-2.17 1.49-3.19-.78-5.61-1.78-11.18-2.71-16.75zm-125.91 146c4.47 1.71 8.63 3.29 13.58 5.18-.74-2.32-2.26-4.01.33-5.14.59-.26.5-2.09.81-3.59-2.4.74-4.27 1.32-6.09 1.88l-.14 2.83c-2.49-3.29-2.49-3.29-8.49-1.16zm141.99-170.97c.36-1.06 1.24-2.27.99-3.17-1.56-5.66-3.38-11.26-5.34-17.63-2.78 8.28 1.79 14.18 4.35 20.8zm-31.24 69.3c-3.87 9.37-3.87 9.37-1.22 14.4 3.83-4.54 5.36-5.17 1.22-14.4zm-10.88 44.56c5.39-5.11 6.58-6.26 2.89-13.72-5.07 3.67-3.27 8.7-2.89 13.72zm24.19-60.8c2.93-5.85-.38-11.25-1.3-16.86-3.99 5.88-.01 11.25 1.3 16.86zm-.98 8.71c-2.35 5.33-5.92 9.79-3.22 16.33 3.04-5.22 5.67-9.88 3.22-16.33zm-36.4 41.84c-3.81 4.92-6.44 9.09-4.5 14.66 5.82-3.33 4.49-8.72 4.5-14.66zM282.74 316c-.42-.17-.84-.33-1.26-.5-.89 2-1.67 4.06-2.7 5.99-1.96 3.65-1.97 3.86 1.76 6.51.85-1.12 2.34-2.2 2.45-3.41.27-2.83-.12-5.72-.25-8.59zm-44.3 49.12c6.58-1.45 8-3.59 7.17-10.37-1.54.85-3.91 1.39-4.22 2.49-.53 1.91-1.29 3.41-2.5 4.9-.48.59-.29 1.71-.45 2.98zM338.57 225.9c3-6.28 2.13-7.78-.61-17.69-1.18 6.21-2.67 11.82.61 17.69zM274.78 325c-2.4 2-4.51 3.57-6.38 5.38-2.12 2.04-2.05 3.24-.05 6.42 3.4-3.07 7.41-5.64 6.43-11.8zm56.58-168.18c.94 7.5 3.7 14.45 6.04 21.54 1.45-3.86-.42-7.18-1.44-10.62-.61-2.05-1.93-4.13-1.79-6.11.18-2.41-.78-3.68-2.81-4.81zm-69.09 178.49c-4.33 2.83-8.39 5.04-7.52 10.8 6.77-3.59 7.32-4.34 7.52-10.8zm43.46-51.95c3.83-5.03 1.88-9.47.31-14.24-3.68 4.8-2.88 9.3-.31 14.24zm3.82 21.12c4.3-3.59 3.29-8.03 2.13-12.88-1.05 1.18-2.79 2.35-2.62 3.09.72 3.24-2.19 6.58.49 9.79zm-44.3 52.73c-2.81 3.76-8 5.26-9.19 11.34 1.82-1.15 2.98-1.82 4.07-2.58 1.11-.78 2.09-1.75 3.24-2.46 3.17-1.96 3.19-1.92 1.88-6.3zm72.45-124.7c-2.17 4.68-6.21 8.99-2.69 14.78 1.24-4.86 4.05-9.41 2.69-14.78zm-21.11 50.02c-3.92 5.11-5.34 7.35-1.86 12.31 3.33-3.53 3.33-7.6 1.86-12.31zm26.58-100.23c2.23-8.89 1.36-11.67-4.56-14.79 1.51 4.89 2.89 9.36 4.56 14.79zm-58.34 154.85c4.65-3.42 4.7-3.55 3.49-9.36-.5 1.58-.88 2.81-1.36 4.35-.49-.75-.82-1.04-.78-1.24.48-2.03 1.02-4.05 1.54-6.08-3.34 1.57-3.34 1.57-2.89 12.33zm40.29-111.66c2.56-6.48 2.58-6.91.69-13.2-3.04 5.14-3.2 7.33-.69 13.2zm-81.61 139.7c-4.13 1.19-7.22 2.69-6.34 7.49 5.2-.91 5.86-1.65 6.34-7.49zm91.94-164.77c-.9 4.18-3.35 8.23-.3 12.44.06-4.19 3.1-8.19.3-12.44zm-12.59 23.38c-2.88 4.4-1.78 7.61-.05 12.09 2.51-4.03 1.1-7.91.05-12.09zm-31.82 107.4c3.58-3.1 2.13-6.99 2.02-11.63-3.25 4.11-2.15 7.95-2.02 11.63zm16.13-37.99c4.13-5.96 4.13-5.96 1.42-10.43-1.72 3.29-2.94 6.45-1.42 10.43zm14.7-149.52c1.27 4.13 2.34 7.59 3.48 11.3 2.42-4.71.86-8.03-3.48-11.3zm-80.28 210.63c6.08-2.15 6.42-2.53 6.35-7.81-2.27 2.91-6.26 3.53-6.35 7.81zm-17.46 11.8c-3.02-.11-4.63 1.17-5.07 3.85-.09.52.13 1.1.25 1.88 1.56-.4 2.85-.73 4.36-1.12.16-1.61.31-3.06.46-4.61zm59.47-58.75c.43.21.86.41 1.29.62 2.34-3.92 4.67-7.84 7.01-11.76-.37-.22-.75-.45-1.12-.67-1.42 4.52-6.05 7.11-7.18 11.81zm-6.04 11.55c2.2-3.61 4.89-5.99 4.71-10.74-2.39 3.48-5.55 5.51-4.71 10.74zm14.32-19.13c-1.76 3.57-1.11 7.19-.2 10.81 1.47-3.58.85-7.19.2-10.81zm-2.74 18.54c-4.63 1.88-4.78 2.11-3.52 5.53 2.22-1.18 4.52-2.29 3.52-5.53zm40.48-64.13c-2.88 3.44-2.4 6.22-.88 9.35 2.9-2.94.71-5.79.88-9.35zm-69.41 91.98c-6.74 2.59-7.31 3.2-7.02 6.81 2.4-2.33 4.71-4.57 7.02-6.81zm59.78-69.04c-2.42 2.63-1.52 5.42-1 8.55 2.77-2.82 2.41-5.57 1-8.55zm-83.26 85.11c-4.38 1.13-4.38 1.13-3.95 5.28 3.28-.13 3.6-2.41 3.95-5.28zM273.68 346l1.13.27c2.7-3.26.78-7.08.6-10.7-.58 3.48-1.16 6.95-1.73 10.43zm28.08-44.31c1.55-2.63 5.47-4.48 3.14-8.85-1.43 2.93-3.55 5.33-3.14 8.85zm-71.47 63.02c-2.78.79-4.84 1.64-4.16 4.73 3.32-.43 3.32-.43 4.16-4.73zm102.24-116.08c-2.42 2.51-1.69 5.18-.89 8.24 2.25-2.78 2.58-5.35.89-8.24zM231.05 373.06c4.16-.48 4.16-.48 3.6-4.18-1.55 1.01-4.22.81-3.6 4.18zm44.31-23.96c-3.46 1.01-2.89 3.64-3.35 6.57 2.64-1.86 3.87-3.61 3.35-6.57zm60.07-124.3c-.21 3.21-.35 5.46-.49 7.71 2.15-2.09 2.98-4.29.49-7.71zm-96.5 128.85c-1.98 1.79-4.25 2.27-4.88 5.28 2.8-.88 4.77-1.65 4.88-5.28zm8.54 4.75c.37.13.74.25 1.12.38l1.92-6.3c-2.61 1.43-2.42 3.82-3.04 5.92zm29.83-11.28c.27.25.54.49.8.74 2.89-2.2 2.89-2.2 3.9-5.59-1.95 2.01-3.32 3.43-4.7 4.85zm-27.26 1.79c.39.15.78.3 1.17.46.62-1.89 1.24-3.79 1.86-5.68-3 .92-2.53 3.28-3.03 5.22zm18.34 9.99c1.43-1.5 1.88-3.13 1.26-5.2-2.68 1.49-1.48 3.48-1.26 5.2zm-47.57 4.95l1.01.83 3.27-4.05c-1.94.52-4.32.56-4.28 3.22zm125.07-174.74c.33-.02.67-.05 1-.07-.15-2.18-.31-4.35-.46-6.53-.27.02-.55.03-.82.05.09 2.18.19 4.36.28 6.55zM292.51 312.9c-2.01 2-1.69 3.37-.95 5.05 2.34-1.43 1.31-2.97.95-5.05zm-17.42 5.25c-1.04 1.55-1.9 2.84-3.1 4.62 2.86-.74 4.49-1.54 3.1-4.62zm-43.05 41.57c-2.45.33-3.69.69-4.23 2.74 1.12-.35 1.86-.46 2.47-.8.47-.26.77-.82 1.76-1.94zm-2.39 12.42c-2.94.04-2.94.04-3.9 2.18 1.35-.76 2.23-1.25 3.9-2.18zm34.43-32.93l.93.15.51-3.36c-.26-.04-.52-.09-.78-.13-.22 1.11-.44 2.22-.66 3.34zm-11.34 30.19l-.46-.61c-.91.72-1.81 1.44-2.72 2.15.12.17.25.34.37.51.93-.69 1.87-1.37 2.81-2.05zm-5.49-6.89h-.24l-.54 2.76c.25.02.5.03.76.05 0-.94.01-1.88.02-2.81z" class="st0"/>
  <path d="M185.61 311.24c-.85 2.84-1.59 5.33-2.35 7.82-1.11 3.62-3.27 6.18-7 7.36-5.17 1.65-9.3-.44-10.43-5.81-1.12-5.31-1.37-10.73.18-16.03.99-3.39 2.23-6.7 3.47-10.35-.81-1.67-1.65-3.66-2.7-5.53-2.66-4.7-3.7-9.94-1.6-14.69 2.1-4.74 5.05-9.56 11.07-10.73 4.35-.85 7.95.23 10.48 4.04.85 1.28 1.71 2.58 2.33 3.98 2.19 4.92 5.87 8.6 9.8 12.09 2.19 1.93 4.42 3.82 6.61 5.75 5.79 5.14 14.86 2.52 16.71-4.98 1.75-7.09 1.29-14.15-1.73-20.83-6.34-14.03-10.44-28.71-10.94-44.04-.38-11.7 2.2-23.06 9.77-32.56 1.88-2.36 4.48-4.19 6.9-6.06 1.76-1.36 3.11-3.15 5.86-3.4 2.28-.2 4.47-1.92 6.62-3.1 2.34-1.29 4.91-1.31 7.44-1.75 3.18-.56 6.26-1.66 9.4-2.47.88-.23 1.82-.22 2.54-.31 2.49-4.39 4.81-8.7 7.36-12.87 1.96-3.21 4.6-5.49 8.55-6.43 4.31-1.03 6.88 1.47 9.79 3.62 2.44 1.8 1.82 4.26 1.62 6.69-.38 4.58-2.49 8.53-4.38 12.56-.2.42-.43.82-.65 1.23-3.55 6.73-3.78 6.88.52 13.11 6.05 8.77 6.02 18.42 4.96 28.35-.37 3.48-2.4 6.1-4.74 8.26-2.42 2.23-5.49 3.22-8.98 2.06-3.7-1.23-6.19-3.32-6.51-7.45-.25-3.22-.33-6.49-1.03-9.62-.7-3.09-1.51-6.44-3.31-8.93-2.14-2.94-6.06-3.71-9.53-4.59-2.64-.67-4.24 1.53-5.97 2.96-7.21 5.94-7.93 14.23-7.81 22.68.03 2.43.73 4.88 1.36 7.26 2.36 8.9 4.23 17.91 8.56 26.25 2.23 4.29 3.35 9.24 3.3 14.3-.05 5.22.19 10.44.18 15.66-.01 7.6-3.14 14.06-7.84 19.77-2.63 3.2-5.52 6.21-8.53 9.05-3.02 2.84-6.99 4-10.94 4.62-12.65 1.99-24.78.55-35.99-6.13-.52-.29-1.16-.39-2.42-.81zm47.12-13.33l.1-.15c-.72.06-1.44.13-2.15.19-.06-.22-.11-.44-.17-.65 4.12-2.92 8.24-5.83 12.96-9.17-.02-1.29-.05-3.25-.08-5.9-3.5 2.99-4.96 6.82-8.73 8.26 2.04-4.09 3.86-8.05 5.97-11.84 2.72-4.89 3.05-9.83 1.41-15.13-2.65-8.53-4.84-17.22-7.73-25.67-3.84-11.2-3.96-22.25-.74-33.61 2.86-10.1 12.77-17.26 25.46-11.63 4.79 2.13 8.03 5.57 9.41 10.73 1.31 4.92 2.68 9.83 4.16 14.7.26.84 1.08 1.69 1.86 2.12.45.25 1.36-.35 2.12-.58l-.89-2.21c1.37-2.36 5.23-3.14 4.24-7.63-1.04 1.55-1.7 2.54-2.56 3.83-1.81-3.73 3.62-5.26 1.98-8.79-1.03 1.02-1.85 1.85-3.34 3.33.47-3.28.63-5.57 1.14-7.78.78-3.35.33-6.6-1.36-9.39-2.3-3.79-5.02-7.36-7.81-10.82-.88-1.09-2.51-1.8-3.94-2.18-6.24-1.68-12.67-1.7-18.72.17-11.18 3.46-19.89 10.4-25.17 21.03-2.75 5.52-5.25 11.28-4.14 17.72.45 2.64 1.59 5.07 3.95 7.33-.55-4.39-1.03-8.18-1.51-11.98 2.9-4.32 2.69-9.64 4.58-14.27 1.86-4.54 6.34-6.69 9.51-10.05.4-.42 1.15-.89 1.63-.79 2.93.57 4.43-1.68 6.39-3.04 2.02-1.41 3.99-2.91 6.09-4.17.73-.44 1.82-.28 3.69-.52-2.18 1.54-3.48 2.46-5.51 3.9 3.57.54 5.59-.35 7.43-1.9 1.46-1.23 2.98-2.32 5.84-2.11-3.69 2.74-6.71 4.99-9.76 7.21-.34.25-.96.48-1.27.33-1.93-.89-2.81.74-3.94 1.61-1.56 1.19-2.96 2.58-4.56 4-.12-1.01-.21-1.78-.39-3.27-1.5 1.17-2.62 2.76-3.55 2.66-3.91-.43-3.6 2.83-4.67 4.83-1.22 2.29-2.26 4.68-3.42 7.01-.06.13-.5.06-.77.08-.07-.67-.15-1.34-.22-2.01-.25-.07-.5-.14-.74-.21-1.47 3.44-2.94 6.89-4.41 10.31.65.66 1.18 1.2 1.74 1.76-3.41 3.45-.65 6.97-.11 10.47-1.48 1.24-2.87 2.81-5.58.49 1.28 7.45 2.41 14.1 3.55 20.74.77-3.16 1.09-6.19 1.35-9.22.14-1.61.27-3.24.22-4.85-.03-.94-.44-1.86-.84-3.39 1.26 1.13 4.05 2.45 4.66 2.5.85 4.16-.81 8.18-.49 12.31.15 1.99-1.34 1.12-2.24 1.13.28 4.84-.12 9.77 2.44 14.2.62 1.06 1.13 2.18 1.67 3.29 3.79 7.75 5.45 15.72 1.83 23.98-1.48 3.37-3.24 6.8-6.68 8.59-7.18 3.76-14.06 2.41-20.39-2.09-3.6-2.56-6.93-5.51-10.33-8.36-3.73-3.13-7.4-6.33-11.12-9.52-3.66 1.02-.52 4.42-2.16 6.56-1.28 1.67-1.31 4.67-1.09 7 .24 2.53 1.41 4.98 2.18 7.48.5-.26 1.14-.6 2.17-1.15-.37 3.53 1.77 5.4 4 7.41 1.64-.62 3.15-1.2 4.15-1.58 1.35 1.31 2.3 3.01 3.62 3.37 3.58.99 6.3 3.19 9 5.45 3.12 2.61 6.83 3 10.75 3.68-.36-.93-.58-1.52-1.02-2.67 1.23.54 1.9.81 2.56 1.12 2.11 1.01 4.12 3.25 6.49.43.12-.15.64-.19.79-.06 3.11 2.54 5.68-2.67 8.73-.58 1.32-1.23 3.75-1.57 3.59-4.02-2.18-.81-3.98 1.61-6.57.22 2.45-.76 4.38-1.24 6.21-1.95 1.38-.54 3.09-1.06 3.87-2.15 2.51-3.48 4.33-7.36 4.79-12.14-3.14 2.55-6.28 5.1-9.41 7.65zm-51.51 10.02c-2.39-2.32-4.35-4.22-6.51-6.32-.75 2.07-1.62 3.88-2.04 5.79-.72 3.28-1.52 6.59-.52 10.01.54 1.82 1.31 3.04 3.95 2.85l5.12-12.33zm94.4-151.6c-1.08.98-2.54 1.76-3.15 2.97-1.58 3.14-3.12 6.37-4 9.74-.52 2.01-1.3 3.47-3.49 4.6 2.09.96 3.59 1.64 4.94 2.27.69-.48 1.07-.73 1.44-1 3.75-2.79 3.31-7.39 4.57-11.19.7-2.06-.14-4.62-.31-7.39zM173.7 285.93c1.11-4.16 2.3-8.62 3.46-12.93-4.82 2.64-6.43 9.18-3.46 12.93zm53.05-89.84l-1.2-.33-1.17 3.86c.32.11.63.22.95.32.47-1.28.94-2.57 1.42-3.85zm42.08 103.04c-.16.81-.08 1.79-.52 2.4-2.6 3.61-5.33 7.13-7.99 10.69-1.32 1.76-3.51 3.04-2.66 5.92.17.57-1.18 1.62-1.88 2.41-2.6 2.95-5.04 6.08-7.89 8.77-3.1 2.93-6.6 5.45-9.98 8.19-.83-.86-1.46-1.51-2.25-2.33 3.17-2.43 6.4-4.74 9.46-7.28 4.75-3.94 8.75-8.54 11.64-14.04-.1-.24-.19-.48-.29-.73 1.58-1.84 3.13-3.7 4.74-5.51 2.53-2.85 5.09-5.67 7.66-8.5.02.02-.04.01-.04.01z" class="st0"/>
  <path d="M286.88 272.8c-2.43 4.59-4.68 9.29-7.33 13.75-2.1 3.54-4.58 6.87-7.11 10.12-.84 1.09-2.36 1.66-3.59 2.46-.02 0 .04.01.01 0 .62-.77 1.67-1.46 1.85-2.32 1.05-5.09 4.19-9.02 6.74-13.34 3.8-6.44 7.09-13.17 10.62-19.76.57-1.07 1.25-2.09 1.87-3.13.11.81.23 1.62.34 2.43-1.1 1.93-2.24 3.85-3.28 5.81-.67 1.27-1.68 2.61-.12 3.98zm-100.45 87.22c-.09-.44-.17-.88-.25-1.26 3.93-.83 8.01-1.28 11.8-2.58 4.9-1.67 9.59-3.96 14.31-6.13.8-.37 1.31-1.44 1.86-2.26.68-1 .61-.85 2.8-.49 1.17.19 2.46-.34 4.39-.67-.67.86-.87 1.38-1.23 1.54-6.24 2.7-12.5 5.38-18.77 8.02-4.83 2.04-9.79 3.59-15.11 3.72.01.01.2.11.2.11zm40.44-24.93c.96 1.39.68 2.23-.82 3.13-2.04 1.21-3.87 2.77-5.97 4.3.96.67 1.39.96 1.82 1.26-2.07 2.45-3.81.06-5.62-.28 3.49-2.78 7.01-5.57 10.59-8.41zm3.77 3.89c-.24 5.08-4.12 5.3-7.51 6.5 2.59-2.24 5.05-4.37 7.51-6.5zm37.78-31.67c-2.7 2.9-5.4 5.8-8.1 8.71-.26-.24-.52-.49-.78-.73l8.12-8.69c.26.24.51.48.76.71zm-11.96 5.83c.09.24.19.48.29.73-1.99 1.6-3.98 3.19-5.97 4.79l-.59-.74c2.09-1.59 4.18-3.19 6.27-4.78zm-34.04 38.41l6.27-3.51c-1.4 2.57-3.75 3.28-6.38 3.45l.11.06zm10.31-53.64c1.49-.27 2.99-.53 4.48-.8.08.13.17.26.25.4l-6.99 3.99c-.17-.23-.34-.47-.51-.7.95-1 1.9-2.01 2.85-3.02.01-.01-.08.13-.08.13z" class="st0"/>
</svg>
